<svg xmlns="http://www.w3.org/2000/svg" viewBox="0 0 197.76 68.36"><defs><style>.cls-1{fill:#c5b000;}</style></defs><title>Asset 3</title><g id="Layer_2" data-name="Layer 2"><g id="Layer_1-2" data-name="Layer 1"><g id="_Group_" data-name="&lt;Group&gt;"><circle id="_Path_" data-name="&lt;Path&gt;" class="cls-1" cx="16.94" cy="9.32" r="9.32"/><path id="_Compound_Path_" data-name="&lt;Compound Path&gt;" class="cls-1" d="M172.63,8.9H156.86L137.59,54.49v0H105.88V45.08h28.34V32.18H105.88V23.24h31.29V9.32H89.69V24.67C84.76,15.27,74.35,9.32,59.61,9.32H36.83v51H31.22c-4.74,0-5.61-1-5.61-5.87V24H0v8.28H4c5.5,0,5.62,1.37,5.62,6.62V54.46c0,4.75-.87,5.87-5.87,5.87H0v8H59.27c14.9,0,25.44-6.22,30.42-15.82V68.36h59.24l4.22-10.54h22.77l4.3,10.54h17.54Zm-96.49,30c0,9.53-6.5,14.93-16.28,14.93H53.2v-30h6.66c9.78,0,16.28,5.48,16.28,14.93ZM158,45.08l6.66-16.78,6.58,16.78Z"/></g></g></g></svg>