<svg xmlns="http://www.w3.org/2000/svg" width="251.87" height="306.58" viewBox="0 0 251.87 306.58"><title>award</title><g id="a161c67f-d27c-4e88-9a7f-d96d18343d84" data-name="Layer 2"><g id="b8ff1f48-7df4-4900-ab0e-f55ca5b9c0a7" data-name="Corgi"><rect width="251.87" height="306.58" style="fill:none"/><path d="M154.69,203.76l-7.42,42,3-1.3a7,7,0,0,1,6.41.43l3.12,1.8,3.74-1.46a6.86,6.86,0,0,1,5.08,0l3.74,1.46-6.14-42.88Z" style="fill:#bc9f22"/><path d="M166.25,203.76l6.14,42.88-3.74-1.46a6.86,6.86,0,0,0-5.08,0l-3.74,1.46V203.76Z" style="fill:#a38b29"/><circle cx="159.83" cy="201.77" r="14.49" style="fill:#d3b418"/><circle cx="159.83" cy="201.77" r="14.49" transform="translate(-47.93 353.74) rotate(-87.8)" style="fill:none;stroke:#d3b418;stroke-linecap:round;stroke-miterlimit:10;stroke-width:2px;stroke-dasharray:0,3.0334932804107666"/><ellipse cx="159.83" cy="201.77" rx="12.61" ry="12.2" style="fill:none;stroke:#fff;stroke-linecap:round;stroke-miterlimit:10;stroke-dasharray:0,2.997732400894165"/></g></g></svg>