<svg xmlns="http://www.w3.org/2000/svg" width="251.87" height="306.58" viewBox="0 0 251.87 306.58"><title>corgi_9</title><g id="b7ad18c1-e9cd-4406-bd14-b865ec19d81a" data-name="Layer 2"><g id="f7b29c2d-9d12-4d85-b730-78acc2b49f2f" data-name="Corgi"><g id="bb44a83d-fde3-4c9f-a3a0-3e2c741ae5ba" data-name="Corgi"><ellipse cx="129.9" cy="258.67" rx="84.13" ry="15.51" style="opacity:0.25"/><g id="a3a95948-b9f4-4c55-a950-36ac3a497c8d" data-name="b3fff5ae-8c55-48a5-912e-80df78536539"><g id="be157a1e-eba9-4416-8aa7-2f691d49642f" data-name="a09452f0-8f17-4e0d-94ae-2cd335ac0935"><path d="M107.78,157.69v0m73.38,84.43c-.92,4.21-1.92,8.4-2.42,12.68,5,0,10-.06,15,0,1.14,0,1.44,0,1.21-1.27-.35-1.87-.4-3.78-.64-5.67-.64-5-.77-10.07-1.92-15-1.29-5.53-4.14-9.94-9.72-12.1v-.13a51.92,51.92,0,0,0-6.19-21.19,4.24,4.24,0,0,1-.52-4c5-13.1,8.62-26.48,7.82-40.7a63.35,63.35,0,0,0-.71-8.92h0c-.44-3.35-2.27-8.7-3.41-12.13-1.3-3.9-3.92-10.87-3.92-10.87a3.17,3.17,0,0,0,.83-1.34c2.16-5.65,5.45-11.27,7.66-16.93a376.92,376.92,0,0,0,13-39.32c1-4,2.08-10.23,2.37-12.09a17.37,17.37,0,0,0,.15-4.6c-.25-3.62-3.76-4.72-8.25-3.72-5.49,1.23-10.31,3.88-15,6.78a123.19,123.19,0,0,0-22,17.54,65.28,65.28,0,0,0-8.7,10.3c-.33.51-.56.55-1.09.23A39.84,39.84,0,0,0,122,73.51a33.65,33.65,0,0,0-13.18,3.27c-.48.23-.85.39-1.26-.2-6.62-9.44-15.17-16.9-24.4-23.64A72.84,72.84,0,0,0,65.27,42.83a25.23,25.23,0,0,0-4.66-1.32,13.08,13.08,0,0,0-2.68,0c-2.66.45-3.91,1.86-4.32,4.7a16.51,16.51,0,0,0,0,3.94c.28,1.75.51,3.5.85,5.23a238.86,238.86,0,0,0,9,31.09c3.74,10.78,7.85,21.42,12.1,32,.21.52.35.74.72,1.52a80.28,80.28,0,0,0-5.23,20.18m0,0a117.11,117.11,0,0,0,1.36,20.75c1.86,11.82,5.13,23.2,11,33.7a4,4,0,0,1,.08,4.57,23.39,23.39,0,0,0-1.71,4.15,62.7,62.7,0,0,0-3.59,18.17A53.41,53.41,0,0,0,82.75,244l0,.08a53.49,53.49,0,0,1-4.55-22.58c-.09,0-.2,0-.15.07-5.36,3.36-7.64,8.57-8.36,14.57-.72,5.82-1.28,11.65-2,17.47-.16,1,0,1.2,1,1.2H86.56c1.21,3.29,1.46,6.59,2.66,9.9.17.51.34.85,1,.85h22.36c.27-.1.27-.07.33-.1.5-.18.82-.23.83-.68.3-1.84.64-3.68,1-5.51a.85.85,0,0,1,1.06-.87c2.6.21,5.21.54,7.82.54,9.18.08,18.36.21,27.51-.71,1.27-.13,2.13-.14,2.52,1.52s1.13,3.24,1.69,4.87a1.21,1.21,0,0,0,1.36.95q9.43-.07,18.87,0c.95,0,1.21-.35,1.36-1.17.6-3.24,1.24-6.47,1.87-9.71.5-4.28,1.5-8.47,2.42-12.68" style="fill:#f7f1e7"/><path d="M190.06,62.11c-.37,6-1.9,12.28-3.59,18.59-3.33,12.33-7.36,24.43-11.68,36.44-.12.28-.25.56-.4.84-.16-.27-.36-.54-.49-.81a112,112,0,0,0-14.83-24.25,67.59,67.59,0,0,0-8.19-8.47c-.38-.31-.54-.58-.22-1A87.09,87.09,0,0,1,179.47,58a17.74,17.74,0,0,1,6.28-1.94C188.43,55.73,190.06,57.84,190.06,62.11Z" style="fill:#f4eee1"/><path d="M78.22,221.51a53.31,53.31,0,0,0,4.56,22.58,9.58,9.58,0,0,0,2.32,3.5c2.23,1.92,2.51,4.72,3.51,7.23H68.71c-1,0-1.16-.17-1-1.2.72-5.82,1.28-11.65,2-17.47.72-6,3-11.21,8.36-14.57C78,221.51,78.13,221.51,78.22,221.51Z" style="fill:#e2cfa9"/><path d="M85.15,245.7c2.23,1.92,2.46,6.61,3.46,9.12H68.71c-1,0-1.16-.17-1-1.2.72-5.82.74-6.37.74-6.37C68.78,244.23,83.58,244.36,85.15,245.7Z" style="fill:#d3bf9c"/><path d="M178.75,254.82c.5-4.28,1.5-8.47,2.42-12.68a73,73,0,0,0,1.53-21.36c5.58,2.16,8.43,6.57,9.72,12.11,1.15,4.93,1.28,10,1.92,15,.24,1.89.29,3.8.64,5.67.23,1.23-.07,1.29-1.21,1.27C188.77,254.76,183.76,254.82,178.75,254.82Z" style="fill:#e2cfa9"/><path d="M62.77,59.81c0-4.83,1.72-7,4.45-6.64a20.29,20.29,0,0,1,6.66,2.09,71.28,71.28,0,0,1,14.31,10,88.93,88.93,0,0,1,14.16,15.05c.56.76.59,1.18-.2,1.79C94,88.4,88.22,96.75,83.41,105.74c-1.64,3.13-3.06,6.26-4.59,9.39-.09.2-.21.39-.31.58a3.19,3.19,0,0,1-.3-.58C75.64,107.56,73,100,70.54,92.42a209.63,209.63,0,0,1-6.91-26.09C63.18,63.81,62.93,61.27,62.77,59.81Z" style="fill:#f4eee1"/><path d="M104,114a7.26,7.26,0,0,1,1.17-3.73c1.91-3.21,5.37-3.24,7.15,0a9.64,9.64,0,0,1,.37,8.85c-.81,1.93-2.16,3.32-4.53,3.07-1.49-.14-3.42-2.23-4-4.37a14,14,0,0,1-.24-1.58C104,115.52,104,114.79,104,114Z" style="fill:#5f481f"/><path d="M150.13,116.32a9.71,9.71,0,0,1-1.64,4.31,3.72,3.72,0,0,1-6.14.16c-2.52-2.92-2.47-8.62.11-11.49A3.56,3.56,0,0,1,146,108a4.91,4.91,0,0,1,3.45,3.43,21.64,21.64,0,0,1,.65,2.64Z" style="fill:#5f481f"/><path d="M71.08,140.17l31.29,15.06c1.61.77,3.21,1.55,4.82,2.31a3.78,3.78,0,0,0,.6.17q-.11-.27-.24-.54a23.31,23.31,0,0,1,2.76-30.54,14.27,14.27,0,0,1,3.63-2.77c2.57-1.23,2.3-3.71,2.75-5.77a192.56,192.56,0,0,0,3.44-24.5c.41-4.65.76-10.31,1.12-15,0-.44.11-.64.6-.75a20.16,20.16,0,0,1,6.25-.28c2.62.26,2.72,1.46,3.09,5.48.57,6.12,1.62,12.17,2.68,18.21,1.23,7.06,2.6,14.09,3.89,21.14a1.19,1.19,0,0,0,.62,1c8.23,5.12,12,12.65,11.38,22.27a21.69,21.69,0,0,1-5.58,13c-.27.3-.88.6-.49,1.13s.84.21,1.29,0q18.27-6.9,36.58-13.77c.23-.07,1.28-.23,1.52-.25a61.71,61.71,0,0,1,.73,9c.8,14.22-2.83,27.6-7.82,40.7a4.24,4.24,0,0,0,.52,4,51.92,51.92,0,0,1,6.19,21.19A73,73,0,0,1,181.17,242c-.92,4.21-1.92,8.4-2.42,12.68-.63,3.24-1.27,6.47-1.87,9.71-.15.82-.41,1.18-1.36,1.17q-9.44-.07-18.87,0a1.21,1.21,0,0,1-1.36-.95c-.56-1.63-1.3-3.21-1.69-4.87s-1.25-1.65-2.52-1.52c-9.15.92-18.33.79-27.51.71-2.61,0-5.22-.33-7.82-.54a.85.85,0,0,0-1.06.87c-.31,1.83-.65,3.67-1,5.51,0,.45-.34.45-.8.67a1.06,1.06,0,0,1-.39.09l-22.33,0c-.66,0-.83-.34-1-.85-1.21-3.35-1.45-6.68-2.69-10-.92-2.51-3.28-9.39-3.78-10.71a53.41,53.41,0,0,1-4.53-22.5,62.7,62.7,0,0,1,3.59-18.17,23.39,23.39,0,0,1,1.71-4.15,4,4,0,0,0-.08-4.57c-5.87-10.5-9.14-21.88-11-33.7A117.11,117.11,0,0,1,71.08,140.17Zm69.53,20.69c-.08-.07-.16-.2-.25-.2H114.81c-.39,0-.5.12-.13.38s.56.48.86.7c3.59,2.68,7.32,5.08,11.95,5.52a5.46,5.46,0,0,0,3,0A14,14,0,0,0,140.61,160.86Zm-11.09-23.35a7.47,7.47,0,0,0-3.58,0,11.36,11.36,0,0,0-4.49,1.34c-5.53,2.81-6,8.75-1,12.33a13.43,13.43,0,0,0,13.8.43c5.14-3.19,5.5-8.38.83-12A13,13,0,0,0,129.52,137.51Z" style="fill:#f7f1e7"/><path d="M104.64,156.31l-2.27-1.1-31.29-15A80.28,80.28,0,0,1,76.31,120c-.37-.78-.51-1-.72-1.52-4.25-10.58-8.36-21.22-12.1-32a238.86,238.86,0,0,1-9-31.09c-.34-1.73-.57-3.48-.85-5.23a16.51,16.51,0,0,1,0-3.94c.41-2.84,1.66-4.25,4.32-4.7a13.08,13.08,0,0,1,2.68,0,25.23,25.23,0,0,1,4.66,1.32A72.84,72.84,0,0,1,83.14,52.94c9.23,6.74,17.78,14.2,24.4,23.64.41.59.78.43,1.26.2A33.65,33.65,0,0,1,122,73.51,39.84,39.84,0,0,1,144.7,79.7c.53.32.76.28,1.09-.23a65.28,65.28,0,0,1,8.7-10.3,123.19,123.19,0,0,1,22-17.54c4.69-2.9,9.51-5.55,15-6.78,4.49-1,8,.1,8.25,3.72a17.37,17.37,0,0,1-.15,4.6c-.29,1.86-1.38,8.11-2.37,12.09a376.92,376.92,0,0,1-13,39.32c-2.21,5.66-5.5,11.28-7.66,16.93a3.17,3.17,0,0,1-.83,1.34s2.62,7,3.92,10.87c1.14,3.43,3,8.78,3.41,12.13-.24,0-1.29.18-1.52.25L149.5,158.18s2.55-6,2.07-15.68c-1.08-8.26-6.5-13.77-14-17.11a1.21,1.21,0,0,1-.62-1c-1.29-7-1.88-16.1-3.11-23.16-1.06-6-2.11-12.09-2.68-18.21-.37-4-.47-4.22-3.09-4.48a20.16,20.16,0,0,0-6.25.28c-.49.11-.57.31-.6.75-.36,4.66-.71,9.32-1.12,14a192.56,192.56,0,0,1-3.44,24.5c-.45,2.06-.5,6.77-3.07,8a14.22,14.22,0,0,0-3.63,2.77c-11.9,9.44-5.35,27.47-5.35,27.47m-.5-40a10.19,10.19,0,0,0,.24,1.55c.53,2.1,2.42,4.15,3.88,4.28,2.32.2,3.64-1.16,4.44-3a9.5,9.5,0,0,0-.37-8.68c-1.79-3.18-5.18-3.15-7,0a6.94,6.94,0,0,0-1.15,3.66A17.68,17.68,0,0,0,104.14,116.29ZM150,114a23.14,23.14,0,0,0-.64-2.58A4.82,4.82,0,0,0,146,108.1a3.5,3.5,0,0,0-3.49,1.31c-2.53,2.8-2.57,8.38-.11,11.23a3.63,3.63,0,0,0,5.08.82,3.86,3.86,0,0,0,.92-1,9.64,9.64,0,0,0,1.61-4.2A12.18,12.18,0,0,0,150,114Zm39.58-51.35c0-4.18-1.63-6.23-4.23-5.93a17.36,17.36,0,0,0-6.14,1.9,85.21,85.21,0,0,0-28.1,24.86c-.32.44-.16.7.21,1a65.82,65.82,0,0,1,8,8.27,109.88,109.88,0,0,1,14.51,23.73c.13.27.32.53.48.79.14-.26.27-.54.39-.82,4.22-11.73,8.16-23.55,11.41-35.6C187.79,74.7,189.29,68.51,189.61,62.68Zm-126-2.57c.19,1.4.43,3.83.86,6.21a198.61,198.61,0,0,0,6.62,25.05c2.33,7.29,4.89,14.51,7.35,21.76a2.29,2.29,0,0,0,.29.56c.1-.18.21-.37.3-.56,1.47-3,2.83-6.06,4.4-9C88,95.51,93.51,87.51,101.35,81.45c.75-.58.72-1,.19-1.71A85.89,85.89,0,0,0,88,65.31a68.94,68.94,0,0,0-13.75-9.54,19.43,19.43,0,0,0-6.39-2C65.22,53.43,63.61,55.51,63.61,60.11Z" style="fill:#e2cfa9"/><path d="M129.52,137.51a13.11,13.11,0,0,1,5.55,2.08c4.67,3.63,4.31,8.82-.83,12a13.43,13.43,0,0,1-13.8-.43c-5-3.58-4.52-9.52,1-12.33a11.6,11.6,0,0,1,4.5-1.32Z" style="fill:#5e481e"/><path d="M127.46,167.24c-4.63-.44-8.36-2.84-11.95-5.52-.3-.22-.57-.46-.86-.7a2.25,2.25,0,0,1,.59-.18h25.34a14,14,0,0,1-10.12,6.38Z" style="fill:#5f481f"/><path d="M129.52,137.51h-3.58A7.47,7.47,0,0,1,129.52,137.51Z" style="fill:#b18d44"/><path d="M150.13,116.32a9.71,9.71,0,0,1-1.64,4.31,3.72,3.72,0,0,1-6.14.16c-2.52-2.92-2.47-8.62.11-11.49A3.56,3.56,0,0,1,146,108a4.91,4.91,0,0,1,3.45,3.43,21.64,21.64,0,0,1,.65,2.64Z" style="fill:#5f481f"/><path d="M183.1,145.85c-7.79,2.29-33.6,12.33-33.6,12.33s-1.28,14.13-21.77,14.13c-21.18,0-23.09-16-23.09-16-9-5-24.83-12.17-33.56-16.14,0,0-2.35,29.12,13,55.56,4.52,7.15,1.8,7.15,4.52,25.05,1.73,11.44,6.91,24.81,10.77,35,3.05,0,13.36-.64,15.53,2.88,1.72-11.86,2.37-22.21,2.66-24.61,10,2,19.55,2.89,31.94,0,2.29,16.9,2.77,20.78,3.8,24.9.1-3.81,8.27-4.44,11.94-4.39,0,0,1.85-20.54,5-31.42,5.94-20.27,2.94-21.67,5.5-26.88C188.09,169.66,183.1,145.85,183.1,145.85Z" style="fill:#efeae4"/><path d="M198.67,45.86s4.84,4.57-7.12,38.5c-11.83,33.55-15.77,38.49-15.77,38.49S172.09,107,157.13,90.19C172.09,59.28,198.67,45.86,198.67,45.86Z" style="opacity:0.05"/><path d="M54.87,43s-5.62,1.86,6.84,38.27c11.47,33.52,14.76,38.49,14.76,38.49S80.41,104.5,95.26,87C80.85,56.09,54.87,43,54.87,43Z" style="opacity:0.05"/><path d="M153.31,259c-11.8,2.79-38.4-.29-38.4-.29,1.5-15.51,2.66-24.61,2.66-24.61,15.1,2.28,19,2.24,31.94,0C149.51,234.06,151.64,246.4,153.31,259Z" style="fill:#ddd6ce"/><path d="M194.43,248.72c.24,1.89.2,3,.55,4.84.23,1.23-.07,1.29-1.21,1.27-5-.07-10,0-15,0,.66-4.47.78-5.13,1.63-9.23C186.14,245.74,194.36,244.78,194.43,248.72Z" style="fill:#d3bf9c"/></g></g></g><rect width="251.87" height="306.58" style="fill:none"/><path d="M83.44,194.62c2,3.12,6.57,4.92,12,6.57,6.77,2.05,12.33,3.44,12.33,3.44C100.2,201.4,83.19,185,74.55,171.52,74.55,171.52,76.66,184.12,83.44,194.62Z" style="fill:#e5e0da"/><path d="M175.78,196.27c-.72,1.52-3.82,3.6-8.47,5.39-10.18,3.94-14,4.52-14,4.52,8.87-1.75,21.58-19.09,29.15-32.59C182.46,173.59,181.17,186.08,175.78,196.27Z" style="fill:#e5e0da"/><path d="M152.74,257.83c1.65-2.46,5-3.26,12.51-3.26l9.29,1a4,4,0,0,1,3.57,4l-.09,2.81c-.2.84-1.51,3-2.42,3l-20.4.24c-.89,0-1.67-.56-2.46-3C152.74,262.61,152.25,258.57,152.74,257.83Z" style="fill:#fffbf5"/><path d="M113.47,256.88c-4-2.31-24.86-3-25.68,1.94l.49,5.15a2,2,0,0,0,1.94,1.39l21,.22c2.66,0,2.31-.61,2.5-1.22l.81-4.44C114.8,258,114.3,257.37,113.47,256.88Z" style="fill:#fffbf5"/><path d="M152.74,263.28l1.17-.36a11.55,11.55,0,0,1,3.49-.48c3.42,0,11.55.12,15.63.07a15.56,15.56,0,0,1,5,.77h0a7,7,0,0,1-.73,2.09c-.2.23-.88.29-1.79.29l-20.3-.06a3.59,3.59,0,0,1-1.91-.37A8.65,8.65,0,0,1,152.74,263.28Z" style="fill:#efeae4"/></g></g></svg>