<svg xmlns="http://www.w3.org/2000/svg" width="195" height="177.99" viewBox="0 0 195 177.99"><title>corgi-island_6</title><g id="a495bf3b-dc6d-4f05-a8e1-0210459b40c9" data-name="Layer 2"><g id="f3e9555b-412d-49ab-ae9a-599d13d79a88" data-name="Layer 1"><g id="eeed46d5-2c97-4d8b-bb09-5354d5eec432" data-name="island"><path d="M165.71,3l-30-1.43L80.43,0,32.14,3,9.29,5.14,0,10.14v7.14s41.43,6.43,43.57,6.43,32.14,1.43,32.14,1.43l24.29,5,57.86-6.43L195,20.85V13.71Z" style="fill:#869962"/><path d="M9.29,5.14,32.14,3,80.43,0l55.28,1.56,30,1.43L195,13.71l-37.14,2.85L100,23,75.71,18s-30-1.43-32.14-1.43S0,10.14,0,10.14Z" style="fill:#a6b783"/><path d="M195,20.85l-37.14,2.86L100,30.14l-24.29-5s-30-1.43-32.14-1.43S0,17.28,0,17.28L16.43,53l4.28,30L43.57,95.14l3.57,6.42L55.71,123l7.15,23.57,10,6.43L100,156.56,113.57,178l8.57-4.28,20.72-33.57,5-28.58,7.85-32.85,25-9.29L187.86,33Z" style="fill:#47342c"/><polygon points="125.71 102.99 105.71 108.71 120.71 139.42 122.14 173.71 142.86 140.13 140 115.85 125.71 102.99" style="fill:none"/><polygon points="89.29 90.85 129.29 71.56 98.57 58.71 89.29 90.85" style="fill:none"/><polygon points="160.71 67.28 187.73 33.39 187.73 33.39 132.14 26.56 132.14 26.56 160.71 67.29 160.71 67.28" style="fill:none"/><polygon points="105.71 108.71 125.71 102.99 129.29 71.56 89.29 90.85 105.71 108.71" style="fill:#634737"/><polygon points="69.29 107.99 72.7 152.89 72.86 152.99 100 156.56 105.71 108.71 69.29 107.99" style="fill:#44332b"/><path d="M75.71,25.14l-.48,0L20.71,83,43.57,95.14l.13.23L69.29,108Z" style="fill:#44332b"/><polygon points="100 30.14 75.71 25.14 98.57 58.71 100 30.14" style="fill:#44332b"/><path d="M43,23.66c-5.56-.58-43-6.38-43-6.38L16.43,53v.07L42.91,23.79Z" style="fill:#44332b"/><polygon points="138.85 62.83 129.29 71.56 125.71 102.99 140 115.85 142.86 140.13 147.86 111.56 138.85 62.83" style="fill:#7f5d4b"/><polygon points="145.71 56.57 155.71 78.71 160.71 67.29 132.14 26.56 132.14 26.56 145.71 56.56 145.71 56.57" style="fill:#634737"/><polygon points="187.78 33.38 187.86 32.99 195 20.85 157.86 23.71 132.14 26.56 187.73 33.39 187.78 33.38" style="fill:#564133"/><polygon points="160.71 67.29 155.71 78.71 180.34 69.56 160.71 67.28 160.71 67.29" style="fill:#564133"/><polygon points="187.73 33.39 160.71 67.28 180.34 69.56 180.71 69.42 187.78 33.38 187.73 33.39 187.73 33.39" style="fill:#7c5d4e"/><polygon points="113.57 177.99 122.14 173.71 100 156.56 113.57 177.99" style="fill:#322620"/><polygon points="43.7 95.37 47.14 101.56 55.71 122.99 62.86 146.56 62.86 146.56 69.29 107.99 43.7 95.37" style="fill:#322620"/><polygon points="62.86 146.56 72.7 152.89 69.29 107.99 62.86 146.56" style="fill:#5e4738"/><polygon points="16.44 53.06 20.71 82.99 42.91 23.8 16.44 53.06" style="fill:#564033"/><path d="M43.57,23.71,43,23.66l-.05.13L20.71,83,75.23,25.11C71.42,24.93,45.56,23.71,43.57,23.71Z" style="fill:#634737"/><polygon points="69.29 107.99 105.71 108.71 89.29 90.85 69.29 107.99" style="fill:#47342c"/><polygon points="138.85 62.83 132.14 26.56 100 30.14 129.29 71.56 138.85 62.83" style="fill:#725342"/><polygon points="145.71 56.56 132.14 26.56 132.14 26.56 145.71 56.57 145.71 56.56" style="fill:#725342"/><polygon points="138.85 62.83 147.86 111.56 155.71 78.71 145.71 56.57 138.85 62.83" style="fill:#7f5d4b"/><polygon points="138.85 62.83 147.86 111.56 155.71 78.71 145.71 56.57 138.85 62.83" style="fill:#44342a;opacity:0.39"/><polygon points="145.71 56.57 132.14 26.56 132.14 26.56 138.85 62.83 145.71 56.57" style="fill:#725342"/><polygon points="145.71 56.57 132.14 26.56 132.14 26.56 138.85 62.83 145.71 56.57" style="fill:#44342a;opacity:0.39"/><polygon points="129.29 71.56 100 30.14 98.57 58.71 129.29 71.56" style="fill:#634737"/><polygon points="98.57 58.71 75.71 25.14 89.29 90.85 98.57 58.71" style="fill:#634737"/><polygon points="89.29 90.85 75.71 25.14 69.29 107.99 89.29 90.85" style="fill:#322620"/><polygon points="100 156.56 122.14 173.71 120.71 139.42 100 156.56" style="fill:#564033"/><polygon points="105.71 108.71 100 156.56 120.71 139.42 105.71 108.71" style="fill:#7f5d4b"/><path d="M157.86,16.56,100,23,75.71,18s-30-1.43-32.14-1.43S0,10.14,0,10.14v7.14s41.43,6.43,43.57,6.43,32.14,1.43,32.14,1.43l24.29,5,16.72-1.86L119,33.59l2-4,4,1,2.08-3.46,30.78-3.42L180.34,22h0L184,26.59l3-4h3l4.2-1.68.8-.06V13.71Z" style="fill:#97a576"/><path d="M75.71,18s-30-1.43-32.14-1.43S0,10.14,0,10.14v7.14l12.83,2L16,29.59l5-8,2,3,4-3.19c8.4,1.25,15.71,2.31,16.58,2.31s7.65.29,14.66.61L57,29.59l6-4,5,1,3.33-1.66,4.38.21,24.29,5V23Z" style="fill:#869962"/></g></g></g></svg>