<svg xmlns="http://www.w3.org/2000/svg" width="251.87" height="306.58" viewBox="0 0 251.87 306.58"><title>course-7</title><g id="a7e9275f-3512-4477-87d8-a3eb50f608bf" data-name="Layer 2"><g id="a304e1b9-1c57-4ca8-817d-098f5d458295" data-name="Corgi"><g id="b99e010b-fc2f-45e7-879f-c03e275b1e4d" data-name="Safety"><path d="M74.35,201.37H67.48c-4.81,0-8.71,4.23-8.71,9.44v18.33h6V212.3a4.06,4.06,0,0,1,3.88-4.22h4.46A4.06,4.06,0,0,1,77,212.3v16.84h6V210.81C83.05,205.6,79.16,201.37,74.35,201.37Z" style="fill:#4ea1cf"/><polygon points="64.44 229.14 64.8 229.14 64.8 228.19 64.44 229.14" style="fill:#1a7fa5"/><path d="M75,201.4l-2.53,6.68h.72A4.06,4.06,0,0,1,77,212.3v16.84h6V210.81C83.05,205.82,79.47,201.74,75,201.4Z" style="fill:#137da5"/><rect x="48.25" y="219.7" width="45.33" height="45.33" rx="6.68" style="fill:#63b4e5"/><path d="M73.48,219.7H86.9a6.68,6.68,0,0,1,6.68,6.68v32A6.68,6.68,0,0,1,86.9,265H58.77" style="fill:#4ea1cf"/><circle cx="70.91" cy="238.48" r="5.56" style="fill:#137da5"/><path d="M68.35,242h5.13a0,0,0,0,1,0,0v9.69A2.44,2.44,0,0,1,71,254.11h-.25a2.44,2.44,0,0,1-2.44-2.44V242A0,0,0,0,1,68.35,242Z" style="fill:#137da5"/></g><rect width="251.87" height="306.58" style="fill:none"/></g></g></svg>