<svg xmlns="http://www.w3.org/2000/svg" width="251.87" height="306.58" viewBox="0 0 251.87 306.58"><title>course-2</title><g id="ee827c87-8d0c-486e-8a18-90e3085da50a" data-name="Layer 2"><g id="b01c7f67-4b44-4b9e-b7ff-c012caf009cd" data-name="Corgi"><g id="be12932f-4a80-473e-90eb-1adb06b784a9" data-name="Blockchain"><g id="adf72903-26ae-4727-b4dd-923b6a6e398a" data-name="Layer 1-2"><polygon points="211.81 222.22 190.12 209.62 190.19 234.31 211.88 246.91 211.81 222.22" style="fill:#16c2bc"/><polygon points="233.3 209.81 211.61 197.21 190.12 209.62 211.81 222.22 233.3 209.81" style="fill:#99ffec"/><polygon points="211.81 222.22 211.88 246.91 233.37 234.5 233.3 209.81 211.81 222.22" style="fill:#3aff89"/><polygon points="233.37 234.5 211.81 222.22 190.19 234.31 211.88 246.91 233.37 234.5" style="fill:#16c2bc;opacity:0.5;isolation:isolate"/><polygon points="211.61 197.21 211.81 222.22 233.3 209.81 211.61 197.21" style="fill:#c8ffd6;opacity:0.6000000238418579;isolation:isolate"/><polygon points="185.92 237.64 164.22 225.04 164.29 249.73 185.99 262.33 185.92 237.64" style="fill:#c2a000"/><polygon points="207.41 225.24 185.72 212.63 164.22 225.04 185.92 237.64 207.41 225.24" style="fill:#ffe587"/><polygon points="185.92 237.64 185.99 262.33 207.48 249.93 207.41 225.24 185.92 237.64" style="fill:#ffb41d"/><polygon points="207.48 249.93 185.92 237.64 164.29 249.73 185.99 262.33 207.48 249.93" style="fill:#c2a000;opacity:0.5;isolation:isolate"/><polygon points="185.72 212.63 185.92 237.64 207.41 225.24 185.72 212.63" style="fill:#ffe7be;opacity:0.6000000238418579;isolation:isolate"/><polygon points="160.46 252.07 138.77 239.46 138.84 264.15 160.53 276.76 160.46 252.07" style="fill:#c2a000"/><polygon points="181.95 239.66 160.26 227.05 138.77 239.46 160.46 252.07 181.95 239.66" style="fill:#ffe587"/><polygon points="160.46 252.07 160.53 276.76 182.02 264.35 181.95 239.66 160.46 252.07" style="fill:#ffb41d"/><polygon points="182.02 264.35 160.46 252.07 138.84 264.15 160.53 276.76 182.02 264.35" style="fill:#c2a000;opacity:0.5;isolation:isolate"/><polygon points="160.26 227.05 160.46 252.07 181.95 239.66 160.26 227.05" style="fill:#ffe7be;opacity:0.6000000238418579;isolation:isolate"/><polygon points="134.78 266.99 113.09 254.38 113.16 279.07 134.85 291.68 134.78 266.99" style="fill:#c2a000"/><polygon points="156.27 254.58 134.58 241.98 113.09 254.38 134.78 266.99 156.27 254.58" style="fill:#ffe587"/><polygon points="134.78 266.99 134.85 291.68 156.34 279.27 156.27 254.58 134.78 266.99" style="fill:#ffb41d"/><polygon points="156.34 279.27 134.78 266.99 113.16 279.07 134.85 291.68 156.34 279.27" style="fill:#c2a000;opacity:0.5;isolation:isolate"/><polygon points="134.58 241.98 134.78 266.99 156.27 254.58 134.58 241.98" style="fill:#ffe7be;opacity:0.6000000238418579;isolation:isolate"/><g id="a2daba60-20f3-43a2-9118-80bac02c1776" data-name=" Group "><path d="M191.59,244.15a26,26,0,0,0-.83,3.84,3.5,3.5,0,0,0,1.45,3.21l3.37,2,0,0,0,0-.1-.07,0,0-.07-.05,0,0a1.29,1.29,0,0,1-.17-.16l-.05,0-.06-.06-.1-.12,0,0-.06-.08-.11-.16a.41.41,0,0,1-.05-.09l0,0-.06-.11v0l-.06-.13v0l-.05-.12c0-.05,0-.11-.07-.17s0-.1,0-.14l-.06-.22,0-.14h0l0-.15a2,2,0,0,1,0-.24c0-.05,0-.1,0-.15v0c0-.06,0-.12,0-.19a1.21,1.21,0,0,1,0-.19V250a27.61,27.61,0,0,1,.83-3.85Z" style="fill:#bf7d31"/><path d="M191.59,244.15l3.37,2,2.14-1.05-2-1.18c0,.31-.08.83-.54.92-1,.2-1.32-.35-1.32-.84,0-.09,0-.32,0-.62Z" style="fill:#d6ae7c"/><path d="M193.22,244c0,.49.31,1,1.32.83.46-.08.54-.61.54-.91l-.17-.11a.49.49,0,0,0,.18.08,1.7,1.7,0,0,0,0-.19v-.61l-.59-.35-1.26.64C193.22,243.64,193.22,243.86,193.22,244Z" style="fill:#bf7d31"/><path d="M193.34,239.61s-.08,2.5-.11,3.73l1.26-.64.59.35c0-1.26,0-2.93,0-2.93a4.49,4.49,0,0,1,1.82-3.71l1-.6c1.71-1.06,1.94,0,1.94,1.55,0,0,0,1.28-.05,2.37l.23-.12,1.39.81c0-1.51.1-4.69.1-4.69,0-2.13-1.5-3.11-3.34-2.18l-1.69.85A6,6,0,0,0,193.34,239.61Z" style="fill:#bf7d31"/><path d="M195,246.1a26.22,26.22,0,0,0-.83,3.85v.2h0a1.34,1.34,0,0,0,0,.2c0,.06,0,.13,0,.19v0c0,.05,0,.1,0,.15s0,.16,0,.24l0,.14h0l0,.14.06.21s0,.1,0,.15a1.22,1.22,0,0,1,.07.17l.05.12v0l.06.13v0l.06.11,0,0a.41.41,0,0,0,0,.09l.11.15.06.09,0,0,.1.11.06.07.05,0,.17.16h0a.24.24,0,0,0,.08.06l0,0,.1.07h0a3.48,3.48,0,0,0,3.59-.32,11,11,0,0,0,5-8.62,6,6,0,0,0-.71-2.62L200.76,243s0,.05,0,.07a3.19,3.19,0,0,1-1.46,2.52,1.18,1.18,0,0,1-.65.2h-.25l0,0-.11-.05-.73-.42c-.08,1.75,1.19,1.47,1.89,1.1a4.17,4.17,0,0,0,1.7-3.1s1.88-1,1.94-1a8.8,8.8,0,0,1,.44,2.49,10.18,10.18,0,0,1-4.37,7.69c-2.34,1.35-4.4.25-4.41-2.44a33.56,33.56,0,0,1,.65-3.65c.07,0,1-.46,2.16-1.07l-.43-.25C196,245.61,195,246.07,195,246.1Z" style="fill:#f6c96b"/><path d="M197.53,245.3c-.08,1.76,1.19,1.47,1.89,1.1a4.17,4.17,0,0,0,1.7-3.1s1.89-1,1.94-1a8.93,8.93,0,0,1,.45,2.48,10.19,10.19,0,0,1-4.38,7.69c-2.34,1.35-4.4.25-4.41-2.44a34,34,0,0,1,.65-3.65c.07,0,1-.46,2.16-1.07h0Zm1.29,3.53a.42.42,0,0,0,.16.37l-.12,1.22-.18,1.69,1.48-.88h0l-.35-2.48h0a1.09,1.09,0,0,0,.17-.58c0-.37-.26-.52-.58-.34a1.3,1.3,0,0,0-.58,1Z" style="fill:#fca30b"/><path d="M194.91,252.58l0,0Z" style="fill:#a8a8a8"/><path d="M194.9,243.77l.18.11v0A.71.71,0,0,1,194.9,243.77Z" style="fill:#bf7d31"/><path d="M195.07,243.05v.61a1.49,1.49,0,0,1,0,.19,1.15,1.15,0,0,0,.86-.18l.1-.06Z" style="fill:#d6ae7c"/><path d="M195.08,243.85v0l2,1.17.75-.39-1.81-1-.1.06A1.16,1.16,0,0,1,195.08,243.85Z" style="fill:#d6ae7c"/><path d="M196,243.61l1.81,1v.14a1,1,0,0,0,.41.92l.11.06h.29a1.34,1.34,0,0,0,.65-.2,3.21,3.21,0,0,0,1.46-2.52.22.22,0,0,0,0-.08l-3.36-1.95v.07A3.24,3.24,0,0,1,196,243.61Z" style="fill:#bf7d31"/><path d="M197.53,245.3l.73.42a1,1,0,0,1-.41-.93v-.13l-.75.39.44.25Z" style="fill:#f6c96b"/><path d="M197.4,241.08l3.37,2,2.62-1.47-2-1.15v.66s.08.6-.7.66-.93-.58-.93-.58c0-.21,0-.78,0-1.43Z" style="fill:#d6ae7c"/><path d="M197.53,245.3h0Z" style="fill:#fca30b"/><path d="M198.47,245.81h0Z" style="fill:#a8a8a8"/><polygon points="198.85 250.41 198.68 252.1 200.16 251.23 198.85 250.41" style="fill:#403e3f"/><path d="M199,249.2l-.12,1.22,1.3.81h0l-.35-2.48-.81-.5a1.17,1.17,0,0,0-.18.58A.42.42,0,0,0,199,249.2Z" style="fill:#595758"/><path d="M199,248.24l.81.51h0a1.23,1.23,0,0,0,.18-.59c0-.36-.26-.51-.58-.33A1.27,1.27,0,0,0,199,248.24Z" style="fill:#403e3f"/><path d="M199.79,239.73c0,.65,0,1.22,0,1.43,0,0,.07.65.94.58s.69-.66.69-.66,0-.37,0-.66l-1.39-.81Z" style="fill:#bf7d31"/></g><g id="bf78738b-dee1-4432-8a39-7893800031cb" data-name=" Group 2"><path d="M166.16,258.52a25.93,25.93,0,0,0-.83,3.85,3.5,3.5,0,0,0,1.45,3.2l3.38,2,0,0,0,0-.1-.06,0,0-.08-.06,0,0-.17-.15-.05-.05-.06-.06-.09-.12,0,0-.06-.08-.11-.16a.41.41,0,0,1-.05-.09l0,0-.06-.11v0l-.06-.12v0l0-.12A1.34,1.34,0,0,0,169,266c0-.05,0-.09,0-.14l-.06-.22,0-.13h0l0-.15c0-.08,0-.15,0-.23a.88.88,0,0,0,0-.16v0c0-.06,0-.12,0-.19a1.21,1.21,0,0,1,0-.19v-.22a27.42,27.42,0,0,1,.83-3.84Z" style="fill:#bf7d31"/><path d="M166.16,258.52l3.37,2c.07,0,1-.49,2.14-1.05l-2-1.18c0,.31-.08.84-.54.92-1,.2-1.32-.34-1.32-.83,0-.1,0-.33,0-.63C166.92,258.16,166.21,258.49,166.16,258.52Z" style="fill:#d6ae7c"/><path d="M167.79,258.34c0,.49.3,1,1.32.83.46-.09.54-.62.54-.92l-.18-.1a.67.67,0,0,0,.18.07,1.7,1.7,0,0,0,0-.19v-.61l-.59-.34c-.42.22-.85.44-1.25.63C167.8,258,167.79,258.24,167.79,258.34Z" style="fill:#bf7d31"/><path d="M167.91,254s-.08,2.5-.11,3.73l1.26-.63.59.34c0-1.25,0-2.93,0-2.93a4.47,4.47,0,0,1,1.82-3.7l1-.61c1.71-1.05,1.94,0,1.94,1.56,0,0,0,1.28,0,2.37l.22-.13,1.39.81c0-1.51.1-4.68.1-4.68,0-2.13-1.49-3.11-3.34-2.19l-1.69.85A6,6,0,0,0,167.91,254Z" style="fill:#bf7d31"/><path d="M169.53,260.48a25.93,25.93,0,0,0-.83,3.85v.21a1.15,1.15,0,0,0,0,.19c0,.07,0,.13,0,.2s0,0,0,0a1,1,0,0,1,0,.16,2.23,2.23,0,0,1,0,.23l0,.15h0l0,.13.06.22,0,.14.06.18a.61.61,0,0,1,.05.12v0l.06.12,0,0a.41.41,0,0,0,.06.11v0l.06.09c0,.06.07.11.1.16l.07.09,0,0,.1.11.06.07,0,0,.18.16h0l.08.06,0,0,.1.06,0,0a3.48,3.48,0,0,0,3.59-.32,11,11,0,0,0,5-8.62A5.86,5.86,0,0,0,178,256l-2.62,1.47v.07a3.19,3.19,0,0,1-1.46,2.52,1.37,1.37,0,0,1-.65.2h-.29l-.11-.06-.73-.42c-.08,1.76,1.19,1.47,1.89,1.1a4.17,4.17,0,0,0,1.7-3.1s1.88-1,1.94-1a8.69,8.69,0,0,1,.44,2.48,10.18,10.18,0,0,1-4.38,7.7c-2.33,1.34-4.39.25-4.4-2.45a34.48,34.48,0,0,1,.65-3.65c.07,0,1-.46,2.16-1.07l-.43-.25C170.56,260,169.6,260.45,169.53,260.48Z" style="fill:#f6c96b"/><path d="M172.11,259.68c-.08,1.75,1.18,1.46,1.88,1.09a4.15,4.15,0,0,0,1.7-3.09s1.89-1,1.94-1a9,9,0,0,1,.45,2.49,10.16,10.16,0,0,1-4.38,7.69c-2.34,1.35-4.4.25-4.41-2.44a34.27,34.27,0,0,1,.65-3.66c.07,0,1-.45,2.16-1.06h0Zm1.28,3.52a.41.41,0,0,0,.16.37l-.12,1.22-.18,1.69,1.48-.87h0l-.35-2.48h0a1.12,1.12,0,0,0,.17-.59c0-.37-.26-.52-.58-.33a1.27,1.27,0,0,0-.58,1Z" style="fill:#fca30b"/><path d="M169.48,267l0,0Z" style="fill:#a8a8a8"/><path d="M169.47,258.15l.18.1v0A.67.67,0,0,1,169.47,258.15Z" style="fill:#bf7d31"/><path d="M169.65,257.42v.8a1.19,1.19,0,0,0,.86-.17l.1-.06Z" style="fill:#d6ae7c"/><path d="M169.65,258.22v0l2,1.18.75-.39L170.61,258l-.1.06A1.19,1.19,0,0,1,169.65,258.22Z" style="fill:#d6ae7c"/><path d="M170.61,258l1.81,1.05v.13a1,1,0,0,0,.41.93l.11.06h.29a1.34,1.34,0,0,0,.65-.2,3.19,3.19,0,0,0,1.46-2.52v-.07l-3.37-2v.07A3.26,3.26,0,0,1,170.61,258Z" style="fill:#bf7d31"/><path d="M172.11,259.68l.72.42a1,1,0,0,1-.41-.93V259q-.37.21-.75.39l.44.25Z" style="fill:#f6c96b"/><path d="M172,255.45l3.38,2,2.62-1.47-2-1.15c0,.3,0,.53,0,.66s.09.61-.69.67-.94-.58-.94-.58c0-.21,0-.79,0-1.43Z" style="fill:#d6ae7c"/><path d="M172.1,259.68h0Z" style="fill:#fca30b"/><path d="M173,260.19h0Z" style="fill:#a8a8a8"/><polygon points="173.43 264.79 173.25 266.48 174.73 265.61 173.43 264.79" style="fill:#403e3f"/><path d="M173.55,263.57l-.12,1.22,1.3.82h0l-.35-2.48-.81-.51a1.23,1.23,0,0,0-.18.59A.41.41,0,0,0,173.55,263.57Z" style="fill:#595758"/><path d="M173.57,262.62l.81.51v0a1.17,1.17,0,0,0,.18-.58c0-.37-.26-.52-.59-.33A1.24,1.24,0,0,0,173.57,262.62Z" style="fill:#403e3f"/><path d="M174.37,254.11c0,.64,0,1.22,0,1.43,0,0,.06.64.93.57s.7-.66.7-.66v-.66l-1.39-.81Z" style="fill:#bf7d31"/></g><g id="f1ba15c7-3fc3-4069-92cf-1383c75d12c8" data-name=" Group 3"><path d="M140.81,273.56a27.07,27.07,0,0,0-.84,3.85,3.48,3.48,0,0,0,1.46,3.2l3.37,2,0,0,0,0-.09-.06,0,0-.08-.06,0,0-.17-.15-.05-.05-.06-.06-.1-.12,0,0-.06-.08-.11-.16-.06-.09v0l-.06-.11v0l-.06-.12v0a.37.37,0,0,1-.05-.11,1.34,1.34,0,0,1-.07-.18s0-.09,0-.14a.79.79,0,0,1-.06-.22.65.65,0,0,1,0-.13h0l0-.15,0-.23c0-.05,0-.11,0-.16v0c0-.06,0-.12,0-.19a1.21,1.21,0,0,0,0-.19v-.22a29.51,29.51,0,0,1,.83-3.85Z" style="fill:#bf7d31"/><path d="M140.81,273.56l3.37,2c.06,0,1-.49,2.14-1l-2-1.17c0,.3-.08.83-.55.91-1,.2-1.31-.34-1.31-.83,0-.1,0-.32,0-.62C141.57,273.2,140.86,273.53,140.81,273.56Z" style="fill:#d6ae7c"/><path d="M142.44,273.38c0,.49.3,1,1.31.83.46-.09.54-.61.55-.92l-.18-.1a.67.67,0,0,0,.18.07,1.7,1.7,0,0,0,0-.19v-.61l-.59-.34-1.25.64C142.44,273.05,142.44,273.28,142.44,273.38Z" style="fill:#bf7d31"/><path d="M142.56,269s-.08,2.5-.11,3.74l1.25-.64.59.34c0-1.25,0-2.92,0-2.92a4.47,4.47,0,0,1,1.81-3.71l1-.61c1.71-1.05,1.94,0,1.94,1.56,0,0,0,1.28-.05,2.37l.23-.13,1.39.81c0-1.51.1-4.68.1-4.68,0-2.13-1.5-3.11-3.35-2.18l-1.69.84A6,6,0,0,0,142.56,269Z" style="fill:#bf7d31"/><path d="M144.18,275.52a25.93,25.93,0,0,0-.83,3.85v.2h0c0,.07,0,.13,0,.2a1.23,1.23,0,0,0,0,.19h0a.78.78,0,0,0,0,.16c0,.09,0,.16,0,.23l0,.15h0l0,.14.06.21c0,.05,0,.1,0,.14l.06.18a.61.61,0,0,1,.05.12v0l.06.13,0,0,.06.11v0a.35.35,0,0,0,.06.09c0,.06.07.11.1.16l.06.09,0,0a.52.52,0,0,0,.1.11l.06.07,0,0,.18.16h0l.08.06,0,0,.1.06,0,0a3.48,3.48,0,0,0,3.59-.32,11,11,0,0,0,5-8.62,5.86,5.86,0,0,0-.71-2.62L150,272.46v.07a3.19,3.19,0,0,1-1.46,2.52,1.27,1.27,0,0,1-.65.2h-.29l-.11-.06-.73-.42c-.08,1.76,1.19,1.47,1.89,1.1a4.17,4.17,0,0,0,1.7-3.1s1.88-1,1.94-1a8.69,8.69,0,0,1,.44,2.48,10.2,10.2,0,0,1-4.37,7.7c-2.34,1.34-4.4.25-4.41-2.45a34.48,34.48,0,0,1,.65-3.65c.07,0,1-.46,2.16-1.07l-.43-.25C145.21,275,144.24,275.49,144.18,275.52Z" style="fill:#f6c96b"/><path d="M146.75,274.72c-.08,1.75,1.19,1.46,1.89,1.09a4.15,4.15,0,0,0,1.7-3.09s1.88-1,1.94-1a8.8,8.8,0,0,1,.44,2.49,10.18,10.18,0,0,1-4.37,7.69c-2.34,1.35-4.4.25-4.41-2.44a33.56,33.56,0,0,1,.65-3.65c.07,0,1-.46,2.16-1.07h0Zm1.29,3.52a.41.41,0,0,0,.16.37l-.13,1.22-.17,1.69,1.47-.87h0l-.35-2.48h0a1.12,1.12,0,0,0,.17-.59c0-.37-.26-.52-.58-.33a1.27,1.27,0,0,0-.58,1Z" style="fill:#fca30b"/><path d="M144.13,282l0,0Z" style="fill:#a8a8a8"/><path d="M144.12,273.19l.18.1v0A.67.67,0,0,1,144.12,273.19Z" style="fill:#bf7d31"/><path d="M144.29,272.46v.61a1.7,1.7,0,0,1,0,.19,1.15,1.15,0,0,0,.86-.17l.1-.06Z" style="fill:#d6ae7c"/><path d="M144.3,273.27v0l2,1.17.75-.39L145.26,273l-.1.06A1.21,1.21,0,0,1,144.3,273.27Z" style="fill:#d6ae7c"/><path d="M145.26,273l1.81,1.05v.13a1,1,0,0,0,.41.93l.11.06h.29a1.37,1.37,0,0,0,.65-.2,3.19,3.19,0,0,0,1.46-2.52v-.07l-3.38-2v.07A3.21,3.21,0,0,1,145.26,273Z" style="fill:#bf7d31"/><path d="M146.75,274.72l.73.42a1,1,0,0,1-.41-.93v-.14l-.75.39.43.25Z" style="fill:#f6c96b"/><path d="M146.61,270.49l3.37,2,2.63-1.47-2-1.15c0,.3,0,.53,0,.66s.08.61-.69.67-.94-.58-.94-.58c0-.21,0-.79,0-1.43Z" style="fill:#d6ae7c"/><path d="M146.75,274.72h0Z" style="fill:#fca30b"/><path d="M147.69,275.23h0Z" style="fill:#a8a8a8"/><polygon points="148.07 279.83 147.9 281.52 149.38 280.65 148.07 279.83" style="fill:#403e3f"/><path d="M148.2,278.61l-.13,1.22,1.3.82h0l-.35-2.48-.81-.51a1.23,1.23,0,0,0-.18.59A.4.4,0,0,0,148.2,278.61Z" style="fill:#595758"/><path d="M148.22,277.66l.81.51v0a1.06,1.06,0,0,0,.17-.58c0-.37-.26-.52-.58-.33A1.24,1.24,0,0,0,148.22,277.66Z" style="fill:#403e3f"/><path d="M149,269.15c0,.64,0,1.22,0,1.43,0,0,.07.64.94.58s.69-.67.69-.67,0-.36,0-.66l-1.39-.81Z" style="fill:#bf7d31"/></g><g id="ab31874a-9431-4b53-9c7e-639e4f9f305d" data-name=" Group 4"><path d="M217.61,228.51a27.39,27.39,0,0,0-.84,3.85,3.49,3.49,0,0,0,1.46,3.21l3.37,2,0,0h0l-.09-.07,0,0-.08-.06h0a1.29,1.29,0,0,1-.17-.16l0,0-.06-.07-.1-.11,0,0-.06-.09a.91.91,0,0,1-.11-.16.41.41,0,0,1,0-.09l0,0-.06-.11v0l-.06-.13v0a.61.61,0,0,1-.05-.12,1.34,1.34,0,0,1-.07-.18s0-.09,0-.14a.83.83,0,0,1-.06-.21.7.7,0,0,1,0-.14h0a.37.37,0,0,1,0-.15,1.57,1.57,0,0,1,0-.23c0-.05,0-.1,0-.16h0c0-.06,0-.13,0-.19s0-.13,0-.2h0v-.2a27.07,27.07,0,0,1,.84-3.85Z" style="fill:#47bf49"/><path d="M217.61,228.51l3.37,2c.06,0,1-.49,2.14-1.05l-2-1.17c0,.3-.09.83-.55.92-1,.19-1.31-.35-1.31-.84,0-.1,0-.32,0-.62C218.37,228.15,217.66,228.49,217.61,228.51Z" style="fill:#8ad68e"/><path d="M219.24,228.33c0,.5.3,1,1.31.84.46-.09.54-.62.55-.92l-.18-.11a.71.71,0,0,0,.18.08,1.7,1.7,0,0,0,0-.19v-.61l-.59-.35-1.25.64C219.24,228,219.24,228.23,219.24,228.33Z" style="fill:#47bf49"/><path d="M219.36,224s-.08,2.5-.11,3.73l1.25-.64.59.35c0-1.25,0-2.93,0-2.93a4.48,4.48,0,0,1,1.81-3.71l1-.6c1.71-1.06,1.94,0,1.94,1.55,0,0,0,1.28-.05,2.38L226,224l1.39.81c0-1.51.1-4.69.1-4.69,0-2.13-1.5-3.1-3.35-2.18l-1.69.85A6,6,0,0,0,219.36,224Z" style="fill:#47bf49"/><path d="M221,230.47a26.22,26.22,0,0,0-.83,3.85v.2h0a1.27,1.27,0,0,0,0,.2c0,.07,0,.13,0,.19v0c0,.05,0,.1,0,.15a1.72,1.72,0,0,0,0,.24l0,.15h0l0,.13.06.22s0,.09,0,.14.05.12.07.17,0,.09,0,.12v0l.06.13v0l.06.11,0,0a.41.41,0,0,0,.05.09l.11.16.06.08,0,0,.1.11.06.07,0,0a1.29,1.29,0,0,0,.17.16l0,0,.07.06h0l.1.07,0,0a3.51,3.51,0,0,0,3.59-.33,11,11,0,0,0,5-8.62,6.06,6.06,0,0,0-.71-2.62l-2.63,1.47v.08a3.21,3.21,0,0,1-1.45,2.51,1.32,1.32,0,0,1-.66.21h-.28l-.12-.06-.72-.41c-.09,1.75,1.18,1.46,1.88,1.09a4.1,4.1,0,0,0,1.7-3.09s1.89-1,1.94-1a8.56,8.56,0,0,1,.45,2.49,10.16,10.16,0,0,1-4.38,7.69c-2.34,1.35-4.4.25-4.4-2.45a32.08,32.08,0,0,1,.65-3.65c.06,0,1-.45,2.16-1.06l-.44-.25Z" style="fill:#80f6b3"/><path d="M223.55,229.67c-.08,1.76,1.19,1.47,1.89,1.1a4.17,4.17,0,0,0,1.7-3.1s1.88-1,1.94-1a8.71,8.71,0,0,1,.44,2.49,10.19,10.19,0,0,1-4.37,7.69c-2.34,1.35-4.4.25-4.41-2.45a34.48,34.48,0,0,1,.65-3.65c.07,0,1-.46,2.16-1.07h0Zm1.29,3.53a.42.42,0,0,0,.16.37l-.13,1.22-.17,1.69,1.47-.88h0l-.34-2.48h0a1.27,1.27,0,0,0,.17-.58c0-.37-.26-.52-.58-.33a1.12,1.12,0,0,0-.4.41,1.23,1.23,0,0,0-.18.59Z" style="fill:#28fc60"/><path d="M220.93,237l0,0Z" style="fill:#a8a8a8"/><path d="M220.92,228.14l.18.11v0A.71.71,0,0,1,220.92,228.14Z" style="fill:#47bf49"/><path d="M221.09,227.42V228a1.7,1.7,0,0,1,0,.19A1.15,1.15,0,0,0,222,228l.1-.06Z" style="fill:#8ad68e"/><path d="M221.1,228.22v0l2,1.17q.38-.18.75-.39L222.06,228l-.1.06A1.16,1.16,0,0,1,221.1,228.22Z" style="fill:#8ad68e"/><path d="M222.06,228l1.81,1.05v.14a1,1,0,0,0,.41.93l.11.05h0l0,0h.22a1.37,1.37,0,0,0,.65-.2,3.23,3.23,0,0,0,1.46-2.52v-.08l-3.38-2v.08A3.2,3.2,0,0,1,222.06,228Z" style="fill:#47bf49"/><path d="M223.55,229.67l.73.42a1,1,0,0,1-.41-.93V229l-.75.39.43.25Z" style="fill:#80f6b3"/><path d="M223.41,225.45l3.37,2,2.63-1.47-2-1.15c0,.29,0,.53,0,.66s.08.6-.7.66-.93-.58-.93-.58c0-.21,0-.78,0-1.43Z" style="fill:#8ad68e"/><path d="M223.55,229.67h0Z" style="fill:#28fc60"/><path d="M224.49,230.18h0Z" style="fill:#a8a8a8"/><polygon points="224.87 234.79 224.7 236.48 226.18 235.6 224.87 234.79" style="fill:#40403f"/><path d="M225,233.57l-.13,1.22,1.3.81h0l-.34-2.48-.81-.5a1.2,1.2,0,0,0-.18.58A.42.42,0,0,0,225,233.57Z" style="fill:#595958"/><path d="M225,232.62l.81.5h0a1.12,1.12,0,0,0,.17-.58c0-.37-.26-.52-.58-.34A1.27,1.27,0,0,0,225,232.62Z" style="fill:#40403f"/><path d="M225.81,224.11c0,.64,0,1.21,0,1.43,0,0,.07.64.93.57s.7-.66.7-.66,0-.37,0-.66L226,224Z" style="fill:#47bf49"/></g></g></g><rect width="251.87" height="306.58" style="fill:none"/></g></g></svg>