<svg xmlns="http://www.w3.org/2000/svg" width="251.87" height="306.58" viewBox="0 0 251.87 306.58"><title>course-4_1</title><g id="ab004a4f-ee1b-4e6b-b051-da8cb8cd390e" data-name="Layer 2"><g id="a5eb8fe1-3eb9-4755-ab79-6707aaf2a28a" data-name="Corgi"><g id="bbfbab9f-4cc1-46a2-8909-8fb198b26c1c" data-name="Growth Hacking"><rect x="144.24" y="205.38" width="67.91" height="67.91" rx="3.69" style="fill:#fff"/><rect x="148.17" y="209.63" width="12.42" height="12.42" style="fill:#f9f9f9"/><rect x="164.07" y="209.63" width="12.42" height="12.42" style="fill:#f9f9f9"/><rect x="148.17" y="225.39" width="12.42" height="12.42" style="fill:#f9f9f9"/><rect x="164.07" y="225.39" width="12.42" height="12.42" style="fill:#f9f9f9"/><rect x="179.89" y="209.63" width="12.42" height="12.42" style="fill:#f9f9f9"/><rect x="195.79" y="209.63" width="12.42" height="12.42" style="fill:#f9f9f9"/><rect x="179.89" y="225.39" width="12.42" height="12.42" style="fill:#f9f9f9"/><rect x="195.79" y="225.39" width="12.42" height="12.42" style="fill:#f9f9f9"/><rect x="148.17" y="240.73" width="12.42" height="12.42" style="fill:#f9f9f9"/><rect x="164.07" y="240.73" width="12.42" height="12.42" style="fill:#f9f9f9"/><rect x="148.17" y="256.5" width="12.42" height="12.42" style="fill:#f9f9f9"/><rect x="164.07" y="256.5" width="12.42" height="12.42" style="fill:#f9f9f9"/><rect x="179.89" y="240.73" width="12.42" height="12.42" style="fill:#f9f9f9"/><rect x="195.79" y="240.73" width="12.42" height="12.42" style="fill:#f9f9f9"/><rect x="179.89" y="256.5" width="12.42" height="12.42" style="fill:#f9f9f9"/><rect x="195.79" y="256.5" width="12.42" height="12.42" style="fill:#f9f9f9"/><polyline points="148.17 256.78 157.13 246.99 161.87 251.89 167.64 248.88 173.18 250.46 178.72 241.3 182.93 232.46 187.93 240.35 195.04 246.36 198.73 244.62 203.99 236.24 205.04 228.97 208.2 227.08" style="fill:none;stroke:#75ea68;stroke-linecap:round;stroke-miterlimit:10;stroke-width:4px"/></g><rect width="251.87" height="306.58" style="fill:none"/></g></g></svg>