<svg xmlns="http://www.w3.org/2000/svg" width="251.87" height="306.58" viewBox="0 0 251.87 306.58"><title>course-1</title><g id="e7bd5df2-168e-4ac5-83e5-c9e52dbac919" data-name="Layer 2"><g id="ed077304-85fd-4396-9e1f-860f0e3a7b69" data-name="Corgi"><g id="e7e234dd-0e33-4810-aac1-78c335632508" data-name="Coding"><path d="M44.87,238s-7.64.45-7.75,6.41,4.31,7.93,7.23,7.82a1.91,1.91,0,0,0,1.95-2.72s-6.33-.85-6.11-4.4S45.32,241,45.32,241Z" style="fill:#d3cec5"/><path d="M44.62,226.94l.58-.19a46.1,46.1,0,0,1,28.5,0l.58.19a1.35,1.35,0,0,1,.94,1.29V264.5a1.23,1.23,0,0,1-.94,1.2l-3.26.78a52.43,52.43,0,0,1-22.95.38l-3.42-.7a1.22,1.22,0,0,1-1-1.21V228.23A1.35,1.35,0,0,1,44.62,226.94Z" style="fill:#f7f5f0"/><ellipse cx="59.45" cy="228.62" rx="13.46" ry="2.75" style="fill:#847861"/><path d="M45,230.6s6.19,3,10.43,3c3.27,0,2.45-.43,2.45,14.39,0,8.7-.23,18.39-.23,18.39s-4.09-.21-7-.61a36,36,0,0,1-4.47-.93A1.5,1.5,0,0,1,45,263.3Z" style="fill:#eae4d8"/><path d="M58.86,223.43s-3-4.73-2.37-6.8,1.27-4.61.94-5.9a11.12,11.12,0,0,0-1.55-2.93s4.44,2.09,4,5.35S58.34,221,58.86,223.43Z" style="fill:#eae4d8"/><path d="M62.58,215.61s2.45-2.88,1.86-4.25-1.11-3-.85-3.85,1.24-3.69,1.24-3.69-3.64,3-3.2,5.13S63,214.05,62.58,215.61Z" style="fill:#f2f2f2"/><path d="M129.79,266.49v1.42a1.43,1.43,0,0,0,1.46,1.42H242.41a1.44,1.44,0,0,0,1.46-1.42v-1.46a1.38,1.38,0,0,0-.45-1l-10.17-9.49a1.54,1.54,0,0,0-1-.4H142.59a1.54,1.54,0,0,0-1,.35l-11.33,9.53A1.4,1.4,0,0,0,129.79,266.49Z" style="fill:#b7b7b7"/><rect x="141.32" y="199.33" width="91.27" height="55.02" rx="3.79" style="fill:#b7b7b7"/><rect x="145.42" y="203.02" width="83.07" height="47.66" rx="1.59" style="fill:#7a7a7a"/><rect x="154.44" y="209.18" width="17.7" height="1.48" style="fill:#8bf943"/><rect x="157.47" y="212.34" width="15.69" height="1.48" style="fill:#8bf943"/><rect x="154.68" y="228.1" width="10.64" height="1.48" style="fill:#8bf943"/><rect x="157.47" y="215.49" width="24.59" height="1.48" style="fill:#8bf943"/><rect x="157.47" y="231.25" width="13.61" height="1.48" style="fill:#8bf943"/><rect x="157.42" y="221.8" width="5.87" height="1.48" style="fill:#8bf943"/><rect x="154.44" y="224.95" width="5.54" height="1.48" style="fill:#8bf943"/><rect x="154.44" y="240.71" width="5.54" height="1.48" style="fill:#8bf943"/><rect x="159.99" y="218.64" width="18.59" height="1.48" style="fill:#8bf943"/><rect x="157.42" y="237.56" width="5.87" height="1.48" style="fill:#8bf943"/><rect x="159.99" y="234.41" width="18.59" height="1.48" style="fill:#8bf943"/><path d="M243.42,265.43l-10.17-9.49a1.54,1.54,0,0,0-1-.4H142.59a1.54,1.54,0,0,0-1,.35l-11.33,9.53C130,265.69,243.71,265.7,243.42,265.43Z" style="fill:#d8d8d8"/></g><rect width="251.87" height="306.58" style="fill:none"/></g></g></svg>