<svg xmlns="http://www.w3.org/2000/svg" width="251.87" height="306.58" viewBox="0 0 251.87 306.58"><title>course-6_1</title><g id="e781a2e3-8727-4561-9b87-d649042a8b3c" data-name="Layer 2"><g id="e2190821-01da-4ac2-843c-26bebaf4053d" data-name="Corgi"><g id="b30bd398-92c5-4729-9e05-c54b4a40446e" data-name="Colours"><path d="M183.21,137.51c-.35-2.35-6.56-2.62-6.81-.22s1.29,4.46,0,6.53-4.41,1-3.37,5.14,4.14,5.44,1.3,7-5.68-4.91-6.71-1.29,0,7.61,3.62,6.38,8.18-4.58,6.8,1.1-2.48,2.26-3.71,5.1,2.51,2.13,3.71,1.61,1,.3,2.23,3.17,3.09,3.16,4.13,0S186.3,158.42,183.21,137.51Z" style="fill:#4ec1f0"/><path d="M75.69,46.62c2.88,0,7.18,1,9.4,3.1s1.41,4.67,0,4.9-5.47-1-5.79,2.3,1.93,8.63-.52,9.67-7.1-1.13-5.41-4.74,2.28-6.71-.28-7.49-1.27,6.17-5.4,4.36a3.86,3.86,0,0,1,.77-7.2C72.54,50.23,73.07,46.6,75.69,46.62Z" style="fill:#66d178"/><path d="M78.13,208.85c-1.73,2-2.57,16.26-2.12,18.32s4.54,2.84,6.75,2.07,5.6,4.13,5.85,6.19,1,6.2,3.08,5.42-.78-2.58-1.55-6.19-2.29-6.45-1.53-7.74,5.4,4.12,5.66,6.71,1.8,3.61,2.83,2.83.78-2.58,0-3.87-3.61-2.84-5.41-6.45,5.74.87,6.1-1.24-1.2-1.34-4.56-1.86.52-1,5.94-4.64,3.35-10.32,0-5.94-3.36,5.94-6.45,4.91-6-1-3.52-3.87,2.67-8.52,0-6.2-2.93,8-5.26,8-4.38-2.32-2.83-4.64S80.57,206,78.13,208.85Z" style="fill:#efeb6f"/><path d="M190,226.8c-2-1.25,1.26,5.54-.4,9.15s-4.79,9.29-2.71,11.35,7,3.87,8.15,2.84S197.22,231.3,190,226.8Z" style="fill:#ff7d50"/></g><rect width="251.87" height="306.58" style="fill:none"/></g></g></svg>