<svg xmlns="http://www.w3.org/2000/svg" xmlns:xlink="http://www.w3.org/1999/xlink" width="9.19" height="8.79" viewBox="0 0 9.19 8.79"><defs><clipPath id="bb09b69b-1f14-4059-afd5-6b90857413e4"><polygon points="9.19 3.6 7.59 1.2 3.6 0 2.8 1.2 0.4 1.6 0 4.4 1.2 7.99 4.8 8.39 7.59 8.79 8.39 5.2 9.19 3.6" style="fill:#635247"/></clipPath></defs><title>rock-1</title><g id="b73d8589-19c3-4d09-8a85-c9dd411a9db6" data-name="Layer 2"><g id="b83001a7-daf9-4561-b46a-7a8389d8dd5e" data-name="Layer 2"><g id="f569fa62-a2af-4762-bf9a-a92f637b8288" data-name="rock-1"><polygon points="9.19 3.6 7.59 1.2 3.6 0 2.8 1.2 0.4 1.6 0 4.4 1.2 7.99 4.8 8.39 7.59 8.79 8.39 5.2 9.19 3.6" style="fill:#635247"/><g style="clip-path:url(#bb09b69b-1f14-4059-afd5-6b90857413e4)"><polygon points="4 2 3.5 1.7 8.39 5.2 7.66 1.51 4 2" style="fill:#7d6253"/><polygon points="3.72 0.04 3.6 0 4 2 3.72 0.04" style="fill:#7d6253"/><polygon points="1.3 8.01 8.36 5.36 8.39 5.2 1.2 7.99 1.3 8.01" style="fill:#7d6253"/><polygon points="7.66 1.51 7.59 1.2 3.72 0.04 4 2 7.66 1.51" style="fill:#7d6253"/><polygon points="4 2 3.6 0 2.8 1.2 3.5 1.7 4 2" style="fill:#594a42"/><polygon points="4.8 8.39 7.59 8.79 8.36 5.36 1.3 8.01 4.8 8.39" style="fill:#916f5d"/><polygon points="8.39 5.2 0 4.4 1.2 7.99 8.39 5.2" style="fill:#7d6253"/><polygon points="8.39 5.2 9.19 3.6 7.59 1.2 7.66 1.51 8.39 5.2" style="fill:#8c6a54"/><polygon points="2.8 1.2 0.4 1.6 0 4.4 2.8 1.2" style="fill:#4c3f38"/><polygon points="3.5 1.7 2.8 1.2 0 4.4 8.39 5.2 3.5 1.7" style="fill:#635247"/></g></g></g></g></svg>