<svg xmlns="http://www.w3.org/2000/svg" width="15" height="13.57" viewBox="0 0 15 13.57"><title>rock-2</title><g id="e4a5b4a6-8f94-47e0-b984-b5046b16629d" data-name="Layer 2"><g id="b695170d-9c9a-44e4-9b60-52abde935656" data-name="Layer 2"><g id="a80b47e6-536f-4898-a591-28411c2b7b33" data-name="rock-2"><polygon points="14.23 12.45 15 7.57 13 1.57 9.61 2.31 6.39 0 2.7 2.77 0 8.57 2 11.57 5 13.57 11 13.57 14.23 12.45" style="fill:#635247"/><polygon points="8 8.57 14.11 7.7 10.24 4.73 8 8.57" style="fill:none"/><polygon points="6.19 11.16 7 11.57 6.96 11.49 6.19 11.16" style="fill:none"/><polygon points="15 7.57 13 1.57 11.12 3.22 10 5.57 15 7.57" style="fill:#7d6253"/><polygon points="10 5.57 13 1.57 10 2.57 8 8.57 10 5.57" style="fill:#594a42"/><polygon points="6.19 11.16 0 8.57 2 11.57 5 13.57 11 13.57 7 11.57 6.19 11.16" style="fill:#916f5d"/><polygon points="6.96 11.49 2.7 2.77 0 8.57 6.19 11.16 6.96 11.49" style="fill:#7d6253"/><polygon points="15 7.57 11 13.57 14.23 12.45 15 7.57" style="fill:#8c6a54"/><polygon points="9.63 2.3 9.61 2.31 6.39 0 2.7 2.77 10 2.57 9.63 2.3" style="fill:#4c3f38"/><polygon points="7 11.57 8 8.57 10 2.57 2.7 2.77 6.96 11.49 7 11.57" style="fill:#635247"/><polygon points="15 7.57 14.11 7.7 8 8.57 7 11.57 11 13.57 15 7.57" style="fill:#594a42"/></g></g></g></svg>