<svg xmlns="http://www.w3.org/2000/svg" width="22" height="23" viewBox="0 0 22 23"><title>rock-3</title><g id="be3998ed-91a3-4148-a81d-efbe67a71e97" data-name="Layer 2"><g id="ab28fbc3-4337-4713-8b24-eae5de2b74e8" data-name="Layer 2"><g id="e55c4760-8525-4709-9ff1-0bc5f4d2a406" data-name="rock-3"><polygon points="9 0 3 4 0 14 3 16 4 22 11 23 20 20 21 11 22 4 13 2 9 0" style="fill:#7d6253"/><polygon points="0.09 13.7 0 14 5 13 0.09 13.7" style="fill:#7d6253"/><polygon points="5 13 4.25 14.25 13 2 3.78 3.84 5 13" style="fill:#7d6253"/><polygon points="13.41 2.09 13 2 20 20 20.03 19.74 13.41 2.09" style="fill:#7d6253"/><polygon points="3.78 3.84 3 4 0.09 13.7 5 13 3.78 3.84" style="fill:#7d6253"/><polygon points="5 13 0 14 3 16 4.25 14.25 5 13" style="fill:#594a42"/><polygon points="21 11 22 4 13.41 2.09 20.03 19.74 21 11" style="fill:#916f5d"/><polygon points="11 23 20 20 13 2 11 23" style="fill:#7d6253"/><polygon points="13 2 9 0 3 4 3.78 3.84 13 2" style="fill:#8c6a54"/><polygon points="3 16 4 22 11 23 3 16" style="fill:#4c3f38"/><polygon points="4.25 14.25 3 16 11 23 13 2 4.25 14.25" style="fill:#635247"/></g></g></g></svg>