<svg xmlns="http://www.w3.org/2000/svg" width="652.7" height="225.7" viewBox="0 0 652.7 225.7"><title>logo-text-white</title><g id="ddd328f0-8323-47ea-b7e1-23aab6ae48d6" data-name="Layer 2"><g id="f29b222a-060c-4096-bde9-b6ea13b3d166" data-name="Layer 1"><circle cx="55.7" cy="31" r="31" style="fill:#fff"/><path d="M568,29.2H515.3L452.7,179.7H349.3V148.3h93.3V105.7h-94v-28H451.3V29.2H296V83s-6.3-19-29.3-34.7-37.3-19.1-66-19.1H121.3V199H95a11,11,0,0,1-11-11h0V80H0v26.3H19.3a12,12,0,0,1,12,12V183a16,16,0,0,1-16,16H0v26.7H197.3c36,0,48.7-6.7,64.7-16.7s33.3-34,33.3-34v50.7h196l13.3-33.3H580l12.7,33.3h60ZM200,177.7H176V79h32c12.7,0,42.7,15.3,42.7,49.3S228,177.7,200,177.7Zm320.7-29.3,22-54.7,20.7,54.7Z" style="fill:#fff"/></g></g></svg>