<svg xmlns="http://www.w3.org/2000/svg" width="1923" height="1080" viewBox="0 0 1923 1080"><title>background-navy_1</title><g id="b038e284-c239-4b4e-b0fd-15094800003a" data-name="Layer 2"><g id="aee6dab2-3f07-4b72-bca2-8b907bcf4d68" data-name="Even Darker"><rect id="e307bdb7-6769-4491-9072-a30ea2f5f2ef" data-name="Background" width="1923" height="1080" style="fill:#161f42"/><g id="f0dc5948-601c-47b5-8d38-9c208d045009" data-name="Shapes"><polygon points="1078.918 707.389 1331.478 869.045 1339.232 707.389 1078.918 707.389" style="fill:#101531"/><polygon points="1078.918 707.389 1156.459 922.93 1331.478 869.045 1078.918 707.389" style="fill:#0e132b"/><polygon points="1078.918 707.389 972.577 841.529 1156.459 922.93 1078.918 707.389" style="fill:#111735"/><polygon points="1156.459 922.93 1078.918 1006.624 1165.32 928.662 1331.478 869.045 1156.459 922.93" style="fill:#0b0f23"/><polygon points="1339.232 707.389 1475.482 694.777 1331.478 869.045 1339.232 707.389" style="fill:#111734"/><polygon points="1545.268 888.535 1545.268 755.541 1475.482 694.777 1331.478 869.045 1545.268 888.535" style="fill:#0e132b"/><polygon points="1457.758 942.42 1545.268 888.535 1331.478 869.045 1457.758 942.42" style="fill:#0e132b"/><polygon points="1301.57 937.834 1457.758 942.42 1331.478 869.045 1301.57 937.834" style="fill:#0a0f20"/><polygon points="1165.32 928.662 1301.57 937.834 1331.478 869.045 1165.32 928.662" style="fill:#0a0f20"/><polygon points="1208.521 1069.682 1301.57 937.834 1165.32 928.662 1208.521 1069.682" style="fill:#0a0f20"/><polygon points="1462.189 971.083 1457.758 942.42 1301.57 937.834 1462.189 971.083" style="fill:#0a0d1d"/><polygon points="1728.041 1010.064 1723.611 922.93 1457.758 942.42 1462.189 971.083 1728.041 1010.064" style="fill:#0c0f24"/><polygon points="1545.268 888.535 1723.611 922.93 1457.758 942.42 1545.268 888.535" style="fill:#070915"/><polygon points="1545.268 755.541 1580.715 857.58 1545.268 888.535 1545.268 755.541" style="fill:#0e142c"/><polygon points="1165.32 928.662 1118.796 1042.166 1208.521 1069.682 1165.32 928.662" style="fill:#0a0d1d"/><polygon points="1078.918 1006.624 1118.796 1042.166 1165.32 928.662 1078.918 1006.624" style="fill:#090c1b"/><polygon points="970.362 953.885 1078.918 1006.624 1156.459 922.93 970.362 953.885" style="fill:#0a0d1d"/><polygon points="865.128 903.439 972.577 841.529 1156.459 922.93 970.362 953.885 865.128 903.439" style="fill:#0b0f23"/><polygon points="1301.57 937.834 1462.189 971.083 1349.202 1080 1297.139 1080 1301.57 937.834" style="fill:#070a17"/><polygon points="1208.521 1069.682 1297.139 1080 1301.57 937.834 1208.521 1069.682" style="fill:#0a0d1d"/><polygon points="970.362 953.885 1010.24 1006.624 1078.918 1006.624 970.362 953.885" style="fill:#070a17"/><polygon points="1118.796 1042.166 1067.841 1045.605 1010.24 1006.624 1078.918 1006.624 1118.796 1042.166" style="fill:#070915"/><polygon points="1462.189 971.083 1389.079 1080 1349.202 1080 1462.189 971.083" style="fill:#0c0f24"/><polygon points="1462.189 1080 1462.189 971.083 1389.079 1080 1462.189 1080" style="fill:#0a0e1e"/><polygon points="1497.636 1080 1462.189 971.083 1462.189 1080 1497.636 1080" style="fill:#060811"/><polygon points="1728.041 1010.064 1675.979 1080 1497.636 1080 1462.189 971.083 1728.041 1010.064" style="fill:#04050d"/><polygon points="1704.779 1080 1728.041 1010.064 1675.979 1080 1704.779 1080" style="fill:#060915"/><polygon points="1580.715 857.58 1723.611 922.93 1545.268 888.535 1580.715 857.58" style="fill:#04060d"/><polygon points="1545.268 755.541 1644.963 815.159 1580.715 857.58 1545.268 755.541" style="fill:#0d1128"/><polygon points="1723.611 922.93 1644.963 815.159 1580.715 857.58 1723.611 922.93" style="fill:#04060e"/><polygon points="1749.088 828.917 1723.611 922.93 1644.963 815.159 1749.088 828.917" style="fill:#060812"/><polygon points="1652.717 788.79 1749.088 828.917 1644.963 815.159 1652.717 788.79" style="fill:#0e142e"/><polygon points="1545.268 755.541 1652.717 788.79 1644.963 815.159 1545.268 755.541" style="fill:#0f152f"/><path d="M1749.08813,828.9172s-13.29262-47.00637-14.40034-47.00637-81.9712,6.879-81.9712,6.879Z" style="fill:#0a0f21"/><polygon points="1562.991 582.42 1652.717 788.79 1545.268 755.541 1562.991 582.42" style="fill:#111734"/><polygon points="1475.482 694.777 1490.99 659.236 1562.991 582.42 1545.268 755.541 1475.482 694.777" style="fill:#111735"/><polygon points="1652.717 788.79 1796.72 652.357 1562.991 582.42 1652.717 788.79" style="fill:#101634"/><polygon points="1734.688 781.911 1796.72 652.357 1652.717 788.79 1734.688 781.911" style="fill:#0f1530"/><polygon points="1805.582 769.299 1749.088 828.917 1734.688 781.911 1805.582 769.299" style="fill:#05060c"/><polygon points="1796.72 652.357 1805.582 769.299 1734.688 781.911 1796.72 652.357" style="fill:#070915"/><polygon points="1788.966 888.535 1805.582 769.299 1749.088 828.917 1788.966 888.535" style="fill:#04060d"/><polygon points="1723.611 922.93 1788.966 888.535 1749.088 828.917 1723.611 922.93" style="fill:#090c1d"/><polygon points="1886.445 850.701 1805.582 769.299 1788.966 888.535 1886.445 850.701" style="fill:#080b1c"/><polygon points="1796.72 652.357 1896.415 841.529 1805.582 769.299 1796.72 652.357" style="fill:#04060e"/><polygon points="1886.445 850.701 1896.415 841.529 1805.582 769.299 1886.445 850.701" style="fill:#04050d"/><polygon points="1904.169 951.592 1886.445 850.701 1788.966 888.535 1904.169 951.592" style="fill:#0b0f23"/><polygon points="1784.535 981.401 1788.966 888.535 1723.611 922.93 1784.535 981.401" style="fill:#101634"/><polygon points="1728.041 1010.064 1784.535 981.401 1723.611 922.93 1728.041 1010.064" style="fill:#111737"/><polygon points="1788.966 888.535 1904.169 951.592 1784.535 981.401 1788.966 888.535" style="fill:#0e1229"/><polygon points="1728.041 1010.064 1784.535 1037.58 1784.535 981.401 1728.041 1010.064" style="fill:#0c112c"/><polygon points="1904.169 951.592 1784.535 1080 1784.535 981.401 1904.169 951.592" style="fill:#080b1c"/><polygon points="1728.041 1010.064 1784.535 1037.58 1704.779 1080 1728.041 1010.064" style="fill:#080b1c"/><polygon points="1784.535 1080 1784.535 1037.58 1704.779 1080 1784.535 1080" style="fill:#080b1c"/><polygon points="1891.984 1080 1904.169 951.592 1784.535 1080 1891.984 1080" style="fill:#04050c"/><polygon points="1896.415 841.529 1904.169 951.592 1886.445 850.701 1896.415 841.529" style="fill:#0b0f23"/><polygon points="1862.075 545.732 1896.415 841.529 1796.72 652.357 1862.075 545.732" style="fill:#090c1b"/><polygon points="1788.966 533.121 1862.075 545.732 1796.72 652.357 1788.966 533.121" style="fill:#0c0f24"/><polygon points="1562.991 582.42 1788.966 533.121 1796.72 652.357 1562.991 582.42" style="fill:#0f1530"/><polygon points="1592.9 456.306 1788.966 533.121 1562.991 582.42 1592.9 456.306" style="fill:#101533"/><polygon points="1627.239 402.42 1697.025 497.1 1592.9 456.306 1627.239 402.42" style="fill:#101533"/><polygon points="1759.058 460.892 1697.025 497.58 1788.966 533.121 1759.058 460.892" style="fill:#111737"/><polygon points="1627.239 402.42 1733.58 398.981 1697.025 497.58 1627.239 402.42" style="fill:#0f1531"/><polygon points="1759.058 460.892 1733.58 398.981 1697.025 497.58 1759.058 460.892" style="fill:#101634"/><polygon points="1788.966 533.121 1862.075 545.732 1846.567 441.401 1788.966 533.121" style="fill:#0b0f23"/><polygon points="1733.58 398.981 1846.567 441.401 1788.966 533.121 1733.58 398.981" style="fill:#0f1530"/><polygon points="1713.641 261.401 1733.58 398.981 1756.842 264.841 1713.641 261.401" style="fill:#111737"/><polygon points="1846.567 441.401 1843.244 357.707 1733.58 398.981 1846.567 441.401" style="fill:#0e142d"/><polygon points="1756.842 264.841 1843.244 357.707 1733.58 398.981 1756.842 264.841" style="fill:#111737"/><polygon points="1713.641 261.401 1627.239 402.42 1733.58 398.981 1713.641 261.401" style="fill:#101634"/><polygon points="1529.76 550.318 1562.991 582.42 1592.9 456.306 1529.76 550.318" style="fill:#141a3d"/><polygon points="1577.392 407.006 1627.239 402.42 1592.9 456.306 1577.392 407.006" style="fill:#121838"/><polygon points="1559.668 259.108 1602.869 354.268 1648.286 261.401 1559.668 259.108" style="fill:#131a3b"/><polygon points="1713.641 261.401 1602.869 354.268 1648.286 261.401 1713.641 261.401" style="fill:#131a3b"/><polygon points="1627.239 402.42 1602.869 354.268 1713.641 261.401 1627.239 402.42" style="fill:#141b3e"/><polygon points="1577.392 407.006 1602.869 354.268 1627.239 402.42 1577.392 407.006" style="fill:#141a3d"/><polygon points="1510.929 418.471 1577.392 407.006 1602.869 354.268 1510.929 418.471" style="fill:#111735"/><polygon points="1484.343 264.841 1602.869 354.268 1510.929 418.471 1484.343 264.841" style="fill:#131a3a"/><polygon points="1559.668 259.108 1602.869 354.268 1484.343 264.841 1559.668 259.108" style="fill:#141b3e"/><polygon points="1510.929 418.471 1592.9 456.306 1577.392 407.006 1510.929 418.471" style="fill:#111734"/><polygon points="1494.313 471.21 1592.9 456.306 1510.929 418.471 1494.313 471.21" style="fill:#101532"/><polygon points="1529.76 550.318 1494.313 471.21 1592.9 456.306 1529.76 550.318" style="fill:#101532"/><polygon points="1510.929 418.471 1452.219 432.229 1494.313 471.21 1510.929 418.471" style="fill:#111734"/><polygon points="1434.496 269.427 1510.929 418.471 1484.343 264.841 1434.496 269.427" style="fill:#121837"/><polygon points="1452.219 432.229 1510.929 418.471 1434.496 269.427 1452.219 432.229" style="fill:#111734"/><polygon points="1562.991 582.42 1490.99 659.236 1529.76 550.318 1562.991 582.42" style="fill:#131a3a"/><polygon points="1452.219 432.229 1494.313 471.21 1477.697 513.631 1452.219 432.229" style="fill:#131a3a"/><polygon points="1529.76 550.318 1477.697 513.631 1494.313 471.21 1529.76 550.318" style="fill:#131a3a"/><polygon points="1475.482 694.777 1490.99 659.236 1529.76 550.318 1477.697 513.631 1475.482 694.777" style="fill:#131a3a"/><polygon points="1339.232 707.389 1476.302 627.734 1475.482 694.777 1339.232 707.389" style="fill:#131a3a"/><polygon points="1477.697 513.631 1476.589 628.28 1339.232 707.389 1477.697 513.631" style="fill:#141a3d"/><polygon points="1434.496 269.427 1189.69 432.229 1452.219 432.229 1434.496 269.427" style="fill:#131a3a"/><polygon points="1243.968 483.822 1452.219 432.229 1189.69 432.229 1243.968 483.822" style="fill:#141a3d"/><polygon points="1477.697 513.631 1452.219 432.229 1243.968 483.822 1477.697 513.631" style="fill:#151c41"/><polygon points="1339.232 707.389 1289.385 604.204 1274.984 652.357 1339.232 707.389" style="fill:#141a3d"/><polygon points="1243.968 483.822 1289.385 604.204 1477.697 513.631 1243.968 483.822" style="fill:#141a3d"/><polygon points="1339.232 707.389 1477.697 513.631 1289.385 604.204 1339.232 707.389" style="fill:#151d43"/><polygon points="1078.918 707.389 1274.984 652.357 1339.232 707.389 1078.918 707.389" style="fill:#131a3a"/><polygon points="1289.385 604.204 1243.968 483.822 1274.984 652.357 1289.385 604.204" style="fill:#141b3e"/><polygon points="1068.949 647.771 1078.918 707.389 1274.984 652.357 1068.949 647.771" style="fill:#151d43"/><polygon points="1205.198 580.127 1068.949 647.771 1274.984 652.357 1205.198 580.127" style="fill:#151d43"/><polygon points="1243.968 483.822 1138.735 510.191 1205.198 580.127 1274.984 652.357 1243.968 483.822" style="fill:#131a3a"/><polygon points="1068.949 647.771 1205.198 580.127 1138.735 510.191 1068.949 647.771" style="fill:#151c41"/><polygon points="1243.968 483.822 1189.69 432.229 1138.735 510.191 1243.968 483.822" style="fill:#141b3e"/><polygon points="1092.211 392.102 1138.735 510.191 996.947 538.854 1092.211 392.102" style="fill:#151c41"/><polygon points="1068.949 647.771 1039.148 707.429 972.577 841.529 1078.918 707.389 1068.949 647.771" style="fill:#131a3a"/><polygon points="996.947 538.854 1138.735 510.191 1068.949 647.771 1039.148 707.429 996.947 538.854" style="fill:#161d44"/><polygon points="957.069 667.261 1025.608 652.357 1039.148 707.429 957.069 667.261" style="fill:#161d44"/><polygon points="972.577 841.529 957.069 667.261 1039.148 707.429 972.577 841.529" style="fill:#151c41"/><polygon points="865.128 903.439 841.866 804.841 972.577 841.529 865.128 903.439" style="fill:#131a3a"/><polygon points="957.069 667.261 972.577 841.529 841.866 804.841 957.069 667.261" style="fill:#141a3d"/><polygon points="996.947 538.854 1025.608 652.357 957.069 667.261 996.947 538.854" style="fill:#151c41"/><polygon points="979.224 396.688 1092.211 392.102 996.947 538.854 979.224 396.688" style="fill:#141a3d"/><polygon points="799.773 546.879 996.947 538.854 885.067 465.478 799.773 546.879" style="fill:#141a3d"/><polygon points="957.069 667.261 996.947 538.854 799.773 546.879 957.069 667.261" style="fill:#141b3e"/><polygon points="841.866 804.841 799.773 546.879 957.069 667.261 841.866 804.841" style="fill:#111735"/><polygon points="762.111 869.045 865.128 903.439 841.866 804.841 762.111 869.045" style="fill:#121837"/><polygon points="758.787 734.904 841.866 804.841 762.111 869.045 758.787 734.904" style="fill:#111735"/><polygon points="799.773 546.879 758.787 734.904 841.866 804.841 799.773 546.879" style="fill:#141b3e"/><polygon points="762.111 869.045 711.156 830.064 758.787 734.904 762.111 869.045" style="fill:#141a3d"/><polygon points="799.773 546.879 640.262 652.357 758.787 734.904 799.773 546.879" style="fill:#121837"/><polygon points="609.245 686.752 758.787 734.904 711.156 830.064 665.739 905.732 609.245 686.752" style="fill:#121838"/><polygon points="640.262 652.357 609.245 686.752 758.787 734.904 640.262 652.357" style="fill:#121838"/><polygon points="544.998 716.561 609.245 686.752 665.739 905.732 544.998 716.561" style="fill:#0d1128"/><polygon points="499.581 801.401 665.739 905.732 544.998 716.561 499.581 801.401" style="fill:#0d1128"/><polygon points="560.506 903.439 665.739 905.732 499.581 801.401 560.506 903.439" style="fill:#101531"/><polygon points="711.156 830.064 762.111 869.045 665.739 905.732 711.156 830.064" style="fill:#131a3b"/><polygon points="762.111 869.045 743.279 1016.943 865.128 903.439 762.111 869.045" style="fill:#0b0f23"/><polygon points="665.739 905.732 743.279 1016.943 762.111 869.045 665.739 905.732" style="fill:#0b0f23"/><polygon points="560.506 903.439 743.279 1016.943 665.739 905.732 560.506 903.439" style="fill:#0b0f23"/><polygon points="1010.24 1006.624 970.362 953.885 743.279 1016.943 1010.24 1006.624" style="fill:#0a0e1e"/><polygon points="865.128 903.439 970.362 953.885 743.279 1016.943 865.128 903.439" style="fill:#0a0d1d"/><polygon points="929.376 1080 1010.24 1006.624 743.279 1016.943 929.376 1080" style="fill:#0e122a"/><polygon points="957.069 1080 1010.24 1006.624 929.376 1080 957.069 1080" style="fill:#0a0f21"/><polygon points="1067.841 1045.605 1022.425 1080 957.069 1080 1010.24 1006.624 1067.841 1045.605" style="fill:#090b1a"/><polygon points="1063.41 1080 1067.841 1045.605 1022.425 1080 1063.41 1080" style="fill:#090b1a"/><polygon points="743.279 1016.943 770.972 1080 929.376 1080 743.279 1016.943" style="fill:#070a17"/><polygon points="559.398 1016.943 743.279 1016.943 770.972 1080 677.924 1080 559.398 1016.943" style="fill:#0a0e1e"/><polygon points="560.506 903.439 559.398 1016.943 743.279 1016.943 560.506 903.439" style="fill:#0b0f23"/><polygon points="489.612 961.911 559.398 1016.943 494.043 1020.382 489.612 961.911" style="fill:#05070f"/><polygon points="487.396 1080 559.398 1016.943 552.752 1080 487.396 1080" style="fill:#05070f"/><polygon points="489.612 961.911 560.506 903.439 559.398 1016.943 489.612 961.911" style="fill:#05070f"/><polygon points="677.924 1080 559.398 1016.943 552.752 1080 677.924 1080" style="fill:#070915"/><polygon points="494.043 1020.382 469.673 1080 487.396 1080 559.398 1016.943 494.043 1020.382" style="fill:#090b14"/><polygon points="489.612 961.911 494.043 1020.382 378.84 1047.898 489.612 961.911" style="fill:#090b14"/><polygon points="459.703 1080 494.043 1020.382 378.84 1047.898 459.703 1080" style="fill:#04050d"/><polygon points="469.673 1080 494.043 1020.382 459.703 1080 469.673 1080" style="fill:#040509"/><polygon points="378.84 1047.898 424.256 1080 459.703 1080 378.84 1047.898" style="fill:#04050d"/><polygon points="501.797 913.758 560.506 903.439 489.612 961.911 501.797 913.758" style="fill:#0b0f23"/><polygon points="499.581 801.401 501.797 913.758 560.506 903.439 499.581 801.401" style="fill:#0a0f20"/><polygon points="1067.841 1045.605 1122.119 1080 1063.41 1080 1067.841 1045.605" style="fill:#090c1b"/><polygon points="1118.796 1042.166 1122.119 1080 1067.841 1045.605 1118.796 1042.166" style="fill:#090b1a"/><polygon points="1208.521 1069.682 1122.119 1080 1118.796 1042.166 1208.521 1069.682" style="fill:#090b1a"/><polygon points="1297.139 1080 1122.119 1080 1208.521 1069.682 1297.139 1080" style="fill:#090b1a"/><polygon points="378.84 1047.898 400.994 1080 424.256 1080 378.84 1047.898" style="fill:#05070f"/><polygon points="336.747 976.815 378.84 1047.898 289.115 1039.873 336.747 976.815" style="fill:#060811"/><polygon points="489.612 961.911 378.84 1047.898 336.747 976.815 489.612 961.911" style="fill:#070a17"/><polygon points="265.853 1080 378.84 1047.898 289.115 1039.873 265.853 1080" style="fill:#04050c"/><polygon points="322.346 1080 378.84 1047.898 265.853 1080 322.346 1080" style="fill:#030409"/><polygon points="400.994 1080 378.84 1047.898 322.346 1080 400.994 1080" style="fill:#090c1b"/><polygon points="306.838 918.344 336.747 976.815 289.115 1039.873 306.838 918.344" style="fill:#070a17"/><polygon points="196.066 1020.382 289.115 1039.873 306.838 918.344 196.066 1020.382" style="fill:#050712"/><polygon points="424.256 902.293 489.612 961.911 344.501 959.618 424.256 902.293" style="fill:#0a0f20"/><polygon points="336.747 976.815 344.501 959.618 489.612 961.911 336.747 976.815" style="fill:#090c1b"/><polygon points="306.838 918.344 344.501 959.618 336.747 976.815 306.838 918.344" style="fill:#0d1125"/><polygon points="424.256 902.293 344.501 959.618 306.838 918.344 424.256 902.293" style="fill:#0a0f20"/><polygon points="501.797 913.758 489.612 961.911 424.256 902.293 501.797 913.758" style="fill:#090c1b"/><polygon points="499.581 801.401 424.256 902.293 501.797 913.758 499.581 801.401" style="fill:#070a17"/><polygon points="410.964 801.401 499.581 801.401 424.256 902.293 410.964 801.401" style="fill:#0c1127"/><polygon points="361.116 838.089 424.256 902.293 410.964 801.401 361.116 838.089" style="fill:#0f1531"/><polygon points="306.838 918.344 361.116 838.089 424.256 902.293 306.838 918.344" style="fill:#0d1026"/><polygon points="446.411 716.561 544.998 716.561 499.581 801.401 446.411 716.561" style="fill:#0c1025"/><polygon points="410.964 801.401 446.411 716.561 499.581 801.401 410.964 801.401" style="fill:#0d122a"/><polygon points="324.562 731.465 410.964 801.401 361.116 838.089 324.562 731.465" style="fill:#101634"/><polygon points="446.411 716.561 324.562 731.465 410.964 801.401 446.411 716.561" style="fill:#0f1530"/><polygon points="278.037 775.032 361.116 838.089 324.562 731.465 278.037 775.032" style="fill:#12183a"/><polygon points="306.838 918.344 361.116 838.089 278.037 775.032 306.838 918.344" style="fill:#0e122a"/><polygon points="196.066 1020.382 189.42 932.102 306.838 918.344 196.066 1020.382" style="fill:#0a0d1f"/><polygon points="278.037 775.032 306.838 918.344 130.711 938.981 278.037 775.032" style="fill:#070a17"/><polygon points="289.115 1039.873 196.066 1020.382 197.174 1080 265.853 1080 289.115 1039.873" style="fill:#060915"/><polygon points="55.386 1050.191 196.066 1020.382 189.42 932.102 55.386 1050.191" style="fill:#090b14"/><polygon points="130.711 938.981 189.42 932.102 55.386 1050.191 130.711 938.981" style="fill:#060916"/><polygon points="196.066 1020.382 197.174 1080 55.386 1050.191 196.066 1020.382" style="fill:#060811"/><polygon points="0 772.739 193.767 868.81 130.711 938.981 0 772.739" style="fill:#05070f"/><polygon points="35.447 949.299 130.711 938.981 0 772.739 35.447 949.299" style="fill:#0b0f23"/><polygon points="278.037 775.032 139.573 621.401 324.562 731.465 278.037 775.032" style="fill:#0d1127"/><polygon points="76.433 689.045 278.037 775.032 139.573 621.401 76.433 689.045" style="fill:#0a0e1e"/><polygon points="0 772.739 278.037 775.032 76.433 689.045 0 772.739" style="fill:#0b0f23"/><polygon points="193.851 869.045 278.037 775.032 0 772.739 193.851 869.045" style="fill:#0a0e1e"/><polygon points="55.386 1050.191 35.447 949.299 130.711 938.981 55.386 1050.191" style="fill:#04050d"/><polygon points="17.724 1080 55.386 1050.191 35.447 949.299 17.724 1080" style="fill:#090e23"/><polygon points="197.174 1080 55.386 1050.191 17.724 1080 197.174 1080" style="fill:#05060c"/><polygon points="35.447 949.299 17.724 1080 0 772.739 35.447 949.299" style="fill:#04050c"/><polygon points="0 1080 17.724 1080 10.912 961.911 0 979.108 0 1080" style="fill:#05060c"/><polygon points="0 772.739 11.077 961.911 0 979.108 0 772.739" style="fill:#05060c"/><polygon points="139.573 621.401 44.309 645.478 130.711 595.032 139.573 621.401" style="fill:#0a0f21"/><polygon points="17.724 497.58 44.309 645.478 0 772.739 17.724 497.58" style="fill:#0a0d1d"/><polygon points="139.573 621.401 0 772.739 44.309 645.478 139.573 621.401" style="fill:#090c1b"/><polygon points="17.724 497.58 130.711 595.032 44.309 645.478 17.724 497.58" style="fill:#0c0f24"/><polygon points="139.573 621.401 218.221 578.981 324.562 731.465 139.573 621.401" style="fill:#0b0f23"/><polygon points="130.711 595.032 141.788 527.389 218.221 578.981 130.711 595.032" style="fill:#0c0f24"/><polygon points="139.573 621.401 218.221 578.981 130.711 595.032 139.573 621.401" style="fill:#0b0f23"/><polygon points="218.221 578.981 324.562 731.465 340.07 595.032 218.221 578.981" style="fill:#101533"/><polygon points="314.592 510.191 340.07 595.032 218.221 578.981 314.592 510.191" style="fill:#0f1530"/><polygon points="141.788 527.389 218.221 578.981 314.592 510.191 141.788 527.389" style="fill:#0b0f23"/><polygon points="340.07 595.032 420.933 645.478 324.562 731.465 340.07 595.032" style="fill:#0f1531"/><polygon points="446.411 716.561 420.933 645.478 324.562 731.465 446.411 716.561" style="fill:#0f1530"/><polygon points="544.998 716.561 448.626 632.866 446.411 716.561 544.998 716.561" style="fill:#0d122a"/><polygon points="420.933 645.478 448.626 632.866 446.411 716.561 420.933 645.478" style="fill:#0c1127"/><polygon points="544.998 716.561 531.705 559.49 609.245 686.752 544.998 716.561" style="fill:#111734"/><polygon points="340.07 595.032 450.842 519.363 448.626 632.866 340.07 595.032" style="fill:#0e142e"/><polygon points="420.933 645.478 448.626 632.866 340.07 595.032 420.933 645.478" style="fill:#0d122a"/><polygon points="450.842 519.363 531.705 559.49 448.626 632.866 450.842 519.363" style="fill:#0e142d"/><polygon points="544.998 716.561 531.705 559.49 448.626 632.866 544.998 716.561" style="fill:#0e132b"/><polygon points="609.245 686.752 640.262 652.357 531.705 559.49 609.245 686.752" style="fill:#111734"/><polygon points="450.842 519.363 511.766 456.306 531.705 559.49 450.842 519.363" style="fill:#101634"/><polygon points="562.721 475.796 531.705 559.49 511.766 456.306 562.721 475.796" style="fill:#121837"/><polygon points="345.608 443.694 496.258 472.357 450.842 519.363 345.608 443.694" style="fill:#0f1531"/><polygon points="314.592 510.191 450.842 519.363 340.07 595.032 314.592 510.191" style="fill:#0f1531"/><polygon points="345.608 443.694 314.592 510.191 450.842 519.363 345.608 443.694" style="fill:#0f1530"/><polygon points="799.773 546.879 562.721 475.796 531.705 559.49 799.773 546.879" style="fill:#111735"/><polygon points="640.262 652.357 656.802 553.683 531.705 559.49 640.262 652.357" style="fill:#121837"/><polygon points="799.773 546.879 656.802 553.683 640.262 652.357 799.773 546.879" style="fill:#0e142e"/><polygon points="885.067 465.478 778.726 381.783 799.773 546.879 885.067 465.478" style="fill:#121837"/><polygon points="562.721 475.796 778.726 381.783 799.773 546.879 562.721 475.796" style="fill:#121838"/><polygon points="559.398 447.134 527.274 381.783 778.726 381.783 559.398 447.134" style="fill:#101533"/><polygon points="511.766 456.306 559.398 447.134 562.721 475.796 511.766 456.306" style="fill:#141a3d"/><polygon points="778.726 381.783 562.721 475.796 559.398 447.134 778.726 381.783" style="fill:#121838"/><polygon points="527.274 381.783 511.766 456.306 559.398 447.134 527.274 381.783" style="fill:#121838"/><polygon points="496.258 472.357 478.535 346.242 511.766 456.306 496.258 472.357" style="fill:#131a3a"/><polygon points="345.608 443.694 478.535 346.242 496.258 472.357 345.608 443.694" style="fill:#101634"/><polygon points="527.274 381.783 478.535 346.242 511.766 456.306 527.274 381.783" style="fill:#131a3a"/><polygon points="525.059 331.338 478.535 346.242 527.274 381.783 525.059 331.338" style="fill:#131a3b"/><polygon points="580.445 243.057 665.739 251.083 525.059 331.338 580.445 243.057" style="fill:#131a3b"/><polygon points="527.274 381.783 665.739 251.083 778.726 381.783 527.274 381.783" style="fill:#121838"/><polygon points="525.059 331.338 665.739 251.083 527.274 381.783 525.059 331.338" style="fill:#131a3a"/><polygon points="885.067 465.478 979.224 396.688 996.947 538.854 885.067 465.478" style="fill:#131a3a"/><polygon points="947.1 321.019 979.224 396.688 778.726 381.783 947.1 321.019" style="fill:#131a3b"/><polygon points="885.067 465.478 979.224 396.688 778.726 381.783 885.067 465.478" style="fill:#121838"/><polygon points="1092.211 392.102 1189.69 432.229 1138.735 510.191 1092.211 392.102" style="fill:#141b3e"/><polygon points="1819.982 190.318 1843.244 357.707 1923 214.395 1923 176.561 1819.982 190.318" style="fill:#141a3d"/><polygon points="1756.842 264.841 1819.982 190.318 1843.244 357.707 1756.842 264.841" style="fill:#101533"/><polygon points="1846.567 441.401 1889.768 411.592 1843.244 357.707 1846.567 441.401" style="fill:#0a0f20"/><polygon points="1923 214.395 1889.768 411.592 1843.244 357.707 1923 214.395" style="fill:#0e122a"/><polygon points="1862.075 545.732 1889.768 411.592 1846.567 441.401 1862.075 545.732" style="fill:#0d1127"/><polygon points="1923 479.236 1896.415 841.529 1862.075 545.732 1923 479.236" style="fill:#0a0f20"/><polygon points="1923 214.395 1923 479.236 1862.075 545.732 1923 214.395" style="fill:#0a0f20"/><polygon points="917.191 278.599 947.1 321.019 778.726 381.783 917.191 278.599" style="fill:#141a3d"/><polygon points="907.222 252.229 778.726 381.783 917.191 278.599 907.222 252.229" style="fill:#131a3b"/><polygon points="818.604 214.395 907.222 252.229 778.726 381.783 818.604 214.395" style="fill:#131a3a"/><polygon points="664.631 251.083 818.604 214.395 778.726 381.783 664.631 251.083" style="fill:#131a3a"/><polygon points="593.737 132.994 664.631 251.083 580.445 243.057 593.737 132.994" style="fill:#131a3a"/><polygon points="22.154 220.127 38.77 358.854 167.266 274.013 22.154 220.127" style="fill:#141a3d"/><polygon points="525.059 278.599 525.059 331.338 478.535 346.242 525.059 278.599" style="fill:#141b3e"/><polygon points="304.623 369.172 345.608 443.694 314.592 510.191 304.623 369.172" style="fill:#101533"/><polygon points="141.788 527.389 141.788 475.796 314.592 510.191 141.788 527.389" style="fill:#0d1127"/><polygon points="525.059 278.599 580.445 243.057 525.059 331.338 525.059 278.599" style="fill:#151c41"/><polygon points="47.632 432.229 141.788 475.796 127.388 409.299 47.632 432.229" style="fill:#101533"/><polygon points="167.266 274.013 127.388 409.299 38.77 358.854 167.266 274.013" style="fill:#101533"/><polygon points="17.724 497.58 47.632 432.229 141.788 475.796 17.724 497.58" style="fill:#0e122a"/><polygon points="38.77 358.854 47.632 432.229 127.388 409.299 38.77 358.854" style="fill:#101533"/><polygon points="167.266 274.013 304.623 369.172 192.743 365.732 167.266 274.013" style="fill:#151c41"/><polygon points="127.388 409.299 192.743 365.732 141.788 475.796 127.388 409.299" style="fill:#111737"/><polygon points="304.623 369.172 239.267 447.134 314.592 510.191 304.623 369.172" style="fill:#12183a"/><polygon points="141.788 475.796 239.267 447.134 314.592 510.191 141.788 475.796" style="fill:#0e122a"/><polygon points="192.743 365.732 239.267 447.134 304.623 369.172 192.743 365.732" style="fill:#111737"/><polygon points="141.788 475.796 239.267 447.134 192.743 365.732 141.788 475.796" style="fill:#111839"/><polygon points="17.724 497.58 141.788 475.796 141.788 527.389 17.724 497.58" style="fill:#0e122a"/><polygon points="130.711 595.032 141.788 527.389 17.724 497.58 130.711 595.032" style="fill:#0e1229"/><polygon points="304.623 369.172 355.578 306.115 345.608 443.694 304.623 369.172" style="fill:#111737"/><polygon points="478.535 346.242 355.578 306.115 345.608 443.694 478.535 346.242" style="fill:#101634"/><polygon points="340.07 187.643 443.111 306.416 478.535 346.242 468.565 284.331 340.07 187.643" style="fill:#141b3e"/><polygon points="489.612 255.669 468.565 284.331 525.059 278.599 489.612 255.669" style="fill:#141b3e"/><polygon points="580.445 243.057 489.612 255.669 525.059 278.599 580.445 243.057" style="fill:#141b3e"/><polygon points="478.535 346.242 525.059 278.599 468.565 284.331 478.535 346.242" style="fill:#141b3e"/><polygon points="355.578 306.115 279.145 225.86 304.623 369.172 355.578 306.115" style="fill:#141b3e"/><polygon points="167.266 274.013 192.743 365.732 127.388 409.299 167.266 274.013" style="fill:#101634"/><polygon points="279.145 225.86 167.266 274.013 242.59 182.293 279.145 225.86" style="fill:#141b3e"/><polygon points="340.07 187.643 279.145 225.86 242.59 182.293 340.07 187.643" style="fill:#141b3e"/><polygon points="355.578 306.115 443.111 306.416 279.145 225.86 355.578 306.115" style="fill:#141b3e"/><polygon points="478.535 346.242 443.111 306.416 355.578 306.115 478.535 346.242" style="fill:#151c41"/><polygon points="304.623 369.172 279.145 225.86 167.266 274.013 304.623 369.172" style="fill:#141b3e"/><polygon points="443.111 306.416 340.07 187.643 279.145 225.86 443.111 306.416" style="fill:#141b3e"/><polygon points="242.59 182.293 159.512 149.045 211.519 220.127 242.59 182.293" style="fill:#141b3e"/><polygon points="489.612 255.669 340.07 188.025 468.565 284.331 489.612 255.669" style="fill:#141b3e"/><polygon points="167.266 274.013 159.512 149.045 211.574 220.127 167.266 274.013" style="fill:#141a3d"/><polygon points="22.154 220.127 159.512 149.045 167.266 274.013 22.154 220.127" style="fill:#141a3d"/><polygon points="593.737 132.994 489.612 255.669 580.445 243.057 593.737 132.994" style="fill:#141b3e"/><polygon points="242.59 182.293 223.759 114.65 159.512 149.045 242.59 182.293" style="fill:#141b3e"/><polygon points="1035.717 278.599 979.224 396.688 947.1 321.019 1035.717 278.599" style="fill:#141b3e"/><polygon points="1092.211 392.102 1046.794 300.382 1035.717 278.599 979.224 396.688 1092.211 392.102" style="fill:#141b3e"/><polygon points="917.191 278.599 1035.717 278.599 947.1 321.019 917.191 278.599" style="fill:#151c41"/><polygon points="1092.211 392.102 1132.089 307.261 1189.69 432.229 1092.211 392.102" style="fill:#141b3e"/><polygon points="1046.794 300.382 1137.766 168.557 1035.717 278.599 1046.794 300.382" style="fill:#151c41"/><polygon points="1002.486 209.809 1035.717 278.599 917.191 278.599 1002.486 209.809" style="fill:#151c41"/><polygon points="1783.427 176.561 1756.842 264.841 1819.982 190.318 1783.427 176.561" style="fill:#141a3d"/><polygon points="1434.496 269.427 1476.589 178.854 1487.382 267.134 1434.496 269.427" style="fill:#141b3e"/><polygon points="43.201 158.217 85.294 67.643 96.088 155.924 43.201 158.217" style="fill:#141b3e"/><polygon points="1132.089 307.261 1137.766 168.557 1189.69 432.229 1132.089 307.261" style="fill:#151c41"/><polygon points="1046.794 300.382 1132.089 307.261 1092.211 392.102 1046.794 300.382" style="fill:#141b3e"/><polygon points="1132.089 307.261 1137.766 168.557 1046.794 300.382 1132.089 307.261" style="fill:#141b3e"/><polygon points="1189.69 432.229 1432.22 270.94 1137.766 168.557 1189.69 432.229" style="fill:#141a3d"/><polygon points="818.604 167.389 818.604 214.395 907.222 252.229 1013.563 99.745 818.604 167.389" style="fill:#151a39"/><polygon points="345.608 119.236 340.07 188.025 434.226 204.076 540.567 51.592 345.608 119.236" style="fill:#151a39"/><polygon points="1625.024 105.478 1610.077 260.413 1648.286 261.401 1625.024 105.478" style="fill:#141a3d"/><polygon points="1761.143 148.961 1891.147 70.609 1869.507 38 1761.143 148.961" style="fill:#141a3d"/><polygon points="1783.427 176.561 1648.286 261.401 1759.058 264.841 1783.427 176.561" style="fill:#141b3e"/><polygon points="17.724 497.58 47.632 432.229 22.154 220.127 17.724 497.58" style="fill:#0d1127"/><polygon points="0 184.586 22.154 220.127 17.724 497.58 0 772.739 0 184.586" style="fill:#090b14"/><polygon points="907.222 252.229 1013.563 99.745 917.191 278.599 907.222 252.229" style="fill:#141b3e"/><polygon points="593.737 132.994 818.604 214.395 664.631 251.083 593.737 132.994" style="fill:#151a39"/><polygon points="1002.486 209.809 1013.563 99.745 1137.627 168.535 1002.486 209.809" style="fill:#151c41"/><polygon points="1137.627 168.535 1268.338 80.255 1243.02 205.154 1137.627 168.535" style="fill:#151c41"/><polygon points="1625.024 105.478 1739.119 61.911 1711.426 151.338 1625.024 105.478" style="fill:#151c41"/><polygon points="702.409 66.012 815.098 113.337 736.438 160.138 702.409 66.012" style="fill:#151c41"/><polygon points="1346.137 92.951 1372.932 215.728 1290.898 175.605 1346.137 92.951" style="fill:#151c41"/><polygon points="593.737 132.994 434.226 204.076 540.567 51.592 593.737 132.994" style="fill:#151c41"/><polygon points="1904.169 951.592 1923 848.408 1896.415 841.529 1904.169 951.592" style="fill:#0d1127"/><polygon points="1923 479 1896 842 1923 848 1923 479" style="fill:#05060c"/><polygon points="1923 1080 1893 1080 1904 952 1923 853.567 1923 1080" style="fill:#05060c"/></g></g></g></svg>