<svg id="Layer_1" data-name="Layer 1" xmlns="http://www.w3.org/2000/svg" xmlns:xlink="http://www.w3.org/1999/xlink" viewBox="0 0 891.12 790"><defs><style>.cls-1{fill:none;}.cls-2{fill:#f2f4f9;}.cls-3{fill:#e3d0aa;}.cls-4{fill:#f5efe2;}.cls-5{fill:#5e491e;}.cls-6{fill:#624c20;}.cls-7{clip-path:url(#clip-path);}.cls-8{fill:#fff;}.cls-10,.cls-11,.cls-12,.cls-13,.cls-14,.cls-15,.cls-16,.cls-17,.cls-18,.cls-19,.cls-20,.cls-21,.cls-22,.cls-9{fill:#a48d29;}.cls-9{opacity:0.7;}.cls-10{opacity:0.35;}.cls-11{opacity:0.75;}.cls-12{opacity:0.45;}.cls-13{opacity:0.6;}.cls-14{opacity:0.8;}.cls-15{opacity:0.85;}.cls-16{opacity:0.4;}.cls-17{opacity:0.5;}.cls-18{opacity:0.3;}.cls-19{opacity:0.55;}.cls-20{opacity:0.65;}.cls-21{opacity:0.9;}</style><clipPath id="clip-path" transform="translate(-18 -18)"><circle class="cls-1" cx="400" cy="400" r="382"/></clipPath></defs><title>illustration-roa updated 191203</title><circle class="cls-2" cx="382" cy="382" r="382"/><path class="cls-3" d="M613.56,331.48c-.7-1.15-.32-1.85.79-2.53q15.75-9.72,31.44-19.52c.59-.36,1.72-.54.62-1.61-.12-.11.15-.64.27-1,5.9-16.16,11.51-32.44,17.79-48.45,5.94-15.14,12.23-30.17,19-44.94,4.45-9.69,10.07-18.84,15.18-28.22.4-.75.91-1.45,1.36-2.18l4.87-5.56c1.06-.69,2.09-1.42,3.17-2.06,3.08-1.82,5.91-.59,8.72.78l3.71,3.24a75.3,75.3,0,0,1,9.9,18.07A190,190,0,0,1,740.75,236a228.19,228.19,0,0,1,3.07,25.09c.44,8.5-.16,17.07-.41,25.6,0,1.3.37,1.72,1.51,2a63.13,63.13,0,0,1,27.93,16.23,74.16,74.16,0,0,1,18.72,30.93c.6,1.93,1.16,2.49,3.39,2A159.37,159.37,0,0,1,811.9,335,224.3,224.3,0,0,1,866.39,336c9.65,1.31,19.25,3,28.28,6.82a48,48,0,0,1,10.59,6c4.85,3.73,5,8.94,1.11,13.68-5.26,6.39-11.78,11.34-18.45,16.09-19.39,13.81-40,25.61-61,36.86-13.36,7.17-26.88,14-40.29,21.1-1.07.56-1.66.42-2.26-.48l0-.2v.2c-1.19,3.1-2.27,6.25-3.58,9.29-4.44,10.35-9,20.66-13.45,31-.53,1.23-1.13,1.61-2.37.92a6.87,6.87,0,0,0-1.85-.46,15.93,15.93,0,0,0-1.7-.86q-8.62-3.26-17.26-6.48l-42.71-16.05c-2.85-1.07-5.72-2.09-8.53-3.25-.57-.24-.92-1-1.37-1.58.46-.23.92-.49,1.4-.68a4.44,4.44,0,0,1,1-.23c14.3-2.25,25-9.76,32-22.34,6.11-11,6.89-22.66,3.17-34.65a2.75,2.75,0,0,1,.26-1.9c1.31-2.41,2.71-4.77,4.11-7.12,3.81-6.42,7.59-12.86,11.47-19.23,5-8.22,10-16.45,15.17-24.55,3.55-5.54,7.31-11,11.29-16.2,1.33-1.76,1.17-2.94.13-4.45a31.82,31.82,0,0,0-10.72-9.39,2.09,2.09,0,0,0-1.93.28c-4.87,4.71-9.56,9.61-14.49,14.24-6.76,6.34-13.5,12.72-20.58,18.7C715.78,348,707.35,354.45,699,361a4.27,4.27,0,0,1-3.06.57,46,46,0,0,0-16-.14A44,44,0,0,0,644,400.5a4,4,0,0,1-.36,1,10.27,10.27,0,0,1-.61-1q-8-18.83-16.07-37.67Q620.23,347.17,613.56,331.48ZM877.35,368.2l-.24-.35c.8-1.15,1.66-2.26,2.37-3.46,2.11-3.54.92-7.41-2.51-9.72-5.09-3.44-10.84-4.87-16.72-6a152.87,152.87,0,0,0-28.11-2.2,156.52,156.52,0,0,0-31.89,3.1c-5,1-5,1.11-4.36,6.18,0,.06,0,.12,0,.18a152.36,152.36,0,0,1-.5,31.88,222.27,222.27,0,0,1-7.79,37.26c-.14.5-.19,1-.28,1.53a12.19,12.19,0,0,0,1.54-.64c10.75-6.19,21.65-12.13,32.19-18.66q19.74-12.24,39-25.3C866.11,377.88,871.59,372.84,877.35,368.2ZM702.84,207.8c-2.48,3.76-5.35,7.43-7.49,11.47-6,11.41-12.15,22.79-17.47,34.52-7.26,16-13.8,32.39-20.64,48.61a8.57,8.57,0,0,0-.3,1.16,10.46,10.46,0,0,0,1.11-.4,203.92,203.92,0,0,1,32.46-12.33c12.46-3.48,25.11-5.64,38.11-4.75,1.69.12,2.41-.3,2.43-2.09.08-6.72.56-13.44.32-20.14a160.63,160.63,0,0,0-5-34.48c-2.16-8.32-4.45-16.69-10.47-23.29-2.54-2.79-5.63-3.55-8.65-1.72A44.6,44.6,0,0,0,702.84,207.8ZM755.55,394c3.07-3.8,4.56-6.92,4.62-10.6.07-4.7-3.26-7.68-7.93-7.13-7,.82-14.1,8.79-14,15.85,0,5,3.55,7.93,8.46,7.06A15.64,15.64,0,0,0,755.55,394Zm-65-56.68a15.8,15.8,0,0,0-3.84,9.19c-.28,5.29,3.4,8.51,8.62,7.54,6.65-1.23,12.95-8.42,13.33-15.22.29-5.26-3.45-8.55-8.62-7.54C696.39,332,693.53,334.1,690.56,337.36Z" transform="translate(-18 -18)"/><path class="cls-4" d="M613.56,331.48q6.68,15.67,13.36,31.36,8,18.84,16.07,37.67a10.27,10.27,0,0,0,.61,1,4,4,0,0,0,.36-1,44,44,0,0,1,35.92-39.09,46,46,0,0,1,16,.14A4.27,4.27,0,0,0,699,361c8.36-6.53,16.79-13,24.88-19.82,7.08-6,13.82-12.36,20.58-18.7,4.93-4.63,9.62-9.53,14.49-14.24a2.09,2.09,0,0,1,1.93-.28,31.82,31.82,0,0,1,10.72,9.39c1,1.51,1.2,2.69-.13,4.45-4,5.24-7.74,10.66-11.29,16.2C755,346.08,750,354.31,745,362.53c-3.88,6.37-7.66,12.81-11.47,19.23-1.4,2.35-2.8,4.71-4.11,7.12a2.75,2.75,0,0,0-.26,1.9c3.72,12,2.94,23.65-3.17,34.65-7,12.58-17.7,20.09-32,22.34a4.44,4.44,0,0,0-1,.23c-.48.19-.94.45-1.4.68.45.54.8,1.34,1.37,1.58,2.81,1.16,5.68,2.18,8.53,3.25l42.71,16.05q8.64,3.24,17.26,6.48a15.93,15.93,0,0,1,1.7.86c-2,3.59-3.88,7.31-6.16,10.74a82,82,0,0,1-7.38,9.54,162,162,0,0,1-24.54,22,273.37,273.37,0,0,1-34.41,21.27,2.54,2.54,0,0,0-1.08,1.6A93.68,93.68,0,0,1,675.94,576c-1.48,2.29-3,4.54-4.57,6.81-1.26,1.61-2.43,3.3-3.78,4.82-2.88,3.23-5.72,6.51-8.82,9.51-4,3.85-8,7.61-12.34,11.1-5,4.06-10.27,7.75-15.37,11.67-2.49,1.92-4.85,4-7.27,6-4.33,3.34-8.74,6.58-13,10-3.3,2.71-3.2,2.83-6.43,0-8.34-7.31-16.66-14.64-25-21.88a2.49,2.49,0,0,1-.83-3.31c1.43-3.39,2.81-6.81,4-10.28a2.57,2.57,0,0,0-.57-2.31c-5.93-4.72-12-9.33-18-14-.42-.32-.81-.67-1.21-1-7-6.14-14.11-12.2-21-18.46-3.93-3.57-7.56-7.45-11.28-11.24-1-1-1.79-.94-2.82-.08-2.69,2.23-5.4,4.44-8.18,6.55a2.05,2.05,0,0,1-1.94-.07q-14-12.09-27.79-24.35a2.34,2.34,0,0,1-.29-2.09c2.16-5.74,4.42-11.45,6.65-17.17.21-.55.34-1.12.51-1.68.95-2.31,1.78-4.69,2.9-6.92s1-4.55,1.19-6.94a48.57,48.57,0,0,1,2-11.12c4.16-13.09,11.4-24.44,20.46-34.69,4.75-4.2,9.35-8.6,14.3-12.54a100.24,100.24,0,0,1,23.57-13.72,3.71,3.71,0,0,0,1.9-2.31,135.12,135.12,0,0,1,8.52-28c4.29-9.7,8.92-19.28,14-28.6a153.85,153.85,0,0,1,11.88-18.08C602.5,344.78,608.13,338.21,613.56,331.48Zm63.6,88.45c4.25,3.51,9.09,6,14.88,6,8.59,0,14-6.33,12.69-14.82-1.56-10.27-12-19.49-22.44-19.76-8.77-.22-14.49,6.27-13.1,14.93C670.08,411.76,673,416.11,677.16,419.93ZM667.74,430l-17.47-15.28a5.12,5.12,0,0,0-1-.56,5.89,5.89,0,0,0,0,.84,54.53,54.53,0,0,0,6.07,18.42c6.28,11,17.41,16,29.27,13.36a7,7,0,0,0,1.35-.6,12.64,12.64,0,0,0-.93-1Z" transform="translate(-18 -18)"/><path class="cls-3" d="M523.21,455c-9.06,10.25-16.3,21.6-20.46,34.69a48.57,48.57,0,0,0-2,11.12c-.17,2.39-.07,4.7-1.19,6.94s-1.95,4.61-2.9,6.92q-14.08-12.36-28.18-24.69c-1.25-1.08-1.31-1.57,0-2.73,4.36-3.78,8.47-7.86,12.81-11.67,6.43-5.66,12.19-12.12,19.65-16.56a31.5,31.5,0,0,1,21.75-4.29C522.92,454.71,523.06,454.86,523.21,455Z" transform="translate(-18 -18)"/><path class="cls-3" d="M623.79,626c2.42-2,4.78-4.09,7.27-6,5.1-3.92,10.39-7.61,15.37-11.67,4.29-3.49,8.36-7.25,12.34-11.1,3.1-3,5.94-6.28,8.82-9.51,1.35-1.52,2.52-3.21,3.78-4.82,3.94,7.38,4,15,1.49,22.81-2,6.21-5.74,11.45-9.43,16.72-4,5.73-8,11.5-12,17.25-1.33,1.92-2.63,3.86-4,5.72a1.41,1.41,0,0,1-1.37,0Q634.88,635.7,623.79,626Z" transform="translate(-18 -18)"/><path class="cls-4" d="M877.35,368.2c-5.76,4.64-11.24,9.68-17.34,13.82q-19.2,13.05-39,25.3c-10.54,6.53-21.44,12.47-32.19,18.66a12.19,12.19,0,0,1-1.54.64c.09-.51.14-1,.28-1.53a222.27,222.27,0,0,0,7.79-37.26,152.36,152.36,0,0,0,.5-31.88c0-.06,0-.12,0-.18-.59-5.07-.6-5.14,4.36-6.18a156.52,156.52,0,0,1,31.89-3.1,152.87,152.87,0,0,1,28.11,2.2c5.88,1.11,11.63,2.54,16.72,6,3.43,2.31,4.62,6.18,2.51,9.72-.71,1.2-1.57,2.31-2.37,3.46Z" transform="translate(-18 -18)"/><path class="cls-4" d="M702.84,207.8a44.6,44.6,0,0,1,4.37-3.44c3-1.83,6.11-1.07,8.65,1.72,6,6.6,8.31,15,10.47,23.29a160.63,160.63,0,0,1,5,34.48c.24,6.7-.24,13.42-.32,20.14,0,1.79-.74,2.21-2.43,2.09-13-.89-25.65,1.27-38.11,4.75a203.92,203.92,0,0,0-32.46,12.33,10.46,10.46,0,0,1-1.11.4,8.57,8.57,0,0,1,.3-1.16c6.84-16.22,13.38-32.57,20.64-48.61,5.32-11.73,11.45-23.11,17.47-34.52C697.49,215.23,700.36,211.56,702.84,207.8Z" transform="translate(-18 -18)"/><path class="cls-5" d="M755.55,394a15.64,15.64,0,0,1-8.9,5.18c-4.91.87-8.42-2.08-8.46-7.06-.05-7.06,7-15,14-15.85,4.67-.55,8,2.43,7.93,7.13C760.11,387.12,758.62,390.24,755.55,394Z" transform="translate(-18 -18)"/><path class="cls-5" d="M690.56,337.36c3-3.26,5.83-5.32,9.49-6,5.17-1,8.91,2.28,8.62,7.54-.38,6.8-6.68,14-13.33,15.22-5.22,1-8.9-2.25-8.62-7.54A15.8,15.8,0,0,1,690.56,337.36Z" transform="translate(-18 -18)"/><path class="cls-5" d="M677.16,419.93c-4.13-3.82-7.08-8.17-8-13.68-1.39-8.66,4.33-15.15,13.1-14.93,10.4.27,20.88,9.49,22.44,19.76,1.28,8.49-4.1,14.82-12.69,14.82C686.25,425.9,681.41,423.44,677.16,419.93Z" transform="translate(-18 -18)"/><path class="cls-6" d="M667.74,430l17.32,15.18a12.64,12.64,0,0,1,.93,1,7,7,0,0,1-1.35.6c-11.86,2.66-23-2.4-29.27-13.36A54.53,54.53,0,0,1,649.3,415a5.89,5.89,0,0,1,0-.84,5.12,5.12,0,0,1,1,.56Z" transform="translate(-18 -18)"/><g class="cls-7"><circle class="cls-8" cx="529.5" cy="255.5" r="83.5"/><g id="b9935c2e-6b5a-49ef-9d88-3146589f52c6"><path class="cls-8" d="M654.64,790.94V150.84H147.7L148,762c13,4,26.49,6.7,41,9.49C362.16,804.77,539.92,823.76,654.64,790.94Z" transform="translate(-18 -18)"/><g id="qKWmw5.tif"><path class="cls-9" d="M495.45,285.34a19.77,19.77,0,0,0,.31,2.82,14,14,0,0,1,.12,3.87,5.46,5.46,0,0,1-.67,2.27,4.34,4.34,0,0,1-1.61,1.84c-.65.39-1.33.74-2,1.08a.85.85,0,0,1-1.07-.52,13,13,0,0,1-.93-2.69,5.19,5.19,0,0,1,.71-3.13,7.78,7.78,0,0,1,1.58-2.1c.56-.61,1.08-1.26,1.68-1.84S494.77,285.91,495.45,285.34Z" transform="translate(-18 -18)"/><path class="cls-9" d="M599.12,285.36c1.1,1.09,2.21,2.17,3.27,3.3a12.68,12.68,0,0,1,1.53,2c.33.52.46,1.16.75,1.71a3,3,0,0,1,.13,2,9.19,9.19,0,0,1-.83,2.05,1.78,1.78,0,0,1-.4.65.9.9,0,0,1-.71.19,7,7,0,0,1-3.39-2.33,4.51,4.51,0,0,1-.62-1.59,17.14,17.14,0,0,1-.47-2.24,2.81,2.81,0,0,1,.11-.9c0-.1,0-.19,0-.28,0-.76,0-1.52.11-2.28s.2-1.43.3-2.14Z" transform="translate(-18 -18)"/><path class="cls-10" d="M497,219.65c.54.79,1.07,1.49,1.51,2.24a16.22,16.22,0,0,1,.8,1.75l.63,1.34a5.45,5.45,0,0,1,.53,2,3.63,3.63,0,0,0,.1.45,1.1,1.1,0,0,1,.07.46,10.9,10.9,0,0,1-.82,2.39,11.43,11.43,0,0,1-1.75,2,.36.36,0,0,1-.32.07,7.68,7.68,0,0,1-2.22-2.07,4.24,4.24,0,0,1-.84-1.9,5.3,5.3,0,0,1,.11-2.56c.23-.57.26-1.22.48-1.8.51-1.34,1.08-2.65,1.62-4A2.67,2.67,0,0,0,497,219.65Z" transform="translate(-18 -18)"/><path class="cls-11" d="M607,312.49c-.51.29-1,.61-1.52.88-.83.42-1.69.82-2.54,1.22a11.57,11.57,0,0,1-2.94.87,2.77,2.77,0,0,1-.75.17,5.7,5.7,0,0,1-3.26-1.26,17,17,0,0,1-1.31-1.23c-.4-.44-.36-.7,0-1.12a10,10,0,0,1,1.74-1.56,4.8,4.8,0,0,1,3.89-.72,13,13,0,0,1,3.89,1.36c.49.28,1.06.42,1.57.67A13.23,13.23,0,0,1,607,312.49Z" transform="translate(-18 -18)"/><path class="cls-12" d="M605.48,247.42c-.24-.45-.45-.8-.62-1.17a3.07,3.07,0,0,1-.25-.74,4.42,4.42,0,0,1-.15-2.55,8.39,8.39,0,0,1,.89-2.06,13,13,0,0,1,.82-1.13,12.8,12.8,0,0,1,1.34-1.5c.75-.67,1.57-1.26,2.36-1.88.22-.17.44-.33.77-.56,0,.37.07.63.08.88.06,1.52.22,3,.13,4.57a13.64,13.64,0,0,1-.77,3.3,2.78,2.78,0,0,1-1,1.17,14.07,14.07,0,0,1-2.26,1.5A4.09,4.09,0,0,1,605.48,247.42Z" transform="translate(-18 -18)"/><path class="cls-13" d="M619.57,263.44c-.27.86-.5,1.67-.76,2.46a16.34,16.34,0,0,1-.65,1.86,9,9,0,0,1-2.24,3.57,6.23,6.23,0,0,1-1.92,1,7.76,7.76,0,0,1-2.52.23c-.76,0-.93-.13-.93-.89a11.12,11.12,0,0,1,.21-2.65,4.62,4.62,0,0,1,1.18-2,11.56,11.56,0,0,1,2.31-1.72,9.45,9.45,0,0,1,1.9-.81c.93-.36,1.86-.7,2.8-1A2.46,2.46,0,0,1,619.57,263.44Z" transform="translate(-18 -18)"/><path class="cls-14" d="M513.33,323.61c-.25.43-.51.82-.71,1.23a5.74,5.74,0,0,1-2.47,2.43,4.56,4.56,0,0,1-1.89.44,13.41,13.41,0,0,1-2.28-.08,15.46,15.46,0,0,1-2.15-.31c-.9-.2-1.78-.49-2.66-.74-.22-.06-.21-.35,0-.52,1-.85,2.07-1.71,3.13-2.53a12.69,12.69,0,0,1,1.42-.85c.4-.24.81-.48,1.23-.7a1.63,1.63,0,0,1,.54-.12,7.61,7.61,0,0,1,1.81-.2,5.66,5.66,0,0,1,2.83,1.08Z" transform="translate(-18 -18)"/><path class="cls-15" d="M518.89,336.63c.35-.6.69-1.2,1.05-1.79s.71-1.17,1.1-1.74a12.13,12.13,0,0,1,1.33-1.76,11.81,11.81,0,0,1,1.8-1.51,5.06,5.06,0,0,1,3.47-.61,7.16,7.16,0,0,1,1.6.48c.12.05.29.2.28.3a12.73,12.73,0,0,1-.2,1.51,4.86,4.86,0,0,1-.34,1.2,6.37,6.37,0,0,1-.91,1.42,5.51,5.51,0,0,1-3,1.68c-.75.16-1.47.45-2.21.63a8.47,8.47,0,0,1-1.13.08l-2.69.29Z" transform="translate(-18 -18)"/><path class="cls-11" d="M487.34,312.51c.75-.43,1.45-.86,2.18-1.22a17.11,17.11,0,0,1,2.08-.85,13.78,13.78,0,0,1,2.49-.7,4.53,4.53,0,0,1,3,.26,7.68,7.68,0,0,1,2.13,1.46,6.26,6.26,0,0,1,.39.51c.16.22.49.5.44.64a3.39,3.39,0,0,1-.67.91,6.16,6.16,0,0,1-2.07,1.54c-.29.13-.6.21-.89.34a2.82,2.82,0,0,1-1.64.23c-.48-.09-.93-.32-1.41-.4a17,17,0,0,1-3.53-1.36,15.45,15.45,0,0,1-2-1.15A3.15,3.15,0,0,0,487.34,312.51Z" transform="translate(-18 -18)"/><path class="cls-14" d="M508.93,331.77a29.49,29.49,0,0,1,2.16-2.43,29.8,29.8,0,0,1,3.35-2.68,3.36,3.36,0,0,1,2.16-.63,12.75,12.75,0,0,1,1.87.16,7,7,0,0,1,2.15,1,.51.51,0,0,1,.19.69,14.31,14.31,0,0,1-.93,1.78,5.66,5.66,0,0,1-2.24,2.07,8.16,8.16,0,0,1-2,.46,11,11,0,0,1-2.91.14,29.34,29.34,0,0,1-3.09-.29A3.68,3.68,0,0,1,508.93,331.77Z" transform="translate(-18 -18)"/><path class="cls-14" d="M517,314.38c.25.19.48.35.69.54a28.67,28.67,0,0,1,3.41,3.47,10.79,10.79,0,0,1,1.51,2.54,4.45,4.45,0,0,1,.14,2A5.64,5.64,0,0,1,521.5,326a.41.41,0,0,1-.62.13,12.94,12.94,0,0,1-2-1,5.19,5.19,0,0,1-2.13-3.07,18.33,18.33,0,0,1-.24-4.84A16.68,16.68,0,0,1,517,314.38Z" transform="translate(-18 -18)"/><path class="cls-16" d="M506.35,237.57c-.53.45-1,.87-1.48,1.26s-.93.71-1.42,1c-.86.56-1.71,1.14-2.61,1.62a7,7,0,0,1-1.6.44,7.88,7.88,0,0,1-1,.19,4.4,4.4,0,0,1-2.44-.62,11.46,11.46,0,0,1-1.89-1.41.33.33,0,0,1,0-.29,7.69,7.69,0,0,1,2.38-2.86,3.93,3.93,0,0,1,2.6-.84,8.56,8.56,0,0,0,1.34,0,7.74,7.74,0,0,1,2.52.46c.51.15,1,.18,1.55.32C504.94,237.06,505.6,237.31,506.35,237.57Z" transform="translate(-18 -18)"/><path class="cls-11" d="M593.24,299c.34.58.67,1.1,1,1.63.37.69.71,1.39,1,2.09a8.93,8.93,0,0,1,.5,1.3,11.15,11.15,0,0,1,.6,3.05,5,5,0,0,1-1.08,2.87,23.25,23.25,0,0,1-1.83,1.95,18.42,18.42,0,0,1-1.94-1.89,4.39,4.39,0,0,1-1-2.26c0-.3-.21-.61-.17-.89a19.36,19.36,0,0,1,.45-2.14,17.19,17.19,0,0,1,.76-2.19c.45-1,1-2,1.46-3C593.06,299.38,593.12,299.23,593.24,299Z" transform="translate(-18 -18)"/><path class="cls-14" d="M577.42,314.35c.07.56.09,1.06.2,1.55a18.07,18.07,0,0,1,.28,4.28,6.55,6.55,0,0,1-.79,3.28,5.53,5.53,0,0,1-3,2.42,4,4,0,0,0-.48.2c-.37.17-.66.27-1-.19a6,6,0,0,1-.89-2.1,10.59,10.59,0,0,1-.19-2.1,1.91,1.91,0,0,1,.24-.94,18.27,18.27,0,0,1,1.61-2.66,24.33,24.33,0,0,1,2.28-2.26q.6-.58,1.23-1.14A4.54,4.54,0,0,1,577.42,314.35Z" transform="translate(-18 -18)"/><path class="cls-17" d="M615,244.56c0,.81,0,1.52,0,2.23a19.34,19.34,0,0,1-.29,2.5c-.15.79-.4,1.55-.62,2.33a4.48,4.48,0,0,1-.39,1,4.72,4.72,0,0,1-.91,1.28A7.31,7.31,0,0,1,611,255a13.17,13.17,0,0,1-2.17.51c-.07,0-.23-.15-.27-.25a5.28,5.28,0,0,1-.59-2c0-.33-.18-.68-.14-1,.07-.55.28-1.09.38-1.64.17-1,.94-1.59,1.47-2.33a6.71,6.71,0,0,1,1.48-1.26c.67-.5,1.36-1,2.07-1.45C613.75,245.27,614.35,245,615,244.56Z" transform="translate(-18 -18)"/><path class="cls-14" d="M511.11,310.1c1,1.21,1.95,2.3,2.78,3.49a13.52,13.52,0,0,1,1.72,3.11,6.24,6.24,0,0,1,.1,2.59,6.62,6.62,0,0,1-1.62,3.11.73.73,0,0,1-.68,0,7.89,7.89,0,0,1-2.91-2.56,4,4,0,0,1-.66-2.19c0-.27-.18-.54-.16-.81,0-.56.14-1.11.22-1.66,0-.08.05-.16.05-.23a6.11,6.11,0,0,1,.46-2.35c.15-.48.19-1,.31-1.51A10.13,10.13,0,0,1,511.11,310.1Z" transform="translate(-18 -18)"/><path class="cls-11" d="M596.33,292.11c.46.54.88,1,1.27,1.51s.92,1.1,1.32,1.68a19.27,19.27,0,0,1,1.58,2.55,5.37,5.37,0,0,1,.65,2.37,8.2,8.2,0,0,1-.77,2.65,7.35,7.35,0,0,1-1,1.44c-.17.22-.33.28-.62.06-.58-.44-1.28-.73-1.82-1.2a4.59,4.59,0,0,1-1.74-2.94,9.62,9.62,0,0,1-.17-1.76c.05-.85.23-1.68.36-2.52.12-.69.24-1.38.39-2.06.09-.37.24-.73.35-1.09C596.19,292.61,596.24,292.42,596.33,292.11Z" transform="translate(-18 -18)"/><path class="cls-9" d="M493.63,278.23a14.37,14.37,0,0,1,.15,4,13.62,13.62,0,0,1-.46,2.75,5.43,5.43,0,0,1-2.9,3.81,9.93,9.93,0,0,1-2.35.71.39.39,0,0,1-.31-.18,8.13,8.13,0,0,1-.52-1.22,7.56,7.56,0,0,1-.36-1.75,6.35,6.35,0,0,1,.25-1.55c.28-1.43,1.35-2.31,2.27-3.29a17.22,17.22,0,0,1,2.55-2.11C492.46,279,493,278.66,493.63,278.23Z" transform="translate(-18 -18)"/><path class="cls-18" d="M589.8,213.72c.28.38.57.75.83,1.14s.37.66.56,1,.29.52.42.79a18.29,18.29,0,0,1,1,2.09,6.56,6.56,0,0,1,.5,4,6.46,6.46,0,0,1-.88,1.81,12.36,12.36,0,0,1-1.42,1.57.53.53,0,0,1-.52.09,7.62,7.62,0,0,1-2.26-2.23,5.27,5.27,0,0,1-.6-4.23c.3-1.18.78-2.32,1.2-3.48.24-.67.52-1.33.8-2A3.23,3.23,0,0,1,589.8,213.72Z" transform="translate(-18 -18)"/><path class="cls-14" d="M593.56,326.41c-.32.12-.47.19-.63.23-1,.26-2,.5-2.95.75a.74.74,0,0,1-.14,0c-1.2.1-2.41.23-3.62.29a4.56,4.56,0,0,1-2.19-.62,6.91,6.91,0,0,1-2.78-3,.5.5,0,0,1,.15-.76c.73-.45,1.43-.93,2.16-1.38.15-.09.37-.05.55-.12a4.36,4.36,0,0,1,3.18.15,15.71,15.71,0,0,1,3,1.78C591.39,324.55,592.4,325.46,593.56,326.41Z" transform="translate(-18 -18)"/><path class="cls-18" d="M501,221.57a10.44,10.44,0,0,1,1-3.27,27.16,27.16,0,0,1,1.23-2.55c.36-.66.79-1.29,1.21-1.92,0-.05.25,0,.3,0a1.24,1.24,0,0,1,.29.46c.43,1.1.88,2.18,1.24,3.3a18.45,18.45,0,0,1,.85,3.16,4.8,4.8,0,0,1-.27,2,5.33,5.33,0,0,1-1.71,2.59c-.37.31-.77.58-1.16.85a.25.25,0,0,1-.25,0,6.78,6.78,0,0,1-2.23-3Z" transform="translate(-18 -18)"/><path class="cls-10" d="M597.37,219.77c.26.54.53,1.06.76,1.59.3.72.57,1.45.83,2.18.2.57.34,1.16.53,1.73a7.73,7.73,0,0,1,.16,3.48,3.84,3.84,0,0,1-.57,1.26,7.83,7.83,0,0,1-2.31,2.31.36.36,0,0,1-.32,0,7,7,0,0,1-1.85-2.05,4.75,4.75,0,0,1-.73-2.43,7.32,7.32,0,0,1,.26-1.73,10.84,10.84,0,0,1,.48-1.46,16.59,16.59,0,0,1,.76-1.66c.46-.87,1-1.71,1.46-2.56A6.61,6.61,0,0,1,597.37,219.77Z" transform="translate(-18 -18)"/><path class="cls-15" d="M575.55,336.84l-2-.28a7.3,7.3,0,0,0-1.14-.09,6.46,6.46,0,0,1-2.22-.4c-.85-.27-1.71-.52-2.52-.87a4.43,4.43,0,0,1-1.87-1.77A4.68,4.68,0,0,1,565,331c0-.3-.13-.6-.16-.9a.33.33,0,0,1,.17-.27,9.22,9.22,0,0,1,1.25-.43,9.64,9.64,0,0,1,1.31-.2,4.44,4.44,0,0,1,3.34,1.08,21.8,21.8,0,0,1,2.23,2.46,8.93,8.93,0,0,1,.83,1.18c.44.75.86,1.52,1.28,2.28Z" transform="translate(-18 -18)"/><path class="cls-17" d="M497.9,249.71l-.94,1.48c-.1.16-.2.33-.32.49-.54.72-1.11,1.42-1.62,2.16a10.33,10.33,0,0,1-2.37,2.25,2.2,2.2,0,0,1-.72.3,11.65,11.65,0,0,1-1.58.44,3.13,3.13,0,0,1-1-.17,11.1,11.1,0,0,1-1.14-.27c-.4-.13-.79-.3-1.18-.47a.32.32,0,0,1-.14-.24c.15-.65.28-1.3.47-1.93a5.19,5.19,0,0,1,.46-.87,5.1,5.1,0,0,1,2.19-2.17,7.88,7.88,0,0,1,2-.6c.82-.16,1.69-.1,2.48-.33,1.13-.34,2.24,0,3.35-.2Z" transform="translate(-18 -18)"/><path class="cls-14" d="M583.38,310.22c.16.6.31,1.21.47,1.81s.33,1.08.46,1.62c.06.24,0,.52.06.76a8.15,8.15,0,0,1,.2,3.57,4.64,4.64,0,0,1-1.67,3c-.42.33-.81.71-1.25,1a5.36,5.36,0,0,1-1,.5.33.33,0,0,1-.28-.05c-.43-.64-.85-1.28-1.27-1.93a5,5,0,0,1-.44-3.39,4.71,4.71,0,0,1,.74-1.77A22,22,0,0,1,580.9,313c.74-1,1.55-1.89,2.33-2.84Z" transform="translate(-18 -18)"/><path class="cls-19" d="M476.48,253.83c.45.19.92.35,1.35.58,1.07.56,2.16,1.09,3.18,1.74a7.37,7.37,0,0,1,3,3,6.4,6.4,0,0,1,.52,3.1,10,10,0,0,1-.27,1.32.42.42,0,0,1-.52.41,10,10,0,0,1-2.47-.33,4.54,4.54,0,0,1-2.76-2.29c-.32-.72-.73-1.41-1-2.15s-.3-1.41-.52-2.1a10.2,10.2,0,0,1-.39-2.63,2.41,2.41,0,0,0-.21-.54Z" transform="translate(-18 -18)"/><path class="cls-17" d="M479.56,244.53c1.17.84,2.32,1.63,3.44,2.46a23,23,0,0,1,1.86,1.57,5.67,5.67,0,0,1,1.09,1.36,5,5,0,0,1,.54,1.64,6,6,0,0,1,0,1.58,4.17,4.17,0,0,1-.61,2,1.8,1.8,0,0,0-.17.47,10.49,10.49,0,0,1-1.47-.24,8,8,0,0,1-1.86-.78,6.33,6.33,0,0,1-1.25-1.18,3.55,3.55,0,0,1-.91-1.68c-.19-.8-.35-1.61-.49-2.43a9.38,9.38,0,0,1-.19-1.41C479.54,246.79,479.56,245.73,479.56,244.53Z" transform="translate(-18 -18)"/><path class="cls-18" d="M517.25,228.1a36,36,0,0,0-3.38,1.42,12.73,12.73,0,0,1-2.63.83,5.86,5.86,0,0,1-2.7,0,5.47,5.47,0,0,1-2.14-1,11,11,0,0,1-1.61-1.79.36.36,0,0,1,.08-.56c.49-.39.88-.92,1.38-1.3a6.5,6.5,0,0,1,1.38-.79,5.18,5.18,0,0,1,3.09-.17,8.84,8.84,0,0,1,1.63.59c.65.27,1.32.51,1.94.84s1.34.81,2,1.22l.94.57Z" transform="translate(-18 -18)"/><path class="cls-16" d="M492.9,239.37a7.53,7.53,0,0,1-2.86-2.1,5.56,5.56,0,0,1-1-1.9,4.79,4.79,0,0,1-.22-1.9c.1-.81.3-1.6.44-2.41a5.69,5.69,0,0,1,.07-.71c.22-.8.48-1.59.73-2.38l.33-1.16c.49.59.95,1.08,1.35,1.62.68.93,1.35,1.87,2,2.85a9.28,9.28,0,0,1,.76,1.7,7.92,7.92,0,0,1,.36,1.53,2.78,2.78,0,0,1-.23,1.85c-.17.29-.18.67-.36,1C493.86,238,493.37,238.68,492.9,239.37Z" transform="translate(-18 -18)"/><path class="cls-16" d="M588.1,237.48c.85-.21,1.7-.41,2.54-.64s1.68-.49,2.52-.73a1.61,1.61,0,0,1,.38,0c.66,0,1.33,0,2,0a4.71,4.71,0,0,1,3,1.1,6.07,6.07,0,0,1,1.22,1.43,7.76,7.76,0,0,1,.67,1,.48.48,0,0,1-.06.42,6.53,6.53,0,0,1-2.38,1.58,4.4,4.4,0,0,1-2.15.42,7.38,7.38,0,0,1-1.84-.5,12.18,12.18,0,0,1-1.75-.92c-.59-.36-1.17-.74-1.73-1.15s-1.24-1-1.86-1.47c-.19-.15-.4-.26-.59-.39Z" transform="translate(-18 -18)"/><path class="cls-13" d="M600.39,263.67c.67.18,1.32.32,2,.52s1.23.44,1.84.66a6.66,6.66,0,0,1,.85.31c.69.33,1.37.67,2,1a4.62,4.62,0,0,1,2,2.23,7.53,7.53,0,0,1,.57,3.66.51.51,0,0,1-.56.51c-.28,0-.57.14-.86.16a5.2,5.2,0,0,1-.77-.09.86.86,0,0,0-.21-.07,4.74,4.74,0,0,1-2.88-1.06,7.13,7.13,0,0,1-1.28-1.4,10.5,10.5,0,0,1-.88-1.48c-.27-.54-.51-1.09-.73-1.65-.34-.88-.66-1.76-1-2.66A3.7,3.7,0,0,1,600.39,263.67Z" transform="translate(-18 -18)"/><path class="cls-11" d="M481.87,302.27c.8-.22,1.52-.43,2.25-.61s1.21-.27,1.82-.36a15.66,15.66,0,0,1,2.26-.27,4.91,4.91,0,0,1,3.61,1,10.88,10.88,0,0,1,1.22,1.12,13.2,13.2,0,0,1,1.09,1.85c0,.08-.13.33-.26.42a12,12,0,0,1-2.17,1.34,3.89,3.89,0,0,1-3,.14,18.16,18.16,0,0,1-2.37-.91,21.21,21.21,0,0,1-2.49-1.86c-.67-.54-1.32-1.11-2-1.69C481.85,302.43,481.87,302.3,481.87,302.27Z" transform="translate(-18 -18)"/><path class="cls-15" d="M523,318c1,.57,2.07,1.05,3,1.69a11.8,11.8,0,0,1,3.9,3.7,4.07,4.07,0,0,1,.48,3.26c-.21.67-.32,1.36-.5,2.13-.61-.09-1.22-.16-1.82-.27a4.86,4.86,0,0,1-2.39-1.18,4.48,4.48,0,0,1-1.49-2.28c-.14-.63-.51-1.22-.7-1.85a9.94,9.94,0,0,1-.14-1.36c-.1-.74-.25-1.47-.33-2.22C523,319.07,523,318.54,523,318Z" transform="translate(-18 -18)"/><path class="cls-17" d="M607.56,256c-.63.18-1.24.37-1.86.53a10.4,10.4,0,0,1-1.57.32,3.54,3.54,0,0,1-.94-.18,6.88,6.88,0,0,1-3.82-2.78c-.56-.72-1.13-1.42-1.66-2.15-.41-.57-.77-1.18-1.14-1.78-.05-.07,0-.18,0-.31,1,0,1.87,0,2.8,0s1.82.16,2.73.3c.36.06.68.29,1,.37a5.43,5.43,0,0,1,2.39,1.18,7.63,7.63,0,0,1,1.18,1.64,3.73,3.73,0,0,1,.42.93C607.26,254.63,607.38,255.23,607.56,256Z" transform="translate(-18 -18)"/><path class="cls-12" d="M483.81,235.87c.68.54,1.38,1,2,1.61a15.87,15.87,0,0,1,1.88,1.78,17.18,17.18,0,0,1,1.92,2.67,4.61,4.61,0,0,1,.28,3,9.31,9.31,0,0,1-.94,2.28c0,.09-.24.13-.37.13a4,4,0,0,1-2.48-.9,10.27,10.27,0,0,1-1.63-1.6,3.44,3.44,0,0,1-.65-1.6,16.7,16.7,0,0,1-.34-3,22.7,22.7,0,0,1,.15-3.69c0-.21,0-.42,0-.62Z" transform="translate(-18 -18)"/><path class="cls-14" d="M585.36,331.92l-2.87.23c-.81.06-1.63.19-2.44.17a9,9,0,0,1-2.61-.31,5,5,0,0,1-2.12-1.28A14,14,0,0,1,574,328.8a5.52,5.52,0,0,1-.51-1.28c0-.06.07-.19.14-.23a6.48,6.48,0,0,1,2.77-1.21,4.73,4.73,0,0,1,3.15.42,17.91,17.91,0,0,1,2,1.21c.83.69,1.56,1.49,2.32,2.26.56.57,1.08,1.18,1.61,1.78Z" transform="translate(-18 -18)"/><path class="cls-11" d="M600.14,305.21l.75-1.35a5.69,5.69,0,0,1,2.23-2.23,3.82,3.82,0,0,1,2.09-.54c.81.06,1.64,0,2.45,0a14.83,14.83,0,0,1,1.82.4c.23.05.47.06.69.11l2.09.53c.32.09.26.26.06.43-.75.64-1.49,1.31-2.27,1.92-.53.43-1.13.76-1.68,1.17a8.7,8.7,0,0,1-2.61,1.24,4,4,0,0,1-.9.19,5.09,5.09,0,0,1-3.17-.85C601.16,305.94,600.67,305.57,600.14,305.21Z" transform="translate(-18 -18)"/><path class="cls-13" d="M485,272.5a2.48,2.48,0,0,1-.19-1.89,7.57,7.57,0,0,1,.64-2.33,6.41,6.41,0,0,1,1.67-1.94,5.19,5.19,0,0,1,.95-.59,9.82,9.82,0,0,1,2-.82,14.76,14.76,0,0,0,1.64-.71,4,4,0,0,1,.6-.12l1.78-.38c-.12.39-.24.76-.36,1.12-.17.54-.3,1.08-.5,1.61a12.57,12.57,0,0,1-1.76,3.51c-.42.53-.8,1.09-1.25,1.59a2.68,2.68,0,0,1-.93.57c-.55.2-1.13.33-1.7.48a5.77,5.77,0,0,1-.72.16,1.83,1.83,0,0,1-.57,0C485.81,272.71,485.42,272.61,485,272.5Z" transform="translate(-18 -18)"/><path class="cls-20" d="M493.22,270.67c-.12.7-.25,1.4-.35,2.1-.06.45-.05.92-.14,1.36-.21,1-.41,2.08-.71,3.09a4.65,4.65,0,0,1-.83,1.7,4.52,4.52,0,0,1-1.71,1.44c-.62.23-1.22.52-1.85.74a6.09,6.09,0,0,1-1.13.21c-.31.05-.41-.1-.55-.41a7.11,7.11,0,0,1-.44-3.22,4.3,4.3,0,0,1,.87-2.26,9.27,9.27,0,0,1,2.35-2.24c.7-.51,1.48-.94,2.23-1.39s1.41-.78,2.11-1.18Z" transform="translate(-18 -18)"/><path class="cls-19" d="M617.93,253.85c-.1.75-.16,1.41-.26,2.07s-.21,1.29-.37,1.91a11.39,11.39,0,0,1-.8,2.56,6,6,0,0,1-2.85,3,6.61,6.61,0,0,1-3.06.55c-.19,0-.51-.3-.51-.46a21.18,21.18,0,0,1,0-3.65,3.25,3.25,0,0,1,1.17-2c.84-.7,1.7-1.38,2.59-2a14.08,14.08,0,0,1,1.53-.83c.56-.3,1.11-.6,1.67-.87A6.41,6.41,0,0,1,617.93,253.85Z" transform="translate(-18 -18)"/><path class="cls-15" d="M571.48,318l-.36,2.53c0,.08,0,.16,0,.24-.1.84-.15,1.69-.31,2.52a11.41,11.41,0,0,1-.54,1.55,4.65,4.65,0,0,1-1.5,2.28,6.35,6.35,0,0,1-1.18.84,4,4,0,0,1-1.82.52c-.31,0-.63.16-1,.16a.6.6,0,0,1-.46-.33,8.59,8.59,0,0,1-.43-3,6.82,6.82,0,0,1,.46-2,6,6,0,0,1,1.33-1.57,29.46,29.46,0,0,1,2.33-2,12.79,12.79,0,0,1,1.5-.83c.59-.34,1.16-.7,1.75-1.05Z" transform="translate(-18 -18)"/><path class="cls-9" d="M486.84,289.8c-.46.21-.91.46-1.37.63a7.12,7.12,0,0,1-2.29.4,4.68,4.68,0,0,1-2.85-.95,10.92,10.92,0,0,1-1.54-1.25,13,13,0,0,1-1.19-1.47c-.54-.69-1.06-1.39-1.58-2.09-.2-.27-.36-.56-.59-.94.32,0,.54,0,.75,0s.68-.14,1-.16a6.5,6.5,0,0,1,1,0c.37,0,.75.09,1.13.11a11.56,11.56,0,0,1,2.13.13,6.2,6.2,0,0,1,4.06,2.34,6.75,6.75,0,0,1,1.13,2.81C486.64,289.51,486.72,289.59,486.84,289.8Z" transform="translate(-18 -18)"/><path class="cls-11" d="M505.72,305c.58.89,1.13,1.63,1.58,2.42.56,1,1,2,1.55,3a6.24,6.24,0,0,1,.57,3.62,3.76,3.76,0,0,1-.85,1.9c-.47.63-1,1.22-1.5,1.86a15.84,15.84,0,0,1-1.46-1.09,6.12,6.12,0,0,1-1.7-2.19,6.63,6.63,0,0,1-.19-3.5,17.09,17.09,0,0,1,.69-2.8c.19-.63.52-1.21.77-1.83C505.36,306,505.51,305.53,505.72,305Z" transform="translate(-18 -18)"/><path class="cls-13" d="M474.88,263.39a6.67,6.67,0,0,1,1,.24,21.39,21.39,0,0,1,3.24,1.28c.68.42,1.49.66,2.15,1.11a4.86,4.86,0,0,1,2.48,4.1c0,.64,0,1.28,0,1.91a.49.49,0,0,1-.54.57,11.22,11.22,0,0,1-2,0,3.77,3.77,0,0,1-1.8-.64c-.27-.22-.62-.33-.89-.55a5.94,5.94,0,0,1-1.57-2.08c-.44-.92-.87-1.84-1.27-2.78a10.16,10.16,0,0,1-.33-1.11c-.15-.53-.33-1.05-.48-1.58A1.77,1.77,0,0,1,474.88,263.39Z" transform="translate(-18 -18)"/><path class="cls-11" d="M501.92,299.12c.42,1.15.86,2.3,1.25,3.46.2.61.31,1.25.45,1.88a9.39,9.39,0,0,1,.27,1.48,8.78,8.78,0,0,1-.11,1.24,4.7,4.7,0,0,1-1.87,3.29c-.41.34-.85.65-1.27,1a.56.56,0,0,1-.83-.11,7.74,7.74,0,0,1-1.87-3.23,3.34,3.34,0,0,1,0-1.3,6.51,6.51,0,0,1,1-3c.42-.6.69-1.32,1.05-2s.71-1.19,1.11-1.75A10,10,0,0,1,501.92,299.12Z" transform="translate(-18 -18)"/><path class="cls-20" d="M601.3,270.64c.57.29,1.14.56,1.69.88.83.48,1.65,1,2.47,1.5a9.82,9.82,0,0,1,.84.64,6.47,6.47,0,0,1,2.42,3.21,6.8,6.8,0,0,1,.12,2.12,6.4,6.4,0,0,1-.26,1.36,11,11,0,0,1-.36,1c-.57-.15-1.13-.27-1.68-.45a15.35,15.35,0,0,1-1.6-.59,3.9,3.9,0,0,1-2-2c-.31-.66-.63-1.32-.9-2a4.25,4.25,0,0,1-.13-.88,15.4,15.4,0,0,1-.52-3.58,5.19,5.19,0,0,0-.24-1.21Z" transform="translate(-18 -18)"/><path class="cls-19" d="M495.48,256.62c-.55,1.06-1.05,2.06-1.57,3a17.91,17.91,0,0,1-1.14,1.94,14.26,14.26,0,0,1-1.44,1.67,3.86,3.86,0,0,1-2.06,1.14,11.42,11.42,0,0,1-2.55.07,8,8,0,0,1-1.17-.22.37.37,0,0,1-.34-.42,7.1,7.1,0,0,1,.71-3.09,4.89,4.89,0,0,1,1.6-2,5.85,5.85,0,0,1,1.56-.83,12.84,12.84,0,0,1,3.18-.89,18.07,18.07,0,0,0,2-.44A7.85,7.85,0,0,1,495.48,256.62Z" transform="translate(-18 -18)"/><path class="cls-10" d="M511.45,232.45c-.3.21-.54.38-.79.54-.51.35-1,.71-1.56,1s-1,.41-1.42.63c-.64.29-1.26.6-1.89.88a1.94,1.94,0,0,1-.59.12,11.45,11.45,0,0,1-2,.22,4,4,0,0,1-2.3-.7c-.45-.34-.93-.64-1.37-1a3.27,3.27,0,0,1-.63-.79.38.38,0,0,1,.05-.38c.58-.64,1.17-1.28,1.79-1.88a4.14,4.14,0,0,1,1-.74,2.26,2.26,0,0,1,1-.29,18.71,18.71,0,0,1,3.09.12,15.55,15.55,0,0,1,2.51.87c.57.2,1.16.39,1.71.63S510.91,232.16,511.45,232.45Z" transform="translate(-18 -18)"/><path class="cls-18" d="M577.12,227.93a21,21,0,0,1,3.89-2.19c.6-.23,1.17-.54,1.77-.78a5.79,5.79,0,0,1,3.51-.24,5.7,5.7,0,0,1,2.9,1.87c.56.62.49,1-.27,1.76a10.78,10.78,0,0,1-1.57,1.38,4.63,4.63,0,0,1-1.76.65,9.32,9.32,0,0,1-2.24,0,8.54,8.54,0,0,1-1.43-.41,2.86,2.86,0,0,1-.51-.09l-1.89-.78c-.63-.27-1.28-.53-1.91-.82A3.5,3.5,0,0,1,577.12,227.93Z" transform="translate(-18 -18)"/><path class="cls-11" d="M600.78,320c-.88.39-1.63.8-2.43,1.08s-1.59.41-2.38.62a10.83,10.83,0,0,1-1.65.43,11.25,11.25,0,0,1-2-.12,8.94,8.94,0,0,1-1-.27,4.29,4.29,0,0,1-2.05-1.42,13.36,13.36,0,0,1-1-1.24.51.51,0,0,1,.06-.75,6.61,6.61,0,0,1,2.61-1.82,3.76,3.76,0,0,1,2.16-.21,5.75,5.75,0,0,0,.94.12,7.89,7.89,0,0,1,2.88,1.17c1,.54,1.94,1.25,2.91,1.87C600.14,319.64,600.43,319.79,600.78,320Z" transform="translate(-18 -18)"/><path class="cls-12" d="M501.65,243c-.59.7-1.14,1.38-1.72,2a23.67,23.67,0,0,1-2.12,2.24,15.35,15.35,0,0,1-2.36,1.61,3,3,0,0,1-1.16.26c-.4,0-.8,0-1.21,0A6.3,6.3,0,0,1,490,248a.32.32,0,0,1-.09-.28,13.52,13.52,0,0,1,1.4-2.89,5.27,5.27,0,0,1,3.41-1.94,15.75,15.75,0,0,1,3.36-.32c1,.08,2.09.13,3.13.21A1.6,1.6,0,0,1,501.65,243Z" transform="translate(-18 -18)"/><path class="cls-10" d="M582.9,232.43c.85-.39,1.65-.77,2.46-1.13.54-.24,1.1-.44,1.65-.67a10.11,10.11,0,0,1,4.15-.59,3.52,3.52,0,0,1,2,.63,8.09,8.09,0,0,1,2.24,2.31.38.38,0,0,1-.09.59c-.65.53-1.26,1.11-1.92,1.61a2.56,2.56,0,0,1-1,.44,5.73,5.73,0,0,1-1.82.23,6.56,6.56,0,0,1-2.62-.67c-.49-.28-1.08-.39-1.58-.65-.79-.42-1.56-.9-2.33-1.36C583.67,232.94,583.31,232.7,582.9,232.43Z" transform="translate(-18 -18)"/><path class="cls-16" d="M603.87,226.84c.19.47.35.86.5,1.26s.3.81.43,1.22a3.55,3.55,0,0,1,.06.56c.12.73.27,1.45.37,2.17s.15,1.46.19,2.2a4.75,4.75,0,0,1-1.16,3.07,7.84,7.84,0,0,1-1.71,1.5,6.09,6.09,0,0,1-1,.49,6.62,6.62,0,0,1-2-3.33c-.06-.28-.14-.56-.19-.84a4,4,0,0,1,.39-2,16.44,16.44,0,0,1,3.08-5C603.2,227.71,603.51,227.3,603.87,226.84Z" transform="translate(-18 -18)"/><path class="cls-20" d="M474.22,274.39c1.44.15,2.76.27,4.07.45a9.17,9.17,0,0,1,2.13.5c1.43.55,2.84,1.16,3.61,2.68a5.6,5.6,0,0,1,.76,3.06.52.52,0,0,1-.23.37,6,6,0,0,1-2.69.56,5,5,0,0,1-3-.92,6.22,6.22,0,0,1-1.31-1.35,23.53,23.53,0,0,1-1.46-1.87,10.51,10.51,0,0,1-.69-1.23Z" transform="translate(-18 -18)"/><path class="cls-11" d="M493.69,320c.68-.48,1.25-.94,1.87-1.32a19,19,0,0,1,4.29-2.17,5.81,5.81,0,0,1,3.07-.09,6.06,6.06,0,0,1,3,1.89c.33.34.23.81-.22,1.29s-.8.95-1.26,1.37a4.09,4.09,0,0,1-1.12.71,5.39,5.39,0,0,1-2.85.5c-.61-.09-1.22-.27-1.83-.41s-1-.2-1.46-.34-1.09-.35-1.63-.54-.87-.33-1.29-.52C494.07,320.25,493.89,320.1,493.69,320Z" transform="translate(-18 -18)"/><path class="cls-11" d="M587.26,317.78c-.56-.71-1.16-1.35-1.63-2.08a2.76,2.76,0,0,1-.62-1.58c0-.28-.22-.59-.16-.86a8,8,0,0,1,.64-2.81c.27-.44.38-1,.63-1.42.41-.76.87-1.5,1.32-2.24.29-.45.62-.88.91-1.33.2-.3.35-.36.5,0,.22.59.45,1.17.67,1.76s.45,1.11.62,1.68.35,1.37.51,2.06a3.51,3.51,0,0,1,.18,1,9.23,9.23,0,0,1-.31,2.42,5.23,5.23,0,0,1-1.87,2.38C588.23,317.12,587.78,317.42,587.26,317.78Z" transform="translate(-18 -18)"/><path class="cls-11" d="M498,292.13c.22.78.4,1.46.59,2.14l.44,1.58a.54.54,0,0,1,0,.1,38.35,38.35,0,0,1,.15,4.28,4.07,4.07,0,0,1-.94,1.95,9.7,9.7,0,0,1-1.67,1.72,3.77,3.77,0,0,1-1.28.6c-.13,0-.4-.18-.52-.34a6.43,6.43,0,0,1-1.53-4.15,4.48,4.48,0,0,1,.67-2.31c.33-.5.51-1.09.84-1.58.54-.79,1.13-1.55,1.72-2.29C497,293.27,497.46,292.76,498,292.13Z" transform="translate(-18 -18)"/><path class="cls-20" d="M620,274.37a1.51,1.51,0,0,1-.08.45c-.4.75-.78,1.51-1.23,2.22s-1,1.52-1.55,2.26a6.45,6.45,0,0,1-2.71,2.34,4.92,4.92,0,0,1-2.94.29c-.38-.08-.77-.12-1.14-.22a6.92,6.92,0,0,1-.86-.33,6.66,6.66,0,0,1,.78-3.19,4.89,4.89,0,0,1,1.62-1.89,6,6,0,0,1,1.44-.69,8.72,8.72,0,0,1,1.1-.34c.23-.07.47-.1.7-.16a14.47,14.47,0,0,1,4.34-.57A2.26,2.26,0,0,0,620,274.37Z" transform="translate(-18 -18)"/><path class="cls-12" d="M592.84,242.82c.59,0,1.19,0,1.78,0a23.43,23.43,0,0,1,3-.15,8.9,8.9,0,0,1,4,.94,5.91,5.91,0,0,1,1.78,1.71c.45.66.53,1.44.94,2.1.17.28-.1.77-.44.95a6.78,6.78,0,0,1-4.2.73,4.09,4.09,0,0,1-1.87-.82,20.72,20.72,0,0,1-2.45-2.24c-.91-1-1.76-2-2.63-3Z" transform="translate(-18 -18)"/><path class="cls-9" d="M477.84,293.48a7.54,7.54,0,0,1,1-.23c1.67-.11,3.33-.25,5-.27a5.28,5.28,0,0,1,3.34.83,10.93,10.93,0,0,1,1.33,1.22,5.56,5.56,0,0,1,1.2,2.43.57.57,0,0,1-.17.54c-.54.31-1.12.57-1.69.83a4,4,0,0,1-2.66.34,6.1,6.1,0,0,1-2.39-1.05c-.43-.34-.95-.57-1.37-.91a9.77,9.77,0,0,1-1.17-1.15c-.71-.79-1.41-1.61-2.11-2.42A2.09,2.09,0,0,0,477.84,293.48Z" transform="translate(-18 -18)"/><path class="cls-9" d="M618.93,284.18c-.27.38-.5.72-.73,1.06a16.72,16.72,0,0,1-2.36,2.94c-.48.44-.85,1-1.35,1.42a10.13,10.13,0,0,1-1.58.88,5,5,0,0,1-3.23.21,7.9,7.9,0,0,1-1.87-.76.32.32,0,0,1-.13-.28,9.47,9.47,0,0,1,.7-2.17,5.66,5.66,0,0,1,.86-1.32,5.09,5.09,0,0,1,2.48-1.56,10.42,10.42,0,0,1,3.28-.47c.65,0,1.31-.1,2-.09S618.19,284.12,618.93,284.18Z" transform="translate(-18 -18)"/><path class="cls-19" d="M609.1,264.29c-.93.09-1.78.22-2.64.25a4.78,4.78,0,0,1-4-1.8,21.7,21.7,0,0,1-1.67-2.46c-.49-.78-1-1.59-1.38-2.41a11,11,0,0,1-.46-1.32l1.34.21c.37.05.76.06,1.12.14.85.2,1.7.42,2.54.66a11.36,11.36,0,0,1,1.89.64,5.38,5.38,0,0,1,1.83,1.35,7.94,7.94,0,0,1,1.14,2.2A10.63,10.63,0,0,1,609.1,264.29Z" transform="translate(-18 -18)"/><path class="cls-9" d="M608.1,299.29c-.5-.15-1.26-.33-2-.58a10.27,10.27,0,0,1-1.23-.64.47.47,0,0,1-.28-.63,6.12,6.12,0,0,1,1.51-2.65,6.77,6.77,0,0,1,1.24-1.05,6.32,6.32,0,0,1,2-.67,20.4,20.4,0,0,1,2.71-.11c.72,0,1.43,0,2.14.09.55.05,1.08.16,1.62.26a3,3,0,0,1,.49.2,2.45,2.45,0,0,1-.31.55c-.54.6-1.08,1.2-1.65,1.78a19.2,19.2,0,0,1-1.48,1.37,15.53,15.53,0,0,1-1.56,1.09A6.41,6.41,0,0,1,608.1,299.29Z" transform="translate(-18 -18)"/><path class="cls-9" d="M600.78,278.26a18.62,18.62,0,0,1,1.61,1.09,42.22,42.22,0,0,1,3.5,3,5.38,5.38,0,0,1,1.4,2.54,3.62,3.62,0,0,1,.14,1.84q-.36,1.28-.78,2.52a.41.41,0,0,1-.35.15,6.52,6.52,0,0,1-3.64-1.6A5.15,5.15,0,0,1,601.4,286a9.56,9.56,0,0,1-.59-3.29c0-1.14-.11-2.27-.15-3.41A9.81,9.81,0,0,1,600.78,278.26Z" transform="translate(-18 -18)"/><path class="cls-21" d="M534.66,331.32V334a5.32,5.32,0,0,0,.71,2.81c.2.34-.07.82-.6,1s-1.37.45-2,.78a7.23,7.23,0,0,1-2.31.56c-.62.11-1.23.31-1.85.46a2.24,2.24,0,0,1-.47,0c.14-.34.26-.64.39-.92.59-1.25,1.11-2.52,1.78-3.71a7.9,7.9,0,0,1,2.67-3,6.18,6.18,0,0,1,1.09-.47C534.23,331.44,534.41,331.4,534.66,331.32Z" transform="translate(-18 -18)"/><path class="cls-21" d="M530.16,320.55c.78.29,1.46.51,2.11.8s1.45.71,2.17,1.09a.51.51,0,0,1,.21.38c0,2.34,0,4.69,0,7.14-.7-.54-1.47-.84-1.9-1.6-.25-.44-.6-.82-.82-1.28s-.48-1.26-.7-1.89c-.11-.32-.22-.64-.31-1s-.19-.74-.27-1.12c-.14-.65-.28-1.31-.41-2C530.21,321,530.19,320.78,530.16,320.55Z" transform="translate(-18 -18)"/><path class="cls-21" d="M562,332.37a20.55,20.55,0,0,1,4.2,7.26c-.58-.09-1.06-.15-1.54-.24-.82-.17-1.65-.34-2.46-.55a13.51,13.51,0,0,1-1.52-.5c-.07,0-.12-.24-.09-.33a4.53,4.53,0,0,1,.36-.64,7.24,7.24,0,0,0,1-4.45Z" transform="translate(-18 -18)"/><path class="cls-21" d="M562.06,321.39l2.12-.85a23.32,23.32,0,0,1-2,7.16l-.12,0Z" transform="translate(-18 -18)"/></g><path class="cls-22" d="M546.05,329.36a9.16,9.16,0,0,1,0-1.89,8.49,8.49,0,0,1,.83-2.13,9.59,9.59,0,0,1,1.11-1.29c.21-.23.35-.19.56,0a5.85,5.85,0,0,1,1.7,2.45,4.34,4.34,0,0,1,.19,3c.73-.5,1.41-1.1,2.35-.84a2.51,2.51,0,0,1,1.7,1.79,2.54,2.54,0,0,1-1.12,2.9,1.79,1.79,0,0,0-1.38-1.68,2.27,2.27,0,0,0-2.25,1.08,3.23,3.23,0,0,0,.85,4.11,3.65,3.65,0,0,0,3.3.8,3.23,3.23,0,0,0,1.93-1.21,6.83,6.83,0,0,0,1.34-3.32c.05-.33.15-.66.18-1a10,10,0,0,0-.45-3.48,6.21,6.21,0,0,0-1.6-3,3,3,0,0,0-2.84-.89,3,3,0,0,1,.25-2.93c1.21-1.34,2.65-1.17,4.09-.37.12-.8.19-1.59.37-2.35a7.48,7.48,0,0,1,3-4.42,3.06,3.06,0,0,1,3.55.25,4.12,4.12,0,0,1,.95,2.57s-.11.05-.17,0a1.91,1.91,0,0,0-2,1.42,4,4,0,0,0-.28,1.55c0,3-.08,6-.11,9,0,1.34,0,2.69,0,4a7.74,7.74,0,0,1-1.87,5.08,13.16,13.16,0,0,1-2.92,2.65,20.24,20.24,0,0,1-2.39,1.28c-.55.28-1.13.49-1.72.73-.16-.37-.25-.54.26-.74a12.72,12.72,0,0,0,4.27-2.58,3.36,3.36,0,0,0,1.09-1.77c-.29.22-.57.46-.88.66-.83.51-1.66,1-2.53,1.5-.65.35-1.35.59-2,.9s-1,.15-1.33-.47a19.44,19.44,0,0,0-1.76-2.6,9.87,9.87,0,0,0-1.7-1.45.68.68,0,0,0-.6,0,10.42,10.42,0,0,0-2,1.63c-.77.93-1.38,2-2.13,3.1a10.48,10.48,0,0,1-3.24-1.24,33,33,0,0,1-3-1.93,2.9,2.9,0,0,0,.94,1.5,10.57,10.57,0,0,0,3.6,2.38c.42.17.83.4,1.27.61l-.1.52a9.42,9.42,0,0,1-1-.35c-.92-.46-1.83-.95-2.74-1.44a10.7,10.7,0,0,1-3.17-2.74,7.12,7.12,0,0,1-1.85-3.87c-.1-1.1,0-2.21,0-3.32,0-2.45-.06-4.91-.08-7.36,0-1,.06-2,0-3a13.18,13.18,0,0,0-.4-2.41,2.06,2.06,0,0,0-1.79-1.27l-.43,0a3.12,3.12,0,0,1,2.44-2.63,4,4,0,0,1,4.54,2,5.73,5.73,0,0,1,.52,2c.11.85.12,1.71.17,2.64a2.32,2.32,0,0,0,.5-.24,3,3,0,0,1,3.52.21,2.12,2.12,0,0,1,.72,1.58c0,.43,0,.87,0,1.31,0,.24-.07.33-.36.29a3.11,3.11,0,0,0-2.89,1.16,5.39,5.39,0,0,0-1.29,2.51,16,16,0,0,0-.5,3.27,7.42,7.42,0,0,0,1.5,4.73,3.6,3.6,0,0,0,3.67,1.23,3.51,3.51,0,0,0,2.41-1.9,3.13,3.13,0,0,0,.26-2.44,2.25,2.25,0,0,0-1.67-1.63,1.68,1.68,0,0,0-1.86.61,4.74,4.74,0,0,0-.43,1,2,2,0,0,1-1.07-1.65,2.6,2.6,0,0,1,1.26-2.8,1.94,1.94,0,0,1,2,.08c.22.17.46.32.69.48l.07,0Z" transform="translate(-18 -18)"/><path class="cls-22" d="M548.3,340a11.28,11.28,0,0,1,2.09,3.56,10,10,0,0,1,.45,4.54,4,4,0,0,1-1.35,2.65c-1,.94-1.76.68-2.67-.23a4.73,4.73,0,0,1-1.23-3.13,9.48,9.48,0,0,1,.41-3.29,10.09,10.09,0,0,1,1.86-3.61,2.5,2.5,0,0,1,.23-.23Z" transform="translate(-18 -18)"/><path class="cls-22" d="M546.05,329.36l0,.06-.07,0Z" transform="translate(-18 -18)"/><g id="_Group_" data-name="&lt;Group&gt;"><circle id="_Path_" data-name="&lt;Path&gt;" class="cls-22" cx="497.51" cy="231.74" r="3.73"/><path id="_Compound_Path_" data-name="&lt;Compound Path&gt;" class="cls-22" d="M577.71,249.57h-6.3l-7.7,18.21v0H551V264h11.33v-5.15H551V255.3h12.5v-5.56h-19v6.13c-2-3.76-6.12-6.13-12-6.13h-9.1v20.37h-2.24c-1.9,0-2.25-.4-2.25-2.34V255.59H508.74v3.31h1.6c2.19,0,2.24.55,2.24,2.65v6.22c0,1.89-.35,2.34-2.34,2.34h-1.5v3.21h23.68c6,0,10.17-2.49,12.15-6.32v6.32h23.67l1.69-4.21H579l1.72,4.21h7Zm-38.55,12c0,3.81-2.59,6-6.5,6H530v-12h2.66c3.91,0,6.5,2.19,6.5,6ZM571.85,264l2.66-6.7,2.63,6.7Z" transform="translate(-18 -18)"/></g><path class="cls-22" d="M509.38,277.24v5h-.57v-5Z" transform="translate(-18 -18)"/><path class="cls-22" d="M515.21,277.24h.55v5h-.45l-3.26-4.13v4.13h-.55v-5H512l3.18,4Z" transform="translate(-18 -18)"/><path class="cls-22" d="M519.64,279.48c1.12.25,1.64.66,1.64,1.43a1.52,1.52,0,0,1-1.72,1.44,3,3,0,0,1-2.06-.81l.36-.42a2.36,2.36,0,0,0,1.72.71c.68,0,1.13-.35,1.13-.86s-.26-.74-1.31-1-1.69-.63-1.69-1.46a1.48,1.48,0,0,1,1.65-1.39,2.63,2.63,0,0,1,1.77.62l-.33.44a2.23,2.23,0,0,0-1.45-.55c-.66,0-1.08.36-1.08.83S518.53,279.24,519.64,279.48Z" transform="translate(-18 -18)"/><path class="cls-22" d="M524.88,280.5h-1.22v1.77h-.57v-5H525c1.13,0,1.88.6,1.88,1.6S526,280.5,524.88,280.5Zm0-2.74h-1.27V280h1.24c.84,0,1.39-.45,1.39-1.12S525.75,277.76,524.93,277.76Z" transform="translate(-18 -18)"/><path class="cls-22" d="M529.17,277.24v5h-.57v-5Z" transform="translate(-18 -18)"/><path class="cls-22" d="M534.76,282.27l-1.46-1.95h-1.44v1.95h-.57v-5h2.17c1.11,0,1.82.59,1.82,1.5a1.49,1.49,0,0,1-1.37,1.48l1.55,2Zm-1.35-4.51h-1.55v2.05h1.55c.75,0,1.29-.39,1.29-1.05S534.23,277.76,533.41,277.76Z" transform="translate(-18 -18)"/><path class="cls-22" d="M537.76,277.24v5h-.56v-5Z" transform="translate(-18 -18)"/><path class="cls-22" d="M543.59,277.24h.56v5h-.46l-3.25-4.13v4.13h-.55v-5h.53l3.17,4Z" transform="translate(-18 -18)"/><path class="cls-22" d="M548.56,282.36a2.47,2.47,0,0,1-2.56-2.6,2.53,2.53,0,0,1,2.53-2.61,2.6,2.6,0,0,1,1.87.67l-.36.43a2.14,2.14,0,0,0-1.54-.58,2,2,0,0,0-1.91,2.08,2,2,0,0,0,2,2.1,2.34,2.34,0,0,0,1.46-.51v-1.25H548.5v-.51h2.08v2A3,3,0,0,1,548.56,282.36Z" transform="translate(-18 -18)"/><path class="cls-22" d="M557.07,282.27h-1.75v-5h1.75a2.52,2.52,0,1,1,0,5Zm0-4.51h-1.18v4h1.18a2,2,0,1,0,0-4Z" transform="translate(-18 -18)"/><path class="cls-22" d="M562.22,277.24v5h-.57v-5Z" transform="translate(-18 -18)"/><path class="cls-22" d="M566.68,282.36a2.47,2.47,0,0,1-2.56-2.6,2.53,2.53,0,0,1,2.53-2.61,2.64,2.64,0,0,1,1.88.67l-.37.43a2.14,2.14,0,0,0-1.53-.58,2,2,0,0,0-1.92,2.08,2,2,0,0,0,2,2.1,2.34,2.34,0,0,0,1.46-.51v-1.25h-1.53v-.51h2.08v2A3.06,3.06,0,0,1,566.68,282.36Z" transform="translate(-18 -18)"/><path class="cls-22" d="M571.26,277.24v5h-.57v-5Z" transform="translate(-18 -18)"/><path class="cls-22" d="M575.29,282.27h-.58v-4.51H573v-.52h4v.52h-1.69Z" transform="translate(-18 -18)"/><path class="cls-22" d="M582.74,282.27h-.61l-.59-1.33h-2.75l-.59,1.33h-.59l2.3-5.07h.53Zm-2.57-4.41L579,280.43h2.29Z" transform="translate(-18 -18)"/><path class="cls-22" d="M584.38,277.24H585v4.51h2.83v.52h-3.4Z" transform="translate(-18 -18)"/><path class="cls-22" d="M512.4,286.39h-3.07v1.72h2.74v.52h-2.74v1.77h3.1v.51h-3.67v-5h3.64Z" transform="translate(-18 -18)"/><path class="cls-22" d="M517.45,285.88H518v5h-.46l-3.25-4.13v4.13h-.55v-5h.53l3.17,4Z" transform="translate(-18 -18)"/><path class="cls-22" d="M521.51,290.91h-.58V286.4h-1.69v-.52h4v.52h-1.69Z" transform="translate(-18 -18)"/><path class="cls-22" d="M528.07,286.39H525v1.72h2.75v.52H525v1.77h3.11v.51h-3.68v-5h3.64Z" transform="translate(-18 -18)"/><path class="cls-22" d="M532.89,290.91l-1.46-2H530v2h-.57v-5h2.17c1.1,0,1.82.59,1.82,1.5a1.49,1.49,0,0,1-1.37,1.48l1.55,2.05Zm-1.35-4.51H530v2.05h1.55c.75,0,1.29-.39,1.29-1.05S532.36,286.4,531.54,286.4Z" transform="translate(-18 -18)"/><path class="cls-22" d="M536.58,289.14h-1.22v1.77h-.57v-5h1.89c1.13,0,1.88.6,1.88,1.6S537.65,289.14,536.58,289.14Zm0-2.74h-1.27v2.22h1.24c.84,0,1.39-.45,1.39-1.12S537.45,286.4,536.63,286.4Z" transform="translate(-18 -18)"/><path class="cls-22" d="M543.23,290.91l-1.46-2h-1.44v2h-.56v-5h2.16c1.11,0,1.82.59,1.82,1.5a1.48,1.48,0,0,1-1.37,1.48l1.55,2.05Zm-1.34-4.51h-1.56v2.05h1.55c.76,0,1.3-.39,1.3-1.05S542.7,286.4,541.89,286.4Z" transform="translate(-18 -18)"/><path class="cls-22" d="M545.76,285.88v5h-.57v-5Z" transform="translate(-18 -18)"/><path class="cls-22" d="M549.2,288.12c1.13.25,1.64.66,1.64,1.43a1.52,1.52,0,0,1-1.72,1.44,2.94,2.94,0,0,1-2-.81l.35-.42a2.37,2.37,0,0,0,1.73.71c.67,0,1.12-.35,1.12-.86s-.25-.74-1.31-1-1.69-.63-1.69-1.46a1.49,1.49,0,0,1,1.65-1.39,2.62,2.62,0,0,1,1.77.62l-.33.44a2.22,2.22,0,0,0-1.45-.55c-.66,0-1.07.36-1.07.83S548.1,287.88,549.2,288.12Z" transform="translate(-18 -18)"/><path class="cls-22" d="M555.81,286.39h-3.07v1.72h2.75v.52h-2.75v1.77h3.11v.51h-3.68v-5h3.64Z" transform="translate(-18 -18)"/><path class="cls-22" d="M564.18,290.91h-.61l-.59-1.33h-2.75l-.59,1.33h-.59l2.3-5.07h.53Zm-2.57-4.41-1.15,2.57h2.29Z" transform="translate(-18 -18)"/><path class="cls-22" d="M567.74,285.86h.47l1.38,4.21,1.44-4.19h.6l-1.8,5.07h-.48L568,286.86,566.58,291h-.48l-1.8-5.07h.62l1.44,4.19Z" transform="translate(-18 -18)"/><path class="cls-22" d="M576.87,290.91h-.61l-.59-1.33h-2.74l-.6,1.33h-.58l2.29-5.07h.53Zm-2.57-4.41-1.15,2.57h2.3Z" transform="translate(-18 -18)"/><path class="cls-22" d="M581.5,290.91,580,289H578.6v2H578v-5h2.17c1.11,0,1.82.59,1.82,1.5a1.49,1.49,0,0,1-1.37,1.48l1.55,2.05Zm-1.34-4.51H578.6v2.05h1.55c.75,0,1.29-.39,1.29-1.05S581,286.4,580.16,286.4Z" transform="translate(-18 -18)"/><path class="cls-22" d="M585.15,290.91H583.4v-5h1.75a2.52,2.52,0,1,1,0,5Zm0-4.51H584v4h1.18a2,2,0,1,0,0-4Z" transform="translate(-18 -18)"/></g><rect class="cls-2" x="163.28" y="214.08" width="252.39" height="22.75"/><rect class="cls-2" x="163.28" y="255.24" width="115.94" height="16.41"/><rect class="cls-2" x="163.28" y="286.49" width="115.94" height="16.41"/><rect class="cls-2" x="299.72" y="255.24" width="115.94" height="16.41"/><rect class="cls-2" x="299.72" y="286.49" width="115.94" height="16.41"/><rect class="cls-2" x="157.86" y="406.73" width="208" height="16.41"/><rect class="cls-2" x="157.86" y="373.15" width="98.57" height="16.41"/><rect class="cls-2" x="402.64" y="406.73" width="208" height="16.41"/><rect class="cls-2" x="157.86" y="439.22" width="208" height="16.41"/><rect class="cls-2" x="402.64" y="439.22" width="208" height="16.41"/><rect class="cls-2" x="157.86" y="471.72" width="208" height="16.41"/><rect class="cls-2" x="402.64" y="471.72" width="208" height="16.41"/><rect class="cls-2" x="157.86" y="558.92" width="208" height="16.41"/><rect class="cls-2" x="157.86" y="525.34" width="98.57" height="16.41"/><rect class="cls-2" x="402.64" y="558.92" width="208" height="16.41"/><rect class="cls-2" x="157.86" y="591.41" width="208" height="16.41"/><rect class="cls-2" x="402.64" y="591.41" width="208" height="16.41"/><rect class="cls-2" x="157.86" y="623.91" width="208" height="16.41"/><rect class="cls-2" x="402.64" y="623.91" width="208" height="16.41"/><rect class="cls-2" x="157.86" y="677.53" width="98.57" height="16.41"/><rect class="cls-2" x="402.64" y="711.11" width="208" height="16.41"/><path class="cls-2" d="M383.87,778H224.05l-3.59-.55Q198,774,175.86,768.89h0V761.6h208Z" transform="translate(-18 -18)"/><rect class="cls-2" x="402.64" y="743.6" width="208" height="16.41"/><path class="cls-2" d="M383.87,801.1v-7H325.36C345.07,796.77,364.61,799.12,383.87,801.1Z" transform="translate(-18 -18)"/><path class="cls-2" d="M628.64,797.28V794.1h-208v10.32C498.25,810.43,570,809.38,628.64,797.28Z" transform="translate(-18 -18)"/></g></svg>