<svg xmlns="http://www.w3.org/2000/svg" xmlns:xlink="http://www.w3.org/1999/xlink" width="883.95" height="743.02" viewBox="0 0 883.95 743.02"><defs><clipPath id="e2cf1291-f6da-469e-bf4a-1c59180c9e5a"><path d="M483.17,242.3s-4,5.85-7.93,22.59c-6.46,27.3-2.95,45.42-5.11,52.58-.66,2.2-1.91.09-4.53,3.4-2.9,3.67,1.13,7.56,1.13,7.56l-7.93,10.76S412.62,329,359.92,333s-97.21,2.83-125.26,14.73c-30.88,13.1-47.73,24.06-63.93,41-7.84,8.18-26.41,36.09-35.48,55.92s-.76,31.06,3,31.33c13.28,1,15.63-6.4,26.33-14.81,0,0-.31.41-2.72,21.45-2.53,22,2.26,39.66,0,42.5S125.62,550,118.82,563.58s-14.16,44.19-5.66,49.86,21.53-1.13,27.76-7.93,11.33-20.4,17.57-24.37,41.93-16.43,53.26-30,14.73-22.66,14.73-22.66l22.21,5.23s-.18,4,8.39,8.37c16.24,8.31,19.83,22.66,21.53,30s-9.06,50.43-7.93,55.53,8.08,28.33,25.57,27.2,20.33-6.8,22-10.2.56-14.17-1.7-19.27a24.66,24.66,0,0,1-.57-18.13c2.27-6.8,15.6-40.31,19.27-44.2,5.64-6,7.93-12.47,19.26-15.3s23.23-6.8,39.67-7.36,56.35-5.41,75.36-9.64c40.8-9.06,74.23-30,74.23-30s9.63,6.8,9.06,17.57,1.7,38.53,6.8,47,7.94,19.26,10.2,28.9-7.36,30.59,3.4,33.43,29.47-5.67,32.3-27.2.57-32.3,0-40.23S599.89,521.08,601,512s7.63-47.15,7.63-47.15,51.29-5.48,63.76-7.75,38.41-11.36,44.64-14.19,14.27-6.09,14.27-16.85-3.6-24.89-13.23-19.8-8.45,5.56-26.33,9.3c-16.64,3.47-35.36,5.22-50.32,4.64-8.35-.32-27.84-2.33-27.84-2.33a24.82,24.82,0,0,1-1.86-6.63,16.52,16.52,0,0,0-2.79-6.9l4.53-10.2a25.16,25.16,0,0,0,5.88-2.12c2.69-1.49,5.17-5.43,3.19-13.74-.66-2.76,0-15.3,6.23-19.83s14.73-13.6,21.53-17,23.24-11.33,27.2-18.7,6.8-21.53,6.23-29.47-4.53-19.83-9.06-23.79a28.91,28.91,0,0,0-14.94-7c-3.56-.41-7.54-1-7.54-1s-7-18.7-11-24.36-18.7-22.1-18.7-22.1,6.64-31.37,6.08-54-2.66-39.6-8.86-39.6c-8.51,0-23.64,18.88-30.44,33.15-7.74,16.26-16.08,39.52-16.08,39.52s-10.34,1-18.84,2.73-18,6.91-18,6.91-13.82-23.24-23-37.11C505,154,489,136.08,479.9,140.53c-7.55,4.26-6.16,26.71-4.94,43.18C476.42,203.44,483.17,242.3,483.17,242.3Z" style="fill:none"/></clipPath><clipPath id="e463228b-7276-4d2e-8534-790239fec166"><path d="M572.42,386.15c1.59,10.79,4.92,20.38,12.77,24.51,9.81,5.16,24.39,6.84,24.39,6.84s-4.52,29.41-4.61,34.2a112.29,112.29,0,0,0,.36,13.08c-5.44-.11-32.78.62-49.94,5-9.61,2.44-49.27,25.54-58.62,29.79s-28.34,8.5-38,11.9-34.28,11.05-57.23,11.9-52.28,3.4-70.76,0-39.73-8.5-48.23-11.9S263,503,263,503s-11,4.25-19.55,8.5-12,11.05-17,17-36.17,18-46.74,12.72c-16-8-17.3-17.87-17.3-17.87-1-8.83-70.43-21.91-65.15-31.68S97.11,312.89,112.4,298.2s279.55-4.78,292-3.21,51.94,32.23,51.94,32.23,47.07,36.2,64.07,42.15S572.42,386.15,572.42,386.15Z" style="fill:none"/></clipPath></defs><title>corgi-space</title><g id="be4b56ba-75e3-4dee-a5df-0ef5b3f98484" data-name="Layer 2"><g id="bc4c9409-be8d-4802-a084-79054c44ecef" data-name="illustration-1"><g id="b1763281-05fb-401e-a7ba-cc627090b238" data-name="astro-corgi"><g id="be2a9b4c-f198-4991-a165-17855fd97a5b" data-name="Doggo"><g style="clip-path:url(#e2cf1291-f6da-469e-bf4a-1c59180c9e5a)"><rect width="883.95" height="743.02" style="fill:#f6f0e6"/><path d="M562.26,385.91a56.07,56.07,0,0,0-5.08,16.72c-2,14.1,13.5,16.36,22.28,18.63a146.47,146.47,0,0,0,15,3.11l15.14-6.87L625.35,419s5.1-16,3.2-16.18S562.26,385.91,562.26,385.91Z" style="opacity:0.04"/><path d="M607.83,495.58c-6.87,23.18-17.74,35.13-18.51,42.5s-1.89,24.36-4.16,36.83-4.9,15.89-10.2,22.67-18.13,15.29-15.3,35.69-53.83,39.67,13.6,32.87,120.13-45.33,120.13-45.33-10.2-74.23-27.77-90.1S607.83,495.58,607.83,495.58Z" style="fill:#eeeae3"/><path d="M605.18,449.35l-10.82,22s15.79.77,31.1.5c25.9-.47,44.42-2.27,60.32-5.78s47.18-9,54.06-15.71,6.59-40.82,0-41.54c-8.78-1-8.36,14.43-19.68,19.61-28.65,13.11-55.17,17.26-69.94,19.35C635.22,450,605.18,449.35,605.18,449.35Z" style="fill:#eeeae3"/><path d="M115.23,596.25c.45-12.55,12.12-28.71,20-32.11s16.72-8.5,21-17-.28-8.5,5.67-15.3,13.6-9.35,17.85-15.3,11-13.6,6.8-22.95-3.4-17.41-6.8-19.76-13.15-5.14-13-15.64,4.79-21.36,4.79-21.36a25,25,0,0,1,8.16-9.54,24.24,24.24,0,0,0,8.14-11.05s-13.24,30.4-8.14,34.32-.71,9,8.14,15,9.7,7.65,14,12.75,6.8,9.35,11,14.45,9.35,12.75,8.5,19.55-1.83,9.22,5.1,16.15c7.7,7.68,16.62,109.36,16.62,109.36l-125.6-3S114.71,611.1,115.23,596.25Z" style="fill:#eeeae3"/><path d="M540.87,507.92c1.13-2.19.09-1.57,2.93-7.24s19.45-21.07,29.08-20.87c11.15.24,34.88,1.33,34.88,1.33l.9-16.28L593,464.64,329.51,417.91l-64.59,58.36c-31.75,26.64-59.5,48.16-59.5,48.16s24.54,5.88,35.83,7.89c51,9.08,40.12,11.57,67.25,11.84L440.35,559S519.9,542,521,539.73,540.87,507.92,540.87,507.92Z" style="fill:#dfdbd6"/><path d="M277.12,539.82s13.84,7.53,15.64,13.64.9,13.09,0,21.82S291.1,598,286.09,606.7s.59,24.41,3.29,31.39,20,17.18,28.9,16.76,46.4,12.92,55.24,8.74,11.21-122.52,8.58-122.17-28.25,3.31-41.73,3.31-30.64-.39-40.82-1C292.37,543.35,277.12,539.82,277.12,539.82Z" style="fill:#eeeae3"/><g style="clip-path:url(#e463228b-7276-4d2e-8534-790239fec166)"><rect x="61.46" y="255.71" width="555.87" height="343.38" style="fill:#e1cea8"/><path d="M154.06,454.41c7.75-12.47,9.26-14.55,18-23.71a145.76,145.76,0,0,1-3.67,15.87c-2.33,7.89-2.59,10.3-2.59,10.3-5.72,20.58-11.59,30.5-17,23.41S150.15,460.7,154.06,454.41Z" style="fill:#d2be9b"/><path d="M605.18,449.35s-32.34-1.81-55.42-4.77c-27.35-3.5-47.21.07-60.39,5.44-21.47,8.75-46.7,18.06-98.55,20.06C310.08,473.2,309.84,458,285.2,458c-23.91,0-21.41,6.5-44,18.93-16.57,9.13-33.53,16.72-54.68,16.72-18.14,0-32.82-17.19-37.69-13.32l-21.61,44.58L263,547.15l402.59-16.44S607.07,449.73,605.18,449.35Z" style="fill:#dac7a4"/><path d="M161.89,531.85c-19.27-13.79-30-33.69-25.58-37.4,24.72-20.77,26.41,19.84,41.06,22.47S205.87,504.1,220,504.1s38.18-3.35,43-1.15c2.45,1.12-7.08,28.9-7.08,28.9S241.22,549.41,239.52,550s-56.67,7.93-58.37,6.8S161.89,531.85,161.89,531.85Z" style="fill:#d2be9b"/></g><polygon points="732.8 404.47 640.11 405.43 521.11 366.26 396.45 298.07 399.1 64.25 733.98 64.25 732.8 404.47" style="fill:#e1cea8"/><path d="M542.23,198.28s14.25,2.05,23.09,4.64c18.07,5.29,25.14,17.08,37.68,29.42,14.64,14.41,20.74,35.89,17.91,41.82-1.61,3.36-35.7,21.77-36.83,34s1.13,21.29,7.93,28.09,11.9,14.16,10.2,19.83-27.74,24.34-27.74,24.34L613,394s40,15.27,42.49,12.46,62.8-125.88,60.63-134.86c-8.5-35.13-48.27-13.42-64.4-10.2-6.38,1.28-9.64,5.36-13.6,3.3s-17.8-28.51-28.39-39.62c-13.42-14.06-26.19-23.22-37.81-26.71a112.5,112.5,0,0,0-17-3.26A119.88,119.88,0,0,0,542.23,198.28Z" style="fill:#f6f0e6"/><path d="M486.68,152.73c-6.2,2.51-3.51,23.09-1.81,35.71s8.19,42.29,8.19,42.29a132.3,132.3,0,0,1,13.34-10.65c7.93-5.55,23.8-14.21,23.8-14.21S496.5,148.74,486.68,152.73Z" style="fill:#f3ede0"/><path d="M584.42,194.73s10.94,2.59,15.47,5.25,17,11.23,17,11.23,5.67-29,6.24-42,.35-34.5-6.2-35.23C610,133.18,590.77,163.29,584.42,194.73Z" style="fill:#f3ede0"/><path d="M616,321.18c20.14-12.91,13.55,23.11,50.26-1.73,7.3-4.94,22.49-21.54,22.13-17.18s.73,11.82-6.73,17.63-9.84,10.45-20.59,16c-6.48,3.33-20.43,13.9-29.77,22.84-11,10.51-6.68,21.47-8.05,28.5-1.54,8-9.78,6.94-9.78,6.94s-13.22,10.2-25.87,1.89c-2.23-1.46-29.18-7.88-18.76-14.19,49.45-29.91,33.58-31.61,23.67-45.49C587.47,329.28,603.09,329.47,616,321.18Z" style="opacity:0.02"/><ellipse id="a19dd14e-a061-4685-b5c3-cc7a56809d47" data-name="Left Eye" cx="597.79" cy="260.44" rx="7.44" ry="12.41" transform="translate(-53.7 287.78) rotate(-25.94)" style="fill:#5f4820"/><ellipse id="a4389874-7933-42fd-88f4-0ddb43236413" data-name="Nose" cx="652.55" cy="279.58" rx="14.66" ry="10.29" transform="matrix(0.9, -0.44, 0.44, 0.9, -56.55, 313.67)" style="fill:#5f4820"/><path id="eba3b7ca-3650-4188-a305-aa441caa2e98" data-name="Right Eye" d="M632.21,256.28c2.51-.85,3.08-6.22,1.15-11.92s-5.52-9.62-8-8.77c-1.61.54-2.38,2.92-2.21,6,0,0,2.18,3.75,4.1,6.69S632.21,256.28,632.21,256.28Z" style="fill:#5f4820"/><path d="M449.44,337.43s16.79,11.56,28.72,18.14c27.77,15.3,49.7,23.23,67.16,29.8,53.61,20.19,75.54,26.54,75.54,26.54l1.71-10.55-85.18-29.73L455,330.09Z" style="opacity:0.06"/></g></g><g id="ab5fb735-afe5-4e84-9a17-44ac868a0a5c" data-name="Helmet"><path d="M602.2,394.72q3.22.11,6.48.11c101.54,0,183.83-80.2,183.83-181.74S710.19,29.24,608.66,29.24,424.8,111.56,424.8,213.09a183.25,183.25,0,0,0,49.08,125.06l.61,6.81,121.74,54.66Z" style="opacity:0.06"/><path d="M739.84,105.63s39,29.82,39,106.26c0,52.8-29.1,98.79-29.1,98.79s19.33-47.55,12.92-107.1C756.71,148,739.84,105.63,739.84,105.63Z" style="fill:#fff"/><path d="M464.53,327.22s45.31,29.23,71.62,39.17S616,395,616,395l-4.68,10.52s-65.86-24.2-84.14-31.41c-27.49-10.84-70.78-35.82-70.78-35.82Z" style="fill:#fff"/></g></g></g></g></svg>