<svg xmlns="http://www.w3.org/2000/svg" xmlns:xlink="http://www.w3.org/1999/xlink" width="976.31" height="667.67" viewBox="0 0 976.31 667.67"><defs><clipPath id="ad59470e-8f76-4441-a710-03ffa6566321"><path d="M730.07,360.07c-27.32,1.19-34.44,19-35.63,29.69-10.6,0-15,10.73-12.34,21-5.42-.65-10.22,4.3-11.41,9.63s.28,10.85,1.74,16.11c-6.19.07-12.85,1.76-16.66,6.63s-2.92,13.43,2.81,15.76c-6.36-1-11.85,5.61-12.16,12s3,12.42,6.3,17.94c-5.79,1.86-8.16,5.42-5.79,7.8,2.09,2.09.4,4.12-.73,6.84-2.11,5.05-8.43,6.41-13.11,9.23a20.29,20.29,0,0,0-9.16,20.83c-6.48-.57-13.39-1.06-19.15,2s-9.36,11.06-5.49,16.3a19.11,19.11,0,0,0-17.87,14.67c-.68,3.18-.56,6.68-2.32,9.42-3.58,5.55-13.06,5.38-15.65,11.45-1.44,3.4-.13,7.77-2.44,10.65-1.51,1.89-4.09,2.46-6.41,3.17-9.65,3-18.33,12.66-15.75,22.43-7.86-1.28-16.2,4.55-17.71,12.36-.36,1.88-.54,4.11-2.16,5.12-.75.47-1.85,1.19-2.55.65-4.89-3.77-14.39-2.58-21.39,2a26.94,26.94,0,0,0-15.57-9.4c1.92-.85-.09-6.9-2.37-8.27-5.94-3.56-9.5-2.37-16.63-1.18,2.5-3.61,1.19-9.4-3.56-11.77H435.53c-5.54.78-9.42,6.17-9.5,11.77s5.48,12.54,11,13.48a8.89,8.89,0,0,0,9.44,15c1.7,9.11,14.72,13.6,21.67,7.48A40.63,40.63,0,0,0,510,655.36c5.75,2.25,11.72,4.53,17.89,4.22s12.62-4,14.14-10a13.7,13.7,0,0,0,18.89-16.9c6.54-1.52,13.33-3.15,18.55-7.38s8.33-11.86,5.3-17.85a16.07,16.07,0,0,0,13.1-10.43c.75-2.14,1-4.46,2.1-6.47,3.26-6.14,12.18-7,16.17-12.72,1.5-2.12,2.15-4.73,3.56-6.91,5.54-8.63,20.95-8.65,23.42-18.61.69-2.76.17-5.93,1.83-8.24,1.47-2,4.14-2.7,6.59-3.22,5.22-1.12,10.76-2.4,14.49-6.22s4.42-11.07,0-14c5.8-2,11.87-4.12,16-8.68s5.24-12.37.8-16.58c12.39-5.85,26.69-14.58,26.53-28.28,0-2.36-.49-4.85.54-7,.85-1.75,2.56-2.89,3.9-4.29a12.9,12.9,0,0,0,2.48-13.66c8-.83,11.4-13.43,4.83-18.15,13.13,1.36,25.15-8.35,30-20.63,4-10.1,4-23.16,1.61-29.1Z" style="fill:none"/></clipPath><clipPath id="ac019e40-13e4-471a-aff0-4d82fb9bce5d"><path d="M94.91,115.83c4-.57,8.23-3.53,8.23-7.06,7.06,1.18,17.38-2.65,18.27-6.84.67-3.16.56-6.62,2.31-9.34,3.54-5.5,12.93-5.33,15.49-11.35,1.44-3.36.14-7.7,2.42-10.55,1.51-1.87,4.06-2.43,6.35-3.14,9.57-2.94,20.09-11.47,17.54-21.15,7.78,1.26,20-4.71,20-17.66,10.6,2.36,14.55,1.18,21.49-3.38a26.59,26.59,0,0,0,15.43,9.31c-2.79,4.66,2,8,4.27,9.37A14.25,14.25,0,0,0,242,44c0,4.71-1.92,9.75,2.78,12.11H271c3-3,4.28-6.56,4.36-12.11S270,31.61,264.49,30.68a9.15,9.15,0,0,0,2.34-11.86,9.12,9.12,0,0,0-11.69-3c-1.68-9-14.59-13.48-21.48-7.41C220.29,2.27,213.32,4.07,202,13.44c-5.7-2.22-12.72-2.66-18.83-2.35a14.21,14.21,0,0,0-12.95,10.59c-4.8-2.33-12.49,2.32-16.47,5.89s-5.32,6.73-3.53,11.76a50.1,50.1,0,0,0-18.83,9.42C126.22,52.94,126,60.46,129,66.4c-5.88,1.18-7.53,1.37-12.94,3.53-5.89,2.36-10.59,7.06-8.24,14.12-14.12-4.7-22.36,10.6-20,17.66C76.08,99.35,62.73,106.08,60.28,116c0,0-3.07,13.91,12.27,6.94,5.56-2.53,7.06-5.88,7.06-5.88A120.9,120.9,0,0,0,94.91,115.83Z" style="fill:none"/></clipPath><clipPath id="bf794d5f-9039-46ac-b7c2-2db975896e31"><path d="M48.59,133.65c-.37,2.68-5.22,7.26-9.65,6.36-.09,2.23-2.86,4-5.37,4.26a76.24,76.24,0,0,1-9.7.38s1.76,3.62-1.82,5.09c-9.85,4-10.36-6.21-10.36-6.21,1.78-6.18,5.42-10,12.8-8.25-1.32-4.52,1.73-9.37,12.4-10.29C43.89,124,49.46,127.35,48.59,133.65Z" style="fill:none"/></clipPath><clipPath id="abfb8135-8f4f-4861-ae00-937cc96dd6d9"><path d="M878,250.15l4.58,53.7a18.49,18.49,0,0,1-2.39,10.94S789,469.11,789,469.15c2-67-24-84-24-84Z" style="fill:none"/></clipPath><clipPath id="f0474f07-3f7c-4a0d-88e4-edee361b03f8"><path d="M738.1,343.65l20.29,11.65s2.71,19-5,33.61C749,397.15,743,397.15,738,406.15c0-16-21.79,8.45-32.34,18.86,2.69-10.51,10.34-27.86-7.66-21.86,7-11,10-29.25,14.77-37.52C721,351.3,738.1,343.65,738.1,343.65Z" style="fill:none"/></clipPath><clipPath id="a0e7ad7e-0317-4124-8257-db521285fa4b"><path d="M919.08,53.15S826.71,59,771.74,154.82c-64.44,112.28-61.25,199-61.25,199a177.72,177.72,0,0,0,25.43,17.33A201.52,201.52,0,0,0,764.74,385s78.71-52.05,137.82-155.06C955.76,137.18,919.08,53.15,919.08,53.15Z" style="fill:none"/></clipPath></defs><title>illustration-oms_6</title><g id="a4450e73-4058-470c-89b4-b6ff2ed09f3f" data-name="Layer 2"><g id="ff49edea-5cb4-4518-b2f1-18bb0ce0a88e" data-name="Layer 1"><g id="ec404429-28d9-4491-9cf6-bfd634800e7d" data-name="oms-bounce"><rect x="107.31" y="113.15" width="869" height="57" style="fill:#232d5e"/><path d="M976.31,113.15h-869V66.59a10.43,10.43,0,0,1,10.44-10.44H965.87a10.43,10.43,0,0,1,10.44,10.44Z" style="fill:#ddd"/><path d="M965.87,613.15H117.75a10.44,10.44,0,0,1-10.44-10.44V170.15h869V602.71A10.44,10.44,0,0,1,965.87,613.15Z" style="fill:#2571af"/><rect x="219.31" y="206.15" width="629" height="337" rx="12.7" style="fill:#fff"/><rect x="272.48" y="314.18" width="134.85" height="22.48" style="fill:#f4f4f4"/><rect x="425.96" y="314.18" width="368.18" height="22.48" style="fill:#f4f4f4"/><rect x="272.31" y="253.15" width="235" height="23" style="fill:#232d5e"/><circle cx="163.81" cy="84.65" r="6.5" style="fill:#fff136"/><circle cx="138.81" cy="84.65" r="6.5" style="fill:#fa4600"/><circle cx="189.81" cy="84.65" r="6.5" style="fill:#69c400"/><rect x="272.48" y="359.18" width="134.85" height="22.48" style="fill:#f4f4f4"/><rect x="425.96" y="359.18" width="368.18" height="22.48" style="fill:#f4f4f4"/><rect x="272.48" y="405.18" width="134.85" height="22.48" style="fill:#f4f4f4"/><rect x="425.96" y="405.18" width="368.18" height="22.48" style="fill:#f4f4f4"/><rect x="272.48" y="448.18" width="134.85" height="22.48" style="fill:#f4f4f4"/><rect x="425.96" y="448.18" width="368.18" height="22.48" style="fill:#f4f4f4"/></g><g id="ebac5a3f-11ea-4cfb-9192-250492b74fa7" data-name="Shadow" style="opacity:0.09"><path d="M942.42,144.56s-65,4.13-103.63,71.51C833,226.13,828,235.91,823.68,245.3l-20.91,9.77A13,13,0,0,0,797,260.4L740.5,358.82a3.3,3.3,0,0,0,3.36,4.9l37.25-5.78c-.36,2.71,1.09,5.36,3.41,7.36l-2.16-7.55,13.34-2.07c0,.23,0,.35,0,.35l5.43,3.12a29.91,29.91,0,0,0-3.8,5.18,18.8,18.8,0,0,0-1.8,4.38c-.51.05-1,.09-1.55.11a14.35,14.35,0,0,1-9.47-3.52l.05.18A19.61,19.61,0,0,0,774.09,387c-7-1.08-13.11,8-9.5,14.07-9.45,0-17.43,10.28-15,19.43-4.84-.58-9.12,3.83-10.18,8.58s.24,9.68,1.55,14.37c-5.52.06-11.46,1.57-14.86,5.91s-2.6,12,2.51,14.05c-5.67-.86-10.57,5-10.84,10.74s2.65,11.08,5.61,16c-2.62-.21-4.47,2.65-4.85,5.26s0,5.37-1,7.8c-1.87,4.5-7.51,5.71-11.69,8.23a18.08,18.08,0,0,0-8.16,18.58c-5.78-.51-11.94-.95-17.08,1.76s-8.35,9.86-4.89,14.53a17.07,17.07,0,0,0-15.94,13.08c-.6,2.85-.5,6-2.07,8.4-3.19,5-11.64,4.8-14,10.22-1.29,3-.12,6.93-2.18,9.49-1.35,1.69-3.65,2.2-5.71,2.83-8.61,2.65-16.35,11.29-14.06,20-7-1.14-13.91-4.19-15.26,2.78h49.88c5.18-3,9-11.82,6.33-17.16a14.33,14.33,0,0,0,11.68-9.3c.67-1.91.93-4,1.88-5.77,2.9-5.48,10.85-6.28,14.42-11.35,1.33-1.89,1.91-4.21,3.16-6.16,5-7.7,18.69-7.71,20.89-16.6.61-2.46.15-5.29,1.64-7.34,1.3-1.81,3.69-2.41,5.87-2.87,4.65-1,9.59-2.15,12.92-5.55s3.94-9.87,0-12.5c5.17-1.75,10.59-3.66,14.23-7.73s4.67-11,.71-14.79c11-5.22,23.81-13,23.67-25.22,0-2.1-.44-4.32.48-6.22.75-1.55,2.27-2.57,3.47-3.82A11.49,11.49,0,0,0,780,448.59c7.18-.74,10.17-12,4.31-16.19C796,433.61,808,425.38,811,414c.55-2,.89-4.25,2.24-5.87,2-2.32,5.3-2.69,8.2-3.55,9.3-2.78,15.75-12.91,14.42-22.51l17.51,44.49a3.3,3.3,0,0,0,5.93.43l56.47-98.42a13,13,0,0,0,1.68-7.69l-2.48-27c5.39-7.81,10.7-16.16,15.81-25.05C968.21,203.66,942.42,144.56,942.42,144.56Z"/></g><g style="opacity:0.09"><path d="M178.26,56.14c-2.62,3.79-2.36,8.79-.16,13.16-5.18,1-6.64,1.2-11.41,3.11-5.19,2.07-9.34,6.22-7.26,12.45-12.45-4.15-19.72,9.34-17.64,15.56-10.38-2.07-22.14,3.86-24.3,12.56,0,0-2.71,12.27,10.81,6.12,4.9-2.23,6.23-5.19,6.23-5.19a106.48,106.48,0,0,0,13.48-1c3.5-.49,7.27-3.11,7.27-6.22,6.22,1,15.32-2.34,16.1-6,.6-2.79.49-5.84,2-8.23,3.13-4.85,11.41-4.7,13.67-10,1.26-3,.11-6.79,2.13-9.3,1.33-1.65,3.58-2.15,5.6-2.77,7-2.16,14.65-7.42,15.68-14.16Z"/></g><g id="a3dc08fa-f402-4740-8377-53f79f559297" data-name="Smoke"><g style="clip-path:url(#ad59470e-8f76-4441-a710-03ffa6566321)"><path d="M739.76,340.74C730.18,345,724.54,356,727,365.81c-8.55-1.26-16,9.29-11.62,16.35-11.56,0-21.32,12-18.38,22.59-5.91-.68-11.15,4.46-12.45,10s.3,11.25,1.89,16.71c-6.74.07-14,1.81-18.16,6.86s-3.18,13.93,3.06,16.34c-6.93-1-12.92,5.82-13.26,12.49s3.25,12.87,6.87,18.59c-3.21-.25-5.47,3.09-5.94,6.11s.07,6.25-1.17,9.07c-2.3,5.23-9.2,6.64-14.3,9.57-7.55,4.33-11.74,13.39-10,21.6-7.07-.59-14.6-1.11-20.88,2s-10.22,11.47-6,16.9c-9.08.11-17.6,6.76-19.49,15.2-.74,3.3-.62,6.93-2.54,9.77-3.89,5.75-14.24,5.57-17.06,11.87-1.57,3.52-.14,8.06-2.66,11-1.65,2-4.46,2.55-7,3.29-10.53,3.08-20,13.12-17.19,23.25-8.57-1.32-17.66,4.71-19.3,12.82-.4,1.94-.59,4.25-2.36,5.3a6.55,6.55,0,0,1-2.78.68l-23.33,2.09a29.71,29.71,0,0,0-17-9.75c2.1-.87,2.27-3.9.83-5.59s-3.82-2.35-6.07-2.76a51.52,51.52,0,0,0-18.49,0,9,9,0,0,0-2-12.23c-3.8-2.78.77-3,.77-3H428.4c-6,.81-9.41,9.62-9.5,15.43s4.74,11.32,10.76,12.3a9.24,9.24,0,0,0-2.58,12.4c2.59,3.93,8.59,5.41,12.87,3.17,1.85,9.45,16.06,14.11,23.64,7.76,14.72,6.38,33.18,4.06,45.64-5.75,6.28,2.33,12.79,4.7,19.51,4.37s13.77-4.13,15.43-10.33a15.92,15.92,0,0,0,16.47-2.19,14.07,14.07,0,0,0,4.13-15.32c7.13-1.58,14.53-3.27,20.23-7.66s9.09-12.29,5.78-18.5a17.38,17.38,0,0,0,14.29-10.81c.82-2.22,1.13-4.63,2.29-6.71,3.55-6.37,13.28-7.3,17.64-13.19,1.63-2.2,2.34-4.9,3.87-7.16,6-9,22.86-9,25.55-19.3.75-2.86.19-6.15,2-8.54,1.6-2.1,4.51-2.79,7.18-3.34,5.69-1.16,11.73-2.49,15.81-6.45s4.81-11.47,0-14.52c6.33-2,13-4.27,17.4-9s5.72-12.82.87-17.19c13.52-6.06,29.11-15.11,28.94-29.31,0-2.45-.53-5,.59-7.23.93-1.82,2.79-3,4.25-4.45a12.86,12.86,0,0,0,2.7-14.16c8.78-.86,12.44-13.93,5.27-18.82,14.33,1.41,29-8.17,32.72-21.38.67-2.37,1.09-4.94,2.74-6.82,2.38-2.7,6.48-3.13,10-4.14,11.51-3.26,19.47-15.28,17.58-26.56s-13.36-20.37-25.38-20.08c-8.8.21-17,4.78-25.8,5.07s-19-7.74-14.91-15.18Z" style="fill:#ddd"/><path d="M712.25,355.32c-8.18-.32-24.94,11.87-20.11,26.45-7-1.13-13.11,8.36-9.49,14.72-9.46,0-17.44,10.75-15,20.32-4.84-.61-9.12,4-10.18,9s.25,10.13,1.55,15c-5.52.06-11.46,1.63-14.85,6.18s-2.61,12.53,2.5,14.7c-5.67-.9-10.56,5.24-10.84,11.23s2.65,11.59,5.61,16.74c-2.62-.22-4.47,2.77-4.85,5.5s.05,5.62-1,8.16c-1.88,4.71-7.52,6-11.7,8.61-6.17,3.9-9.59,12.05-8.16,19.44-5.78-.54-11.94-1-17.08,1.84s-8.34,10.32-4.89,15.21c-7.42.1-14.39,6.09-15.94,13.68-.6,3-.5,6.23-2.07,8.79-3.19,5.18-11.64,5-14,10.69-1.29,3.16-.12,7.25-2.18,9.93-1.35,1.77-3.64,2.29-5.71,3-8.61,2.77-16.35,11.81-14,20.93-7-1.2-14.45,4.23-15.79,11.53-.32,1.75-.48,3.83-1.93,4.77a4.93,4.93,0,0,1-2.27.61l-19.08,1.88a23.82,23.82,0,0,0-13.88-8.77c1.71-.79,1.85-3.51.67-5s-3.12-2.12-5-2.48a38.48,38.48,0,0,0-15.12,0,8.64,8.64,0,0,0-1.64-11,7.76,7.76,0,0,0-10.59,1.19l-5.9-.8c-4.94.73-9,5.58-9.1,10.8s3.87,10.19,8.79,11.07A8.87,8.87,0,0,0,447,640.37a8,8,0,0,0,10.53,2.86c1.51,8.5,13.13,12.69,19.33,7A35,35,0,0,0,514.14,645c5.13,2.09,10.45,4.23,16,3.93s11.25-3.71,12.61-9.29a12.08,12.08,0,0,0,13.47-2,13.47,13.47,0,0,0,3.37-13.78c5.83-1.42,11.89-2.95,16.54-6.89s7.43-11.06,4.73-16.66a14.46,14.46,0,0,0,11.68-9.72c.67-2,.93-4.16,1.88-6,2.9-5.73,10.85-6.57,14.42-11.87,1.33-2,1.92-4.41,3.17-6.45,4.94-8,18.68-8.07,20.89-17.36.61-2.57.15-5.53,1.63-7.69,1.31-1.89,3.69-2.51,5.87-3,4.65-1,9.6-2.24,12.92-5.8s3.94-10.33,0-13.08c5.18-1.83,10.59-3.83,14.23-8.09s10.34-12.24,6.78-20.55c10.69-2.37,23.75-19,21.55-31.81,8.14-1.44,10.52-7.38,7-16.88,14.25-3.57,13.07-10.69,14.25-21.38,7.13,1.19,15.44-1.19,16.63-10.69,0,0,5.94,0,11.88-5.94,4.2-4.2,8.31-20.19,8.31-20.19l2.38-10.69-40.38-24.94Z" style="fill:#eaeaea"/></g></g><g id="acd5a63a-22e3-4ef1-8efc-4630e12d43f1" data-name="Smoke"><g style="clip-path:url(#ac019e40-13e4-471a-aff0-4d82fb9bce5d)"><path d="M51.36,128.78c2.18-9.21,36.07-19.84,41-27.82,1.24-2,1.82-4.42,3.14-6.38,3.53-5.26,11.41-6.09,14.29-11.77.94-1.86,1.19-4,1.86-6a14.34,14.34,0,0,1,11.57-9.64c-2.68-5.54.08-12.59,4.69-16.5s10.61-5.42,16.39-6.82a13.41,13.41,0,0,1,3.34-13.67A12,12,0,0,1,161,28.25c1.34-5.54,7-8.92,12.49-9.21s10.73,1.82,15.81,3.89a34.65,34.65,0,0,1,37-5.12c6.15-5.66,17.65-1.51,19.16,6.91a7.93,7.93,0,0,1,10.42,2.83,8.77,8.77,0,0,1-2.09,11.06c4.88.87,8.79,5.8,8.71,11s-4.11,10-9,10.7l-5.85-.8a7.69,7.69,0,0,1-10.49,1.19,8.57,8.57,0,0,1-1.63-10.91,38.15,38.15,0,0,1-15,0c-1.82-.36-3.75-.94-4.92-2.46s-1-4.21.67-5a23.66,23.66,0,0,1-13.76-8.69c-6.3.62-10.65,3.88-16.95,4.51-.78.07-1.69,1.92-2.35,2.35-1.43.94.32,5.33,0,7.06-1.33,7.23-2.47,8.25-9.41,7.06,2.27,9-15.39,15.64-23.92,18.38-2.05.66-4.32,1.19-5.66,2.94-2,2.66-.88,6.7-2.16,9.84-2.29,5.62-10.66,5.45-13.82,10.59-1.56,2.53-1.46,5.76-2.06,8.71-1.53,7.52-8.43,13.45-15.79,13.56,0,0,1,6.6-6,11.3s-18.83,3.53-20-1.17S51.36,128.78,51.36,128.78Z" style="fill:#d3d3d3"/><path d="M77.25,112.3c3.09,0,7.44,1,13,0,4.76-.84,8.24-3.53,11.77-7.06,3.53,0,11.94-1.36,14.12-3.53,3.53-3.53,2.35-7.06,1.18-11.77,5.88-2.35,14.85-4.35,17.65-10.59,1.56-3.49.39-6.57,2.88-9.53,1.64-1.94,1.68-6.22,4.18-6.95,10.44-3,21.62-10,18.83-20,8.49,1.32,20.73-9.62,22.36-17.65,7.06,2.36,16.48,2.36,25.93-2.39,4.2,4.95,11.05,8.22,17.61,9.45,0,4.71.5,6.14,4.71,8.24,4.71,2.35,6.92,1.11,13,0,0,4.71,1.16,12.39,5.88,13s.43,2.69.43,2.69H273c6-.81,9.32-9.88,9.41-15.63S277.76,29.3,271.8,28.33a9.15,9.15,0,0,0,2.55-12.28c-2.57-3.9-8.51-5.36-12.75-3.15-1.84-9.36-15.91-14-23.43-7.68-14.58-6.33-32.88-4-45.22,5.69-6.22-2.3-12.67-4.65-19.34-4.33S160,10.67,158.33,16.82A15.8,15.8,0,0,0,142,19a13.94,13.94,0,0,0-4.08,15.18c-7.07,1.56-14.41,3.24-20,7.58s-9,12.19-5.73,18.34A17.25,17.25,0,0,0,98,70.8c-.81,2.21-1.12,4.59-2.27,6.65-3.52,6.31-13.16,7.23-17.48,13.07-1.61,2.18-2.32,4.86-3.84,7.1-6,8.87-29.77,12.69-32.44,22.92,0,0,20.33,2.44,27.06,0A13.11,13.11,0,0,0,77.25,112.3Z" style="fill:#eaeaea"/></g></g><g id="a36b0181-1e1f-43c7-a07a-edfafd5c2eba" data-name="Smoke"><g style="clip-path:url(#bf794d5f-9039-46ac-b7c2-2db975896e31)"><path d="M55.93,103.9c-3,2.36-4.91,6.75-3.35,10.31A9.07,9.07,0,0,0,45,120a27.42,27.42,0,0,1-1.31,3.73c-1.95,3.52-6.95,3.86-9.31,7.1-.88,1.21-1.3,2.71-2.13,4C29,139.75,7.35,145.66,5.75,151.42c0,0,20.19-2.22,20.82.78s8,4,12.61,1.21,4.08-7,4.08-7a10.81,10.81,0,0,0,10.29-8.2c.45-1.85.46-3.89,1.51-5.45Z" style="fill:#d3d3d3"/><path d="M48.3,128.44c.63,3,0,4.23-2.28,6.38-1.43,1.32-6,1-8.26,1-2.32,2.15-4,5.74-7.09,6.16-3.5.48-6.22-.26-8.17-.3a4.19,4.19,0,0,1-2.88,5.49C15.31,148.5,0,146,0,146c1.93-6.4,17-8.25,21-13.72,1-1.38,1.52-3.05,2.59-4.39,2.87-3.59,9-3.94,11.35-7.84a30.11,30.11,0,0,0,1.59-4.15,10.88,10.88,0,0,1,9.19-6.43c-1.92-4,.39-8.84,4.06-11.45Z" style="fill:#eaeaea"/></g></g><g id="bc3ddd9a-c168-408a-a0a8-7f0b73a88f54" data-name="Rocket"><path d="M763.86,190,719.19,210.9a13.93,13.93,0,0,0-6.17,5.67L627.14,366.24l97.69-15.14Z" style="fill:#e66c84"/><path d="M756,217.15l-18,8c-9.35,5.45-36,32-48,52l-49,87,70-10Z" style="fill:#d65175"/><g style="clip-path:url(#abfb8135-8f4f-4861-ae00-937cc96dd6d9)"><path d="M878,250.15l4.58,53.7a18.49,18.49,0,0,1-2.39,10.94S789,469.11,789,469.15c-7-38-30.18-97.95-30.18-97.95Z" style="fill:#e66c84"/><path d="M878.24,257.22,880,272.15s-16,37-26,54c-10.45,17.77-79,111-79,111l-14-60Z" style="fill:#bc4268"/></g><g style="clip-path:url(#f0474f07-3f7c-4a0d-88e4-edee361b03f8)"><path d="M738.1,343.65l20.29,11.65s2.71,19-5,33.61C749,397.15,743,397.15,738,406.15c0-16-21.79,8.45-32.34,18.86,2.69-10.51,10.34-27.86-7.66-21.86,7-11,10-29.25,14.77-37.52C721,351.3,738.1,343.65,738.1,343.65Z" style="fill:#e28354"/><path d="M738.1,339.65l20.29,11.65s2.71,19-5,33.61C749,393.15,744,391.15,739,400.15c0-16-16.45,3.59-27,14,2.68-10.52,10-22-8-16,7-11,4-28.25,8.77-36.52C721,347.3,738.1,339.65,738.1,339.65Z" style="fill:#f48c51"/></g><path d="M739.8,354.21l9.27,5.32s1.46,8.82-2.29,15.36-15.39,12-23.75,20.26c2-5,3-9-3-8,6-9,5.59-18.34,8.21-22.9C732,357.71,739.8,354.21,739.8,354.21Z" style="fill:#f7e181"/><path d="M919.08,53.15S826.71,59,771.74,154.82c-64.44,112.28-61.25,199-61.25,199L764.74,385s78.71-52.05,137.82-155.06C955.76,137.18,919.08,53.15,919.08,53.15Z" style="fill:#e6d3d9"/><g style="clip-path:url(#a0e7ad7e-0317-4124-8257-db521285fa4b)"><path d="M785.53,260.65s-20.58,31.4-40.38,65.91a464.64,464.64,0,0,0-33.49,69.1" style="fill:none;stroke:#c96f7d;stroke-miterlimit:10"/><path d="M788.53,262.65s-.19.28-.54.83" style="fill:none;stroke:#c96f7d;stroke-linecap:round;stroke-miterlimit:10"/><path d="M785.81,266.9c-6.56,10.29-23.88,37.74-39.54,65a474,474,0,0,0-32.41,66.27" style="fill:none;stroke:#c96f7d;stroke-linecap:round;stroke-miterlimit:10;stroke-dasharray:2.026367664337158,4.052735328674316"/><path d="M713.13,400.1l-.35.93" style="fill:none;stroke:#c96f7d;stroke-linecap:round;stroke-miterlimit:10"/><path d="M771.88,402.74l-83.44-47.88,14.18-24.72S723.77,347,743.86,358.5A306.24,306.24,0,0,0,786.06,378Z" style="fill:#e66c84"/><path d="M764.38,410.24l-83.44-47.88,14.18-24.72s21.15,16.83,41.24,28.36a306.24,306.24,0,0,0,42.2,19.52Z" style="fill:#d65175"/><path d="M729.85,222.92a603.33,603.33,0,0,0,63.78,42.76,464.64,464.64,0,0,0,69.1,33.49" style="fill:none;stroke:#c96f7d;stroke-miterlimit:10"/><path d="M732.22,218.8l.78.61" style="fill:none;stroke:#c96f7d;stroke-linecap:round;stroke-miterlimit:10"/><path d="M736.13,221.8A607.6,607.6,0,0,0,796,261.56,474.47,474.47,0,0,0,862.32,294" style="fill:none;stroke:#c96f7d;stroke-linecap:round;stroke-miterlimit:10;stroke-dasharray:1.970324158668518,3.940648317337036"/><path d="M864.17,294.7c.61.24.93.35.93.35" style="fill:none;stroke:#c96f7d;stroke-linecap:round;stroke-miterlimit:10"/><path d="M965.57,151.91S913.35,132.11,880,113c-32.5-18.65-76.46-54-76.46-54L837.34,0,973,77.8Z" style="fill:#e66880"/><path d="M950.64,121.18l-.95-.29" style="fill:none;stroke:#c46376;stroke-linecap:round;stroke-miterlimit:10"/><path d="M946,119.66c-9.54-3.24-32.22-11.55-54.33-24.24A364.47,364.47,0,0,1,841.09,59" style="fill:none;stroke:#c46376;stroke-linecap:round;stroke-miterlimit:10;stroke-dasharray:1.9667142629623413,3.9334285259246826"/><path d="M839.61,57.71l-.75-.67" style="fill:none;stroke:#c46376;stroke-linecap:round;stroke-miterlimit:10"/><path d="M948.66,123.81a322.68,322.68,0,0,1-59-25.77,357.9,357.9,0,0,1-52.77-38.37" style="fill:none;stroke:#c46376;stroke-miterlimit:10"/><g style="opacity:0.14"><path d="M910.68,185.18c0,.15.26.25.4.37.14-.17.37-.32.41-.51.14-.63,0-1.5.34-1.85,1.72-1.64-.07-1.19-.75-1.34a8.09,8.09,0,0,0-1.31-.08C910.07,182.91,910.36,184.05,910.68,185.18Z" style="fill:none"/><path d="M910,201.52c0,.13.2.26.38.49.15-.25.33-.42.31-.54s-.24-.24-.37-.35C910.2,201.25,910,201.38,910,201.52Z" style="fill:none"/><path d="M915,182.27c1-.22,2.79-1.55,2.56-1.69a5.45,5.45,0,0,0-2.07-.65c-.73-.08-1.63,0-1.51,1C914.06,181.43,914.67,181.83,915,182.27Z" style="fill:none"/><path d="M913.35,174.3c-.26,1.62-1.46,1.52-2.65,1.51-.12,0-.39.71-.35.74.62.41,1.46,1.21,1.9,1,.81-.32,1.4-1.21,2.09-1.86-.27-.71-.43-1.15-.62-1.58C913.72,174.15,913.36,174.23,913.35,174.3Z" style="fill:none"/><path d="M825.2,319.31l1,.68,1.13-.58a2.86,2.86,0,0,0-1-.52C825.93,318.87,825.57,319.15,825.2,319.31Z" style="fill:none"/><path d="M829.79,319.4a1.24,1.24,0,0,0,.16.38l.45-.23c-.18-.16-.27-.29-.38-.33S829.78,319.34,829.79,319.4Z" style="fill:none"/><path d="M909.77,181.05a8.58,8.58,0,0,0-.43-1.05c-.14.11-.41.21-.41.31a3.65,3.65,0,0,0,.18,1.24c0,.13.42.14.65.21A2.42,2.42,0,0,0,909.77,181.05Z" style="fill:none"/><path d="M907.67,214.41a1.25,1.25,0,0,0-.36.22c.07.08.14.24.21.24a1.38,1.38,0,0,0,.46-.18C907.82,214.54,907.73,214.39,907.67,214.41Z" style="fill:none"/><path d="M904.24,196.21l.78.58.8-.66c-.22-.12-.46-.36-.66-.33A3.13,3.13,0,0,0,904.24,196.21Z" style="fill:none"/><path d="M892.78,202.37l-.72-1.1-1.38,1.19a6.93,6.93,0,0,0,1.25.94C892,203.44,892.43,202.8,892.78,202.37Z" style="fill:none"/><path d="M925,161l-.65-.77c-.16.28-.44.55-.44.84s.28.53.44.8C924.5,161.59,924.7,161.34,925,161Z" style="fill:none"/><path d="M909.5,212.61c.26.18.56.53.79.49a5.12,5.12,0,0,0,1.28-.69l-.71-1Z" style="fill:none"/><path d="M926.08,142.32s-.05-.08-.06-.07l-.16.09.17.07Z" style="fill:none"/><path d="M893.2,200.14c.17,0,.38-.15.71-.3-.27-.23-.43-.47-.59-.47s-.36.2-.54.32C892.92,199.85,893,200.11,893.2,200.14Z" style="fill:none"/><path d="M843.12,304.35c0-.6-.9-1.17-1.4-1.75-1.36,1.25-2.93.69-4.46.53a9,9,0,0,0-1.8,0c-.25,0-.48.31-.72.47.24.12.48.24.72.34.6.27,1.71.52,1.71.78,0,1.8.17,3.75-.49,5.33-.49,1.17.05,1,.59,1.15a3,3,0,0,0,1.4-.2c1-.31,1.91-.7,2.86-1.06.05.12.09.23.13.35a4.77,4.77,0,0,0,1.68,0,3.06,3.06,0,0,0,1.69-1.15c.2-.41-.14-1.26-.48-1.75A5.59,5.59,0,0,1,843.12,304.35Zm-.7,2.12c-.08,2-.21,2.13-1.79,2.07-2.17-.07-2.47-.34-2.4-2.17.08-2.25.13-2.31,1.95-2.24C842.45,304.22,842.5,304.27,842.42,306.47Z" style="fill:none"/><path d="M830.85,317.58l.82.7.83-.67a2.76,2.76,0,0,0-.89-.42C831.37,317.18,831.11,317.44,830.85,317.58Z" style="fill:none"/><path d="M922.82,168.4c.08.29.15.58.23.87a6.26,6.26,0,0,1,.36,1.22c0,.73-.06,1.46,0,2.18,0,.17.43.3.66.44l1.37-2.89a14.27,14.27,0,0,0-1.38-2C923.89,168.06,923.25,168.33,922.82,168.4Z" style="fill:none"/><path d="M909.68,206.8l1.29,2.35c.23-.41.46-.82.79-1.39a6.64,6.64,0,0,0-.9-1.53C910.76,206.13,910.09,206.6,909.68,206.8Z" style="fill:none"/><path d="M926,158.7l.73.64.91-.58c-.27-.18-.53-.49-.8-.5S926.32,158.54,926,158.7Z" style="fill:none"/><path d="M835.35,320.86a1.28,1.28,0,0,0-.29-.24s-.18.08-.17.11.05.24.12.27S835.19,320.93,835.35,320.86Z" style="fill:none"/><path d="M914,198a11.11,11.11,0,0,0,.81,1.53l1.08-.76-1.41-1.38C914.34,197.63,914,197.91,914,198Z" style="fill:none"/><path d="M890,220.45c.53.17,1,.38,1.55.57.1-.63.19-1.26.28-1.89,0-.23,0-.47,0-.71-.2,0-.46,0-.57.09-1,1-1.85,1.11-2.91,0a1.78,1.78,0,0,0-2.62.64C887.13,219.56,888.55,220,890,220.45Z" style="fill:none"/><path d="M923.59,165.17a14.15,14.15,0,0,0,.1-2.06,2.52,2.52,0,0,0-.27-.75,2.56,2.56,0,0,1-.69.33c-.58.06-1.34.3-1.71,0-1.5-1.08-5.1-1-6.41.23a2.31,2.31,0,0,1-1.71.67,5.78,5.78,0,0,1-2.33-1.44c-.72-.72-.81-.27-1,.3-.58,1.65.12,2.85,1.28,4a2.54,2.54,0,0,1-.11,3.32,1.77,1.77,0,0,0-.27,1.55c.27.6,2.89.53,3.53.16a31.46,31.46,0,0,1,3.1-1.48.92.92,0,0,1,.68.07,23.77,23.77,0,0,1,.37,3.45,2.59,2.59,0,0,1-.7,1.47c-.26.3-.76.38-1.16.56.46.16.92.33,1.39.47a1.91,1.91,0,0,0,.48,0l0,.16a9.69,9.69,0,0,0,1.89-.48,2.1,2.1,0,0,0-.24-1.31,5.83,5.83,0,0,1,.1-5.61c.09-.14,0-.6-.11-.61-1.61-.3-1.42-1.5-1.33-2.64.06-.69-.12-1.5,1-1.6,2.07-.18,2.91.14,3.22,1.32a2.66,2.66,0,0,0,.41.64C923.29,165.65,923.55,165.43,923.59,165.17Zm-9.1,3.68c-2.08-.14-2.24-.31-2.11-2.2.11-1.6.78-2.43,1.88-2.33,1.57.14,3.26,1.45,3.2,2.48S916,169,914.49,168.85Z" style="fill:none"/><path d="M916.66,185.6c-.57.42-1,1.16-1.58,1.39a26.68,26.68,0,0,1-3.7.92,1.06,1.06,0,0,0-.63,1.85,3.9,3.9,0,0,1-.15,4.29c-.11.13.1.81.26.84,1.76.45.94-1.83,2.11-2.08a1.64,1.64,0,0,0-.13-.82c-.85-1.17-.85-2.39.29-3.18a11.7,11.7,0,0,1,2.72-1l.12.33c.56,0,1.22.25,1.67,0,.72-.35,1.73-.93,1.82-1.53C919.6,185.74,917.46,185,916.66,185.6Z" style="fill:none"/><path d="M885.65,232.21a5.78,5.78,0,0,0,1.8,0,7.15,7.15,0,0,0,1.7-1c-.26-.33-.5-.68-.79-1-.71-.77-1.41-1.52-1.11-2.73a10.4,10.4,0,0,0,.29-2.15c0-.33-.18-.89-.41-1a2.21,2.21,0,0,0-1.32.06c-.15.82-.49,2.07-.08,2.44,1.36,1.24.65,2.5.41,3.77,0,.25-.49.48-.8.6-.61.25-1.25.41-1.88.61l2.17.47Z" style="fill:none"/><path d="M863.05,268.64c0-.19,0-.53-.12-.56a9.37,9.37,0,0,0-1.3-.27c0,.3-.21.72-.08.88a3.32,3.32,0,0,1-.08,4.26,1.67,1.67,0,0,0-.18,1.32c.05.2.87.46,1,.35.64-.71,1.17-1.51,1.78-2.34C862.66,271.34,863.06,269.94,863.05,268.64Z" style="fill:none"/><path d="M861.46,280.54c.17-.27,0-.77,0-1.16a4.73,4.73,0,0,0-.85.4,5.16,5.16,0,0,1-3.74,1.05c-1.12-.15-2.25-.22-3.38-.28a1.23,1.23,0,0,0-.83.28,3.06,3.06,0,0,1-4,0c-.22-.21-.69-.48-.84-.39s-.33.58-.62,1.15c.82.9,1.64,1.83,2.48,2.73a.56.56,0,0,0,.46-.06,7,7,0,0,1,4.53-1.63c.23,0,.49-.33.74-.5s.49-.48.76-.52c2.39-.38,4.68.87,4.43,3.61a1.91,1.91,0,0,0,.09,1.18c.2.26.72.28,1.11.41a1.71,1.71,0,0,0,.09-.58C861.51,284.34,860.22,282.56,861.46,280.54Z" style="fill:none"/><path d="M857.28,287.24a9.42,9.42,0,0,0-1.37-1.24c-.09-.06-.57.5-1,.86l.87,1.8Z" style="fill:none"/><path d="M868.36,266.64a6.53,6.53,0,0,0,1.34-.63c.22-.12.42-.28.63-.42-.21-.15-.4-.38-.62-.43-.66-.14-1.57,0-2-.34-1.69-1.63-.92.55-1.56.78.23.47.34,1.07.61,1.15A3.26,3.26,0,0,0,868.36,266.64Z" style="fill:none"/><path d="M855.05,293.34l1,.78,1.83-.72c-.4-.21-.8-.59-1.2-.58A5.69,5.69,0,0,0,855.05,293.34Z" style="fill:none"/><path d="M872.55,259.6c-.24-.16-.48-.43-.74-.45-1-.09-2-.11-3-.16s-2.17-.12-3.26-.13c-.22,0-.45.24-.68.36a3,3,0,0,0,.53.53,7,7,0,0,0,1.38.78c.47.18,1.25.46,1.44.26,1.07-1.13,2.38-.67,3.62-.75C872.07,260,872.31,259.75,872.55,259.6Z" style="fill:none"/><path d="M875.07,250c.09-1.34.15-2.67.18-4a3.28,3.28,0,0,0-.23-.88,4.47,4.47,0,0,0-.78.57,4.68,4.68,0,0,1-5.93.46,1.1,1.1,0,0,0-1,.11c-.59.38-1.05,1-1.68,1.29-1.15.47-1.85-.51-2.28-1.28-.24-.43.21-1.26.41-1.89.15-.48.55-.93.53-1.38,0-.21-.74-.38-1.13-.59a5.56,5.56,0,0,0-.89-.54c-.52-.16-1.08-.22-1.62-.33a7.83,7.83,0,0,0-.11,1.59,22.26,22.26,0,0,1,.58,2.45c.05,1.45-.16,2.92-.12,4.37a2.39,2.39,0,0,0,.68,1.5c1.53,1.5,1.6,2,.44,3.6-.2.29-.35,1-.23,1.08a1.83,1.83,0,0,0,1.3.33,2.22,2.22,0,0,0,1.4-.85c.51-1,1.3-.93,2.16-.89l1.7.08c1.44,0,2.95.5,4.19-.72a3.73,3.73,0,0,1,1-.51,6.16,6.16,0,0,0-1.26-.51c-.91-.15-2,.21-2.58-.89a5,5,0,0,0-.76.5c-.35.35-.6,1-1,1.07a6.48,6.48,0,0,1-2.63-.18c-.32-.09-.4-.93-.63-1.41a2,2,0,0,0-.37-.46c-1-1.12-.07-1.72.65-2.37s1.23-.85,2-.12a1.89,1.89,0,0,0,3.11-.58c.14-.26.41-.64.62-.65a11.1,11.1,0,0,1,3.11.25c.29.09.25,1.2.41,1.84a2.93,2.93,0,0,0,.35.65A2.16,2.16,0,0,0,875.07,250Z" style="fill:none"/><path d="M871.73,264.78c-.05.4.84.9,1.32,1.36.42-.45,1.12-.88,1.17-1.36s-.57-1-1-1.73C872.55,263.76,871.79,264.23,871.73,264.78Z" style="fill:none"/><path d="M851.83,299.14c.25.28.49.56.83.93l1.06-.72a5.63,5.63,0,0,0-1.17-.6C852.35,298.7,852.07,299,851.83,299.14Z" style="fill:none"/><path d="M870.18,270.6a15.44,15.44,0,0,0-2.52-.43c-.07,0-.42.87-.28,1a10.71,10.71,0,0,0,1.63,1.26l.22-.3a9.58,9.58,0,0,0,1.2,0,.8.8,0,0,0,.57-.33c0-.14-.15-.39-.28-.57S870.4,270.66,870.18,270.6Z" style="fill:none"/><path d="M867.12,278.66c0,.08.13.16.2.24.1-.1.25-.19.27-.3s-.12-.22-.27-.46A1.88,1.88,0,0,0,867.12,278.66Z" style="fill:none"/><path d="M855.69,276.59a5.34,5.34,0,0,0,1.32,0c.3-.05.74-.32.77-.55s-.11-1.14-.26-1.16a5.9,5.9,0,0,0-2.37,0c-.5.15-.84.81-1.26,1.24l1.76.54Z" style="fill:none"/><path d="M881.27,229.18l.49.71a3.68,3.68,0,0,0,.32-.85c.1-.87-.05-1.8,1-2.23.19-.08.34-.7.24-1a1.54,1.54,0,0,0-.84-.72,15.88,15.88,0,0,1-1.71-.45c-.25-.12-.29-.64-.44-1-.56.44-.84.57-.83.68a10.79,10.79,0,0,0,.33,2.8A8.94,8.94,0,0,0,881.27,229.18Z" style="fill:none"/><path d="M882.91,232.73l-1.68-.91-2,.76a7.17,7.17,0,0,0,2.12,1.5C881.73,234.18,882.38,233.22,882.91,232.73Z" style="fill:none"/><path d="M851.81,292.07c-.95-1.82-.95-1.94.64-3.35a7.3,7.3,0,0,0,.57-.66,3.5,3.5,0,0,0-.95-.38,2.09,2.09,0,0,1-2-1c-.39-.68-1.4-.4-1.7.35a2.79,2.79,0,0,0,.92,3.31,3.42,3.42,0,0,1,.18,4.29c-.14.15-.33.48-.27.56a3.49,3.49,0,0,0,.9.59,23.25,23.25,0,0,0,1.68-2.35A1.63,1.63,0,0,0,851.81,292.07Z" style="fill:none"/><path d="M886.14,221.93l.22-.24-.72-.37C885.81,221.52,886,221.72,886.14,221.93Z" style="fill:none"/><path d="M886,244.3l.39-.36-.82-.5C885.75,243.73,885.89,244,886,244.3Z" style="fill:none"/><path d="M901.94,202.62c-1.32,0-2.65-.18-4-.17a1.72,1.72,0,0,0-1.26.55,1,1,0,0,0,.39,1.62,7.86,7.86,0,0,1,1.4,1.42,3.43,3.43,0,0,0,.54.37c.13-.19.25-.38.37-.58.24-.38.4-1,.72-1.09,2.38-.75,4.6.07,4.37,3.1a7,7,0,0,0,.32,1.77l.9-1.75c-.38-1-.81-2-1.06-2.91A2.75,2.75,0,0,0,901.94,202.62Z" style="fill:none"/><path d="M846.82,298.43a3.84,3.84,0,0,0,.37.93l.58-.76-.64-.82C847,298,846.8,298.23,846.82,298.43Z" style="fill:none"/><path d="M848,300.11c.32.78.71,1.52,1.09,2.28l1.48-1.24-1.61-1.73A6.13,6.13,0,0,0,848,300.11Z" style="fill:none"/><path d="M857.06,271.3c.19.35.32.74.48,1.11.18-.44.37-.88.52-1.33a2.36,2.36,0,0,0,0-.6h0c0-.44.2-1,0-1.31a6.76,6.76,0,0,0-1.25-1.54c-.07-.07-.48.05-.61.19a2.82,2.82,0,0,0,.26,2.77A3,3,0,0,1,857.06,271.3Z" style="fill:none"/><path d="M874.55,270.84l.74.74.88-.61c-.24-.17-.47-.45-.71-.46A2.65,2.65,0,0,0,874.55,270.84Z" style="fill:none"/><path d="M862.92,262c.13-.35.28-.7.42-1.05-.53,0-1.37-.24-1.53,0a27,27,0,0,0-1.67,3.15l.2.1a1.46,1.46,0,0,0,0,.36c.23.67.46,1.33.7,2,.41-.68.86-1.34,1.23-2.05.12-.23,0-.57.07-.83C862.5,263.06,862.71,262.52,862.92,262Z" style="fill:none"/><path d="M868.16,243.69a.92.92,0,0,0,.21-.13,4.13,4.13,0,0,1,5.24,0c.1.06.21.1.46.22.12-.3.25-.56.34-.83.2-.61.37-1.22.57-1.83.09-.3.21-.6.31-.9a3.24,3.24,0,0,0-.84.39c-1.81,1.65-2,1.65-3.72-.18A2.45,2.45,0,0,0,870,240c-1,1.22-2.34.47-3.5.67a1.57,1.57,0,0,0-1,.89C865.37,242.06,867.65,243.85,868.16,243.69Z" style="fill:none"/><path d="M894.6,209.36c-.36-1.4-.82-2.78.35-4.06.1-.11-.08-.72-.26-.79-.81-.32-2.2.73-2.31,1.74-.09.84-.09,1.69-.13,2.54h0a18.26,18.26,0,0,0-.07,2.66,1.23,1.23,0,0,0,.85.85c.31,0,.75-.38,1-.7a3.48,3.48,0,0,0,.46-1.2A2.34,2.34,0,0,0,894.6,209.36Z" style="fill:none"/><path d="M894.58,212.29a5.58,5.58,0,0,0-.33,1.27c0,.73-.42,1.75.88,1.8.29,0,.87-.48.85-.51C895.62,214.09,895.19,213.37,894.58,212.29Z" style="fill:none"/><path d="M898.4,223.57c.46-.61.87-1.25,1.3-1.88l-2.91-1.42a1.38,1.38,0,0,0-.6-.22.55.55,0,0,0-.25.48c.1.34.22.87.47,1,.85.3,1.41.71,1.37,1.71C897.77,223.32,898.38,223.6,898.4,223.57Z" style="fill:none"/><path d="M892.28,216.65c-.15.39-.31.77-.42,1.17a1.92,1.92,0,0,0,0,.59,3.86,3.86,0,0,0,.83,0,6.76,6.76,0,0,0,1-.32,4.18,4.18,0,0,0-.5-.74A9.65,9.65,0,0,0,892.28,216.65Z" style="fill:none"/><path d="M892.23,223.31l-1.43,1.92c1.12.76.44,1.93.67,2.89a9.25,9.25,0,0,0,1,2.26,1.73,1.73,0,0,0,.81-.2c-.05-1.23-.2-2.46-.27-3.69a3.7,3.7,0,0,1,.09-1.86C893.63,223.76,893.25,223.65,892.23,223.31Z" style="fill:none"/><path d="M899.36,227.69a1.49,1.49,0,0,0-.78-.76,1.36,1.36,0,0,0-.84.09,13,13,0,0,0,.19,2.8c.07.36.7.59,1.08.87.11-.48.23-1,.34-1.46a1.79,1.79,0,0,0,0-.24h0A4.07,4.07,0,0,0,899.36,227.69Z" style="fill:none"/><path d="M901.54,220.15a15.62,15.62,0,0,0-1.83,1.53,17.1,17.1,0,0,0,2.14.06,1.4,1.4,0,0,0,.93-.53.85.85,0,0,0-.15-.84C902.33,220.17,901.78,220,901.54,220.15Z" style="fill:none"/><path d="M902,209.3l-1.83-.53s-.09,0-.11,0c-1.38-1.75-1.66-.58-1.95.71-.06.29-.53.68-.47.77.42.57.93,1.07,1.58,1.79l1.34-1.31Z" style="fill:none"/><path d="M900.37,215.37l.5.5,2-.43c-.35-.16-.7-.45-1-.44A6.1,6.1,0,0,0,900.37,215.37Z" style="fill:none"/><path d="M875.05,253.66c.16.14.3.39.47.41s.36-.19.67-.37c-.3-.2-.47-.43-.64-.42S875.22,253.52,875.05,253.66Z" style="fill:none"/><path d="M891,236.6l.85-.42-.37-.39Z" style="fill:none"/><path d="M898.61,233.43a.31.31,0,0,0,.19.21c.08,0,.17-.1.29-.18-.11-.1-.19-.22-.27-.22A.31.31,0,0,0,898.61,233.43Z" style="fill:none"/><path d="M880.29,243.32c-.16,0-.62.52-.78.89a3.85,3.85,0,0,0-.08,1.19h0a4.76,4.76,0,0,0,0,.84c.11.61.28,1.21.42,1.81a7.59,7.59,0,0,0,.83-1.31,10.1,10.1,0,0,0,.68-2.56C881.36,243.91,880.71,243.46,880.29,243.32Z" style="fill:none"/><path d="M879.9,249.38c-.16.21-.51.45-.47.61a10,10,0,0,0,.67,1.83c.1.2.42.29.63.44l.49-.86c-.26-.52-.48-1-.76-1.49A2.85,2.85,0,0,0,879.9,249.38Z" style="fill:none"/><path d="M878.35,263.49c.28.69.51,1.28.75,1.88.48-.58,1.31-1.15,1.33-1.76s-.76-1.23-1.19-1.85C879,262.3,878.69,262.85,878.35,263.49Z" style="fill:none"/><path d="M879.52,238.34a1,1,0,0,0-.49.26.53.53,0,0,0,.14.29,2.26,2.26,0,0,0,2.5-.5C881,238.37,880.24,238.33,879.52,238.34Z" style="fill:none"/><path d="M875,234.92l-1.06.4a4.56,4.56,0,0,0,1.39.56c1,.06,1.61.36,1.56,1.5,0,.21.25.43.39.65.17-.22.46-.42.51-.67C878.05,236.17,876.9,235,875,234.92Z" style="fill:none"/><path d="M891,236.62c-1,0-2-.11-3-.11a3.32,3.32,0,0,0-1,.31,6.39,6.39,0,0,0,.48.75C888.89,239,890.38,238.63,891,236.62Z" style="fill:none"/><path d="M885.54,248.91c-.17.24,0,.75.08,1.13,0,.1.31.25.33.22.52-.49,1-1,1.6-1.59l-.71-.91A6.57,6.57,0,0,0,885.54,248.91Z" style="fill:none"/><path d="M892.24,241.87c-.57-.3-2.41.57-2.32,1.19.08.47.58.89.93,1.29a.63.63,0,0,0,.51.09c.37-.71.7-1.44,1.17-2.43Z" style="fill:none"/><path d="M884.3,236.41c-2.11-.83-2.12-.81-2.55,1.51,0,.15,0,.31-.06.46a15.79,15.79,0,0,0,2.49-.15c.29,0,.62-.59.66-.94A1.06,1.06,0,0,0,884.3,236.41Z" style="fill:none"/><path d="M885.16,242.57l-.39.35.82.5C885.44,243.14,885.3,242.85,885.16,242.57Z" style="fill:none"/><path d="M882.75,254.65c-.16,0-.4.13-.44.26s.13.3.27.58c.2-.23.37-.35.41-.51S882.82,254.64,882.75,254.65Z" style="fill:none"/><path d="M917.39,192.73l.9.84,1.06-.78c-.33-.22-.65-.6-1-.61S917.72,192.53,917.39,192.73Z" style="fill:none"/><path d="M815.86,337.11a.51.51,0,0,0,.34.36c.13,0,.28-.18.52-.35-.23-.17-.38-.37-.51-.35S815.86,337,815.86,337.11Z" style="fill:none"/><path d="M818.43,333.46a7.31,7.31,0,0,0,2.14,0,23,23,0,0,1,2.52-.59c1.84-.07,1.84,0,1.91-1.89-1.57-.08-3.15-.11-4.72-.24-1.4-.11-1.72,1.07-2.33,1.86C817.86,332.69,818.22,333.43,818.43,333.46Z" style="fill:none"/><path d="M818.19,321.83c-.05-.22-.77-.49-1.1-.41a1.43,1.43,0,0,0-.89.89c-.14.77-.48,1-1.22,1.21a3.14,3.14,0,0,0-1.74,1.44c-.2.39.18,1.27.55,1.73a4.09,4.09,0,0,1,1.1,3.15,4,4,0,0,0,.62,2.05c.41.78-.5,3.42-1.34,3.63,0,0-.09,0-.12,0-.76.37-1.53.71-2.27,1.12s-1.67,1-2.54,1.46a.77.77,0,0,1-.65-.15,3.35,3.35,0,0,0-4.78.31,6.65,6.65,0,0,1-1.58.78c-.93.46-2.1.92-1.91,2.13a2.05,2.05,0,0,0,2,1.86c1.07,0,1.88-.35,2-1.61,0-.38.32-1,.56-1a1.87,1.87,0,0,1,1.37.41,1.38,1.38,0,0,0,2,.14,1.67,1.67,0,0,1,1.58,0c.57.56.78.36,1.24-.08a4.76,4.76,0,0,1,1.71-1.09,1.81,1.81,0,0,1,1.42.27,4.38,4.38,0,0,1,.86,1.31,7.83,7.83,0,0,1-1.49.24c-.86,0-1.3.31-1.3,1.18a6.05,6.05,0,0,1-.11,1.21c0,.2-.25.37-.38.55a3.37,3.37,0,0,1-.5-.42,8.65,8.65,0,0,0-1.2-1.46c-1.1-.79-2,0-2.54.77a2.28,2.28,0,0,0,0,2,5.18,5.18,0,0,0,1.84,1.79,1.26,1.26,0,0,0,.69.14q4-3.84,8.33-8.08c-.24-.31-.46-.62-.69-.93.22-.15.42-.41.65-.43.49-.06,1-.07,1.48-.09q3.29-3.29,6.68-6.81l-1.56-.07c0-.44,0-.88.07-1.33.16-2.64-.11-2.92-2.75-2.92-1.11,0-2,.94-2.38,2.39a2.92,2.92,0,0,1-.48.72c-.15-.25-.3-.5-.43-.76-.21-.44-.28-1-.62-1.31-1.81-1.43-1.9-2.53-.43-4.33A2,2,0,0,0,818.19,321.83ZM818,332.57c.61-.79.93-2,2.33-1.86,1.57.13,3.15.16,4.72.24-.07,1.89-.07,1.82-1.91,1.89a23,23,0,0,0-2.52.59,7.31,7.31,0,0,1-2.14,0C818.22,333.43,817.86,332.69,818,332.57Zm-1.75,4.9a.51.51,0,0,1-.34-.36c0-.12.22-.33.35-.34s.28.18.51.35C816.48,337.29,816.33,337.48,816.2,337.47Z" style="fill:#540429"/><polygon points="812.43 318.23 812.44 318.22 812.45 318.21 812.43 318.23" style="fill:#540429"/><path d="M799.47,356.66a13.71,13.71,0,0,0,1.64-2.51,2.27,2.27,0,0,0,.08-1.83c-.86-1.2-1.68-2.3-1.33-3.9a1.39,1.39,0,0,0-.2-1.13c-.63-.56-.61-.87.05-1.41.26-.21.26-.89.17-1.32,0-.19-.64-.44-.89-.37a2.32,2.32,0,0,0-.87.79c-.27.31-.42.77-.74,1-1.49,1.09-1.6,1.67-.6,3.21a4,4,0,0,1,.85,1.78c0,1.84-.22,3.69-.27,5.54,0,1.21-.55,1.67-1.73,1.58a2.22,2.22,0,0,0-2.29,1.72c-.44,1.16-1,1.3-2,.58a2.14,2.14,0,0,0-1.88-.34c-.65.4-1.8,1-1.22,2a3.31,3.31,0,0,0,2,1.69A4.57,4.57,0,0,0,793,362.7a4.88,4.88,0,0,1,.61-.4q2-1.73,4.09-3.58a2.69,2.69,0,0,1,.28-.5C798.43,357.65,799,357.23,799.47,356.66Z" style="fill:#540429"/><polygon points="825.4 300.56 825.39 300.55 825.39 300.55 825.4 300.56" style="fill:#540429"/><path d="M928.18,159.67l.05,0c.27-1.53.52-3.06.75-4.57a1.29,1.29,0,0,1-.63-.34,1.45,1.45,0,0,0-2.45,0,8,8,0,0,1-1.51,1c-.08-.61-.17-1.23-.23-1.85,0-.32,0-.65,0-1,0-.77,0-1.54.13-2.3,0-.22.3-.41.46-.61.16.16.37.28.47.47.35.69.62,1.43,1,2.09a1.2,1.2,0,0,0,.84.53,17.16,17.16,0,0,0,2.15.06c.19-1.3.36-2.6.52-3.89-.56-.36-1.2-.7-1.23-1.09-.07-1,.53-2,.73-3.1a2.5,2.5,0,0,0-.09-1.75,9.56,9.56,0,0,0-2-1.44,1.9,1.9,0,0,1-.34-.45c.25-.15.49-.43.74-.43,1,0,2.06.07,3.09.12.12-1.38.22-2.74.31-4.1-1.92-.22-3.76-.18-5.29,1.57-.2.23-1-.07-1.52-.13.08-.49,0-1.16.27-1.45,1.84-1.86,1.88-1.84.62-3.92a6.39,6.39,0,0,0-1-1.06c-.46-.46-.9-.82-.26-1.57a1.75,1.75,0,0,0,0-1.59c-.39-.64-.31-.91.23-1.39a1.49,1.49,0,0,0,.19-1.31c-.06-.21-.68-.44-1-.38s-.52.48-.76.76a14,14,0,0,1-1.65,1.93c-.81.66-1,1.3-.15,2s1.73,1.67,1.3,3.17c-.17.58.31,1.35.49,2,.09.34.36.84.22,1a2.84,2.84,0,0,0-.17,3.93c.1.14-.12.52-.18.78a6.34,6.34,0,0,1-.62-.37c-1.09-.81-2.05-2.31-3.55-.56-.08.09-.3,0-.46.05-.13,2.41-.25,2.43-2.44,1.35a2.1,2.1,0,0,0-1.72.18c-1.08.64-1.46,1.4-.32,2.56.95,1,1.27,1.1,2.43.37.82-.52,2-.55,2.34-1.71a.27.27,0,0,1,.22-.07,11.56,11.56,0,0,1,3.13,1.07c1.25.85,1.79.83,2.35-.55a1.28,1.28,0,0,1,.85-.65c.28-.05.81.17.88.39a1.91,1.91,0,0,1-.18,1.12c-.23.67-.58,1.32-.75,2-.13.54,0,1.13-.12,1.69,0,.23-.29.42-.45.62a5.3,5.3,0,0,1-.46-.6c-.34-.68-.48-1.71-1-2a8.16,8.16,0,0,0-2.8-.35,19.59,19.59,0,0,0,0,2.76c.12.94.71,1.88.64,2.77-.19,2.29-.66,4.55,1.15,6.47.14.15.08.48.12.73a7.17,7.17,0,0,1-.7-.23,6.39,6.39,0,0,0-1.36-.58,23.87,23.87,0,0,0-2.54-.13c-.07.23-.09.59-.23.64a18.43,18.43,0,0,1-3.26,1.11,7.84,7.84,0,0,1-2.77-.11,3,3,0,0,0-2.86,1.14c-.38.39-.75.81-1.15,1.18-1,.91-1.83,1.8-.38,3,.12.09.07.37.1.57a6.55,6.55,0,0,1,1.27.31.77.77,0,0,1,.13.71,2.66,2.66,0,0,0,.05,3.34c.47.64.74,1.35-.07,2a1,1,0,0,0,0,1.75,8.93,8.93,0,0,1,1,1.08c.15.23.31.75.23.8-.65.44-1.36.81-2,1.2-.1,1.33.37,3-1.73,3.24-.13,0-.26.3-.33.48-.62,1.55-.93,1.63-2.16.53-.75-.66-1.92-.47-2.75.73a2.06,2.06,0,0,0,.15,2,6.29,6.29,0,0,0,4.81,1.94c1.21,0,1.59.45,1.56,1.67,0,1.64-.67,3.4.59,4.91.08.1,0,.4-.1.55a.41.41,0,0,1-.41.09c-.63-.39-1.26-.8-1.85-1.24-.08-.07,0-.43.06-.56.57-.78.11-3.58-.69-4.09a3.16,3.16,0,0,0-3.62,1,2.29,2.29,0,0,0,1,2.85,1.86,1.86,0,0,1,.72,1.35c0,.48-.36,1.36-.64,1.39-1.19.12-2.38.35-3.55-.54a3.11,3.11,0,0,0-2.53-.16c-.73.25-.52,1.82.18,2.56.44.47.85.95,1.28,1.43a3.51,3.51,0,0,0,3.69.61,4.44,4.44,0,0,1,2-.49c.45,0,1.22.46,1.27.81.17,1-.73,1.06-1.39,1.05-2.18,0-4.36-.12-6.53-.29a1.37,1.37,0,0,1-.93-.94,2.7,2.7,0,0,0-2.09-2.33c-.34-.1-.81-.36-.87-.63a1.77,1.77,0,0,1,.33-1.19,7.15,7.15,0,0,1,1.13-1.06,1.36,1.36,0,0,0,.15-2.11,20.38,20.38,0,0,0-1.76-1.95c-.5-.46-.62-.67,0-1.22a1.67,1.67,0,0,0,.23-1.56c-.68-.71-.76-1.11.08-1.72a1.37,1.37,0,0,0,.17-1.21c-.09-.25-.64-.46-1-.45s-.59.32-.77.58a14.47,14.47,0,0,1-1.39,2.13c-.87.84-1.1,1.48-.12,2.4a2.92,2.92,0,0,1,1,1.76c.05,1.64-.18,3.29-.25,4.94a1.25,1.25,0,0,0,.31,1c1.32.9.65,2.09.5,3.19,0,.28-.41.51-.63.77a7.27,7.27,0,0,1-.17-.91c-.09-1.57-.88-2.3-2.23-1.76a3.73,3.73,0,0,0-1.82,1.71c-.58,1.22-1.26,1.44-2.32.58a2.58,2.58,0,0,0-1.69-.29c-.67.07-1.29.5-2,.58s-1.34.15-1.17,1c.08.38.64.75,1.06.95s1.23.13,1.56.47c.78.81,1.36.81,2.29.17.41-.29,1.26,0,1.89.1.27.06.48.4.71.62a4.58,4.58,0,0,1,.38-.84c.3-.39.68-1,1-1a2.9,2.9,0,0,1,1.91.74c.54.64-.12,1-.72,1.44-1.65,1.14-1.61,1.33-.58,3.26a2.67,2.67,0,0,1,.27,1.64c-.39,2.35-.85,4.65,1.44,6.41.18.14-.05.81-.09,1.23l-.91-.35a6.1,6.1,0,0,0-.91-.31,4.08,4.08,0,0,0-4,1.42c-.64.69-1.3,2.08-2.51.54-.13-.16-.55-.15-.82-.13-.89.05-2.07-.17-2.59.31-.92.86.34,1.63.74,2.36,1,1.79,2,1.89,3.52.53.23-.21.36-.56.62-.72a1.09,1.09,0,0,1,.78-.05c.68.21,1.35.48,2,.73,0,.73-.07,1.45-.1,2.18-1.76-.18-3.58-1-5.18.53a.87.87,0,0,1-.81-.19c-.81-1.13-1.45-.44-2.06.17s-1.14,1.34-1.77,1.95-.61,1.34-.16,2.15a7.45,7.45,0,0,1,.58,2c.13.6.16,1.24.31,1.84a7,7,0,0,1,.56,1.83,1.8,1.8,0,0,1-.84,1.4c-.92.28-1-.49-1.14-1.24-.22-1-.88-2-2.08-1.93a2.16,2.16,0,0,0-2,2,3.89,3.89,0,0,0,1.29,4c.86.71.58,1.63-.64,2.67-1,.83-.83-.36-1.16-.66s-.54-.59-.84-.86c-.76-.72-2.85-.49-3,.37-.18,1.19-1,1.27-1.86,1.26-1.37,0-2.75-.17-4.12-.11-.41,0-.81.52-1.19.83s-.74.65-1.1,1c-.65.58-1.74,1.11-1.81,1.76s.85,1.42,1.38,2.11c.1.13.38.11.55.21a5.37,5.37,0,0,1,.51.44,3.33,3.33,0,0,1-.56.39c-1.67.64-1.87,1.74-.72,3.21a4.87,4.87,0,0,1,1.16,2.25,15.25,15.25,0,0,1-.16,3.87c0,.38-.62.69-1,1a9.18,9.18,0,0,0,.58,1.84c.38.7.16.9-.51,1.08a5.35,5.35,0,0,0-1.75.79c-1.7,1.33-1.92,1.34-3.94.13-.38-.23-1.26-.31-1.47-.07-.86,1-1.91.67-2.92.66-.75,0-3.29,2-3.41,2.79,0,.26-.08.68.08.81.6.51,1.39,1.41,1.91,1.29a3.28,3.28,0,0,0,1.79-1.78c.46-1,1.05-1.39,1.82-.6,1.22,1.24,2.47.82,3.88.46a19.58,19.58,0,0,1,3.92-.29c.14,0,.28.22.43.34-.11.11-.21.31-.32.31-1.65,0-1.81,1.12-1.82,2.39,0,.06-.59.25-.71.15a2.81,2.81,0,0,0-4.15,1c-.44,1.11.51,2.31,2,2.64a1.65,1.65,0,0,1,.77.68,18.56,18.56,0,0,1-1.5,2.13,5.64,5.64,0,0,0-.51,3.89c.18.31.34.64.51,1a10.74,10.74,0,0,1-1.26.23,8.23,8.23,0,0,1-1.57-.08,4,4,0,0,1-.93-.41c.21-.2.41-.42.63-.6,2-1.61,2.13-2.33.23-3.92-1-.87-.53-1.26-.14-2.05a5.15,5.15,0,0,0,.6-2.63,2.15,2.15,0,0,0-2.51-1.53,2.7,2.7,0,0,0-.88,4.14c.61.71,1.24,1.51.15,2.29s-.37,1.56,0,2.31c.1.2.39.31.5.5s.17.53.08.62c-.4.37-.86.68-1.29,1a7.29,7.29,0,0,0-.42-.78c-.52-.71-.91-1.65-1.61-2.05-1.46-.82-1.87-2-.69-3.16a1.28,1.28,0,0,0,0-2c-.61-.77-.77-1.46,0-2.22.15-.14.08-.81.06-.81-1.75-.22-2.29-1.88-3.42-2.82-.17-.14-.61-.23-.68-.14-.51.58-1.77,1-.39,2a13.39,13.39,0,0,1,1.33,1.54,1.46,1.46,0,0,1,0,2.38,2.3,2.3,0,0,0-.22,1.61,10.63,10.63,0,0,0,.61,1.94,9.15,9.15,0,0,1,.48,1.29c.1.62.09,1.26.13,1.89-.59-.13-1.18-.27-1.78-.39s-1.21-.41-1.62-.2a7.63,7.63,0,0,0-2,1.62,1.53,1.53,0,0,0-.42,1.24,1.48,1.48,0,0,0,1.09.66c1.52.21,3,.35,4.58.43a4.91,4.91,0,0,0,1.43-.41,20.19,20.19,0,0,1,2.13-.55c.2,0,.45.24.67.38-.16.2-.32.4-.5.59-.52.54-1.25,1-1.52,1.63-.48,1.18.66,1.73,1.29,2.45a3.45,3.45,0,0,1,.4.79c-1.57.6-.62,1.95-.85,2.95a1.06,1.06,0,0,0,1,1.43c.86.11.83.4.26,1.08-.35.41-.23,1.28-.17,1.93s.37,1.41.47,2.12c0,.23-.28.51-.43.76-.16-.24-.45-.48-.44-.72,0-.91-.57-1.19-1.3-1.32a5,5,0,0,1-1.19-.18c-.17-.08-.33-.67-.25-.73,1.16-.89.95-2.17.94-3.35,0-.94-1.34-2.25-2.06-1.93a3.68,3.68,0,0,0-1.94,1.92,3.38,3.38,0,0,0,1.42,4.19c.15.09.14.83,0,.9a12.4,12.4,0,0,1-2.13.88c-.15.05-.37-.23-.58-.29l-2.79-.72-.48,1.92a.49.49,0,0,0,0,.24c.18.61.19,1.53.6,1.75a2,2,0,0,0,2.66-.18c.32-.32,1.38-.47,1.57-.25.79,1,1.49.86,2.42.28a2,2,0,0,1,1.28-.1c.13,0,.34.53.27.73a19.8,19.8,0,0,1-1,2.21,3.16,3.16,0,0,1-.54.56c-.83-1.27-2.22-.74-3.34-.93a8.61,8.61,0,0,0-7,1.9,1.8,1.8,0,0,0-.06,1.76c.47.6,1.35.87,2,1.35a1,1,0,0,1,.3.83,11.9,11.9,0,0,0-.68,1.79c-.17,2.1-.21,4.2-.31,6.3-1.94-.07-1.94-.07-1.86-2,0-.9.27-1.82-.66-2.55-.26-.2-.36-1.16-.17-1.3,1.44-1.12.49-2-.24-2.81-.47-.54-.62-.91,0-1.51a1.83,1.83,0,0,0-.78-3.17,1.55,1.55,0,0,1-.73-1c-.34-1.51-1.55-2.43-2.53-1.83-1.49.93-1.61,1.55-.64,3.05a2.06,2.06,0,0,1,.16.68c.75.05,1.51.08,2.25.17.18,0,.31.29.47.45-.17.14-.33.39-.5.4-.76,0-1.51,0-2.27,0,0,.11,0,.23,0,.35-.25,1.91-.09,3.52,2.27,4,.74.16.68,1.3,0,1.83a1.75,1.75,0,0,0-.65,1,31.53,31.53,0,0,0-.15,4.12c0,.34.54.69.87,1s.8.41.87.7-.06,1.08-.29,1.17a1.39,1.39,0,0,1-1.3-.23c-1.16-1.56-2.21-.81-3.06.17a2.1,2.1,0,0,1-3,.58c-2-1.35-3.73-.69-4.59,1.44-.07.17-.78.33-.9.2a1.27,1.27,0,0,0-2.15,0c-.18.2-.56.22-.86.31a2.31,2.31,0,0,0,1.42,2.83c.52.2,1.46-.49,2.12-.9.28-.18.28-.77.54-1s.77-.36.91-.24a2.22,2.22,0,0,0,3.12.1,1.59,1.59,0,0,1,1.3-.1,5.09,5.09,0,0,1,1.66,1.09,3.46,3.46,0,0,1,.65,1.3,2.53,2.53,0,0,1-.62.35c-.88-1.34-1.87-.58-2.7,0s-2,1.21-1.52,2.43a2.25,2.25,0,0,0,2.56,1.69,2,2,0,0,0,1.23-.7,3.07,3.07,0,0,1,4-.69c1.4,1.2,3,.62,3.35-1.2.08-.37.4-1,.61-1,.41,0,1.06.25,1.18.56a1.7,1.7,0,0,1-.29,1.4,3.54,3.54,0,0,0-.65,1.91q4.65-5,9.45-10.37c-.46.24-.93.46-1.4.65a11.11,11.11,0,0,0-1.48.46,1.64,1.64,0,0,1-2.17-.17,2,2,0,0,0-1.85-.05c-1,.61-1.11.12-1.09-.69s.06-1.85.09-2.77c.3.21.75.37.85.65a2.58,2.58,0,0,0,4.16,1c.49-.45,3.09-.45,3.52,0a.15.15,0,0,1,0,.1c2.35-2.66,4.72-5.41,7.11-8.21.1-.57.29-1.13.43-1.7l.55.54Q855,299,860.65,291.85c-.06-.16-.1-.3,0-.39a7.79,7.79,0,0,1,1.17-1.2.37.37,0,0,1,.05.11c1.66-2.12,3.31-4.28,5-6.47a.34.34,0,0,1-.11-.2.49.49,0,0,1,.34-.34.3.3,0,0,1,.14.05c6.74-8.92,13.47-18.44,20.07-28.54-.15-.1-.31-.21-.47-.3a.57.57,0,0,1-.25-.46.58.58,0,0,1,.43-.33l1,0c1.2-1.84,2.39-3.69,3.57-5.57-.4-.3-.76-.61-.73-.86.07-.56.81-1,1.27-1.55.11.33.22.67.34,1q5.18-8.25,10.19-17c.45-.78.87-1.56,1.31-2.34l-.48-.79c.41-.26.72-.6,1-.59a.45.45,0,0,1,.19.05q1.47-2.66,2.83-5.31l-.15-.16a.92.92,0,0,1,.41-.45h.06q4-7.81,7.2-15.5a.62.62,0,0,1,.08-.18,214.14,214.14,0,0,0,8.52-24.49c-.68.69-1.34,1.36-2,2-.06,0-.34-.1-.5-.2-.49-.3-1-.6-1.45-.92-.19-.12-.36-.26-.54-.4.2-.1.39-.31.58-.3a3.54,3.54,0,0,0,3-.83c.18-.19.67-.1,1-.08,0,0,.07.05.11.11,1.87-6.75,3.34-13.35,4.48-19.79ZM926,142.25s0,.05.06.07l-.05.09-.17-.07ZM826.18,320l-1-.68c.37-.16.73-.44,1.08-.42a2.86,2.86,0,0,1,1,.52Zm3.77-.21a1.24,1.24,0,0,1-.16-.38c0-.06.18-.2.23-.18s.2.17.38.33Zm5.11.84a1.28,1.28,0,0,1,.29.24c-.16.07-.27.16-.34.14s-.11-.17-.12-.27S835,320.6,835.06,320.62Zm-3.39-2.34-.82-.7c.26-.14.52-.4.76-.39a2.76,2.76,0,0,1,.89.42ZM845,309.16a3.06,3.06,0,0,1-1.69,1.15,4.77,4.77,0,0,1-1.68,0c0-.12-.08-.23-.13-.35-.95.36-1.89.75-2.86,1.06a3,3,0,0,1-1.4.2c-.54-.1-1.08,0-.59-1.15.66-1.58.5-3.53.49-5.33,0-.26-1.11-.51-1.71-.78-.24-.1-.48-.22-.72-.34.24-.16.47-.44.72-.47a9,9,0,0,1,1.8,0c1.53.16,3.1.72,4.46-.53.5.58,1.38,1.15,1.4,1.75a5.59,5.59,0,0,0,1.43,3.06C844.89,307.9,845.23,308.75,845,309.16Zm48.29-109.79c.16,0,.32.24.59.47-.33.15-.54.34-.71.3s-.28-.29-.42-.45C893,199.57,893.14,199.36,893.32,199.37Zm-1.26,1.9.72,1.1c-.35.43-.75,1.07-.85,1a6.93,6.93,0,0,1-1.25-.94Zm-3.72,17.2c1.06,1.15,1.91,1,2.91,0,.11-.11.37-.07.57-.09,0,.24,0,.48,0,.71-.09.63-.18,1.26-.28,1.89-.51-.19-1-.4-1.55-.57-1.4-.46-2.82-.89-4.23-1.34A1.78,1.78,0,0,1,888.34,218.47Zm-2,3.22-.22.24c-.16-.21-.33-.41-.5-.61Zm-1,9.58c.31-.12.75-.35.8-.6.24-1.27,1-2.53-.41-3.77-.41-.37-.07-1.62.08-2.44a2.21,2.21,0,0,1,1.32-.06c.23.07.42.63.41,1a10.4,10.4,0,0,1-.29,2.15c-.3,1.21.4,2,1.11,2.73.29.31.53.66.79,1a7.15,7.15,0,0,1-1.7,1,5.78,5.78,0,0,1-1.8,0l0,.14-2.17-.47C884.09,231.68,884.73,231.52,885.34,231.27Zm1.08,12.67-.39.36c-.14-.29-.28-.57-.43-.86Zm-6-20.27c.15.37.19.89.44,1a15.88,15.88,0,0,0,1.71.45,1.54,1.54,0,0,1,.84.72c.1.26,0,.88-.24,1-1.1.43-1,1.36-1,2.23a3.68,3.68,0,0,1-.32.85l-.49-.71a8.94,8.94,0,0,1-1.39-2,10.79,10.79,0,0,1-.33-2.8C879.54,224.24,879.82,224.11,880.38,223.67Zm.85,8.15,1.68.91c-.53.49-1.18,1.45-1.56,1.35a7.17,7.17,0,0,1-2.12-1.5Zm-15.67,9.75a1.57,1.57,0,0,1,1-.89c1.16-.2,2.5.55,3.5-.67a2.45,2.45,0,0,1,.69.46c1.69,1.83,1.91,1.83,3.72.18a3.24,3.24,0,0,1,.84-.39c-.1.3-.22.6-.31.9-.2.61-.37,1.22-.57,1.83-.09.27-.22.53-.34.83-.25-.12-.36-.16-.46-.22a4.13,4.13,0,0,0-5.24,0,.92.92,0,0,1-.21.13C867.65,243.85,865.37,242.06,865.56,241.57Zm-3.3,22.89c-.37.71-.82,1.37-1.23,2.05-.24-.66-.47-1.32-.7-2a1.46,1.46,0,0,1,0-.36l-.2-.1a27,27,0,0,1,1.67-3.15c.16-.23,1,0,1.53,0-.14.35-.29.7-.42,1.05-.21.55-.42,1.09-.59,1.66C862.26,263.89,862.38,264.23,862.26,264.46Zm-6,3.35c.13-.14.54-.26.61-.19a6.76,6.76,0,0,1,1.25,1.54c.17.35,0,.87,0,1.31h0a2.36,2.36,0,0,1,0,.6c-.15.45-.34.89-.52,1.33-.16-.37-.29-.76-.48-1.11a3,3,0,0,0-.57-.72A2.82,2.82,0,0,1,856.23,267.81ZM855.15,275a5.9,5.9,0,0,1,2.37,0c.15,0,.32.78.26,1.16s-.47.5-.77.55a5.34,5.34,0,0,1-1.32,0l0,.15-1.76-.54C854.31,275.77,854.65,275.11,855.15,275Zm-8,24.4a3.84,3.84,0,0,1-.37-.93c0-.2.2-.43.31-.65l.64.82Zm1.86,3c-.38-.76-.77-1.5-1.09-2.28a6.13,6.13,0,0,1,1-.69l1.61,1.73Zm1-6.62a3.49,3.49,0,0,1-.9-.59c-.06-.08.13-.41.27-.56a3.42,3.42,0,0,0-.18-4.29,2.79,2.79,0,0,1-.92-3.31c.3-.75,1.31-1,1.7-.35a2.09,2.09,0,0,0,2,1,3.5,3.5,0,0,1,.95.38,7.3,7.3,0,0,1-.57.66c-1.59,1.41-1.59,1.53-.64,3.35a1.63,1.63,0,0,1,0,1.35A23.25,23.25,0,0,1,850.09,295.77Zm2.57,4.3c-.34-.37-.58-.65-.83-.93.24-.14.52-.44.72-.39a5.63,5.63,0,0,1,1.17.6Zm3.35-5.95-1-.78a5.69,5.69,0,0,1,1.59-.52c.4,0,.8.37,1.2.58Zm-1.07-7.26c.4-.36.88-.92,1-.86a9.42,9.42,0,0,1,1.37,1.24l-1.47,1.42Zm6.88-.08c-.39-.13-.91-.15-1.11-.41a1.91,1.91,0,0,1-.09-1.18c.25-2.74-2-4-4.43-3.61-.27,0-.51.34-.76.52s-.51.52-.74.5a7,7,0,0,0-4.53,1.63.56.56,0,0,1-.46.06c-.84-.9-1.66-1.83-2.48-2.73.29-.57.37-1,.62-1.15s.62.18.84.39a3.06,3.06,0,0,0,4,0,1.23,1.23,0,0,1,.83-.28c1.13.06,2.26.13,3.38.28a5.16,5.16,0,0,0,3.74-1.05,4.73,4.73,0,0,1,.85-.4c0,.39.19.89,0,1.16-1.24,2,0,3.8.45,5.66A1.71,1.71,0,0,1,861.82,286.78Zm.44-12.16c-.1.11-.92-.15-1-.35a1.67,1.67,0,0,1,.18-1.32,3.32,3.32,0,0,0,.08-4.26c-.13-.16,0-.58.08-.88a9.37,9.37,0,0,1,1.3.27c.1,0,.12.37.12.56,0,1.3-.39,2.7,1,3.64C863.43,273.11,862.9,273.91,862.26,274.62Zm4.53-7.87c-.27-.08-.38-.68-.61-1.15.64-.23-.13-2.41,1.56-.78.4.38,1.31.2,2,.34.22,0,.41.28.62.43-.21.14-.41.3-.63.42a6.53,6.53,0,0,1-1.34.63A3.26,3.26,0,0,1,866.79,266.75Zm.53,12.15c-.07-.08-.2-.16-.2-.24a1.88,1.88,0,0,1,.2-.52c.15.24.29.36.27.46S867.42,278.8,867.32,278.9Zm3.11-6.78a9.58,9.58,0,0,1-1.2,0l-.22.3a10.71,10.71,0,0,1-1.63-1.26c-.14-.14.21-1,.28-1a15.44,15.44,0,0,1,2.52.43c.22.06.38.39.54.62s.33.43.28.57A.8.8,0,0,1,870.43,272.12Zm-2.22-11.33c-.19.2-1-.08-1.44-.26a7,7,0,0,1-1.38-.78,3,3,0,0,1-.53-.53c.23-.12.46-.36.68-.36,1.09,0,2.17.08,3.26.13s2,.07,3,.16c.26,0,.5.29.74.45-.24.15-.48.43-.72.44C870.59,260.12,869.28,259.66,868.21,260.79Zm4.84,5.35c-.48-.46-1.37-1-1.32-1.36s.82-1,1.47-1.73c.45.7,1.07,1.25,1,1.73S873.47,265.69,873.05,266.14Zm.92-17.92a11.1,11.1,0,0,0-3.11-.25c-.21,0-.48.39-.62.65a1.89,1.89,0,0,1-3.11.58c-.74-.73-1.35-.45-2,.12s-1.62,1.25-.65,2.37a2,2,0,0,1,.37.46c.23.48.31,1.32.63,1.41a6.48,6.48,0,0,0,2.63.18c.36-.05.61-.72,1-1.07a5,5,0,0,1,.76-.5c.59,1.1,1.67.74,2.58.89a6.16,6.16,0,0,1,1.26.51,3.73,3.73,0,0,0-1,.51c-1.24,1.22-2.75.77-4.19.72l-1.7-.08c-.86,0-1.65-.11-2.16.89a2.22,2.22,0,0,1-1.4.85,1.83,1.83,0,0,1-1.3-.33c-.12-.08,0-.79.23-1.08,1.16-1.64,1.09-2.1-.44-3.6A2.39,2.39,0,0,1,861,250c0-1.45.17-2.92.12-4.37a22.26,22.26,0,0,0-.58-2.45,7.83,7.83,0,0,1,.11-1.59c.54.11,1.1.17,1.62.33a5.56,5.56,0,0,1,.89.54c.39.21,1.12.38,1.13.59,0,.45-.38.9-.53,1.38-.2.63-.65,1.46-.41,1.89.43.77,1.13,1.75,2.28,1.28.63-.25,1.09-.91,1.68-1.29a1.1,1.1,0,0,1,1-.11,4.68,4.68,0,0,0,5.93-.46,4.47,4.47,0,0,1,.78-.57,3.28,3.28,0,0,1,.23.88c0,1.34-.09,2.67-.18,4a2.16,2.16,0,0,1-.34.7,2.93,2.93,0,0,1-.35-.65C874.22,249.42,874.26,248.31,874,248.22Zm1.32,23.36-.74-.74a2.65,2.65,0,0,1,.91-.33c.24,0,.47.29.71.46Zm.23-17.51c-.17,0-.31-.27-.47-.41.17-.14.33-.37.5-.38s.34.22.64.42C875.88,253.88,875.68,254.09,875.52,254.07Zm2.29-16.71c0,.25-.34.45-.51.67-.14-.22-.4-.44-.39-.65.05-1.14-.56-1.44-1.56-1.5a4.56,4.56,0,0,1-1.39-.56l1.06-.4C876.9,235,878.05,236.17,877.81,237.36Zm1.29,28c-.24-.6-.47-1.19-.75-1.88.34-.64.61-1.19.89-1.73.43.62,1.22,1.25,1.19,1.85S879.58,264.79,879.1,265.37Zm1.63-13.11c-.21-.15-.53-.24-.63-.44a10,10,0,0,1-.67-1.83c0-.16.31-.4.47-.61a2.85,2.85,0,0,1,.56.53c.28.47.5,1,.76,1.49Zm-.07-5.52a7.59,7.59,0,0,1-.83,1.31c-.14-.6-.31-1.2-.42-1.81a4.76,4.76,0,0,1,0-.84h0a3.85,3.85,0,0,1,.08-1.19c.16-.37.62-.94.78-.89.42.14,1.07.59,1.05.86A10.1,10.1,0,0,1,880.66,246.74Zm-1.49-7.85a.53.53,0,0,1-.14-.29,1,1,0,0,1,.49-.26c.72,0,1.43,0,2.15,0A2.26,2.26,0,0,1,879.17,238.89Zm3.41,16.6c-.14-.28-.31-.47-.27-.58s.28-.23.44-.26.26.24.24.33S882.78,255.26,882.58,255.49Zm1.6-17.26a15.79,15.79,0,0,1-2.49.15c0-.15,0-.31.06-.46.43-2.32.44-2.34,2.55-1.51a1.06,1.06,0,0,1,.54.88C884.8,237.64,884.47,238.18,884.18,238.23Zm1,4.34c.14.28.28.57.43.85l-.82-.5Zm.79,7.69s-.31-.12-.33-.22c-.07-.38-.25-.89-.08-1.13a6.57,6.57,0,0,1,1.3-1.15l.71.91C887,249.26,886.47,249.77,886,250.26Zm1.55-12.69a6.39,6.39,0,0,1-.48-.75,3.32,3.32,0,0,1,1-.31c1,0,2,.07,3,.11C890.38,238.63,888.89,239,887.5,237.57Zm3.86,6.87a.63.63,0,0,1-.51-.09c-.35-.4-.85-.82-.93-1.29-.09-.62,1.75-1.49,2.32-1.19l.29.14C892.06,243,891.73,243.73,891.36,244.44ZM891,236.6l.48-.81.37.39Zm2-10.11c.07,1.23.22,2.46.27,3.69a1.73,1.73,0,0,1-.81.2,9.25,9.25,0,0,1-1-2.26c-.23-1,.45-2.13-.67-2.89l1.43-1.92c1,.34,1.4.45.92,1.32A3.7,3.7,0,0,0,893.06,226.49Zm-.4-8.06a3.86,3.86,0,0,1-.83,0,1.92,1.92,0,0,1,0-.59c.11-.4.27-.78.42-1.17a9.65,9.65,0,0,1,.84.72,4.18,4.18,0,0,1,.5.74A6.76,6.76,0,0,1,892.66,218.43Zm.39-6.13a1.23,1.23,0,0,1-.85-.85,18.26,18.26,0,0,1,.07-2.66h0c0-.85,0-1.7.13-2.54.11-1,1.5-2.06,2.31-1.74.18.07.36.68.26.79-1.17,1.28-.71,2.66-.35,4.06a2.34,2.34,0,0,1-.1,1,3.48,3.48,0,0,1-.46,1.2C893.8,211.92,893.36,212.33,893.05,212.3Zm2.08,3.06c-1.3-.05-.87-1.07-.88-1.8a5.58,5.58,0,0,1,.33-1.27c.61,1.08,1,1.8,1.4,2.56C896,214.88,895.42,215.38,895.13,215.36Zm1.28,6.13c-.25-.09-.37-.62-.47-1a.55.55,0,0,1,.25-.48,1.38,1.38,0,0,1,.6.22l2.91,1.42c-.43.63-.84,1.27-1.3,1.88,0,0-.63-.25-.62-.37C897.82,222.2,897.26,221.79,896.41,221.49Zm1.2-11.27c-.06-.09.41-.48.47-.77.29-1.29.57-2.46,1.95-.71,0,0,.07,0,.11,0l1.83.53-1.44,1.4L899.19,212C898.54,211.29,898,210.79,897.61,210.22Zm1.19,23.42a.2.2,0,0,1,0-.4c.08,0,.16.12.27.22C899,233.54,898.88,233.65,898.8,233.64Zm.57-4.65a1.79,1.79,0,0,1,0,.24c-.11.49-.23,1-.34,1.46-.38-.28-1-.51-1.08-.87a13,13,0,0,1-.19-2.8,1.36,1.36,0,0,1,.84-.09,1.49,1.49,0,0,1,.78.76,4.07,4.07,0,0,1,0,1.3Zm3.41-7.78a1.4,1.4,0,0,1-.93.53,17.1,17.1,0,0,1-2.14-.06,15.62,15.62,0,0,1,1.83-1.53c.24-.15.79,0,1.09.22A.85.85,0,0,1,902.78,221.21Zm-1.91-5.34-.5-.5a6.1,6.1,0,0,1,1.47-.37c.35,0,.7.28,1,.44Zm4-6.26a7,7,0,0,1-.32-1.77c.23-3-2-3.85-4.37-3.1-.32.1-.48.71-.72,1.09-.12.2-.24.39-.37.58a3.43,3.43,0,0,1-.54-.37,7.86,7.86,0,0,0-1.4-1.42,1,1,0,0,1-.39-1.62,1.72,1.72,0,0,1,1.26-.55c1.32,0,2.65.15,4,.17a2.75,2.75,0,0,1,2.72,2.33c.25,1,.68,1.88,1.06,2.91Zm.2-12.82-.78-.58a3.13,3.13,0,0,1,.92-.41c.2,0,.44.21.66.33Zm2.5,18.08c-.07,0-.14-.16-.21-.24a1.25,1.25,0,0,1,.36-.22c.06,0,.15.13.31.28A1.38,1.38,0,0,1,907.52,214.87Zm16.79-54.66.65.77c-.26.36-.46.61-.65.87-.16-.27-.44-.54-.44-.8S924.15,160.49,924.31,160.21Zm-15.38,20.1c0-.1.27-.2.41-.31a8.58,8.58,0,0,1,.43,1.05,2.42,2.42,0,0,1,0,.71c-.23-.07-.6-.08-.65-.21A3.65,3.65,0,0,1,908.93,180.31Zm3.32-2.72c-.44.17-1.28-.63-1.9-1,0,0,.23-.74.35-.74,1.19,0,2.39.11,2.65-1.51,0-.07.37-.15.37-.15.19.43.35.87.62,1.58C913.65,176.38,913.06,177.27,912.25,177.59Zm3.27,2.34a5.45,5.45,0,0,1,2.07.65c.23.14-1.57,1.47-2.56,1.69-.36-.44-1-.84-1-1.31C913.89,179.93,914.79,179.85,915.52,179.93Zm-4.44,1.92c.68.15,2.47-.3.75,1.34-.36.35-.2,1.22-.34,1.85,0,.19-.27.34-.41.51-.14-.12-.36-.22-.4-.37-.32-1.13-.61-2.27-.91-3.41A8.09,8.09,0,0,1,911.08,181.85Zm-.77,19.27c.13.11.34.21.37.35s-.16.29-.31.54c-.18-.23-.38-.36-.38-.49S910.2,201.25,910.31,201.12Zm0,12c-.23,0-.53-.31-.79-.49l1.36-1.22.71,1A5.12,5.12,0,0,1,910.29,213.1Zm.68-3.95-1.29-2.35c.41-.2,1.08-.67,1.18-.57a6.64,6.64,0,0,1,.9,1.53C911.43,208.33,911.2,208.74,911,209.15Zm3.87-9.58A11.11,11.11,0,0,1,914,198c0-.13.31-.41.48-.61l1.41,1.38Zm3.45-6-.9-.84c.33-.2.66-.57,1-.55s.66.39,1,.61Zm1.17-7c-.09.6-1.1,1.18-1.82,1.53-.45.21-1.11,0-1.67,0l-.12-.33a11.7,11.7,0,0,0-2.72,1c-1.14.79-1.14,2-.29,3.18a1.64,1.64,0,0,1,.13.82c-1.17.25-.35,2.53-2.11,2.08-.16,0-.37-.71-.26-.84a3.9,3.9,0,0,0,.15-4.29,1.06,1.06,0,0,1,.63-1.85,26.68,26.68,0,0,0,3.7-.92c.61-.23,1-1,1.58-1.39C917.46,185,919.6,185.74,919.46,186.61Zm0-22.67c-1.13.1-1,.91-1,1.6-.09,1.14-.28,2.34,1.33,2.64.08,0,.2.47.11.61a5.83,5.83,0,0,0-.1,5.61,2.1,2.1,0,0,1,.24,1.31,9.69,9.69,0,0,1-1.89.48l0-.16a1.91,1.91,0,0,1-.48,0c-.47-.14-.93-.31-1.39-.47.4-.18.9-.26,1.16-.56a2.59,2.59,0,0,0,.7-1.47,23.77,23.77,0,0,0-.37-3.45.92.92,0,0,0-.68-.07,31.46,31.46,0,0,0-3.1,1.48c-.64.37-3.26.44-3.53-.16a1.77,1.77,0,0,1,.27-1.55,2.54,2.54,0,0,0,.11-3.32c-1.16-1.11-1.86-2.31-1.28-4,.2-.57.29-1,1-.3a5.78,5.78,0,0,0,2.33,1.44,2.31,2.31,0,0,0,1.71-.67c1.31-1.21,4.91-1.31,6.41-.23.37.27,1.13,0,1.71,0a2.56,2.56,0,0,0,.69-.33,2.52,2.52,0,0,1,.27.75,14.15,14.15,0,0,1-.1,2.06c0,.26-.3.48-.46.73a2.66,2.66,0,0,1-.41-.64C922.41,164.08,921.57,163.76,919.5,163.94Zm4.57,9.17c-.23-.14-.65-.27-.66-.44-.06-.72,0-1.45,0-2.18a6.26,6.26,0,0,0-.36-1.22c-.08-.29-.15-.58-.23-.87.43-.07,1.07-.34,1.24-.17a14.27,14.27,0,0,1,1.38,2Zm2.7-13.77-.73-.64c.28-.16.56-.45.84-.44s.53.32.8.5Z" style="fill:#540429"/><path d="M827.54,325.92c-1,0-1.29.36-1.45,1.31a5.36,5.36,0,0,0,.7,3.53c1.15-1.19,2.31-2.41,3.48-3.64C830.18,325.94,829.63,325.93,827.54,325.92Z" style="fill:#540429"/><polygon points="857.81 255.56 857.82 255.56 857.82 255.55 857.81 255.56" style="fill:#540429"/><polygon points="825.34 301.54 825.35 301.54 825.35 301.53 825.34 301.54" style="fill:#540429"/><polygon points="906.83 176.53 906.84 176.52 906.84 176.52 906.83 176.53" style="fill:#540429"/><polygon points="906.37 165.32 906.37 165.31 906.36 165.31 906.37 165.32" style="fill:#540429"/><polygon points="916.91 157.77 916.92 157.77 916.93 157.76 916.91 157.77" style="fill:#540429"/><polygon points="917.69 140.53 917.7 140.53 917.7 140.52 917.69 140.53" style="fill:#540429"/><path d="M931.4,122.78q0-1.78,0-3.54a5.66,5.66,0,0,0-.89.34,15.9,15.9,0,0,1-2.57,1.15c-.89.24-2-.26-2.66.75-.06.11-.51,0-.78-.09s-.58-.1-.87-.15a5,5,0,0,0,.28,1.25,3.84,3.84,0,0,0,.83.83c.78.71,1.41,1.7,2.68,1.59.13-.36.17-.83.42-1A4.75,4.75,0,0,1,931.4,122.78Z" style="fill:#540429"/><polygon points="927.4 124.91 927.4 124.91 927.39 124.91 927.38 124.92 927.4 124.91 927.4 124.91" style="fill:#540429"/><polygon points="868.34 221.5 868.35 221.49 868.33 221.49 868.34 221.5" style="fill:#540429"/><path d="M875.79,221.8c.6-.48,1.4-.88,1.71-1.51.2-.4-.24-1.21-.55-1.75-.64-1.08-1.42-2.08-2.06-3.17-.09-.16.31-.56.38-.87a5.43,5.43,0,0,0,.22-1.63c0-.3-.6-.62-.55-.86.34-1.84-.48-3.47-.85-5.17,0-.19-.51-.48-.63-.42a6.45,6.45,0,0,0-1.9,1.27,2.08,2.08,0,0,0-.17,1.59c.08.37.51.7.84,1,1,.84,1,1.61,0,2.53a1.9,1.9,0,0,0-.16,1.38c.12.67.41,1.3.59,1.95.12.42.15.85.25,1.27.17.78.42,1.54.54,2.33,0,.25-.22.55-.35.83a4.1,4.1,0,0,1-.71-.5c-1.55-1.66-1.78-1.79-3.38-.65-.49.35-.49,1.37-.71,2.08.38.16.88.23,1.13.51a1.34,1.34,0,0,0,2,.22c.71-.53.82-.28,1,.44.07.37.53.93.8.92s.8-.43,1.18-.71S875.34,222.17,875.79,221.8Z" style="fill:#540429"/><path d="M906,173.83a2.43,2.43,0,0,1-.86-2.58,2.65,2.65,0,0,0-.84-2.36c-1.29-1.45-2,0-2.82.52s-.56,1.17.07,1.84c1.07,1.13,1.9,2.4,1.32,4.11-.33,1-1.27,1.33-1.93.57-1-1.18-2.32-.6-3.5-.67-.17,0-.44.51-.53.82a2.15,2.15,0,0,0,1.08,2.68,6.78,6.78,0,0,0,2.73,0c.58,0,1.25-.29,1.73-.1,2,.81,2.71.55,3.45-1.43.12-.3.61-.47.93-.69A2.48,2.48,0,0,0,906,173.83Z" style="fill:#540429"/><polygon points="906.83 176.53 906.84 176.52 906.83 176.53 906.83 176.53" style="fill:#540429"/><path d="M903.83,160.73a1.78,1.78,0,0,0,1.66-.2,19.73,19.73,0,0,0,1.74-2.27c.57-.67.68-1.27,0-1.88-1-.95-1.76-2-1.34-3.16a11.48,11.48,0,0,0,.06-2.13,1.23,1.23,0,0,0-.78-.83c-.33,0-1,.29-1,.49-.12,2.36-.15,4.72-.2,7.07,0,0,0,.07.06.11l.38,1c-.54,0-1.36.14-1.56-.14-.79-1.08-1.89-.79-2.88-.82-.42,0-1.21.42-1.2.6a4.44,4.44,0,0,0,.65,1.9c.1.17.83.07,1.21-.07C901.74,160,902.77,159.66,903.83,160.73Z" style="fill:#540429"/><path d="M842.47,285c.3-.07.76-.36.77-.57a1.69,1.69,0,0,0-.4-1.19c-.85-.74-1.8-1.35-2.7-2a2.19,2.19,0,0,0-2.89.64,2.39,2.39,0,0,1-1.33.86,8,8,0,0,1-1.69,0c-1,0-2.27,1.24-2,2a4,4,0,0,0,1.63,2c.92.48,1.69-.2,2.31-1a2.21,2.21,0,0,1,1.47-.84,21.62,21.62,0,0,1,3.22.38A12.82,12.82,0,0,0,842.47,285Z" style="fill:#540429"/><path d="M828.07,294.61c-.63.52-.38.88.26.93.89.07,1.08.58,1.27,1.32a2.56,2.56,0,0,0,2.39,2.23c.48-.21,1.16-.29,1.39-.66a2.67,2.67,0,0,0-1.73-3.67c-1.08-.22-1.41-1-.58-1.74a1.53,1.53,0,0,0,.52-2.18,17.89,17.89,0,0,0-1.29-2.1c-.13-.16-.64-.15-.92-.07a2.71,2.71,0,0,0-1.18,4A1.2,1.2,0,0,1,828.07,294.61Z" style="fill:#540429"/><path d="M856.6,252.4a1.76,1.76,0,0,1-.41-.64c1.24-1.09-.07-2-.28-2.91-.27-1.23-1.83-2.13-2.5-1.55s-1.38,1.41-1.25,1.93a3.69,3.69,0,0,0,1.76,2c.89.5,1.16,1.13.49,1.94a6.3,6.3,0,0,0-.69,1.43,9.12,9.12,0,0,1-.77,1.64c-.7,1,.49,1.09.7,1.64,0,.1.67.12.89,0,1.12-.72,2.18-1.5,3.27-2.26A3.13,3.13,0,0,0,856.6,252.4Z" style="fill:#540429"/><polygon points="857.81 255.56 857.81 255.56 857.82 255.55 857.81 255.56" style="fill:#540429"/><path d="M884.23,194.47c0,.25,1.11.57,1.62.46a3.78,3.78,0,0,0,1.54-1.08c.74-.7.57-1.31-.12-2s-2-1.38-.37-2.49a1.17,1.17,0,0,0,0-1.12,22.23,22.23,0,0,0-2.06-1.77,6.37,6.37,0,0,0-1.72.74c-.19.17-.16.82,0,1.12a4.84,4.84,0,0,0,1.2,1.46c1,.74.75,1.28.12,2.19A3.87,3.87,0,0,0,884.23,194.47Z" style="fill:#540429"/><path d="M857.31,237.12c.18-.38.34-.78.55-1.25a7,7,0,0,0-.73-1.76c-.81-1-1.76-2-1.44-3.47,0-.17-.58-.67-.89-.67a1.12,1.12,0,0,0-.89.66,2,2,0,0,0,.37,1.4,5,5,0,0,1,.39,6.37,1.7,1.7,0,0,0-.06,1.35c.08.21.75.4,1,.29s.51-.6.7-.95C856.69,238.45,857,237.78,857.31,237.12Z" style="fill:#540429"/><path d="M878.7,209.52c-.65.32-1.3.45-1.61.84-.51.67-.05,1.13.59,1.53.22.13.12.7.3,1,.46.69,1,1.89,1.49,1.87a5,5,0,0,0,2.49-1.35c.19-.15,0-1-.24-1.38a8.26,8.26,0,0,0-1.56-1.44C879.73,210.22,879.25,209.92,878.7,209.52Z" style="fill:#540429"/><path d="M904.34,164.31c-.55-2-1.52-2.28-3.21-1.23-1,.63-1.12,1.27-.21,2a9.8,9.8,0,0,0,2.46,1.57,4.42,4.42,0,0,0,2.39.36c.29-.06.4-1.13.59-1.74C905.58,165.21,904.68,165.53,904.34,164.31Z" style="fill:#540429"/><path d="M906.37,165.32h0Z" style="fill:#540429"/><polygon points="916.92 157.76 916.91 157.77 916.93 157.76 916.92 157.76" style="fill:#540429"/><path d="M918.52,152.81c-1.17-.36-2.52-.41-3.09.8a8.11,8.11,0,0,0-.48,3.55c0,.22,1.28.4,2,.6.55-.65,1.06-1.31,1.64-1.93S919.25,153,918.52,152.81Z" style="fill:#540429"/><path d="M896.36,181.8a7.57,7.57,0,0,0-2.48,1.33,3.66,3.66,0,0,0-.42,2.45c0,.24.95.49,1.49.6,1.23.24,1.8-.82,2.61-1.42s1.29-1.21.82-2C898.12,182.31,897.27,182.2,896.36,181.8Z" style="fill:#540429"/><path d="M884,203.14a4,4,0,0,0-2.19.76c-.81.45-.77,1.35,0,1.91s1.55,1,2.35,1.47a3.25,3.25,0,0,0,1.5.72c.26,0,.5-.83.55-.92C886.32,205.65,885,203.32,884,203.14Z" style="fill:#540429"/><path d="M812.27,330.46a1.49,1.49,0,0,0-2.12,1c-.37,1.13-.74,2.58-.32,3.55s1.58.27,2.29-.39a.38.38,0,0,1,.23-.06c1.16.05,1.46-.62,1.36-1.59A2.26,2.26,0,0,0,812.27,330.46Z" style="fill:#540429"/><path d="M917.69,140.52h0Z" style="fill:#540429"/><path d="M919.33,137.42c1.19-1.21,0-1.92-.59-2.59s-1.2-.42-1.92.26c-.93.89-.86,1.92-1,3-.32,2.15-.2,2.33,1.88,2.46C917.44,139.07,918.5,138.28,919.33,137.42Z" style="fill:#540429"/><path d="M871.85,228.8c.9-.26,2,.53,2.27-1,.15-1-2-3.34-3-3.27a1.44,1.44,0,0,0-.68.18,2.06,2.06,0,0,0-.28,3.54A4.46,4.46,0,0,0,871.85,228.8Z" style="fill:#540429"/><path d="M908.94,154.84a2.13,2.13,0,0,0,.23,1.53,5.56,5.56,0,0,0,1.56,1.41c.48.31,1.23.75,1.59.57a8.29,8.29,0,0,0,1.79-1.7c-.36-.57-.51-1.1-.82-1.23a20.53,20.53,0,0,0-3.3-1.08C909.67,154.26,909,154.6,908.94,154.84Z" style="fill:#540429"/><path d="M791.43,356.3c.23.43,1,.6,1.2.72.77,0,1.19.08,1.48-.08a7.66,7.66,0,0,0,2.37-1.57c.18-.23-.49-1.45-1-1.9a2.22,2.22,0,0,0-1.8-.08c-.51.18-.82.9-1.33,1.14C791.49,354.93,791,355.51,791.43,356.3Z" style="fill:#540429"/><path d="M805,349.26c-1.9-.09-2.26.2-2.31,2,0,.94,0,1.84,1,2.07q1.56-1.43,3.16-2.92C806.87,349.39,806.61,349.34,805,349.26Z" style="fill:#540429"/><path d="M809.26,328.22a6.74,6.74,0,0,0,1.29,1c1,.46,1.41-.09,1.48-2,.5-1.21-.48-2-1.35-2.71a1.61,1.61,0,0,0-1.51,0C807.56,325.64,807.63,326.9,809.26,328.22Z" style="fill:#540429"/><path d="M821,310.92a1.81,1.81,0,0,0,.41,1.53c.24.26.92.14,1.39.19v0c.36,0,.81.18,1.06,0a5.57,5.57,0,0,0,1.92-1.55,1.35,1.35,0,0,0-.89-1.92,3.14,3.14,0,0,0-2.16.07A4.42,4.42,0,0,0,821,310.92Z" style="fill:#540429"/><path d="M806.09,346c.09-1.46-.28-1.82-1.91-1.92s-2.15.37-2.27,2.48c-.22,1,.17,1.64,1.5,1.64C805,348.23,806,347.45,806.09,346Z" style="fill:#540429"/><path d="M867.38,235.56a2.48,2.48,0,0,0,2.57-2.4c.07-1.43-.94-1.61-2-1.68-1.7-.12-2,.23-2.12,2.08S865.86,235.49,867.38,235.56Z" style="fill:#540429"/><path d="M928.6,135a2.38,2.38,0,0,0,2.57-1.85.76.76,0,0,1,0-.15,2.39,2.39,0,0,0-2.24-2.11c-1.55,0-1.85.27-1.93,2S927,134.88,928.6,135Z" style="fill:#540429"/><path d="M893.83,181c.72-.16,1.29-1,2-1.52a5.56,5.56,0,0,0-.75-1.27c-.72-.6-1.48-1.15-2.26-1.68a5.41,5.41,0,0,0-1-.44,4.86,4.86,0,0,0-.52,1.48,3,3,0,0,0,.49,1.55C892.23,179.94,892.54,181.26,893.83,181Z" style="fill:#540429"/><path d="M925.52,128.37a3.31,3.31,0,0,0,1.92,1.31c1,.12,2-1.38,2-2.6s-.7-2-2.09-2.16a15.56,15.56,0,0,0-1.43,1.83C925.68,127.24,925.31,128.09,925.52,128.37Z" style="fill:#540429"/><polygon points="927.4 124.91 927.38 124.92 927.39 124.92 927.4 124.91 927.4 124.91" style="fill:#540429"/><polygon points="825.34 301.53 825.34 301.54 825.35 301.53 825.34 301.53" style="fill:#540429"/><polygon points="825.39 300.55 825.39 300.56 825.4 300.56 825.39 300.55" style="fill:#540429"/><path d="M820.82,299.28c-.1,0-.19-.14-.3-.19-.3-.17-.79-.54-.9-.45a6.18,6.18,0,0,0-1.44,1.58c-.1.15.35.85.69,1a4.55,4.55,0,0,0,1.77.3c1.57,0,3.13,0,4.7,0,0-.33,0-.65,0-1A9.2,9.2,0,0,0,820.82,299.28Z" style="fill:#540429"/><path d="M882.87,212c0,1.1.62,1.15,1.35,1,1.79-.05,2.87-.87,2.85-2.11a2.38,2.38,0,0,0-2.1-2C883.73,208.92,882.85,210.29,882.87,212Z" style="fill:#540429"/><path d="M861.67,237.18a9.74,9.74,0,0,0,2.11-1.44c-.16-1-2.18-3.42-2.91-3.33a1.49,1.49,0,0,0-1,.84,6.31,6.31,0,0,0-.12,2C859.76,236.16,861,237.44,861.67,237.18Z" style="fill:#540429"/><path d="M895.1,189.19a2.4,2.4,0,0,0,2,2.2c1.11.06,2.09-1,2.17-2.55.24-1.09-.32-1.58-1.58-1.58A2.39,2.39,0,0,0,895.1,189.19Z" style="fill:#540429"/><path d="M915.66,150.68c1.18.11,1.79-.28,1.65-1.36.06-1.35-1.11-3-2-2.72a3.49,3.49,0,0,0-2,1.81C913,149.31,914.49,150.57,915.66,150.68Z" style="fill:#540429"/><path d="M868.5,227.83l-1.81-2.15a14.19,14.19,0,0,0-2.41,2.7c-.15.27,1,1.56,1.75,1.91S868.16,229.14,868.5,227.83Z" style="fill:#540429"/><path d="M784,362.73c-1.59,1.24-.46,1.91.49,2.57a1.18,1.18,0,0,0,1.06.08c.82-.68,2-1.22,1.54-2.46a5.51,5.51,0,0,0,0-1c-.06-.37-.14-1-.31-1a1.77,1.77,0,0,0-1.35.19C784.88,361.51,784.56,362.28,784,362.73Z" style="fill:#540429"/><path d="M779.43,370.46c.07.72.11,1.45.2,2.17a1,1,0,0,0,.57.82l1.45-1.16c.33-.65.59-1.36.89-2,.05-.09-.12-.28-.17-.43a7.3,7.3,0,0,1-.61-1.69c-.1-.78-.48-.89-.9-.4a27.61,27.61,0,0,0-1.72,2.5Z" style="fill:#540429"/><path d="M786.35,366.66a2.06,2.06,0,0,0-2.43,1.9,2.19,2.19,0,0,0,.58,1.42l3.28-2.71C787.66,366.79,787.3,366.71,786.35,366.66Z" style="fill:#540429"/><path d="M811.54,320.47a9.69,9.69,0,0,0-3.45-.4c-.63.06-1.17.89-1.76,1.37a17.52,17.52,0,0,0,1.61.71c.77.24,1.57.39,2.35.6.47.13,1,.52,1.37.4s.52-.76.89-1.36C812.18,321.28,811.94,320.58,811.54,320.47Z" style="fill:#540429"/><path d="M836,287.89a2.36,2.36,0,0,0-2.11,2,2.39,2.39,0,0,0,1.93,2.09,2.45,2.45,0,0,0,2.19-2A2.35,2.35,0,0,0,836,287.89Z" style="fill:#540429"/><path d="M822.34,303.59a2.46,2.46,0,0,0-2.25,1.77c-.09,1,1,2.06,2.43,2.14,1.31.27,1.58-.68,1.66-1.78A2.05,2.05,0,0,0,822.34,303.59Z" style="fill:#540429"/><path d="M803.53,333.59c0,1.07.43,1.7,1.46,1.57a2.36,2.36,0,0,0,2.62-2,2.3,2.3,0,0,0-1.77-2A2.86,2.86,0,0,0,803.53,333.59Z" style="fill:#540429"/><path d="M815.68,311.47c-.06,1.39,1.06,3.06,2.06,2.76a3.77,3.77,0,0,0,1.93-1.77c.35-.64-1-2.18-1.8-2.09S815.76,309.84,815.68,311.47Z" style="fill:#540429"/><path d="M849.4,258a3.85,3.85,0,0,0,2.07-1.75c.35-.74-1.27-2.22-2.24-2.25-1.13,0-1.77.44-1.65,1.51C847.53,256.82,848.55,258.29,849.4,258Z" style="fill:#540429"/><path d="M910.06,152.32a2.41,2.41,0,0,0,2.09-1.95,3,3,0,0,0-2.22-2.41,9.18,9.18,0,0,0-1.76,2.07C907.86,150.77,909.26,152.26,910.06,152.32Z" style="fill:#540429"/><path d="M878.91,204.67c-1.2,0-2.76.93-2.51,1.78a3.54,3.54,0,0,0,1.77,2c1,.38,2-.82,2.06-2.23C880.37,205.38,880.18,204.67,878.91,204.67Z" style="fill:#540429"/><path d="M927.89,115.65a4.07,4.07,0,0,0,1.83,2c.47.22,1.12-.13,1.59-.65,0-.89-.06-1.76-.09-2.64a2.22,2.22,0,0,0-1.2-.5C929.11,113.79,927.61,114.92,927.89,115.65Z" style="fill:#540429"/><path d="M813.36,316c1.18-.53,1.37-1.52.2-2.43-.16-.12-.28-.29-.44-.41-.35-.28-.71-.54-1.07-.81a9.74,9.74,0,0,0-.59,1.52,7.37,7.37,0,0,0,0,1.33,2.71,2.71,0,0,1-.16.8c-.19.6-.42,1.19-.63,1.78l1.77.47C812.38,317.32,812.16,316.49,813.36,316Z" style="fill:#540429"/><path d="M812.43,318.21v0l0,0Z" style="fill:#540429"/><path d="M900,172.09a3,3,0,0,0-2.21-2.28,10,10,0,0,0-1.6,2.2c-.27.74,1.11,2.15,1.84,2.15A2.4,2.4,0,0,0,900,172.09Z" style="fill:#540429"/><path d="M853.35,245.11a10.4,10.4,0,0,0,1.93,0,1.11,1.11,0,0,0,.76-.71c.07-.31-.18-1-.36-1a43.44,43.44,0,0,0-4.55-.41c-.25,0-.73.57-.74.89a1.24,1.24,0,0,0,.68.95,13.07,13.07,0,0,0,2.27.32Z" style="fill:#540429"/><path d="M794.72,350.29a2.47,2.47,0,0,0-2-2.56c-1.29-.06-1.09.89-1.18,1.75.08.95-.25,2.24,1.39,2.35C794,351.91,794.74,351.57,794.72,350.29Z" style="fill:#540429"/><path d="M804.64,325.92c-.54.7-1.58,1.46-1.5,2.07a2.75,2.75,0,0,0,1.8,1.89c.53.08,1.75-1.05,1.79-1.71s-.9-1.49-1.42-2.24Z" style="fill:#540429"/><path d="M818.16,304.44c-1-.25-2.19,1.2-2.3,2.6-.06.77,0,1.37,1,1.4,1.3,0,2.1-.83,2.22-3C819,305.28,818.64,304.56,818.16,304.44Z" style="fill:#540429"/><path d="M866.64,215.85c-.12,1.14.37,1.59,1.32,1.49s2.56-1.32,2.43-2.25a2.12,2.12,0,0,0-1.26-1.4C868.24,213.43,866.73,215,866.64,215.85Z" style="fill:#540429"/><path d="M868.34,221.5h0Z" style="fill:#540429"/><path d="M862.74,222.21c.3.33.56.89.92,1a17.75,17.75,0,0,0,2.64.16c1.93.08,1.93.08,2-1.84-1.52-.07-3.05-.19-4.57-.16C863.41,221.35,863.08,221.9,862.74,222.21Z" style="fill:#540429"/><path d="M928.19,107.71c-1.42,0-.88,1.15-1.05,1.65-.14,1.27-.23,2.24,1.35,2.25,1.06,0,1.61-.32,1.67-1.38S929.12,107.72,928.19,107.71Z" style="fill:#540429"/><path d="M828,284.87c-.06,1,.06,1.81,1.37,1.78.91,0,1.92.12,1.82-1.24a21.5,21.5,0,0,0-.54-2.7,15,15,0,0,0-2.2,1C828.11,283.87,828.09,284.46,828,284.87Z" style="fill:#540429"/><path d="M788.71,357.78a4.1,4.1,0,0,0,1.09-.68,1.05,1.05,0,0,0,0-1,35.11,35.11,0,0,0-3.55-1.57c-.12-.05-.68.49-.65.7A3,3,0,0,0,788.71,357.78Z" style="fill:#540429"/><path d="M824.47,290.6c-.32.48-.63,1-1,1.43-.16.23-.51.45-.5.66a12.6,12.6,0,0,0,.3,2.29c0,.14.61.33.67.26.65-.71,2-.88,1.7-2.32C826.19,291.69,825.07,291.29,824.47,290.6Z" style="fill:#540429"/><path d="M831.26,276.79c-.33.52-.84,1.08-.82,1.61s.71.81,1.13,1.19a4.14,4.14,0,0,0,.7.44c.28.16.7.52.81.44a13.55,13.55,0,0,0,1.44-1.38c-.95-.87-1.82-1.7-2.73-2.48C831.72,276.54,831.35,276.66,831.26,276.79Z" style="fill:#540429"/><path d="M848.78,251.89a2.87,2.87,0,0,0,2.06-1.52c.34-1.12-.8-1.35-2-1.79L847,250.45C847.59,251,848.25,252,848.78,251.89Z" style="fill:#540429"/><path d="M924.91,118.42c.29,0,.64-.4.8-.7a1.89,1.89,0,0,0,.1-.81c.1-2-.2-2.59-1.29-2.26-.59.18-1,1-1.47,1.48C923.84,116.76,923.31,118.5,924.91,118.42Z" style="fill:#540429"/><path d="M800.09,332.83c-1.09-.06-1.63.5-1.68,1.58s.6,1.49,1.66,1.54,1.52-.34,1.42-1.45C801.74,333.41,801.19,332.88,800.09,332.83Z" style="fill:#540429"/><path d="M776.11,376.41c-1.62-.07-1.78.09-1.91,1.7l2.2-1.69Z" style="fill:#540429"/><path d="M919,131.91c-.59-.54-1.1-1.32-1.79-1.55-1.11-.35-1.65.79-1.75,1.52-.07.53.77,1.17,1.45,2.11Z" style="fill:#540429"/><path d="M910.56,142.93a1.11,1.11,0,0,0-1-.31,11.43,11.43,0,0,0-2.08,2c-.56.71-.06,1.54.87,1.59C909.46,146.25,911.12,143.9,910.56,142.93Z" style="fill:#540429"/><path d="M838.65,272.28c-.58-.54-1.15-1.49-1.75-1.5s-1.37.8-2.06,1.25l1.71,2.24Z" style="fill:#540429"/><path d="M880.58,195.76c1.11.22,1.25-.56,1.62-1.61-.44-.5-1.15-1.48-1.27-1.42-.77.45-1.81,1-2,1.74C878.55,195.63,879.79,195.61,880.58,195.76Z" style="fill:#540429"/><path d="M913.61,138.21c0-.31-.33-.92-.59-1a7.18,7.18,0,0,0-2.49,0c-.31.06-.64.74-.68,1.17,0,.23.49.61.83.76a3.11,3.11,0,0,0,1.07.08v0c.4,0,.88.13,1.18,0A1.6,1.6,0,0,0,913.61,138.21Z" style="fill:#540429"/><path d="M892.37,174c1.11.06,1.62-.32,1.5-1.43.18-1-.27-1.81-1.22-1.59a2.85,2.85,0,0,0-1.74,1.64C890.61,173.53,891.4,173.91,892.37,174Z" style="fill:#540429"/><path d="M793.32,339.66c1.22-.22,1.08-2.3,2.73-2.08a5,5,0,0,0,.36-1c-.25-.26-.51-.76-.84-.81s-1.08.28-1.11.51c-.12.94-.63,1.25-1.45,1.52-.32.1-.59.78-.61,1.21C792.39,339.24,793,339.72,793.32,339.66Z" style="fill:#540429"/><path d="M896,164.92a1.13,1.13,0,0,0-.81.76,2,2,0,0,0,.6,1.25c.21.2.69.12,1.12.18a5,5,0,0,0,1.25-.12c.37-.12.89-.41.94-.7a1.2,1.2,0,0,0-.65-1A8.56,8.56,0,0,0,896,164.92Z" style="fill:#540429"/><path d="M818.81,295.26a4.53,4.53,0,0,0,2-.1,1.15,1.15,0,0,0,.63-.84,1.21,1.21,0,0,0-.53-.91,2.31,2.31,0,0,0-1-.15c-.56,0-.86-.13-1,0a12.56,12.56,0,0,0-1.25.92C818.05,294.54,818.36,295.14,818.81,295.26Z" style="fill:#540429"/><path d="M862.63,229.11,861.07,227l-1.91,1.57a19,19,0,0,0,2.16,1.65C861.44,230.32,862,229.67,862.63,229.11Z" style="fill:#540429"/><path d="M802.12,322.82a6.59,6.59,0,0,0,1.22,1.9l1.75-2-1.52-1.34C802.94,322,802.05,322.53,802.12,322.82Z" style="fill:#540429"/><path d="M824.89,288.63,825,288a18.85,18.85,0,0,0-2.08-1.6c-.11-.06-1,.83-1,.9a9.57,9.57,0,0,0,1.69,2.05C823.73,289.47,824.44,288.89,824.89,288.63Z" style="fill:#540429"/><path d="M834,266.58c0,1.11.73,1.06,1.76,1.41.46-.44,1.2-.81,1.32-1.32.24-1.11-.72-1.11-1.5-1.16S834,265.42,834,266.58Z" style="fill:#540429"/><path d="M772.9,366.14a11.87,11.87,0,0,0,1.87,1.88c.12.09.7-.43,1.5-1a26.27,26.27,0,0,0-2.44-1.85C773.73,365.15,772.87,366.1,772.9,366.14Z" style="fill:#540429"/><path d="M859.24,225a19.85,19.85,0,0,0,1.9-1.88c.1-.12-.39-.72-.87-1.56a23.22,23.22,0,0,0-1.94,2.4C858.26,224,858.92,224.61,859.24,225Z" style="fill:#540429"/><path d="M830.54,271.4c-1.14,0-.94.89-1,1.56s-.14,1.62,1,1.5c.5-.06,1-.58,1.31-.82C831.58,272.46,831.83,271.42,830.54,271.4Z" style="fill:#540429"/><path d="M900.39,154.52c-.67-.77-1-1.51-1.47-1.62-1.08-.25-1.21.72-1.24,1.47s0,1.65,1,1.52C899.21,155.83,899.63,155.17,900.39,154.52Z" style="fill:#540429"/><path d="M775.08,371.25c-.74,0-1.48-.09-1.55,1s.57,1.2,1.26,1.2c.86,0,1.59.11,1.66-1S775.89,371.27,775.08,371.25Z" style="fill:#540429"/><path d="M919.43,123.42c0,.83.31,1.19,1.12,1.17s1.91-.12,1.89-1.31c0-.37-.75-.72-1.15-1.07C920.34,122.43,919.5,122.22,919.43,123.42Z" style="fill:#540429"/><path d="M844.35,258.79c.23.15.88-.33,1.33-.52,0-.21.07-.42.1-.64a17.26,17.26,0,0,0-2-1.57c-.1-.06-1,.92-1,1A5.29,5.29,0,0,0,844.35,258.79Z" style="fill:#540429"/><path d="M842.79,252.65a1.38,1.38,0,0,0,1-.91c0-.74.44-1.86-.75-2.06-1-.16-1.34.52-1.26,1.45C841.63,252,841.66,252.78,842.79,252.65Z" style="fill:#540429"/><path d="M915.61,127.05c.45.08,1.08-.81,1.64-1.28a11.31,11.31,0,0,0-1.93-1.34c-.26-.11-.8.39-1.53.78C914.57,126.06,915,126.94,915.61,127.05Z" style="fill:#540429"/><path d="M924.88,110.88c.1-.19-.76-.86-1.18-1.32a12.39,12.39,0,0,0-1.7,1.78c-.1.15.53.79,1.06,1.54A10,10,0,0,0,924.88,110.88Z" style="fill:#540429"/><path d="M890.2,179.41c.09-.31-.8-.91-1.25-1.38a8.22,8.22,0,0,0-1.4,1.7c-.13.26.42.83.9,1.68C889.29,180.51,890,180,890.2,179.41Z" style="fill:#540429"/><path d="M928.06,103c-.77.67-1.51,1-1.61,1.46-.25,1.09.72,1,1.42,1s1.66.26,1.57-.86C929.4,104.13,928.72,103.71,928.06,103Z" style="fill:#540429"/><path d="M848.93,244.32c.07-.11-.82-1.2-1.21-1.17a1.48,1.48,0,0,0-1.54,1.61c0,.42.42.81.85,1.56A13.86,13.86,0,0,0,848.93,244.32Z" style="fill:#540429"/><path d="M840.48,259.29c0-.19-.56-.55-.9-.63-1.17-.27-1.64.7-2.25,1.4l1.27.93C840.1,261.2,840.4,260.29,840.48,259.29Z" style="fill:#540429"/><path d="M880.93,188.55c0-.46-.62-.89-.95-1.34-1,.24-2,.1-1.82,1.19a1.72,1.72,0,0,0,1.12,1.15C880,189.69,881,189.65,880.93,188.55Z" style="fill:#540429"/><path d="M819.51,289.14c-.07-.47-.66-.87-1.28-1.63-.71.68-1.37,1-1.48,1.47-.24,1,.64,1.16,1.37,1.19S819.64,290.08,819.51,289.14Z" style="fill:#540429"/><path d="M789.9,343.58c-.07,1.19.74,1.14,1.64,1.41l1.38-.78a9.34,9.34,0,0,0-1.88-1.6C790.39,342.31,790,342.81,789.9,343.58Z" style="fill:#540429"/><path d="M866,210.18c.08.48.67.88,1.29,1.63.71-.68,1.37-1,1.48-1.48.24-1-.65-1.16-1.38-1.19S865.85,209.23,866,210.18Z" style="fill:#540429"/><path d="M793.76,333.51c.32,0,.67-.71,1.26-1.38l-1.42-1.59c-.33.41-.82.77-.94,1.22C792.42,332.65,792.76,333.46,793.76,333.51Z" style="fill:#540429"/><path d="M886.63,176.52c1,.24,1-.62,1-1.32s.17-1.55-.86-1.44c-.47,0-.88.65-1.63,1.26C885.85,175.74,886.17,176.41,886.63,176.52Z" style="fill:#540429"/><path d="M910.51,131.1a1.48,1.48,0,0,0-.61,1.32c.12.41.77.67,1.16,1l1.67-.47a5.38,5.38,0,0,1-.61-1.06A1.08,1.08,0,0,0,910.51,131.1Z" style="fill:#540429"/><path d="M906.6,140c.17.1.71-.43,1.35-.85a9.78,9.78,0,0,0-1.82-1.8c-.18-.1-.88.74-1.34,1.15A13.34,13.34,0,0,0,906.6,140Z" style="fill:#540429"/><path d="M769.4,373.86c.17.1.7-.43,1.34-.84a9.57,9.57,0,0,0-1.81-1.81c-.18-.09-.88.74-1.34,1.15A12.22,12.22,0,0,0,769.4,373.86Z" style="fill:#540429"/><path d="M874.66,193.4c-.47.08-.83.74-1.55,1.43.71.64,1.08,1.26,1.54,1.34,1,.17.91-.74,1-1.4S875.65,193.22,874.66,193.4Z" style="fill:#540429"/><path d="M929,98.11c-.09.17.62.82,1,1.24l.07-.06c-.08-.71-.17-1.42-.25-2.11A4.7,4.7,0,0,0,929,98.11Z" style="fill:#540429"/><path d="M891.05,168.69a14.62,14.62,0,0,0,1.88-1.38l-1.18-1.41-2,1.82C890.39,168.19,890.89,168.77,891.05,168.69Z" style="fill:#540429"/><path d="M851.38,237.08a9.08,9.08,0,0,0-1.91,1.17l1.55,1.12c.57-.51,1.25-.82,1.42-1.32C852.71,237.29,852,236.88,851.38,237.08Z" style="fill:#540429"/><path d="M807.62,317a11.3,11.3,0,0,0,.75-1.52c-.43-.15-.94-.52-1.27-.39a5.76,5.76,0,0,0-1.62,1.16.79.79,0,0,0,.25.61,3.67,3.67,0,0,0,1,.17C807.08,317,807.52,317.11,807.62,317Z" style="fill:#540429"/><path d="M785,345.52c-.08.24.44.71.87,1.34l1.85-1.79c-.54-.37-1.11-1.06-1.6-1S785.24,345,785,345.52Z" style="fill:#540429"/><path d="M886.93,169.9c-.18-.43-.28-1-.6-1.24s-1.08.11-1.1.27a4,4,0,0,0,.23,1.51,3.58,3.58,0,0,0,.47.79,6.58,6.58,0,0,0,.38.54c.18-.19.43-.35.51-.57a2.09,2.09,0,0,0,.09-.65A2.45,2.45,0,0,0,886.93,169.9Z" style="fill:#540429"/><path d="M861.65,216.55a11.63,11.63,0,0,0,1.81,1.5c.17.1.74-.52,1.12-.8l-1.28-1.41Z" style="fill:#540429"/><path d="M797.89,329.68c-.08.17.58.68.9,1l1.42-1.33-1-1.46A9.81,9.81,0,0,0,797.89,329.68Z" style="fill:#540429"/><path d="M804.72,309.94a8.29,8.29,0,0,0,1.17,1.76l1.17-1.59c-.48-.46-.86-1.12-1.19-1.09S804.66,309.78,804.72,309.94Z" style="fill:#540429"/><path d="M828.92,267.41c-.06.1.79,1,.89.9a13,13,0,0,0,1.76-1.39l-1.35-1A8.56,8.56,0,0,0,828.92,267.41Z" style="fill:#540429"/><path d="M786.48,351.56a4.7,4.7,0,0,0,1.33-.62c0-.22,0-.44.05-.66-.4-.28-.83-.83-1.19-.79a1.69,1.69,0,0,0-1.15,1C785.27,351.15,785.72,351.67,786.48,351.56Z" style="fill:#540429"/><path d="M848.67,232.65a1.55,1.55,0,0,0,.91,1.06c.39.09.89-.32,1.35-.51,0-.22.05-.44.07-.66a4.58,4.58,0,0,0-1.24-.87C849,231.46,848.52,231.91,848.67,232.65Z" style="fill:#540429"/><path d="M782.23,357.35c0,.77.29,1.22,1,1.11a4.3,4.3,0,0,0,1.26-.61c0-.19.05-.38.08-.58a4.42,4.42,0,0,0-1.23-.89C782.66,356.16,782.27,356.58,782.23,357.35Z" style="fill:#540429"/><path d="M875.39,201.58c0,.29.58,1,.9,1s.92-.46,1.39-.72c0-.22,0-.44,0-.67-.43-.23-.92-.71-1.28-.63A1.55,1.55,0,0,0,875.39,201.58Z" style="fill:#540429"/><path d="M771.08,380.25a1.71,1.71,0,0,0,1.11-1c.24-.72-.28-1.17-1-1.06a5,5,0,0,0-1.3.67c0,.22,0,.44,0,.66C770.28,379.78,770.73,380.3,771.08,380.25Z" style="fill:#540429"/><path d="M811.83,308.13c.08-.39-.36-.88-.57-1.32l-.67-.05c-.28.4-.82.85-.77,1.2a1.62,1.62,0,0,0,1,1.09C811.08,309.12,811.76,308.51,811.83,308.13Z" style="fill:#540429"/><path d="M796,340.64c-.31.35-.78.66-.89,1.07-.23.86.45,1.19,1.12,1.14a1.28,1.28,0,0,0,.93-.84c0-.42-.36-.88-.57-1.33Z" style="fill:#540429"/><path d="M925.54,97.43a1.37,1.37,0,0,0-1,.9c0,.33.47.75,1,1.52.53-.76,1.05-1.19,1-1.51A1.41,1.41,0,0,0,925.54,97.43Z" style="fill:#540429"/><path d="M800.2,316.69a1.34,1.34,0,0,0,1,.94,1.36,1.36,0,0,0,1-.86c.06-.33-.44-.77-1-1.57C800.69,316,800.15,316.36,800.2,316.69Z" style="fill:#540429"/><path d="M815.15,302.19c.34.06.76-.46,1.53-1-.76-.53-1.18-1.06-1.51-1a1,1,0,0,0,0,2Z" style="fill:#540429"/><path d="M903.37,148c.18.09.62-.3,1.34-.7-.76-.62-1.15-1.1-1.64-1.25-.22-.06-.64.55-1,.86A6.8,6.8,0,0,0,903.37,148Z" style="fill:#540429"/><path d="M838.82,253.77l-1.12-1.26c-.37.38-1,.74-1,1.13s.61.81,1.05,1.06C837.83,254.77,838.29,254.23,838.82,253.77Z" style="fill:#540429"/><path d="M884.31,181.86a5.69,5.69,0,0,0-1-1.26c-.35.3-.94.56-1,.89s.41.8.83,1.5C883.79,182.41,884.37,182,884.31,181.86Z" style="fill:#540429"/><path d="M874.14,189.32a5.69,5.69,0,0,0-1.22,1c.3.33.59.91.91.93s.78-.45,1.48-.9C874.71,189.81,874.28,189.26,874.14,189.32Z" style="fill:#540429"/><path d="M779,363.49c-.28-.09-1.07.4-1.06.6a6.18,6.18,0,0,0,.83,1.77c.59-.67,1.13-1,1.1-1.33A1.54,1.54,0,0,0,779,363.49Z" style="fill:#540429"/><path d="M813.43,295c-.32,0-.63.58-.94.9a6.09,6.09,0,0,0,1.18,1c.14.07.59-.49,1.19-1C814.2,295.48,813.81,295,813.43,295Z" style="fill:#540429"/><path d="M894.43,160.9c.31.33.64.95.92.92.46,0,.88-.5,1.32-.78,0-.18,0-.37,0-.55-.36-.17-.78-.55-1.07-.47S894.8,160.59,894.43,160.9Z" style="fill:#540429"/><path d="M893.71,153.88a1.78,1.78,0,0,0-1,1c-.08.24.44.68,1,1.4.5-.72,1-1.11,1-1.48S893.93,153.83,893.71,153.88Z" style="fill:#540429"/><path d="M781.8,351.34a5.41,5.41,0,0,0-1.27.91c.29.35.55.93.87,1s.8-.39,1.52-.8C782.34,351.84,782,351.28,781.8,351.34Z" style="fill:#540429"/><path d="M799.45,338.09a8.72,8.72,0,0,0-1.19,1.16c-.07.11.38.58.84,1.24.55-.68,1-1,1.13-1.48C800.29,338.79,799.73,338.4,799.45,338.09Z" style="fill:#540429"/><path d="M811,303.26a5,5,0,0,0-1-1.18c-.32.31-.88.6-.9.92s.44.77.89,1.46C810.51,303.85,811.06,303.41,811,303.26Z" style="fill:#540429"/><path d="M882.43,176.42c.07-.32-.36-.75-.79-1.53-.52.71-1,1.08-1,1.4s.53.69.82,1C881.81,177,882.35,176.77,882.43,176.42Z" style="fill:#540429"/><path d="M853,226.79c.31,0,.87-.46,1-.81s-.34-.76-.75-1.53c-.54.69-1,1.05-1,1.38A1.3,1.3,0,0,0,853,226.79Z" style="fill:#540429"/><path d="M871.26,204.27c.31,0,.88-.47,1-.81s-.34-.77-.75-1.55c-.54.7-1,1.06-1,1.39A1.29,1.29,0,0,0,871.26,204.27Z" style="fill:#540429"/><path d="M776.1,359.19c.31.32.59.84.94.89s.73-.41,1.47-.88c-.73-.47-1.13-.93-1.46-.89S776.41,358.88,776.1,359.19Z" style="fill:#540429"/><path d="M917.81,118.1c0,.36.5.7.79,1.05.34-.29.89-.52,1-.87s-.34-.77-.73-1.55C918.29,117.42,917.79,117.77,917.81,118.1Z" style="fill:#540429"/><path d="M842.86,246.65c-.29-.34-.54-.88-.89-1s-.75.35-1.51.77c.7.53,1.06,1,1.39,1S842.53,246.94,842.86,246.65Z" style="fill:#540429"/><path d="M868.56,197.21c0,.31.51.84.86.9s.73-.4,1.48-.87c-.73-.48-1.12-1-1.44-.91A1.29,1.29,0,0,0,868.56,197.21Z" style="fill:#540429"/><path d="M796.91,323.58c.29.34.54.87.89.95s.75-.36,1.52-.78c-.71-.53-1.07-1-1.4-1S797.24,323.29,796.91,323.58Z" style="fill:#540429"/><path d="M860.88,211a1.28,1.28,0,0,0,.89.9c.32,0,.72-.42,1.46-.9-.73-.47-1.13-.93-1.46-.88S860.88,210.66,860.88,211Z" style="fill:#540429"/><path d="M765.18,380.1c.31.32.6.84,1,.89s.73-.41,1.47-.88c-.74-.48-1.13-.94-1.46-.89S765.5,379.79,765.18,380.1Z" style="fill:#540429"/><path d="M890.11,162.58c0-.32-.42-.71-.91-1.44-.46.74-.91,1.14-.86,1.46s.58.88.89.87S890.06,162.93,890.11,162.58Z" style="fill:#540429"/><path d="M825.57,274.33c-.32.31-.85.58-.91.94s.4.73.86,1.47c.49-.73,1-1.11.91-1.44S825.88,274.65,825.57,274.33Z" style="fill:#540429"/><path d="M906.7,134c0-.35-.5-.69-.79-1-.34.29-.88.53-1,.88s.34.75.74,1.53C906.23,134.68,906.72,134.33,906.7,134Z" style="fill:#540429"/><path d="M827.26,281.41c.32-.32.85-.6.9-1s-.41-.73-.89-1.48c-.48.74-.94,1.14-.89,1.47S827,281.09,827.26,281.41Z" style="fill:#540429"/><path d="M821.15,281.25a1.3,1.3,0,0,0-.93.84c-.06.32.38.74.81,1.5.51-.71,1-1.08,1-1.41A1.28,1.28,0,0,0,821.15,281.25Z" style="fill:#540429"/><path d="M789.17,337.63c-.32.31-.87.61-.9.94s.47.74,1,1.45c.42-.71.86-1.11.79-1.39S789.48,338,789.17,337.63Z" style="fill:#540429"/><path d="M914.38,120.18c.09-.28-.3-.72-.66-1.46-.57.67-1.08,1-1.09,1.36s.52.67.81,1C913.77,120.79,914.27,120.55,914.38,120.18Z" style="fill:#540429"/><path d="M900.45,140.88c.31.28.62.77.94.78s.73-.42,1.45-.89c-.69-.47-1.12-1-1.34-.87C901.09,140.05,900.79,140.53,900.45,140.88Z" style="fill:#540429"/><path d="M845.28,238.74c-.3.29-.83.57-.85.88s.4.76.84,1.48c.5-.62,1-1,1-1.22A4,4,0,0,0,845.28,238.74Z" style="fill:#540429"/><path d="M918.79,113.25c0-.29-.61-.87-.84-.83a1.42,1.42,0,0,0-.9.92c-.07.28.36.69.79,1.41C918.34,114,918.79,113.63,918.79,113.25Z" style="fill:#540429"/><path d="M864.35,204a1.52,1.52,0,0,0,.85,1c.23.1.65-.25,1.38-.57-.68-.6-1-1-1.43-1.2C865,203.15,864.31,203.79,864.35,204Z" style="fill:#540429"/><path d="M833.32,259.65a2.37,2.37,0,0,0-1,1c-.06.09.43.53.86,1,.48-.55,1-.86,1-1.21S833.5,259.58,833.32,259.65Z" style="fill:#540429"/><path d="M916.69,121.23c-.08.31.26.73.42,1.11l.49,0c.23-.34.65-.68.63-1s-.43-.67-.68-1C917.25,120.66,916.77,120.89,916.69,121.23Z" style="fill:#540429"/><path d="M909.46,126.19a6,6,0,0,0-1.24,1.14c.27.21.57.61.81.57a3.41,3.41,0,0,0,1.12-.63l.37-.71C910.16,126.42,909.69,126.07,909.46,126.19Z" style="fill:#540429"/><path d="M857.48,218.18c-.31,0-.6.43-.9.67.24.3.43.77.73.84s.66-.28,1.34-.61C858.06,218.6,857.76,218.17,857.48,218.18Z" style="fill:#540429"/><path d="M877.16,184.11c.24.08.65-.29,1.32-.63-.58-.47-.87-.9-1.15-.89s-.65.39-1,.61C876.62,183.52,876.83,184,877.16,184.11Z" style="fill:#540429"/><path d="M771.17,361.14c.27.24.53.66.8.66s.63-.37,1.2-.74c-.55-.41-.93-.85-1.09-.78C771.72,360.43,771.46,360.84,771.17,361.14Z" style="fill:#540429"/><path d="M921.62,105.62a13.87,13.87,0,0,0-1.33.81l.84,1a4.51,4.51,0,0,0,.93-1.08C922.13,106.18,921.65,105.61,921.62,105.62Z" style="fill:#540429"/><path d="M896.52,148.1c0,.06.3.39.67.86a4.8,4.8,0,0,0,.72-1.19c0-.19-.3-.46-.46-.7A9,9,0,0,0,896.52,148.1Z" style="fill:#540429"/><path d="M831.6,255.38c0,.24.16.53.25.79h.34a2.89,2.89,0,0,0,.29-.89c0-.25-.27-.49-.41-.73A2.63,2.63,0,0,0,831.6,255.38Z" style="fill:#540429"/><path d="M912.34,114.47c0-.15-.37-.41-.58-.41s-.66.18-.72.37.11.61.18.92l.82,0A2.06,2.06,0,0,0,912.34,114.47Z" style="fill:#540429"/><path d="M924,93.12a2.47,2.47,0,0,0,.32.76c.15-.2.29-.41.49-.7l-.48-.74C924.2,92.66,924,92.89,924,93.12Z" style="fill:#540429"/><path d="M775.19,354.58c.27.25.43.5.64.55s.37-.17.56-.28a3.64,3.64,0,0,0-.55-.68C775.79,354.13,775.51,354.37,775.19,354.58Z" style="fill:#540429"/><path d="M787.57,332.74c0,.19.22.36.34.54l.61-.46c-.26-.21-.41-.41-.6-.45S787.56,332.62,787.57,332.74Z" style="fill:#540429"/><path d="M886.45,183.23c0,.16.15.37.3.69.23-.26.46-.42.46-.58s-.2-.35-.32-.52C886.74,183,886.48,183.07,886.45,183.23Z" style="fill:#540429"/><path d="M799.55,311.05c0,.19.23.35.43.61.21-.26.35-.42.48-.59-.17-.12-.34-.32-.53-.35S799.53,311,799.55,311.05Z" style="fill:#540429"/><path d="M768.67,367.55c-.26-.17-.42-.36-.55-.34s-.26.25-.31.41.21.28.31.27S768.42,367.72,768.67,367.55Z" style="fill:#540429"/><path d="M820.42,276.51c-.24-.18-.37-.34-.52-.37s-.34.18-.33.25.15.38.28.42S820.15,276.66,820.42,276.51Z" style="fill:#540429"/><path d="M880.85,170.78c-.23-.2-.35-.36-.5-.4s-.34.17-.33.23.13.39.26.44S880.58,170.92,880.85,170.78Z" style="fill:#540429"/><path d="M892.16,149.14c0,.09.19.33.25.32s.38-.15.42-.28-.15-.3-.3-.56C892.35,148.86,892.19,149,892.16,149.14Z" style="fill:#540429"/><path d="M868.51,192.6c0-.12-.15-.3-.3-.57-.18.24-.34.37-.37.52s.18.34.24.33S868.47,192.73,868.51,192.6Z" style="fill:#540429"/><path d="M804.61,305.28c0-.15-.14-.29-.27-.55-.19.24-.38.37-.37.5s.21.27.35.32S804.61,305.37,804.61,305.28Z" style="fill:#540429"/><path d="M792.28,325.63l-.23.3c.1.08.19.21.25.2s.24-.16.22-.21S792.37,325.73,792.28,325.63Z" style="fill:#540429"/><path d="M914.26,164.32c-1.1-.1-1.77.73-1.88,2.33-.13,1.89,0,2.06,2.11,2.2,1.47.1,2.91-.9,3-2S915.83,164.46,914.26,164.32Z" style="fill:#540429"/><path d="M840.18,304.13c-1.82-.07-1.87,0-1.95,2.24-.07,1.83.23,2.1,2.4,2.17,1.58.06,1.71-.1,1.79-2.07C842.5,304.27,842.45,304.22,840.18,304.13Z" style="fill:#540429"/></g><circle cx="842.19" cy="186.91" r="46.83" style="fill:#e66c84"/><circle cx="842.19" cy="186.91" r="43.36" style="fill:#452221"/><path d="M885.28,182.05a43.8,43.8,0,0,0-2.4-10.11c-.2-.55-.42-1.1-.65-1.65-.54-1.31-1.15-2.59-1.82-3.85h0a71.07,71.07,0,0,0-9.11,1.86,38.4,38.4,0,0,0-7.41,2.69c-.31.16-.44.11-.61-.2a23.32,23.32,0,0,0-9.72-9.73,19.74,19.74,0,0,0-7.65-2.18.85.85,0,0,1-.38-.09.45.45,0,0,1-.19-.38,54.24,54.24,0,0,0-3.72-14.84h0a40.71,40.71,0,0,0-4.14.26c-.76.08-1.53.18-2.29.31a43.78,43.78,0,0,0-10.76,3.24,42.21,42.21,0,0,0-4.07,2.09h0c-.06.37-.14.74-.21,1.11q-.52,2.78-1,5.56c-1,5.71-1.54,9.35-1.81,11.61-.13.86-.25,1.71-.37,2.57-.05.33,0,.48-.08,1a46.85,46.85,0,0,0-8.52,8.71l-.14.24a63.5,63.5,0,0,0-7.75,18.34h0q.45,1.6,1,3.18a43.32,43.32,0,0,0,55.1,26,46.68,46.68,0,0,0,6.92-12.31h0a.08.08,0,0,1,0,0h0a47.7,47.7,0,0,0,1.79-7.11c.47-2.34,1.16-6.57,1.17-6.65h0v0l.25-.11a1.77,1.77,0,0,0,.33-.19,64.11,64.11,0,0,0,6.73-4.79c.79-.56,1.56-1.12,2.29-1.71q4-3.24,7.89-6.66l1.6-1.37v0h0A44.79,44.79,0,0,0,885.28,182.05Z" style="fill:#efeae4"/><path d="M845.53,158.78a.45.45,0,0,1-.19-.38,54.24,54.24,0,0,0-3.72-14.84h0a54.24,54.24,0,0,1,3.72,14.84A.43.43,0,0,0,845.53,158.78Z" style="fill:#f7f1e7"/><path d="M863.26,170.79c.18.32.31.36.62.2a38.16,38.16,0,0,1,7.41-2.69,71.22,71.22,0,0,1,9.12-1.86h0a71.07,71.07,0,0,0-9.11,1.86,38.4,38.4,0,0,0-7.41,2.69c-.31.16-.44.11-.61-.2a23.32,23.32,0,0,0-9.72-9.73A23.24,23.24,0,0,1,863.26,170.79Z" style="fill:#f7f1e7"/><path d="M830.18,200a7.83,7.83,0,0,0,6.87,4.23c2.87-.1,4.52-1.78,4.34-4.13.18,2.34-1.48,4-4.34,4.12a7.85,7.85,0,0,1-6.87-4.23,4.76,4.76,0,0,1-.44-2.86A4.79,4.79,0,0,0,830.18,200Z" style="fill:#f7f1e7"/><path d="M865.26,208.34a45.23,45.23,0,0,1-1.78,7.1h0a47.7,47.7,0,0,0,1.79-7.11c.47-2.34,1.16-6.57,1.17-6.65h0S865.73,206,865.26,208.34Z" style="fill:#f7f1e7"/><path d="M824.73,203.35l12.84,7.37a8.14,8.14,0,0,1-7,.29l-1.53-.86a11.8,11.8,0,0,1-3.63-4.5,11.8,11.8,0,0,0,3.64,4.52,3.1,3.1,0,0,0,1.52.87,8.19,8.19,0,0,0,7-.3c0-.06,0-.15-.07-.17l-13-7.44c-.19-.1-.28-.08-.18.14A1.47,1.47,0,0,1,824.73,203.35Z" style="fill:#f7f1e7"/><path d="M840,210.66c-.22.08-.62.05-.58.43s.37.36.66.38l2.81.46a23,23,0,0,0,5.56-7.31,11.43,11.43,0,0,0,.69-6.6,14,14,0,0,1-2.53,7.68A12.65,12.65,0,0,1,840,210.66Z" style="fill:#f7f1e7"/><path d="M820.67,198c.31.45.62.91.94,1.36a2,2,0,0,0,.25.26c0-.12,0-.23,0-.35a13.55,13.55,0,0,1,3.33-10.45,19.47,19.47,0,0,0-4.57,9.15v0Z" style="fill:#f7f1e7"/><path d="M820.12,150.6c.07-.38.15-.75.22-1.13h0c-.06.37-.14.74-.21,1.11q-.52,2.78-1,5.56c.22-1.26.47-2.62.74-4.08C820,151.58,820,151.09,820.12,150.6Z" style="fill:#f7f1e7"/><path d="M808.35,180h0a46.8,46.8,0,0,1,8.51-8.71c0-.5,0-.65.08-1,.09-.68.2-1.37.29-2.06,0-.16,0-.34.07-.52-.13.86-.25,1.71-.37,2.57-.05.33,0,.48-.08,1a46.85,46.85,0,0,0-8.52,8.71l-.14.24Z" style="fill:#f7f1e7"/><path d="M846.77,170.68c.7-1,1.46-2.13,2.23-3.26l-2.24,3.24a111.42,111.42,0,0,1-8.87,11.42c-.27.3-.61.76-1,1.23.35-.38.65-.83,1-1.21A112.84,112.84,0,0,0,846.77,170.68Z" style="fill:#f7f1e7"/><path d="M865.23,175.14a38.5,38.5,0,0,1,1.3,4.7.5.5,0,0,0,0-.12,59.77,59.77,0,0,1,16.37-7.78c-.2-.55-.42-1.1-.65-1.65a49.9,49.9,0,0,0-16.82,4.28C865.12,174.7,865.13,174.88,865.23,175.14Z" style="fill:#f4eee1"/><path d="M866.64,180.38c.08.42.17.85.24,1.28a65,65,0,0,1,.67,13.29A54.44,54.44,0,0,0,866.64,180.38Z" style="fill:#f4eee1"/><path d="M819.93,168.81l.31-.2c1.62-1.09,3.2-2.25,4.85-3.28l1.5-.91a54.51,54.51,0,0,0-6.66,4.35Z" style="fill:#f4eee1"/><path d="M836.08,160.11l-.14,0a30.66,30.66,0,0,1,4.84-1.09c.55-.08.65-.3.59-.81A50.57,50.57,0,0,0,838.71,147c-.36-1.08-.79-2.14-1.24-3.18-.76.08-1.53.18-2.29.31A57.54,57.54,0,0,1,836.08,160.11Z" style="fill:#f4eee1"/><path d="M834.34,174.92a4.09,4.09,0,0,0-1.65,1.52,10.8,10.8,0,0,0-.63,1.1h0a6.36,6.36,0,0,0-.33.86,3.41,3.41,0,0,0,.72,3.29,2.47,2.47,0,0,0,3.12-.22,5.58,5.58,0,0,0,2.34-4.51C837.91,174.83,836.18,173.85,834.34,174.92Z" style="fill:#5f481f"/><polygon points="808.35 180.03 808.36 180.03 808.35 180.03 808.35 180.03" style="fill:#f7f1e7"/><path d="M821.9,199.25c0,.12,0,.23,0,.35a2,2,0,0,1-.25-.26c-.32-.45-.63-.91-.94-1.36,0,.09-3.62,8.69,7.05,14.82,10.39,6,15.15-.83,15.15-.83l0,0-2.81-.46c-.29,0-.61,0-.66-.38s.36-.35.58-.43a12.65,12.65,0,0,0,6.61-5,14,14,0,0,0,2.53-7.68,15.35,15.35,0,0,0-2.81-6.14.71.71,0,0,1,0-.69c1.39-3.92,3.73-8.71,5.16-12.65,1.21-3.35,2.45-6.74,3.94-10,1-2.13,1-2.27-.26-3.17a11.78,11.78,0,0,0-3.25-1.67c-.28-.09-.38,0-.52.2l-2.4,3.53c-.77,1.13-1.53,2.25-2.23,3.26a112.84,112.84,0,0,1-8.87,11.42c-.35.38-.65.83-1,1.21-.79,1-1.78,2-2.9,1.94a8.44,8.44,0,0,0-2.64.34,10.71,10.71,0,0,0-6.13,3.21A13.55,13.55,0,0,0,821.9,199.25ZM834.27,194a6.71,6.71,0,0,1,2.67.64,4.28,4.28,0,0,1,1.81,1,7.62,7.62,0,0,1,2.21,2.67,5.56,5.56,0,0,1,.43,1.72c.18,2.35-1.47,4-4.34,4.13a7.83,7.83,0,0,1-6.87-4.23,4.79,4.79,0,0,1-.44-2.87C830.07,195.2,831.78,193.87,834.27,194Zm-9.71,9.13,13,7.44s0,.11.07.17a8.19,8.19,0,0,1-7,.3,3.1,3.1,0,0,1-1.52-.87,11.8,11.8,0,0,1-3.64-4.52c-.29-.58-.56-1.17-.82-1.77-.09-.2-.16-.4-.24-.61h0C824.28,203.05,824.37,203,824.56,203.13Z" style="fill:#f7f1e7"/><path d="M863.46,215.48a7.67,7.67,0,0,0-.84-.32l-4.78-.77c2.35.41,4.4.8,5.64,1.1a.08.08,0,0,1,0,0h0A.08.08,0,0,1,863.46,215.48Z" style="fill:#f7f1e7"/><path d="M873.77,196.61c.79-.56,1.56-1.12,2.29-1.71q4-3.24,7.89-6.66C879.6,192,876.28,194.65,873.77,196.61Z" style="fill:#e2cfa9"/><path d="M819.86,152.07c.15-.84.32-1.7.49-2.61h0c-.07.38-.15.75-.22,1.13S820,151.58,819.86,152.07Z" style="fill:#e2cfa9"/><path d="M866.71,201.59a1.77,1.77,0,0,0,.33-.19Z" style="fill:#e2cfa9"/><path d="M867.55,195a65,65,0,0,0-.67-13.29c-.07-.43-.16-.86-.24-1.28,0-.18-.07-.36-.11-.54a38.5,38.5,0,0,0-1.3-4.7c-.1-.26-.11-.44.18-.57a49.9,49.9,0,0,1,16.82-4.28c-.54-1.31-1.15-2.59-1.82-3.85a71.22,71.22,0,0,0-9.12,1.86,38.16,38.16,0,0,0-7.41,2.69c-.31.16-.44.12-.62-.2a23.24,23.24,0,0,0-9.7-9.74,19.74,19.74,0,0,0-7.65-2.18.85.85,0,0,1-.38-.09.43.43,0,0,1-.2-.38,54.24,54.24,0,0,0-3.72-14.84,40.71,40.71,0,0,0-4.14.26c.45,1,.88,2.1,1.24,3.18a50.57,50.57,0,0,1,2.66,11.26c.06.51,0,.73-.59.81a30.66,30.66,0,0,0-4.84,1.09,63.87,63.87,0,0,0-9.35,4.26l-1.5.91c-1.65,1-3.23,2.19-4.85,3.28l-.31.2v0a30.07,30.07,0,0,0-2.91,2.48,22.14,22.14,0,0,1,.22-3c-.09.69-.2,1.38-.29,2.06-.05.33,0,.48-.08,1a46.8,46.8,0,0,0-8.51,8.71c3.26,4.55,9.19,12.77,12.3,17.92a19.47,19.47,0,0,1,4.57-9.15,10.71,10.71,0,0,1,6.13-3.21,8.44,8.44,0,0,1,2.64-.34c1.12.08,2.11-1,2.9-1.94.38-.47.72-.93,1-1.23a111.42,111.42,0,0,0,8.87-11.42l2.24-3.24,2.4-3.53c.14-.21.24-.29.52-.2a11.78,11.78,0,0,1,3.25,1.67c1.25.9,1.24,1,.26,3.17-1.49,3.27-2.73,6.66-3.94,10-1.43,3.94-3.77,8.73-5.16,12.65a.71.71,0,0,0,0,.69,15.35,15.35,0,0,1,2.81,6.14,11.43,11.43,0,0,1-.69,6.6,23,23,0,0,1-5.56,7.31l0,0s8.57,1.29,15,2.42l4.78.77a7.67,7.67,0,0,1,.84.32.08.08,0,0,0,0,0,45.23,45.23,0,0,0,1.78-7.1c.47-2.34,1.18-6.65,1.18-6.65h0A36.1,36.1,0,0,0,867.55,195Zm-32-13.48a2.47,2.47,0,0,1-3.12.22,3.41,3.41,0,0,1-.72-3.29,6.36,6.36,0,0,1,.33-.86h0a10.8,10.8,0,0,1,.63-1.1,4.09,4.09,0,0,1,1.65-1.52c1.84-1.07,3.57-.09,3.55,2A5.58,5.58,0,0,1,835.55,181.47Zm18,3.67a2.1,2.1,0,0,1,2.17.37,2.88,2.88,0,0,1,.75,2.75,11.93,11.93,0,0,1-.44,1.52l-.64,1.15a5.65,5.65,0,0,1-2.08,1.71,2.17,2.17,0,0,1-2.93-.94,2.09,2.09,0,0,1-.23-.76A5.6,5.6,0,0,1,853.52,185.14Z" style="fill:#e2cfa9"/><path d="M830.18,200a7.85,7.85,0,0,0,6.87,4.23c2.86-.1,4.52-1.78,4.34-4.12a5.56,5.56,0,0,0-.43-1.72,7.62,7.62,0,0,0-2.21-2.67l-1.81-1a6.71,6.71,0,0,0-2.67-.64c-2.49-.13-4.2,1.2-4.53,3.1A4.76,4.76,0,0,0,830.18,200Z" style="fill:#5e481e"/><path d="M829.06,210.15l1.53.86a8.14,8.14,0,0,0,7-.29l-12.84-7.37a1.47,1.47,0,0,0-.35-.08h0c.08.21.15.41.24.61.26.6.53,1.19.82,1.77A11.8,11.8,0,0,0,829.06,210.15Z" style="fill:#5f481f"/><path d="M836.94,194.64l1.81,1A4.28,4.28,0,0,0,836.94,194.64Z" style="fill:#b18d44"/><path d="M850.12,190.94a2.09,2.09,0,0,0,.23.76,2.17,2.17,0,0,0,2.93.94,5.65,5.65,0,0,0,2.08-1.71l.64-1.15a11.93,11.93,0,0,0,.44-1.52,2.88,2.88,0,0,0-.75-2.75,2.1,2.1,0,0,0-2.17-.37A5.6,5.6,0,0,0,850.12,190.94Z" style="fill:#5f481f"/><path d="M857.84,214.39c-6.4-1.13-15-2.42-15-2.42s-4.76,6.79-15.15.83c-10.67-6.13-7.09-14.73-7.05-14.82h0v0c-3.11-5.15-9-13.37-12.3-17.92h0l-.15.23a63.5,63.5,0,0,0-7.75,18.34h0c.31-1.05.54-1.68.54-1.68.08,1.53.25,3.17.48,4.86a43.32,43.32,0,0,0,55.1,26,46.68,46.68,0,0,0,6.92-12.31h0C862.24,215.19,860.19,214.8,857.84,214.39Z" style="fill:#efeae4"/><path d="M867,201.4a64.11,64.11,0,0,0,6.73-4.79c-2.19,1.54-4.51,3-6.52,4.64A1.59,1.59,0,0,1,867,201.4Z" style="opacity:0.050000000745058;isolation:isolate"/><path d="M866.71,201.59l-.24.09v0Z" style="opacity:0.050000000745058;isolation:isolate"/><path d="M884,188.24l1.6-1.37v0a2.73,2.73,0,0,0-.25.23Z" style="opacity:0.050000000745058;isolation:isolate"/><path d="M885.55,186.84h0a2.73,2.73,0,0,0-.25.23A2.73,2.73,0,0,1,885.55,186.84Z" style="fill:#f7f1e7"/><path d="M885.55,186.84h0a2.73,2.73,0,0,0-.25.23A2.73,2.73,0,0,1,885.55,186.84Z" style="opacity:0.050000000745058;isolation:isolate"/><path d="M866.53,179.84c0,.18.08.36.11.54a54.44,54.44,0,0,1,.91,14.57c-.06,1-.12,2-.22,3,0,.17,0,.36,0,.54.15-.09.3-.2.44-.3,5.55-4.72,11-9.57,16.14-14.73l1.36-1.37a43.8,43.8,0,0,0-2.4-10.11,59.77,59.77,0,0,0-16.37,7.78A.5.5,0,0,1,866.53,179.84Z" style="fill:#f4eee1"/><path d="M866.53,179.84c0,.18.08.36.11.54a54.44,54.44,0,0,1,.91,14.57c-.06,1-.12,2-.22,3,0,.17,0,.36,0,.54.15-.09.3-.2.44-.3,5.55-4.72,11-9.57,16.14-14.73l1.36-1.37a43.8,43.8,0,0,0-2.4-10.11,59.77,59.77,0,0,0-16.37,7.78A.5.5,0,0,1,866.53,179.84Z" style="opacity:0.050000000745058;isolation:isolate"/><path d="M867,201.4a1.59,1.59,0,0,0,.21-.15c2-1.64,4.33-3.1,6.52-4.64,2.51-2,5.83-4.66,10.18-8.37l1.35-1.17a2.73,2.73,0,0,1,.25-.23,44.79,44.79,0,0,0-.27-4.79l-1.36,1.37c-5.15,5.16-10.59,10-16.14,14.73-.14.1-.29.21-.44.3,0-.18,0-.37,0-.54.1-1,.16-2,.22-3a36.1,36.1,0,0,1-1.08,6.73l.24-.09Z" style="fill:#e2cfa9"/><path d="M867,201.4a1.59,1.59,0,0,0,.21-.15c2-1.64,4.33-3.1,6.52-4.64,2.51-2,5.83-4.66,10.18-8.37l1.35-1.17a2.73,2.73,0,0,1,.25-.23,44.79,44.79,0,0,0-.27-4.79l-1.36,1.37c-5.15,5.16-10.59,10-16.14,14.73-.14.1-.29.21-.44.3,0-.18,0-.37,0-.54.1-1,.16-2,.22-3a36.1,36.1,0,0,1-1.08,6.73l.24-.09Z" style="opacity:0.050000000745058;isolation:isolate"/><path d="M866.64,180.38c0-.18-.07-.36-.11-.54C866.57,180,866.61,180.2,866.64,180.38Z" style="fill:#e2cfa9"/><path d="M866.64,180.38c0-.18-.07-.36-.11-.54C866.57,180,866.61,180.2,866.64,180.38Z" style="opacity:0.050000000745058;isolation:isolate"/><path d="M817.31,167.76q.83-5.82,1.81-11.61C818.1,161.86,817.58,165.5,817.31,167.76Z" style="opacity:0.050000000745058;isolation:isolate"/><path d="M819.86,152.07c-.27,1.46-.52,2.82-.74,4.08q-1,5.79-1.81,11.61c0,.18,0,.36-.07.52C818,162.87,818.87,157.46,819.86,152.07Z" style="fill:#f7f1e7"/><path d="M819.86,152.07c-.27,1.46-.52,2.82-.74,4.08q-1,5.79-1.81,11.61c0,.18,0,.36-.07.52C818,162.87,818.87,157.46,819.86,152.07Z" style="opacity:0.050000000745058;isolation:isolate"/><path d="M819.94,168.44a1.22,1.22,0,0,0,0,.33,54.51,54.51,0,0,1,6.66-4.35,43.81,43.81,0,0,1,9.35-4.26l.14,0a57.54,57.54,0,0,0-.9-16,43.78,43.78,0,0,0-10.76,3.24c-.71,2.61-1.34,5.24-1.87,7.9C821.61,159.64,820.8,164.05,819.94,168.44Z" style="fill:#f4eee1"/><path d="M819.94,168.44a1.22,1.22,0,0,0,0,.33,54.51,54.51,0,0,1,6.66-4.35,43.81,43.81,0,0,1,9.35-4.26l.14,0a57.54,57.54,0,0,0-.9-16,43.78,43.78,0,0,0-10.76,3.24c-.71,2.61-1.34,5.24-1.87,7.9C821.61,159.64,820.8,164.05,819.94,168.44Z" style="opacity:0.050000000745058;isolation:isolate"/><path d="M817.24,168.28a22.14,22.14,0,0,0-.22,3,30.07,30.07,0,0,1,2.91-2.48,1.22,1.22,0,0,1,0-.33c.86-4.39,1.67-8.8,2.61-13.17.53-2.66,1.16-5.29,1.87-7.9a42.21,42.21,0,0,0-4.07,2.09c-.17.91-.34,1.77-.49,2.61C818.87,157.46,818,162.87,817.24,168.28Z" style="fill:#e2cfa9"/><path d="M817.24,168.28a22.14,22.14,0,0,0-.22,3,30.07,30.07,0,0,1,2.91-2.48,1.22,1.22,0,0,1,0-.33c.86-4.39,1.67-8.8,2.61-13.17.53-2.66,1.16-5.29,1.87-7.9a42.21,42.21,0,0,0-4.07,2.09c-.17.91-.34,1.77-.49,2.61C818.87,157.46,818,162.87,817.24,168.28Z" style="opacity:0.050000000745058;isolation:isolate"/><path d="M835.94,160.16a43.81,43.81,0,0,0-9.35,4.26A63.87,63.87,0,0,1,835.94,160.16Z" style="fill:#e2cfa9"/><path d="M835.94,160.16a43.81,43.81,0,0,0-9.35,4.26A63.87,63.87,0,0,1,835.94,160.16Z" style="opacity:0.050000000745058;isolation:isolate"/><path d="M800.45,198.61q.45,1.6,1,3.18c-.23-1.69-.4-3.33-.48-4.86C801,196.93,800.76,197.56,800.45,198.61Z" style="fill:#e5e0da"/></g></g></g></g></svg>