<?xml version="1.0" encoding="utf-8"?>
<!-- Generator: Adobe Illustrator 23.0.4, SVG Export Plug-In . SVG Version: 6.00 Build 0)  -->
<svg version="1.1" id="Layer_1" xmlns="http://www.w3.org/2000/svg" xmlns:xlink="http://www.w3.org/1999/xlink" x="0px" y="0px"
	 viewBox="0 0 1920 271" style="enable-background:new 0 0 1920 271;" xml:space="preserve">
<style type="text/css">
	.st0{fill:#232D5E;}
	.st1{fill:#1D264B;}
	.st2{fill:#B5EDF3;}
	.st3{fill:#5FC2E9;}
	.st4{fill:#82C9E8;}
	.st5{fill:#5BA8FA;}
	.st6{fill:#31A8D5;}
	.st7{fill:#8D75D3;}
	.st8{fill:#70579E;}
	.st9{fill:#BF98DC;}
	.st10{fill:#B79AE5;}
	.st11{fill:#7C6491;}
	.st12{fill:#F7F1E7;}
	.st13{fill:#F4EEE1;}
	.st14{fill:#E2CFA9;}
	.st15{fill:#D3BF9C;}
	.st16{fill:#5F481F;}
	.st17{fill:#5E481E;}
	.st18{fill:#B18D44;}
	.st19{fill:#EFEAE4;}
	.st20{opacity:5.000000e-02;enable-background:new    ;}
	.st21{fill:#DDD6CE;}
</style>
<title>artwork-space-2_1</title>
<g id="bd55e966-ac54-449a-87db-024e665bdf3f">
	<g id="a3662a1e-1896-4a3f-8406-0f48f3a30ea8">
		<g id="a0486ea7-d25d-414d-bcf9-1546440bb75f">
			<path class="st0" d="M208,65.4C349.2,55.3,388.8,66.1,559,41c117.1-17.2,636.5-38.9,839.5,6.2c148.8,33.1,128.5,47,330.2,13.1
				c88.2-22.2,83.6,14.9,191.3,28.9V0H0v90.7C45.4,60.4,100.7,73.3,208,65.4z"/>
			<path class="st1" d="M1920,0v52.6c-80,0-88.2-37-146.4-32.3c-103.3,8.5-165.9,24.4-247.2,10.6c-148.1-25.1-286.6-18.2-378.8-16.9
				c-97.3,1.4-339.5-21.1-461.1,0.1C601.6,29,613.4,6.8,391,29C252.1,42.8,210.9,10.9,139,39.6c-45,18-115-24-139,10V0H1920z"/>
			<g id="a6eb432c-8f92-4a2a-843d-924f4d1fba6e">
				<circle class="st2" cx="133.2" cy="170.7" r="78.5"/>
				<path class="st3" d="M122.5,213.7c-11.9,1.5-24.3,11.3-39.5,17.5c33.3,27.7,82.8,23.1,110.5-10.2c1.2-1.4,2.3-2.8,3.3-4.3
					c-9.2,2.5-18.5,4.5-27.9,5.8C142.2,225.7,140.1,211.5,122.5,213.7z"/>
				<path class="st2" d="M122,114.1c24.1,1.1,20.2,35.6,41,35.6c10.9,0,26.4-8.9,38.6-17.4c-3.3-5.8-7.3-11.2-11.9-16
					c-7.9,3.9-16.8,5.2-25.5,3.9c-23.1-3.2-29.8-34.3-66.1-19.6c-19.7,9.9-34.3,27.6-40.3,48.7c5.4,1.5,11.1,2.4,16.7,2.5
					C96.8,152.9,97.9,113,122,114.1z"/>
				<path class="st4" d="M201.6,132.3c-12.2,8.5-27.7,17.4-38.6,17.4c-20.8,0-17-34.5-41-35.6s-25.2,38.8-47.6,37.7
					c-5.7-0.2-11.3-1-16.7-2.5c-1.1,3.9-1.9,7.8-2.4,11.9c-0.4,3.2-0.6,6.4-0.6,9.6c0,8.9,1.5,17.7,4.5,26.1
					c21.3,3.7,45.3,4.3,52.4-9.4c13.7-26.2-10.9-17-10.9-17s17.5-36.7,43.8,4.9c12.3,19.4,46.5,13.2,66.3,7.6c0.4-2.3,0.6-4.7,0.8-7
					c0.1-1.7,0.2-3.4,0.2-5.2C211.7,157.2,208.3,144,201.6,132.3z"/>
				<path class="st5" d="M144.4,175.4c-26.2-41.6-43.8-4.9-43.8-4.9s24.6-9.3,10.9,17c-7.1,13.7-31.1,13.1-52.4,9.4
					c4.7,13.4,13,25.3,23.9,34.3c15.1-6.1,27.6-16,39.5-17.5c17.5-2.2,19.7,12,46.5,8.8c9.4-1.4,18.7-3.3,27.9-5.8
					c7.2-10,12-21.5,13.9-33.7C191,188.5,156.7,194.8,144.4,175.4z"/>
				<path class="st6" d="M164.1,120.1c8.7,1.3,17.6,0,25.6-3.9c-23.8-24.7-61-31-91.7-15.6C134.3,85.8,141.1,116.9,164.1,120.1z"/>
			</g>
			<g id="e14a5817-6b49-4407-bf13-d7e16edb8337">
				<circle class="st7" cx="368.2" cy="140.1" r="54.5"/>
				<path class="st8" d="M368.5,111.9c8.6-1.1,21.1-9.3,34.3-14c-23.3-19.1-57.6-15.8-76.7,7.5c-0.5,0.7-1.1,1.4-1.6,2
					c4.2-1.1,8.5-1.9,12.8-2.5C355.9,102.7,356.3,113.5,368.5,111.9z"/>
				<path class="st9" d="M385.2,168.9c-16.7-0.8-23.3-14.2-37.7-14.2c-7.6,0-18.3,6.2-26.8,12.1c2.3,4.1,5.1,7.8,8.3,11.1
					c5.5-2.7,11.7-3.6,17.7-2.7c16,2.2,20.7,23.8,46,13.5c13.6-6.9,23.7-19.1,27.9-33.8c-3.8-1.1-7.7-1.7-11.6-1.8
					C393.4,152.4,401.9,169.6,385.2,168.9z"/>
				<path class="st7" d="M385.2,130.7c2.2,8.3,0.1,17.1-5.5,23.6c0,0-12-24.6-24.3-18.7c-16,7.6-12-6.2-21.5-7.6
					c-6-0.9-13.4,0.8-19.3,2.8c-0.5,3.1-0.8,6.2-0.8,9.4c0,0.1,0,0.2,0,0.3c0,9.3,2.5,18.3,7,26.4c8.5-5.9,19.2-12.1,26.8-12.1
					c14.4,0,21,13.4,37.7,14.2s8.2-16.5,23.8-15.7c3.9,0.1,7.8,0.7,11.6,1.8c3-10.5,2.7-21.6-0.6-31.9
					C402.3,120.2,382.4,119.3,385.2,130.7z"/>
				<path class="st10" d="M402.8,98c-13.2,4.7-25.7,12.9-34.3,14c-12.2,1.5-12.6-9.2-31.2-6.9c-4.3,0.6-8.6,1.4-12.8,2.5
					c-5.1,6.8-8.5,14.8-10,23.2c5.9-2,13.3-3.7,19.3-2.8c9.5,1.5,5.6,15.3,21.5,7.6c12.3-5.9,24.3,18.7,24.3,18.7
					c5.6-6.5,7.7-15.3,5.6-23.6c-2.7-11.4,17.2-10.5,34.8-7.7c-1-3-2.2-5.9-3.7-8.7C412.8,108.1,408.3,102.5,402.8,98z"/>
				<path class="st11" d="M346.7,175.2c-6-0.9-12.2,0-17.7,2.7c16.6,17.2,42.4,21.6,63.8,10.8C367.4,199,362.7,177.4,346.7,175.2z"
					/>
			</g>
		</g>
		<g id="a72b4a85-2cfc-4205-b5b7-88e9c62083e3">
			<g id="ebc59424-0a99-4181-a540-34cdccb40acb">
				<g id="f4367ad2-2a0f-49eb-b2be-7efe4171fde5">
					<path class="st12" d="M1749.4,102.7L1749.4,102.7 M1755.6,66.5c1.3-0.7,2.5-1.3,3.7-2c-1-1.3-2.1-2.5-3.1-3.8
						c-0.2-0.3-0.3-0.3-0.6,0c-0.4,0.5-0.9,0.9-1.3,1.3c-1.1,1.2-2.4,2.3-3.4,3.6c-1.2,1.4-1.6,3.3-1,5l0,0c-1.8,1.7-3.2,3.7-4.1,6
						c-0.1,0.5-0.4,0.8-0.9,1c-4.4,1.3-8.5,3.5-12,6.5c-0.8,0.6-1.5,1.3-2.1,2l0,0c-0.9,1.1-1.7,2.2-2.4,3.4
						c-0.7,1.1-1.9,3.3-1.9,3.3c-0.2,0-0.4,0-0.5,0.1c-1.9,0.6-4,1-5.9,1.6c-4.3,1.4-8.6,3-12.7,4.9c-1.2,0.6-3,1.6-3.6,1.9
						c-0.4,0.3-0.8,0.6-1.2,0.9c-0.9,0.8-0.4,1.9,0.8,2.9c1.5,1.1,3.1,1.9,4.8,2.4c2.9,1,5.9,1.6,9,1.9c1.5,0.2,3,0.2,4.4,0.1
						c0.2,0,0.2,0,0.3,0.2c0.3,2.6,1.4,5.1,3.2,7.1c1,1.1,2.2,2,3.6,2.7c0.2,0.1,0.3,0.1,0.2,0.4c-0.9,3.6-1.2,7.4-0.9,11.1
						c0.1,2.3,0.5,4.5,1.2,6.6c0.2,0.5,0.4,1,0.6,1.5c0.2,0.2,0.4,0.5,0.6,0.7c0.6,0.6,1.5,0.6,2.1,0.1c0.4-0.2,0.7-0.5,1-0.8
						c0.4-0.4,0.8-0.9,1.2-1.3c2.2-2.8,4.2-5.7,6-8.8c2-3.2,3.8-6.5,5.6-9.7c0.1-0.2,0.1-0.2,0.2-0.5c2.2-0.7,4.3-1.7,6.2-2.9
						 M1752.6,115.8c1.8-1.4,3.5-3,5-4.7c2.7-2.9,4.8-6.2,6.3-9.8c0.1-0.5,0.6-0.9,1.1-1c0.5-0.1,1-0.2,1.4-0.4
						c1.9-0.7,3.7-1.7,5.4-2.9c2-1.6,3.6-3.6,4.8-5.8l0,0c-1.2,2.3-2.8,4.3-4.8,5.9l0,0c1.9,0.6,3.9,0.2,5.4-0.9
						c1.6-1,3.2-2.1,4.8-3.1c0.3-0.2,0.3-0.2,0.1-0.5l-3.7-4.5c0.6-1,1.4-1.8,2-2.7c0.1-0.2,0.2-0.3,0-0.4l-4.6-5.8l-0.1-0.1
						c-0.2-0.1-0.2-0.2-0.3-0.1l-1.6,0.9c-0.1,0.1-0.3,0.1-0.4,0c0,0,0-0.1-0.1-0.1c-0.5-0.7-0.9-1.4-1.5-2.1
						c-1.8-2.4-3.8-4.7-5.9-6.8c-0.3-0.3-0.5-0.5-0.1-1s0.6-1,0.9-1.4c0.1-0.2,0.1-0.4,0-0.5c-1.3-1.6-2.6-3.2-3.9-4.8
						c-0.1-0.2-0.3-0.3-0.5-0.2c0,0,0,0-0.1,0c-0.9,0.5-1.9,1-2.9,1.6c-1.2,0.7-2.4,1.4-3.7,2"/>
					<path class="st13" d="M1708,101.8c1.7-1.2,3.6-2.2,5.5-3c3.8-1.7,7.7-3.2,11.7-4.6l0.3-0.1c0,0.1-0.1,0.2-0.1,0.3
						c-1.4,2.8-2.4,5.8-3.1,8.8c-0.3,1.3-0.4,2.5-0.4,3.8c0,0.2,0,0.3-0.2,0.3c-4.3,0.3-8.5-0.4-12.5-2c-0.7-0.3-1.3-0.7-1.8-1.2
						C1706.7,103.5,1706.9,102.6,1708,101.8z"/>
					<path class="st14" d="M1771.8,96.9c2-1.6,3.6-3.6,4.8-5.9c0.2-0.4,0.4-0.9,0.4-1.3c0.2-0.9,0.5-1.7,1.1-2.4l4.1,5.1
						c0.2,0.2,0.2,0.3-0.1,0.5c-1.6,1-3.2,2.1-4.8,3.1C1775.7,97.2,1773.7,97.5,1771.8,96.9C1771.8,97,1771.8,97,1771.8,96.9z"/>
					<path class="st15" d="M1776.5,90.1c0-1,1.2-2,1.6-2.8l4.1,5.1c0.2,0.2,0.2,0.3-0.1,0.5c-1.6,1-1.8,1.1-1.8,1.1
						C1779.5,94.6,1776.5,90.8,1776.5,90.1z"/>
					<path class="st14" d="M1759.3,64.5c-1.2,0.8-2.5,1.4-3.7,2c-2.1,1.1-4,2.4-5.8,4.1c-0.6-1.7-0.2-3.6,1-5c1-1.3,2.3-2.4,3.4-3.6
						c0.4-0.5,0.9-0.9,1.3-1.3c0.3-0.3,0.3-0.2,0.6,0C1757.2,61.9,1758.2,63.2,1759.3,64.5z"/>
					<path class="st13" d="M1733.9,134.6c-1.2,1-2.1,1-2.6,0.2c-0.4-0.7-0.7-1.4-0.9-2.1c-0.4-1.9-0.5-3.8-0.5-5.7
						c0-2.3,0.3-4.5,0.9-6.7c0.1-0.3,0.2-0.4,0.5-0.3c3.3,0.6,6.7,0.6,9.9-0.2c1.1-0.2,2.2-0.5,3.3-0.8h0.2c0,0.1,0,0.1-0.1,0.2
						c-1.4,2.2-2.7,4.5-4.2,6.7c-1.6,2.5-3.3,4.9-5.2,7.2C1734.9,133.6,1734.3,134.2,1733.9,134.6z"/>
					<path class="st16" d="M1739.1,112.8c-0.3,0.3-0.8,0.4-1.2,0.5c-0.7,0.2-1.4-0.1-1.6-0.8c-0.1-0.3-0.1-0.7,0.1-1
						c0.4-1,1.2-1.7,2.2-1.9c0.6-0.3,1.4-0.1,1.7,0.5c0.2,0.6,0.1,1.4-0.3,1.9c-0.1,0.1-0.2,0.3-0.3,0.4S1739.3,112.6,1739.1,112.8z
						"/>
					<path class="st16" d="M1730.1,100.6c0.4-0.3,0.9-0.4,1.4-0.5c0.7-0.1,1.3,0.4,1.4,1.1c0,0.1,0,0.3,0,0.4
						c-0.3,1.4-1.5,2.3-2.9,2.4c-0.5,0-0.9-0.2-1.1-0.6c-0.2-0.5-0.2-1.1,0.2-1.6c0.2-0.2,0.3-0.5,0.5-0.7L1730.1,100.6z"/>
					<path class="st12" d="M1752.6,115.7l-2.7-11.1c-0.1-0.6-0.3-1.1-0.4-1.7c0-0.1,0-0.1-0.1-0.2l-0.1,0.2c-1,3.7-4.5,6.1-8.3,5.7
						c-0.5,0-1-0.1-1.5-0.3c-0.8-0.4-1.4,0.2-2,0.5c-2.4,1.3-4.7,2.7-6.9,4.2c-1.3,0.9-2.8,2-4,2.8c-0.1,0.1-0.2,0.1-0.3,0
						c0,0,0,0,0,0c-0.5-0.4-1-1-1.4-1.5c-0.5-0.7-0.2-1,0.8-1.9c1.4-1.4,2.8-3,4.1-4.5c1.5-1.8,3-3.6,4.6-5.4
						c0.1-0.1,0.1-0.2,0.1-0.4c-0.5-2.9,0.8-5.9,3.3-7.5c1.3-0.9,2.9-1.4,4.5-1.3c0.1,0,0.3,0.1,0.4-0.1s-0.1-0.3-0.3-0.3l-11.1-6.4
						c-0.1,0-0.3-0.3-0.4-0.3c0.7-0.7,1.4-1.4,2.1-2.1c3.5-3,7.6-5.2,12-6.5c0.5-0.2,0.8-0.5,0.9-1c0.9-2.3,2.3-4.3,4.1-6
						c1.7-1.6,3.6-3,5.8-4.1c1.3-0.6,2.5-1.3,3.7-2c0.8-0.5,1.6-1,2.3-1.7c0.4-0.1,0.8,0,1.1,0.2c1.3,1.6,2.6,3.2,3.9,4.8
						c0.1,0.2,0.1,0.4,0,0.5c-0.3,0.5-0.5,1-0.9,1.4s-0.2,0.7,0.1,1c2.1,2.2,4.1,4.5,5.9,6.8c0.5,0.7,1,1.4,1.5,2.1
						c0.1,0.1,0.2,0.2,0.4,0.1c0,0,0.1,0,0.1-0.1l1.6-0.9c0.1-0.1,0.2,0,0.3,0.1c0,0,0.1,0,0.1,0.1l4.7,5.7c0.1,0.2,0.1,0.3,0,0.4
						c-0.6,1-1.4,1.8-2,2.8c-0.4,0.8-1.7,2.8-1.9,3.2c-1.1,2.3-2.8,4.3-4.8,5.8c-1.6,1.2-3.4,2.2-5.4,2.9c-0.5,0.2-0.9,0.3-1.4,0.4
						c-0.6,0.1-1,0.5-1.1,1c-1.5,3.6-3.6,6.9-6.3,9.8C1756.1,112.8,1754.4,114.3,1752.6,115.7z M1743.4,93.7
						C1743.4,93.7,1743.4,93.8,1743.4,93.7l5.3,6.6c0.1,0.1,0.1,0.1,0.1,0s0-0.2,0-0.4c0-1.5-0.3-2.9-1.1-4.2
						c-0.1-0.3-0.3-0.6-0.6-0.8C1746.1,94,1744.7,93.6,1743.4,93.7L1743.4,93.7z M1739.8,101.4c0.2,0.4,0.4,0.7,0.8,0.9
						c0.4,0.4,0.8,0.7,1.3,0.9c1.1,0.6,2.4,0.3,3.1-0.8c0.3-0.5,0.4-1,0.3-1.5c-0.2-1.6-1.3-3-2.8-3.6c-1.9-0.6-3.3,0.3-3.2,2.3
						C1739.2,100.2,1739.4,100.8,1739.8,101.4L1739.8,101.4z"/>
					<path class="st14" d="M1749.7,103.8c0.1,0.3,0.1,0.5,0.2,0.8l2.7,11.1c-1.9,1.2-4,2.2-6.2,2.9c-0.1,0.2-0.2,0.3-0.2,0.5
						c-1.8,3.3-3.7,6.5-5.6,9.7c-1.8,3.1-3.8,6-6,8.8c-0.4,0.4-0.8,0.9-1.2,1.3c-0.3,0.3-0.6,0.6-1,0.8c-0.6,0.5-1.5,0.5-2.1-0.1
						c-0.2-0.2-0.4-0.4-0.6-0.7c-0.3-0.5-0.5-1-0.6-1.5c-0.7-2.1-1.1-4.4-1.2-6.6c-0.3-3.7,0-7.5,0.9-11.1c0.1-0.2,0-0.3-0.2-0.4
						c-1.4-0.6-2.6-1.5-3.6-2.7c-1.7-2-2.8-4.4-3.2-7.1c0-0.2-0.1-0.2-0.3-0.2c-1.5,0.1-3,0.1-4.4-0.1c-3.1-0.3-6.1-1-9-1.9
						c-1.7-0.5-3.4-1.3-4.8-2.4c-1.2-0.9-1.6-2-0.8-2.9c0.4-0.4,0.8-0.7,1.2-0.9c0.5-0.3,2.3-1.3,3.6-1.9c4.1-1.9,8.3-3.5,12.6-4.9
						c1.9-0.6,4-1,5.9-1.6c0.2-0.1,0.3-0.1,0.5-0.1c0,0,1.2-2.1,1.9-3.3c0.7-1.2,1.5-2.3,2.4-3.4l0.4,0.3l9.8,5.6
						c-1.6,0.6-3.2,1.5-4.4,2.7c-1.7,1.9-2.3,4.7-1.4,7.1c0,0.1,0,0.3-0.1,0.4c-1.5,1.8-3.7,3.8-5.2,5.6c-1.3,1.5-2.6,3.1-4.1,4.5
						c-0.9,0.9-1,1-0.5,1.7c0.4,0.6,0.8,1.1,1.4,1.5c0.1,0.1,0.2,0.1,0.3,0c1.3-0.9,2.5-1.8,3.8-2.6c2.2-1.6,4.5-3,6.9-4.2
						c0.6-0.3,1.8-1.3,2.7-0.9c0.5,0.2,1,0.3,1.5,0.3C1746.5,109.2,1749.7,103.8,1749.7,103.8 M1739.7,112.3
						c0.1-0.1,0.2-0.2,0.3-0.4c0.4-0.5,0.5-1.2,0.3-1.9c-0.4-0.5-1.1-0.8-1.7-0.5c-1,0.2-1.8,1-2.1,1.9c-0.3,0.6-0.1,1.4,0.5,1.7
						c0.3,0.2,0.6,0.2,1,0.1c0.4,0,0.8-0.2,1.2-0.5C1739.3,112.6,1739.5,112.4,1739.7,112.3L1739.7,112.3z M1729.6,101.1
						c-0.2,0.2-0.4,0.5-0.5,0.7c-0.3,0.5-0.4,1.1-0.2,1.6c0.2,0.4,0.6,0.6,1.1,0.6c1.4,0,2.5-1,2.9-2.3c0.2-0.6-0.2-1.3-0.8-1.5
						c0,0,0,0,0,0c-0.1,0-0.3,0-0.4,0c-0.5,0-1,0.2-1.4,0.5C1729.9,100.8,1729.7,100.9,1729.6,101.1L1729.6,101.1z M1708.3,101.8
						c-1.1,0.9-1.2,1.7-0.6,2.3c0.5,0.5,1.1,0.9,1.8,1.2c3.9,1.6,8,2.2,12.2,2c0.2,0,0.2-0.1,0.2-0.3c0-1.3,0.2-2.5,0.4-3.8
						c0.6-3,1.6-5.9,3-8.6c0-0.1,0.1-0.2,0.1-0.3l-0.3,0.1c-3.9,1.4-7.7,2.8-11.4,4.5C1711.7,99.7,1709.9,100.6,1708.3,101.8
						L1708.3,101.8z M1733.9,134.3c0.3-0.3,0.9-0.9,1.4-1.5c1.8-2.2,3.5-4.5,5-6.9c1.4-2.1,2.7-4.3,4-6.4c0-0.1,0.1-0.1,0.1-0.2
						h-0.2c-1.1,0.2-2.1,0.5-3.2,0.8c-3.1,0.7-6.4,0.8-9.5,0.2c-0.3-0.1-0.4,0-0.5,0.3c-0.5,2.1-0.8,4.3-0.8,6.5
						c-0.1,1.8,0.1,3.7,0.4,5.5c0.2,0.7,0.4,1.4,0.8,2C1731.8,135.3,1732.7,135.2,1733.9,134.3L1733.9,134.3z"/>
					<path class="st17" d="M1739.8,101.4c-0.3-0.6-0.6-1.2-0.6-1.8c-0.1-1.9,1.3-2.9,3.2-2.3c1.5,0.6,2.6,2,2.8,3.6
						c0.2,1.2-0.6,2.4-1.8,2.6c-0.5,0.1-1.1,0-1.5-0.3c-0.5-0.2-0.9-0.5-1.3-0.9L1739.8,101.4z"/>
					<path class="st16" d="M1747.7,95.7c0.8,1.3,1.1,2.7,1.1,4.2c0,0.1,0,0.2,0,0.4c-0.1,0-0.1-0.1-0.2-0.1l-5.3-6.4
						c1.4-0.2,2.7,0.3,3.7,1.2L1747.7,95.7z"/>
					<path class="st18" d="M1739.8,101.4l0.8,0.9C1740.2,102.1,1739.9,101.8,1739.8,101.4z"/>
					<path class="st16" d="M1730.1,100.6c0.4-0.3,0.9-0.4,1.4-0.5c0.7-0.1,1.3,0.4,1.4,1.1c0,0.1,0,0.3,0,0.4
						c-0.3,1.4-1.5,2.3-2.9,2.4c-0.5,0-0.9-0.2-1.1-0.6c-0.2-0.5-0.2-1.1,0.2-1.6c0.2-0.2,0.3-0.5,0.5-0.7L1730.1,100.6z"/>
					<path class="st19" d="M1730.7,86.1c2.2,1.5,10.1,6,10.1,6s3.8-2.6,8.1,2.6c4.4,5.4,0.8,9.2,0.8,9.2c0.6,3.3,2.1,8.8,2.9,11.9
						c5.1-3.8,9-9,11.4-14.9c0.9-2.6,1.4-2,5.4-6.4c2.6-2.8,4.9-6.9,6.7-10c-0.6-0.8-2.9-3.3-2.5-4.5c-3.4,2-6.1,4-6.8,4.4
						c-1.6-3.2-3.8-6-6.7-8.1c3.8-4.1,4.7-5,5.5-6.2c-1,0.8-2.8-1.2-3.6-2.1c-2.9,2-5.9,3.7-9,5.3c-6.4,2.7-6.1,3.8-8,4.2
						C1739.5,78.9,1734.5,81.9,1730.7,86.1z"/>
					<path class="st20" d="M1702.1,103c0,0,0.2-2.2,11.3-6.2s13.1-4,13.1-4c-2.3,3.5-3.8,7.4-4.4,11.5
						C1715.4,105.9,1708.4,105.4,1702.1,103z"/>
					<path class="st20" d="M1731.3,140.1c0,0,1.6,1,8.3-9.7c6.1-9.9,6.7-11.8,6.7-11.8c-3.9,1.5-8.1,2.2-12.2,2.1
						C1731.2,126.7,1730.2,133.4,1731.3,140.1z"/>
					<path class="st21" d="M1765.6,70.1c3.2,2.4,7.9,9.8,7.9,9.8c-4.2,2.8-6.8,4.4-6.8,4.4c-2.6-4.3-3.4-5.3-6.7-8.1
						C1760.1,76.2,1762.8,73.1,1765.6,70.1z"/>
					<path class="st15" d="M1754.5,61.8c0.4-0.5,0.7-0.7,1.1-1.2c0.3-0.3,0.3-0.2,0.6,0c1,1.3,2.1,2.5,3.1,3.8
						c-1.3,0.8-1.5,0.9-2.7,1.5C1755.4,64.5,1753.5,62.6,1754.5,61.8z"/>
				</g>
			</g>
		</g>
	</g>
</g>
</svg>
