<svg xmlns="http://www.w3.org/2000/svg" width="83.91mm" height="63.03mm" viewBox="0 0 237.85 178.66"><title>artwork--palace-2</title><g id="bb5a84be-60fe-41d7-8c8b-7d58308f6b7c" data-name="Layer 2"><g id="e7c219a8-95c6-4582-9b09-9e186f29e64f" data-name="Layer 1"><path d="M108.18,157C43.6,157.75,0,175.21,0,175.21V132.36s-2,4.66,79.41,8.9c77.54,4,85.19,0,119.59,1.29a1.55,1.55,0,0,1,.64,2.93C187.79,151.42,158.73,156.42,108.18,157Z" style="fill:#8abc8a"/><g id="fd9677d9-1df4-495a-bf54-74fb8e778113" data-name="Corgi"><ellipse cx="96.99" cy="145.88" rx="19.31" ry="3.56" style="fill:#010101;opacity:0.13"/><g id="aa2a2c41-b9eb-4e53-85c9-2c5651fa2402" data-name="b3fff5ae-8c55-48a5-912e-80df78536539"><g id="a502d941-6542-436d-8066-25249eca50a4" data-name="a09452f0-8f17-4e0d-94ae-2cd335ac0935"><path d="M91.91,122.71h0m16.84,19.38a28.72,28.72,0,0,0-.56,2.91c1.15,0,2.3,0,3.45,0,.26,0,.33,0,.28-.29-.09-.43-.1-.87-.15-1.3-.15-1.15-.18-2.31-.44-3.44a3.6,3.6,0,0,0-2.23-2.78v0a12,12,0,0,0-1.42-4.86,1,1,0,0,1-.12-.92,22.53,22.53,0,0,0,1.79-9.34,14,14,0,0,0-.16-2.05h0a18.39,18.39,0,0,0-.78-2.78c-.3-.9-.9-2.5-.9-2.5a.75.75,0,0,0,.19-.31c.5-1.29,1.25-2.58,1.76-3.88a86.71,86.71,0,0,0,3-9c.23-.91.48-2.34.54-2.77a3.79,3.79,0,0,0,0-1.06c-.06-.83-.86-1.08-1.89-.85a11.21,11.21,0,0,0-3.45,1.56,28.39,28.39,0,0,0-5.06,4,15.06,15.06,0,0,0-2,2.37c-.08.11-.13.12-.25,0a9.1,9.1,0,0,0-5.22-1.42,7.52,7.52,0,0,0-3,.75c-.11,0-.2.09-.29,0a23.63,23.63,0,0,0-5.6-5.42,16.79,16.79,0,0,0-4.1-2.32A5.93,5.93,0,0,0,81.09,96a3.75,3.75,0,0,0-.62,0,1.1,1.1,0,0,0-1,1.08,4,4,0,0,0,0,.91c.07.4.12.8.2,1.2a53.35,53.35,0,0,0,2.07,7.13c.86,2.48,1.8,4.92,2.78,7.35a3.11,3.11,0,0,0,.16.34,18.43,18.43,0,0,0-1.2,4.64m0,0a27.13,27.13,0,0,0,.31,4.76,23,23,0,0,0,2.53,7.73.94.94,0,0,1,0,1,5.63,5.63,0,0,0-.4,1,14.56,14.56,0,0,0-.82,4.17,12.26,12.26,0,0,0,1,5.17h0a12.14,12.14,0,0,1-1.05-5.18s0,0,0,0a4.25,4.25,0,0,0-1.91,3.34c-.17,1.34-.3,2.68-.46,4,0,.24,0,.28.23.28H87c.28.75.34,1.51.61,2.27,0,.12.08.2.23.2H93l.07,0c.12,0,.19-.05.19-.15.07-.43.15-.85.22-1.27,0-.14.08-.21.24-.2.6.05,1.2.13,1.8.13a60.43,60.43,0,0,0,6.31-.17c.29,0,.49,0,.58.35a11.42,11.42,0,0,0,.39,1.12.28.28,0,0,0,.31.22h4.33c.22,0,.28-.08.31-.27.14-.74.29-1.49.43-2.23a29.27,29.27,0,0,1,.56-2.91" style="fill:#f7f1e7"/><path d="M110.8,100.77A22.63,22.63,0,0,1,110,105c-.76,2.83-1.69,5.6-2.68,8.36a.66.66,0,0,1-.09.19,1.74,1.74,0,0,1-.11-.18,25.61,25.61,0,0,0-3.41-5.57,14.9,14.9,0,0,0-1.87-1.94c-.09-.07-.13-.14,0-.24a20,20,0,0,1,6.61-5.83,4,4,0,0,1,1.44-.45C110.42,99.31,110.8,99.79,110.8,100.77Z" style="fill:#f4eee1"/><path d="M85.13,137.35a12.21,12.21,0,0,0,1.05,5.19,2.12,2.12,0,0,0,.53.8,3.67,3.67,0,0,1,.8,1.66H83c-.23,0-.27,0-.23-.28.16-1.33.29-2.67.46-4a4.25,4.25,0,0,1,1.91-3.34S85.11,137.35,85.13,137.35Z" style="fill:#e2cfa9"/><path d="M86.72,142.9c.51.44.56,1.52.79,2.1H83c-.23,0-.27,0-.23-.28.16-1.33.17-1.46.17-1.46C83,142.57,86.36,142.6,86.72,142.9Z" style="fill:#d3bf9c"/><path d="M108.2,145a28.72,28.72,0,0,1,.56-2.91,17.17,17.17,0,0,0,.35-4.9,3.6,3.6,0,0,1,2.23,2.78c.26,1.13.29,2.29.44,3.44,0,.43.06.87.15,1.3,0,.28,0,.29-.28.29C110.5,145,109.35,145,108.2,145Z" style="fill:#e2cfa9"/><path d="M81.58,100.24c0-1.11.4-1.6,1-1.52a4.63,4.63,0,0,1,1.53.48,16.5,16.5,0,0,1,3.28,2.29,20.83,20.83,0,0,1,3.25,3.45c.13.18.13.27,0,.41a16.7,16.7,0,0,0-4.3,5.43c-.37.72-.7,1.44-1,2.16l-.07.13a.54.54,0,0,1-.07-.13c-.59-1.74-1.2-3.47-1.76-5.21a47.6,47.6,0,0,1-1.59-6C81.68,101.16,81.62,100.58,81.58,100.24Z" style="fill:#f4eee1"/><path d="M91.05,112.68a1.71,1.71,0,0,1,.27-.85.88.88,0,0,1,1.64,0,2.21,2.21,0,0,1,.09,2,1,1,0,0,1-1,.7,1.37,1.37,0,0,1-.91-1c0-.12,0-.24-.06-.36S91.05,112.86,91.05,112.68Z" style="fill:#604920"/><path d="M101.63,113.21a2.17,2.17,0,0,1-.37,1,.86.86,0,0,1-1.19.25.87.87,0,0,1-.22-.21,2.21,2.21,0,0,1,0-2.64.83.83,0,0,1,.82-.31,1.12,1.12,0,0,1,.79.79,3.2,3.2,0,0,1,.15.61Z" style="fill:#604920"/><path d="M83.49,118.69l7.18,3.45,1.11.53.14,0-.06-.12a5.36,5.36,0,0,1,.63-7,3.46,3.46,0,0,1,.84-.64c.59-.28.52-.85.63-1.32a44.44,44.44,0,0,0,.79-5.62c.09-1.07.17-2.37.25-3.45,0-.1,0-.14.14-.17a4.35,4.35,0,0,1,1.44-.06c.6.06.62.33.71,1.25.13,1.41.37,2.8.61,4.18.28,1.62.6,3.24.89,4.86a.3.3,0,0,0,.15.23,5.24,5.24,0,0,1,2.61,5.11,4.94,4.94,0,0,1-1.28,3c-.07.07-.21.14-.12.26s.2,0,.3,0l8.4-3.16a2,2,0,0,1,.35-.06,12.94,12.94,0,0,1,.16,2.07,22.53,22.53,0,0,1-1.79,9.34,1,1,0,0,0,.12.92,12,12,0,0,1,1.42,4.86,17.17,17.17,0,0,1-.35,4.9,29.27,29.27,0,0,0-.56,2.91,11,11,0,0,0-.13,2,.86.86,0,0,1-.61.53h-4.33a.28.28,0,0,1-.31-.22,11.42,11.42,0,0,1-.39-1.12c-.09-.38-.29-.38-.58-.35a60.43,60.43,0,0,1-6.31.17c-.6,0-1.2-.08-1.8-.13-.16,0-.23.06-.24.2-.07.42-.15.84-.22,1.27,0,.1-.08.1-.18.15l-.09,0H87.88c-.15,0-.19-.08-.23-.2-.27-.77-.33-1.53-.61-2.29-.21-.58-.75-2.16-.87-2.46a12.26,12.26,0,0,1-1-5.17,14.56,14.56,0,0,1,.82-4.17,5.63,5.63,0,0,1,.4-1,.94.94,0,0,0,0-1,23,23,0,0,1-2.53-7.73A27.13,27.13,0,0,1,83.49,118.69Zm16,4.74s0,0-.06,0H93.53c-.09,0-.12,0,0,.09l.19.16a5.52,5.52,0,0,0,2.75,1.26,1.13,1.13,0,0,0,.68,0A3.19,3.19,0,0,0,99.45,123.43Zm-2.55-5.35a1.63,1.63,0,0,0-.82,0,2.66,2.66,0,0,0-1,.3,1.56,1.56,0,0,0-.23,2.83,3.08,3.08,0,0,0,3.17.1,1.55,1.55,0,0,0,.19-2.75A2.81,2.81,0,0,0,96.9,118.08Z" style="fill:#f7f1e7"/><path d="M91.19,122.39l-.52-.25-7.18-3.45a18.43,18.43,0,0,1,1.2-4.64,3.11,3.11,0,0,1-.16-.34c-1-2.43-1.92-4.87-2.78-7.35a53.35,53.35,0,0,1-2.07-7.13c-.08-.4-.13-.8-.2-1.2a4,4,0,0,1,0-.91,1.1,1.1,0,0,1,1-1.08,3.75,3.75,0,0,1,.62,0,5.93,5.93,0,0,1,1.07.31,16.79,16.79,0,0,1,4.1,2.32,23.63,23.63,0,0,1,5.6,5.42c.09.14.18.1.29,0a7.52,7.52,0,0,1,3-.75,9.1,9.1,0,0,1,5.22,1.42c.12.07.17.06.25,0a15.06,15.06,0,0,1,2-2.37,28.39,28.39,0,0,1,5.06-4,11.21,11.21,0,0,1,3.45-1.56c1-.23,1.83,0,1.89.85a3.79,3.79,0,0,1,0,1.06c-.06.43-.31,1.86-.54,2.77a86.71,86.71,0,0,1-3,9c-.51,1.3-1.26,2.59-1.76,3.88a.75.75,0,0,1-.19.31s.6,1.6.9,2.5a18.39,18.39,0,0,1,.78,2.78l-.35.06-7.36,2.77a8.93,8.93,0,0,0,.47-3.6,5,5,0,0,0-3.2-3.93.27.27,0,0,1-.15-.23c-.29-1.6-.43-3.69-.71-5.31-.24-1.38-.48-2.78-.61-4.18-.09-.92-.11-1-.71-1a4.64,4.64,0,0,0-1.44.07c-.11,0-.13.07-.14.17-.08,1.07-.16,2.14-.25,3.21a44.19,44.19,0,0,1-.79,5.62c-.11.48-.12,1.56-.71,1.84a3.23,3.23,0,0,0-.83.64c-2.73,2.16-1.23,6.3-1.23,6.3m-.11-9.18c0,.12,0,.23,0,.35a1.35,1.35,0,0,0,.89,1,1,1,0,0,0,1-.68,2.17,2.17,0,0,0-.08-2,.87.87,0,0,0-1.61,0,1.66,1.66,0,0,0-.26.84A4.3,4.3,0,0,0,91.08,113.21Zm10.53-.52q-.06-.3-.15-.6a1.09,1.09,0,0,0-.77-.76.78.78,0,0,0-.8.3,2.15,2.15,0,0,0,0,2.57.84.84,0,0,0,1.17.19.88.88,0,0,0,.21-.22,2.12,2.12,0,0,0,.37-1.48Zm9.08-11.79c0-1-.37-1.43-1-1.36a4.14,4.14,0,0,0-1.41.44,19.6,19.6,0,0,0-6.45,5.7c-.07.1,0,.16,0,.23a15,15,0,0,1,1.84,1.9,25.35,25.35,0,0,1,3.33,5.45,1.74,1.74,0,0,0,.11.18l.09-.19c1-2.69,1.87-5.41,2.62-8.17A20.86,20.86,0,0,0,110.69,100.9Zm-28.91-.59c0,.32.09.88.19,1.43a48.21,48.21,0,0,0,1.52,5.75c.54,1.67,1.13,3.33,1.69,5a.54.54,0,0,0,.07.13.83.83,0,0,1,.07-.13c.33-.69.64-1.39,1-2.06a15.59,15.59,0,0,1,4.12-5.21c.17-.13.16-.23,0-.39a19.91,19.91,0,0,0-3.11-3.31,15.25,15.25,0,0,0-3.16-2.19,4.2,4.2,0,0,0-1.47-.46C82.15,98.78,81.78,99.26,81.78,100.31Z" style="fill:#e2cfa9"/><path d="M96.9,118.08a3,3,0,0,1,1.28.47,1.55,1.55,0,0,1-.19,2.76,3.11,3.11,0,0,1-3.17-.1,1.56,1.56,0,0,1,.23-2.83,2.5,2.5,0,0,1,1-.3Z" style="fill:#5f491f"/><path d="M96.43,124.9a5.42,5.42,0,0,1-2.74-1.27l-.2-.16.14,0h5.81a3.2,3.2,0,0,1-2.32,1.46Z" style="fill:#604920"/><path d="M96.9,118.08h-.82A1.63,1.63,0,0,1,96.9,118.08Z" style="fill:#b18e44"/><path d="M101.63,113.21a2.17,2.17,0,0,1-.37,1,.86.86,0,0,1-1.19.25.87.87,0,0,1-.22-.21,2.21,2.21,0,0,1,0-2.64.83.83,0,0,1,.82-.31,1.12,1.12,0,0,1,.79.79,3.2,3.2,0,0,1,.15.61Z" style="fill:#604920"/><path d="M109.2,120c-1.79.52-7.71,2.83-7.71,2.83s-.3,3.24-5,3.24c-4.86,0-5.3-3.67-5.3-3.67-2.06-1.15-5.69-2.79-7.7-3.7a24.27,24.27,0,0,0,3,12.75c1,1.64.41,1.64,1,5.75a42.84,42.84,0,0,0,2.48,8c.7,0,3.06-.15,3.56.66.4-2.72.54-5.1.61-5.65a16,16,0,0,0,7.33,0c.53,3.88.64,4.77.87,5.72,0-.88,1.9-1,2.74-1a51.13,51.13,0,0,1,1.16-7.21c1.36-4.65.67-5,1.26-6.17A20.24,20.24,0,0,0,109.2,120Z" style="fill:#efebe4"/><path d="M112.77,97s1.11,1-1.63,8.84-3.62,8.83-3.62,8.83a19.19,19.19,0,0,0-4.28-7.5A23.7,23.7,0,0,1,112.77,97Z" style="fill:#010101;opacity:0.05"/><path d="M79.77,96.39s-1.29.43,1.57,8.78c2.63,7.7,3.39,8.84,3.39,8.84A21.11,21.11,0,0,1,89,106.48,22.72,22.72,0,0,0,79.77,96.39Z" style="fill:#010101;opacity:0.05"/><path d="M102.36,146c-2.71.64-8.81-.07-8.81-.07.34-3.56.61-5.65.61-5.65a17.21,17.21,0,0,0,7.33,0S102,143.07,102.36,146Z" style="fill:#ddd7cf"/><path d="M111.8,143.6a10.49,10.49,0,0,0,.13,1.11c0,.28,0,.29-.28.29-1.15,0-2.3,0-3.45,0,.15-1,.18-1.18.38-2.12C109.9,142.91,111.78,142.69,111.8,143.6Z" style="fill:#d3bf9c"/></g></g></g><rect x="0.22" width="237.63" height="178.66" style="fill:none"/></g></g></svg>