<svg xmlns="http://www.w3.org/2000/svg" width="74.41mm" height="55.94mm" viewBox="0 0 210.91 158.57"><title>artwork-palace</title><g id="fb20702f-fcf4-45bb-a329-3be55a98120a" data-name="Layer 2"><g id="aa6f4dcc-02b7-400d-b13a-f9d279c3ec3e" data-name="Layer 1"><path d="M14.27,136.39c15,10.35,29.35,8.39,52.05,10.06,48.33,3.56,70.53,10.56,94.92,5.42s53.44-26.33,45-28.95c-22.73-7.09-181.37-5.75-192-3S7.54,131.74,14.27,136.39Z" style="fill:#8abc8a"/><ellipse cx="104.01" cy="123.34" rx="76.65" ry="3.95" style="fill:#010101;opacity:0.13"/><g id="ab2a603b-a351-4c98-ada1-5b0cebbe35d2" data-name="Palace"><path d="M68,122.86l-16,.06c0-2.11-.08-4.22,0-6.32.12-1.9-.57-2.58-2.51-2.55-6.15.08-12.31,0-18.46,0L31,112l21-.07c.76.7,1.49,2,2.27,2,3,.11,6-.28,8.94-.31q10.35-.09,20.7,0a22.14,22.14,0,0,1,3.48.57c-.4,2.92-2.08,5.84,0,8.76l-9,.24-5.35-.29a23,23,0,0,0-.14-5.2c-.24-1-1.57-2.26-2.41-2.26s-2.17,1.31-2.41,2.26A23,23,0,0,0,68,122.86Zm-6.3-3.7L59.52,117c-.47.77-1.23,1.51-1.29,2.31-.06.62.76,1.3,1.2,2ZM67,119l-1.74-2c-.52.71-1.45,1.43-1.44,2.13s1,1.39,1.5,2.09Zm16.54.29L82,117c-.41.65-1.12,1.29-1.15,2s.57,1.47.9,2.21ZM78,119.19,76.39,117c-.38.68-1.06,1.35-1.08,2s.62,1.43,1,2.14ZM55.35,119l-1.7-2c-.35.71-1,1.43-1,2.14s.69,1.35,1.08,2Z" style="fill:#bdbdbd"/><path d="M29.94,85.27c2.82-4,7.79-2.93,11.52-4.8.53-.26,1.54.4,2.3.7a33.42,33.42,0,0,0,12.69,2.58c10.29-.09,20.58,0,30.87,0l.12,1.55c-4.38.21-8.75.58-13.13.58-7.41,0-14.82-.22-22.23-.35Z" style="fill:#bdbdbd"/><path d="M31.09,114.05c6.15,0,12.31.08,18.46,0,1.94,0,2.63.65,2.51,2.55-.12,2.1,0,4.21,0,6.32l-8.75,0v-7.48H39.33v7.52l-8.35,0C31,120,31.05,117,31.09,114.05Zm2.75,6.37c.82.28,1.64.83,2.26.65.47-.13,1-1.19.94-1.81s-.73-1.15-1.13-1.72Zm15.47-2.16c-.85-.26-1.68-.8-2.31-.62-.48.13-1,1.19-1,1.81s.72,1.15,1.12,1.73Z" style="fill:#dcdddc"/><path d="M31,109.12q0-10.19.05-20.36l3.43.43c0,1.67,0,3.34-.07,5,0,2.26-.13,4.52,0,6.77s.36,4.78.55,7.16Z" style="fill:#dcdddc"/><path d="M31,109.12l3.91-1,2.69,1,2.81-1,2.71,1,2.32,0,3.14-.05c1.63.15,3.77-.44,3.52,2.43a1.64,1.64,0,0,1-.1.38L31,112C31,111,31,110.06,31,109.12Z" style="fill:#e9e9e9"/><path d="M31.1,88.17c-.05-.71-.11-1.42-.16-2.13L52,86a4.26,4.26,0,0,0,.06.5C52,89,50,87.86,48.72,88.17Z" style="fill:#a6a3a3"/><path d="M87.44,85.28l-.12-1.55a9.07,9.07,0,0,0,.06-1.87c-.35-2,.33-3.2,2.27-3.7l3.64.72a1.64,1.64,0,0,0,.14.39l6.09.67c-2.39,1.11-4.81,2.15-7.15,3.36a13.13,13.13,0,0,0-2.25,1.88l-2.77.27Z" style="fill:#dcdddc"/><path d="M52,86,30.94,86l-1-.77,22.14.24A2.32,2.32,0,0,1,52,86Z" style="fill:#888"/><path d="M31.1,88.17H48.72l0,.58.06.07-3.41.45-2.51-.33-3.19-.07-2.46.4-2.74-.08-3.43-.43Z" style="fill:#888"/><path d="M93.43,79.27a1.64,1.64,0,0,1-.14-.39l2.41-.7,2.68.52.25.34Z" style="fill:#b3b2b2"/><path d="M99.07,78.29l-.15.54a.39.39,0,0,1-.28.22l-.26-.35Z" style="fill:#b3b2b2"/><path d="M117.27,83.72c10.39,0,20.78.27,31.15-.12,4.25-.17,8.44-1.81,12.68-2.65a9.67,9.67,0,0,1,3.79,0,30.91,30.91,0,0,1,6,1.81,23.28,23.28,0,0,1,3.78,2.56l-22.15.24-35.32,0,0-.34Z" style="fill:#bdbdbd"/><path d="M173.48,88.75q0,10.19.1,20.37l-3.41,0,0-15.46-.36-4.37Z" style="fill:#dcdddc"/><path d="M173.59,122.91l-8.33,0c0-2-.19-4,0-6,.12-1.45-.5-1.73-1.66-1.72.9-.53,1.77-1.49,2.69-1.53,2.39-.1,4.8.21,7.2.35Zm-2.76-2.45c-1.31-1.77-1.74-2.34-2.16-2.92-.4.58-1.09,1.14-1.11,1.73s.47,1.67.95,1.8C169.14,121.25,170,120.72,170.83,120.46Z" style="fill:#dcdddc"/><path d="M173.66,86.05c-.07.7-.13,1.41-.19,2.12-3.83,0-7.66-.07-11.49,0a12.11,12.11,0,0,0-2.77.7c0,1.59-.07,3.19-.11,4.79H156l-.09-4.79c-.67-1.42-3.53.24-3.35-2.38a4,4,0,0,0,.06-.5Z" style="fill:#a6a3a3"/><path d="M170.17,109.1l3.41,0-.06,2.82-21,0c0-.12-.08-.25-.11-.38-.21-2.79,1.8-2.36,3.49-2.42l3.2,0h2.3l2.17-1.07,3.35,1.08Z" style="fill:#e9e9e9"/><path d="M117.27,83.72l0,1.49-2.74,0a12,12,0,0,0-2.25-1.88c-2.52-1.21-5.13-2.25-7.71-3.36l6.62-.63a1,1,0,0,0,.09-.43l4.31-.21c.55.61,1.38,1.14,1.58,1.85A12.14,12.14,0,0,1,117.27,83.72Z" style="fill:#dcdddc"/><path d="M152.56,111.9l21,0c0,.71,0,1.41,0,2.11-2.4-.14-4.81-.45-7.2-.35-.92,0-1.79,1-2.69,1.53l-1.06,0c-.81-.55-1.58-1.5-2.43-1.57-2.47-.2-5-.06-7.46,0l-.13-.12C152.53,113,152.55,112.44,152.56,111.9Z" style="fill:#bdbdbd"/><path d="M106.37,71.77q-.25,3.56-.52,7.11l-3.2.09.36-7.2,1.47-.3Z" style="fill:#e9e9e9"/><path d="M102.65,79l3.2-.09h.07l5.22.44-6.62.63h-5l-6.09-.67,5.2-.23a.36.36,0,0,0,.29-.21l3.54.08Z" style="fill:#717971"/><path d="M173.66,86.05,152.59,86a2.33,2.33,0,0,1-.08-.46l22.15-.24Z" style="fill:#888"/><path d="M159.21,88.86a12.11,12.11,0,0,1,2.77-.7c3.83-.06,7.66,0,11.49,0,0,.19,0,.39,0,.58l-3.71.52-2.72-.07-2.17-.34-3.58-.07Z" style="fill:#888"/><path d="M106.37,71.77l-1.89-.3-.91-.51.12-1.47,2-.24Z" style="fill:#e29091"/><path d="M111.14,79.31l-5.22-.44,2.91-.46,2.4.47A1,1,0,0,1,111.14,79.31Z" style="fill:#b3b2b2"/><path d="M155.47,21.33l-.85.39Z" style="fill:#df4f4e;opacity:0.23"/><path d="M68,122.86a23,23,0,0,1,.14-5.2c.24-1,1.57-2.26,2.41-2.26s2.17,1.31,2.41,2.26a23,23,0,0,1,.14,5.2Z" style="fill:#888"/><path d="M39.33,122.94v-7.52h3.94v7.48Z" style="fill:#8e8e8e"/><path d="M98.94,122.91l-4.44,0a26.58,26.58,0,0,0-.1-3.79c-.08-.54-.89-1.44-1.18-1.37-.61.15-1.47.76-1.56,1.29a19.79,19.79,0,0,0,0,3.77l-4.27,0c-2.07-2.92-.39-5.84,0-8.76h0l12.1.52Q99.24,118.79,98.94,122.91Z" style="fill:#dcdddc"/><path d="M52,111.88a1.64,1.64,0,0,0,.1-.38l34.7-.13.53.6.07,2.17h0a22.14,22.14,0,0,0-3.48-.57q-10.35-.09-20.7,0c-3,0-6,.42-8.94.31C53.51,113.85,52.78,112.58,52,111.88Z" style="fill:#a6a3a3"/><path d="M61.69,119.16l-2.26,2.08c-.44-.66-1.26-1.34-1.2-2,.06-.8.82-1.54,1.29-2.31Z" style="fill:#d0d0d0"/><path d="M67,119l-1.68,2.17c-.54-.7-1.49-1.39-1.5-2.09s.92-1.42,1.44-2.13Z" style="fill:#d0d0d0"/><path d="M83.5,119.32l-1.76,1.85c-.33-.74-.93-1.49-.9-2.21s.74-1.31,1.15-2Z" style="fill:#d0d0d0"/><path d="M78,119.19l-1.7,2c-.35-.71-1-1.43-1-2.14s.7-1.35,1.08-2Z" style="fill:#d0d0d0"/><path d="M55.35,119l-1.59,2.19c-.39-.68-1.07-1.35-1.08-2s.62-1.43,1-2.14Z" style="fill:#d0d0d0"/><path d="M102.65,79l-.19-.06c-1.43-3.59-.56-7.17-.45-10.76l.68-.06c.1.39.19.79.29,1.18l-.06,1.78.1.72Z" style="fill:#b3b2b2"/><path d="M102.92,71.05l.06-1.78.71.22L103.57,71Z" style="fill:#96655f"/><path d="M52,86a2.32,2.32,0,0,0,.07-.46c7.41.13,14.82.36,22.23.35,4.38,0,8.75-.37,13.13-.58l-.09.17c0,.21.07.41.11.61a.9.9,0,0,1-.13.42H52.07A4.26,4.26,0,0,1,52,86Z" style="fill:#717971"/><path d="M33.84,120.42l2.07-2.88c.4.57,1.1,1.13,1.13,1.72s-.47,1.68-.94,1.81C35.48,121.25,34.66,120.7,33.84,120.42Z" style="fill:#e9e9e9"/><path d="M49.31,118.26l-2.15,2.92c-.4-.58-1.09-1.14-1.12-1.73s.48-1.68,1-1.81C47.63,117.46,48.46,118,49.31,118.26Z" style="fill:#e9e9e9"/><path d="M37.62,109.11l-2.69-1c-.19-2.38-.46-4.77-.55-7.16s0-4.51,0-6.77l3.16-.55Z" style="fill:#b3b2b2"/><path d="M37.59,93.65l-3.16.55c0-1.67,0-3.34.07-5l2.74.08C37.36,90.73,37.47,92.19,37.59,93.65Z" style="fill:#a6a3a3"/><path d="M86.82,111.37l-34.7.13c.25-2.87-1.89-2.28-3.52-2.43l.21-20.25-.06-.07,3.3,1c0,5.19.12,10.39-.08,15.57-.11,2.73.83,3.7,3.44,3.16h2.14l1.18-1h1l1.74,1,2.11,0,3.42.05,2.11,0,3.42,0h11l2.17.07,1.65.52Z" style="fill:#dcdddc"/><path d="M48.81,88.82l-.21,20.25-3.14.05L45.4,89.27Z" style="fill:#aba9a9"/><path d="M37.59,93.65c-.12-1.46-.23-2.92-.35-4.38l2.47-.4c0,1.79.11,3.58.16,5.37l0,3.86,0,3.9.57,6.11-2.81,1Z" style="fill:#dcdddc"/><path d="M45.4,89.27l.06,19.85-2.32,0c0-2.41-.07-4.83-.1-7.24L43,98.17v-4l-.1-5.23Z" style="fill:#dcdddc"/><path d="M43,101.86c0,2.41.07,4.83.1,7.24l-2.71-1L39.86,102Z" style="fill:#bdbdbd"/><path d="M52.05,89.8l-3.3-1,0-.58c1.24-.31,3.23.84,3.35-1.7H87.33c0,.55,0,1.1.07,1.66s0,1.23,0,1.85l-1.51,0-2.38-.07H74.73l-2.32,0-3.2,0-2.32,0-3.21,0-2.32,0-3.73,0-2.35,0Z" style="fill:#8e8e8e"/><path d="M99.52,79.94h5c2.58,1.11,5.19,2.15,7.71,3.36a12,12,0,0,1,2.25,1.88H90.12a13.13,13.13,0,0,1,2.25-1.88C94.71,82.09,97.13,81.05,99.52,79.94Z" style="fill:#cccccb"/><path d="M90.12,85.18h24.36l2.74,0,0,.34a1.6,1.6,0,0,1-.06.53l-29.67,0-.11-.61Z" style="fill:#888"/><path d="M42.89,88.94c0,1.74.07,3.48.1,5.23l-3.12.07c0-1.79-.11-3.58-.16-5.37Z" style="fill:#a6a3a3"/><path d="M125.55,123.15l-8.35-.24c.2-2,.5-3.93.57-5.9a12.11,12.11,0,0,0-.6-2.84,11.94,11.94,0,0,1,2.64-.59c9.39,0,18.77,0,28.15,0,1.52,0,3,0,4.55,0l.13.12-.06,9.28-16,0a23,23,0,0,0-.14-5.2c-.23-1-1.56-2.27-2.4-2.27s-2.18,1.29-2.42,2.24a23.06,23.06,0,0,0-.14,5.2Zm27.15-4L150.51,117c-.42.71-1.2,1.45-1.15,2.12s.89,1.39,1.38,2.09Zm-9.49-.15,1.67,2.2c.35-.62,1-1.27,1-1.85a7.23,7.23,0,0,0-1.07-2.32Zm-5.55,0,1.6,2.19c.38-.67,1.06-1.35,1.07-2s-.62-1.43-1-2.14Zm-11,.35,1.76,1.84c.33-.73.93-1.48.9-2.2s-.74-1.31-1.15-2Zm-2.25-.14L122.79,117c-.39.67-1.07,1.34-1.09,2s.63,1.43,1,2.14Z" style="fill:#bdbdbd"/><path d="M152.58,122.92l.06-9.28c2.49,0,5-.15,7.46,0,.85.07,1.62,1,2.43,1.57-.42.57-1.18,1.11-1.22,1.7-.14,2,0,4,0,5.93Zm2.81-2.55c.82.29,1.62.87,2.22.7s1-1.19.94-1.81-.73-1.15-1.13-1.72Z" style="fill:#dcdddc"/><path d="M131.49,122.84a23.06,23.06,0,0,1,.14-5.2c.24-1,1.58-2.25,2.42-2.24s2.17,1.31,2.4,2.27a23,23,0,0,1,.14,5.2Z" style="fill:#888"/><path d="M161.31,122.89c0-2-.14-4,0-5.93,0-.59.8-1.13,1.22-1.7l1.06,0c1.16,0,1.78.27,1.66,1.72-.18,2,0,4,0,6Z" style="fill:#8e8e8e"/><path d="M117.13,86.08a1.6,1.6,0,0,0,.06-.53l35.32,0a2.33,2.33,0,0,0,.08.46,4,4,0,0,1-.06.5H117.25A.72.72,0,0,1,117.13,86.08Z" style="fill:#717971"/><path d="M170.17,109.1l-3.21,0,0-14.91,3.14-.57Z" style="fill:#b3b2b2"/><path d="M170.13,93.64l-3.14.57.06-5,2.72.07Z" style="fill:#a6a3a3"/><path d="M170.83,120.46c-.86.26-1.69.79-2.32.61-.48-.13-1-1.18-.95-1.8s.71-1.15,1.11-1.73C169.09,118.12,169.52,118.69,170.83,120.46Z" style="fill:#e9e9e9"/><path d="M155.94,109.1c-1.69.06-3.7-.37-3.49,2.42l-35.15,0c0-.79-.06-1.58-.08-2.38l1.16-.57,2.65,0,3.4,0,2.11,0,3.42,0h7.64l3.42,0,2.11,0,3.4,0,2.66,0c2.63.55,3.59-.44,3.43-3.17-.23-3.91-.12-7.84-.15-11.77v-.94l.06-2.88,3.35-.92.09,4.79Z" style="fill:#dcdddc"/><path d="M155.88,88.85l-3.35.92-3.22.13-2.87,0h-3.21l-2.31,0-3.21,0h-5.53l-2.33,0-3.2,0-2.32,0h-3.21l-3.91-.08,0-1.71.07-1.62h35.28C152.35,89.09,155.21,87.43,155.88,88.85Z" style="fill:#8e8e8e"/><path d="M155.94,109.1l0-15.46h3.13q0,7.72,0,15.47Z" style="fill:#b3b2b2"/><path d="M159.14,109.12q0-7.74,0-15.47c0-1.6.07-3.2.11-4.79l2.09-.07.21,5.37c.12,1.45.23,2.89.35,4.34l-.34,2.84-.08,7.77Z" style="fill:#dcdddc"/><path d="M117.3,111.49l35.15,0c0,.13.07.26.11.38,0,.54,0,1.08-.05,1.62-1.51,0-3,0-4.55,0-9.38,0-18.76,0-28.15,0a11.94,11.94,0,0,0-2.64.59v0c0-.75,0-1.51,0-2.27A2.22,2.22,0,0,0,117.3,111.49Z" style="fill:#a6a3a3"/><path d="M167.05,89.2l-.06,5,0,14.91L163.61,108c.36-2,.73-4.05,1.1-6.08V98.65c0-1.47,0-2.94,0-4.41.05-1.8.11-3.59.16-5.38Z" style="fill:#dcdddc"/><path d="M164.71,102c-.37,2-.74,4.05-1.1,6.08l-2.17,1.07c0-2.59.05-5.18.07-7.77Z" style="fill:#bdbdbd"/><path d="M102.92,71.05l.65-.09.91.51-1.47.3Z" style="fill:#bdbdbd"/><path d="M164.88,88.86c0,1.79-.11,3.58-.16,5.38l-3.21-.08-.21-5.37Z" style="fill:#a6a3a3"/><path d="M117.17,114.17a12.11,12.11,0,0,1,.6,2.84c-.07,2-.37,3.93-.57,5.9l-4.3,0a19.41,19.41,0,0,0-.08-3.5c-.11-.58-.89-1-1.36-1.53-.45.53-1.18,1-1.3,1.6a20.37,20.37,0,0,0-.09,3.5l-4.44,0q-.28-4.12-.59-8.25l12.12-.52Z" style="fill:#dcdddc"/><path d="M105,114.67q.3,4.13.59,8.25H98.94q.3-4.12.58-8.25C101.36,113,103.2,112.89,105,114.67Z" style="fill:#888"/><path d="M91.67,122.86a19.79,19.79,0,0,1,0-3.77c.09-.53,1-1.14,1.56-1.29.29-.07,1.1.83,1.18,1.37a26.58,26.58,0,0,1,.1,3.79Z" style="fill:#8e8e8e"/><path d="M110.07,123a20.37,20.37,0,0,1,.09-3.5c.12-.59.85-1.07,1.3-1.6.47.51,1.25,1,1.36,1.53a19.41,19.41,0,0,1,.08,3.5Z" style="fill:#8e8e8e"/><path d="M105,114.67c-1.84-1.78-3.68-1.72-5.52,0l-12.1-.52c0-.72,0-1.45-.07-2.17l29.85-.09c0,.76,0,1.52,0,2.27Z" style="fill:#bdbdbd"/><path d="M117.2,111.88,87.35,112l-.53-.6c.19-.75.38-1.5.56-2.26h7.24a1.67,1.67,0,0,0,.44-.06l2.32,0a2.1,2.1,0,0,0,.43,0h2.87a2.32,2.32,0,0,0,.46-.07h2.32a1.61,1.61,0,0,0,.44.06h2.88a3.25,3.25,0,0,0,.44,0l2.32,0,.22,0H110l2.79,0h4.46c0,.8,0,1.59.08,2.38A2.22,2.22,0,0,1,117.2,111.88Z" style="fill:#e9e9e9"/><path d="M117.25,86.48c0,.54,0,1.08-.07,1.62l-7.31.36-3,0-3.07-.07h-3L87.4,88.14c0-.56-.05-1.11-.07-1.66a.9.9,0,0,0,.13-.42l29.67,0A.72.72,0,0,0,117.25,86.48Z" style="fill:#dcdddc"/><path d="M52.05,89.8l3.23.1q.07,9.31.13,18.63c-2.61.54-3.55-.43-3.44-3.16C52.17,100.19,52,95,52.05,89.8Z" style="fill:#c5c5c5"/><path d="M89.58,109.12h-2.2l-1.65-.52a37.65,37.65,0,0,0,.33-9.68c-.35-2.88.86-6-.21-9l1.51,0,2.24,1.5Q89.6,100.31,89.58,109.12Z" style="fill:#cccccb"/><path d="M85.85,90c1.07,3-.14,6.07.21,9a37.65,37.65,0,0,1-.33,9.68l-2.17-.07c0-.73-.07-1.46-.11-2.19l0-5.4,0-3.44,0-3.76,0-3.84Z" style="fill:#aba9a9"/><path d="M55.41,108.53q-.06-9.32-.13-18.63l2.35,0,0,2.6.51,1.13,0,4.42,0,3.31,0,5.53-.58,1.61Z" style="fill:#aba9a9"/><path d="M61.36,89.9l2.32,0v3.85c0,1.27,0,2.54,0,3.82v8.82l-.1,2.14-2.11,0-.54-2.12c0-1.67,0-3.34,0-5l0-3.82V93.65l.46-1.09Z" style="fill:#a6a3a3"/><path d="M66.89,89.89l2.32,0c0,1.28,0,2.57,0,3.85V97.5l0,3.42,0,5.42-.12,2.16-2.11,0c-.17-.72-.35-1.44-.53-2.16v-5l0-3.88,0-3.85Z" style="fill:#a6a3a3"/><path d="M78,89.87h2.31c.15,1.27.3,2.54.44,3.8,0,1.28,0,2.57,0,3.85l0,3.88v5l-.52,2.16H78.05l-.15-2.2v-4.86c0-1.32,0-2.65,0-4l0-3.75Z" style="fill:#a6a3a3"/><path d="M72.41,89.89l2.32,0,.06,3.87,0,3.75v8.83l-.15,2.2H72.52c0-.74-.11-1.48-.16-2.22,0-1.61,0-3.22,0-4.84,0-1.33,0-2.66,0-4l0-3.73Z" style="fill:#a6a3a3"/><path d="M61,101.38c0,1.67,0,3.34,0,5l-1.2,1.11h-1l-.6-.57c0-1.84,0-3.69,0-5.53Z" style="fill:#d0d0d0"/><path d="M66.46,106.38c.18.72.36,1.44.53,2.16l-3.42-.05c0-.71.07-1.42.1-2.14Z" style="fill:#bdbdbd"/><path d="M72.36,106.31c0,.74.11,1.48.16,2.22l-3.42,0,.12-2.16Z" style="fill:#bdbdbd"/><path d="M74.63,108.52l.15-2.2H77.9l.15,2.2Z" style="fill:#bdbdbd"/><path d="M80.16,108.53c.17-.72.35-1.44.52-2.16l2.77,0c0,.73.08,1.46.11,2.19Z" style="fill:#bdbdbd"/><path d="M59.72,107.5l1.2-1.11.54,2.12Z" style="fill:#b3b2b2"/><path d="M58.13,106.93l.6.57-1.18,1C57.74,108,57.94,107.47,58.13,106.93Z" style="fill:#b3b2b2"/><path d="M39.87,94.24,43,94.17c0,1.33,0,2.66,0,4L39.9,98.1Z" style="fill:#b3b2b2"/><path d="M39.9,98.1l3.08.07.06,3.69-3.18.14C39.87,100.7,39.88,99.4,39.9,98.1Z" style="fill:#a6a3a3"/><path d="M89.6,91.49,87.36,90c0-.62,0-1.24,0-1.85l13.37.21c0,1,0,2,0,3l-.25.25c-2.11-.56-2.74.32-2.7,2.39.09,5.05,0,10.1,0,15.15a2.28,2.28,0,0,1-.44,0l-1.14-3.68L95.06,109a1.67,1.67,0,0,1-.44.06c0-4.95-.16-9.91-.05-14.85,0-2.13-.52-3.17-2.77-2.78Zm8.87,7.43L96.31,96c-.4.57-1.1,1.14-1.12,1.73s.48,1.69,1,1.82S97.61,99.19,98.47,98.92Z" style="fill:#a6a3a3"/><path d="M80.7,93.68c-.14-1.26-.29-2.53-.44-3.8h3.21l0,3.84Z" style="fill:#bdbdbd"/><path d="M74.79,93.74l-.06-3.87H78l-.06,3.87Z" style="fill:#bdbdbd"/><path d="M72.41,89.89l-.06,3.86-3.12,0c0-1.28,0-2.57,0-3.85Z" style="fill:#bdbdbd"/><path d="M66.89,89.89l-.45,3.79-2.76,0V89.86Z" style="fill:#bdbdbd"/><path d="M61.36,89.9c0,.88,0,1.77,0,2.66l-3.8,0,0-2.6Z" style="fill:#bdbdbd"/><path d="M152.7,119.12l-2,2.12c-.49-.7-1.33-1.36-1.38-2.09s.73-1.41,1.15-2.12Z" style="fill:#d0d0d0"/><path d="M143.21,119l1.58-2a7.23,7.23,0,0,1,1.07,2.32c0,.58-.63,1.23-1,1.85Z" style="fill:#d0d0d0"/><path d="M137.66,119l1.7-2c.35.71,1,1.43,1,2.14s-.69,1.36-1.07,2Z" style="fill:#d0d0d0"/><path d="M126.62,119.33l1.51-2.33c.41.66,1.12,1.3,1.15,2s-.57,1.47-.9,2.2Z" style="fill:#d0d0d0"/><path d="M124.37,119.19l-1.69,2c-.35-.71-1-1.43-1-2.14s.7-1.35,1.09-2Z" style="fill:#d0d0d0"/><path d="M155.39,120.37l2-2.83c.4.57,1.1,1.13,1.13,1.72s-.47,1.68-.94,1.81S156.21,120.66,155.39,120.37Z" style="fill:#e9e9e9"/><path d="M117.22,109.11H115L115,91.58l2.28-1.15c.33.26.92.51.94.78.11,2.18.13,4.36.14,6.54,0,3.6,0,7.2.06,10.79Z" style="fill:#cccccb"/><path d="M146.44,89.88l2.87,0c-.65,2.87,1.31,2.75,3.16,2.75v.95l-3.28.65v14.28l-2.66,0c0-.72-.05-1.43-.07-2.15V97.52c0-1.27,0-2.54,0-3.81Z" style="fill:#aba9a9"/><path d="M118.38,108.54c0-3.59,0-7.19-.06-10.79,0-2.18,0-4.36-.14-6.54,0-.27-.61-.52-.94-.78l0-.62,3.91.08c0,1.27,0,2.55,0,3.83s0,2.53,0,3.8v3.91c0,1.64,0,3.27,0,4.91l-.1,2.17Z" style="fill:#aba9a9"/><path d="M149.19,108.53V94.25l3.28-.65c0,3.92-.08,7.85.15,11.76C152.78,108.09,151.82,109.08,149.19,108.53Z" style="fill:#c5c5c5"/><path d="M140.92,89.86l2.31,0,.45,3.79c0,1.29,0,2.57,0,3.86s0,2.58,0,3.87c0,1.65,0,3.31,0,5l-.54,2.16-2.11,0c0-.72-.07-1.43-.11-2.15l0-5.43,0-3.41V93.72C140.9,92.43,140.91,91.15,140.92,89.86Z" style="fill:#a6a3a3"/><path d="M135.39,89.87h2.32c.14,1.27.29,2.54.43,3.8s0,2.57,0,3.85l0,3.88v5l-.52,2.16h-2.11l-.15-2.2c0-1.62,0-3.24,0-4.86v-4c0-1.25,0-2.5,0-3.75Z" style="fill:#a6a3a3"/><path d="M124.33,89.89l2.32,0c0,1.28,0,2.57,0,3.85s0,2.52,0,3.78l0,3.42,0,5.42-.12,2.16-2.11,0c-.17-.72-.35-1.44-.53-2.16l0-5V97.53c0-1.28,0-2.57-.05-3.85Z" style="fill:#a6a3a3"/><path d="M129.85,89.89l2.33,0c0,1.29,0,2.58,0,3.87s0,2.5,0,3.74,0,2.66,0,4v4.85l-.15,2.2H130c-.05-.74-.1-1.48-.16-2.22v-4.84c0-1.33,0-2.66,0-4s0-2.49,0-3.73Z" style="fill:#a6a3a3"/><path d="M152.47,92.65c-1.85,0-3.81.12-3.16-2.75l3.22-.13Z" style="fill:#c5c5c5"/><path d="M123.9,106.38c.18.72.36,1.44.53,2.16l-3.4,0c0-.73.07-1.45.1-2.17Z" style="fill:#bdbdbd"/><path d="M143.13,108.54l.54-2.16,2.79,0c0,.72,0,1.43.07,2.15Z" style="fill:#bdbdbd"/><path d="M137.6,108.53c.17-.72.35-1.44.52-2.16l2.79,0c0,.72.08,1.43.11,2.15Z" style="fill:#bdbdbd"/><path d="M132.07,108.52l.15-2.2h3.12l.15,2.2Z" style="fill:#bdbdbd"/><path d="M129.8,106.31c.06.74.11,1.48.16,2.22l-3.42,0,.12-2.16Z" style="fill:#bdbdbd"/><path d="M117.21,89.81l0,.62L115,91.58l-2.14,0-2.68,0-.23-.23,0-2.88,7.31-.36Z" style="fill:#a6a3a3"/><path d="M143.68,93.68l-.45-3.79h3.21v3.83Z" style="fill:#bdbdbd"/><path d="M132.23,93.74c0-1.29,0-2.58,0-3.87h3.21l-.06,3.87Z" style="fill:#bdbdbd"/><path d="M129.85,89.89l-.06,3.86-3.12,0c0-1.28,0-2.57,0-3.85Z" style="fill:#bdbdbd"/><path d="M124.33,89.89l-.45,3.79-2.75,0c0-1.28,0-2.56,0-3.83Z" style="fill:#bdbdbd"/><path d="M138.14,93.68c-.14-1.26-.29-2.53-.43-3.8l3.21,0c0,1.29,0,2.57,0,3.86Z" style="fill:#bdbdbd"/><path d="M161.51,94.16l3.21.08c0,1.47,0,2.94,0,4.41l-2.85-.15C161.74,97.05,161.63,95.61,161.51,94.16Z" style="fill:#bdbdbd"/><path d="M161.86,98.5l2.85.15V102l-3.2-.62C161.63,100.39,161.75,99.45,161.86,98.5Z" style="fill:#a6a3a3"/><path d="M91.8,91.47c2.25-.39,2.81.65,2.77,2.78-.11,4.94,0,9.9.05,14.85H91.84Q91.81,100.29,91.8,91.47Z" style="fill:#cccccb"/><path d="M97.81,109.11c0-5,.12-10.1,0-15.15,0-2.07.59-2.95,2.7-2.39l.15,17.55Z" style="fill:#dcdddc"/><path d="M106.78,109.11H103.9l0-17.67h0l2.83,0h0Q106.78,100.26,106.78,109.11Z" style="fill:#dcdddc"/><path d="M110.14,91.57l2.68,0-.06,17.57-2.79,0Q110.06,100.32,110.14,91.57Z" style="fill:#cccccb"/><path d="M103.93,91.44l0,17.67a1.61,1.61,0,0,1-.44-.06c-.39-1.22-.77-2.45-1.16-3.67l-1.16,3.67a2.32,2.32,0,0,1-.46.07q-.06-8.78-.14-17.55l.24-.25Zm-3.21,6.42,1.6,1.79c.36-.61,1-1.23,1-1.84s-.67-1.21-1-1.81Z" style="fill:#a6a3a3"/><path d="M110.14,91.57q-.09,8.75-.17,17.51h-.21l-.22,0-1.17-3.67-1.15,3.69a3.25,3.25,0,0,1-.44,0q0-8.85,0-17.68l3.15-.09Zm-.2,6.34L108.43,96c-.38.58-1.06,1.16-1.07,1.76s.62,1.25,1,1.87Z" style="fill:#a6a3a3"/><path d="M112.76,109.11l.06-17.57,2.14,0,.06,17.54Z" style="fill:#dcdddc"/><path d="M91.8,91.47q0,8.82,0,17.64H89.58q0-8.82,0-17.63Z" style="fill:#dcdddc"/><path d="M101.14,109.05l1.16-3.67c.39,1.22.77,2.45,1.16,3.67Z" style="fill:#bdbdbd"/><path d="M95.06,109l1.17-3.66,1.14,3.68Z" style="fill:#bdbdbd"/><path d="M107.22,109.08l1.15-3.69,1.17,3.67Z" style="fill:#c5c5c5"/><path d="M109.91,91.34l-3.15.09h0c0-1,.08-2,.13-3l3,0C109.89,89.42,109.9,90.38,109.91,91.34Z" style="fill:#717971"/><path d="M103.93,91.44l-3.15-.12c0-1,0-2,0-3h3c0,1,.07,2,.11,3.08Z" style="fill:#717971"/><path d="M103.93,91.44c0-1-.07-2.06-.11-3.08l3.07.07c0,1-.09,2-.13,3Z" style="fill:#a6a3a3"/><path d="M83.45,106.33l-2.77,0v-5l2.74-.48Z" style="fill:#d0d0d0"/><path d="M83.42,100.93l-2.74.48,0-3.88,2.81,0Z" style="fill:#bdbdbd"/><path d="M83.46,97.49l-2.81,0c0-1.28,0-2.57,0-3.85l2.74,0C83.45,95,83.45,96.24,83.46,97.49Z" style="fill:#d0d0d0"/><path d="M60.94,93.65c0,1.31,0,2.61,0,3.91l-2.79.53c0-1.47,0-2.94,0-4.42Z" style="fill:#d0d0d0"/><path d="M58.13,98.09l2.79-.53c0,1.27,0,2.55,0,3.82l-2.87,0C58.1,100.3,58.12,99.19,58.13,98.09Z" style="fill:#b3b2b2"/><path d="M60.94,93.65l-2.83,0-.51-1.13,3.8,0C61.25,92.92,61.1,93.29,60.94,93.65Z" style="fill:#b3b2b2"/><path d="M66.46,106.38l-2.79,0c0-1.64,0-3.28,0-4.93h2.8Z" style="fill:#d0d0d0"/><path d="M66.46,101.41h-2.8V97.53h2.83Z" style="fill:#bdbdbd"/><path d="M66.49,97.53H63.66c0-1.28,0-2.55,0-3.82l2.76,0C66.46,95,66.47,96.25,66.49,97.53Z" style="fill:#d0d0d0"/><path d="M72.36,106.31l-3.14,0,0-5.42,3.1.56C72.36,103.09,72.36,104.7,72.36,106.31Z" style="fill:#d0d0d0"/><path d="M69.23,93.72l3.12,0c0,1.24,0,2.48,0,3.73l-3.15,0Z" style="fill:#d0d0d0"/><path d="M69.22,97.5l3.15,0c0,1.33,0,2.66,0,4l-3.1-.55Z" style="fill:#bdbdbd"/><path d="M77.9,106.32H74.78v-4.85H77.9Z" style="fill:#d0d0d0"/><path d="M74.79,93.74h3.1c0,1.25,0,2.5,0,3.75H74.77Z" style="fill:#d0d0d0"/><path d="M74.77,97.49h3.14c0,1.32,0,2.65,0,4H74.78C74.78,100.14,74.77,98.81,74.77,97.49Z" style="fill:#bdbdbd"/><path d="M98.47,98.92c-.86.27-1.69.81-2.32.63s-1-1.19-1-1.82.72-1.16,1.12-1.73Z" style="fill:#bdbdbd"/><path d="M146.46,106.36l-2.79,0c0-1.66,0-3.32,0-5l2.77,0Z" style="fill:#d0d0d0"/><path d="M146.45,101.43l-2.77,0c0-1.29,0-2.58,0-3.87l2.82,0Z" style="fill:#bdbdbd"/><path d="M146.46,97.52l-2.82,0c0-1.29,0-2.57,0-3.86l2.76,0C146.45,95,146.45,96.25,146.46,97.52Z" style="fill:#d0d0d0"/><path d="M123.9,106.38l-2.77,0c0-1.64,0-3.27,0-4.91l2.8,0Z" style="fill:#d0d0d0"/><path d="M123.92,101.41l-2.8,0c0-1.3,0-2.61,0-3.91h2.82Z" style="fill:#bdbdbd"/><path d="M123.93,97.53h-2.82c0-1.27,0-2.54,0-3.8l2.75,0C123.9,95,123.92,96.25,123.93,97.53Z" style="fill:#d0d0d0"/><path d="M140.91,106.35l-2.79,0v-5l2.75-.49Z" style="fill:#d0d0d0"/><path d="M140.87,100.92l-2.75.49,0-3.88,2.82,0Z" style="fill:#bdbdbd"/><path d="M140.91,97.51l-2.82,0c0-1.28,0-2.57,0-3.85l2.76,0C140.9,95,140.91,96.25,140.91,97.51Z" style="fill:#d0d0d0"/><path d="M135.34,106.32h-3.12v-4.86h3.12Z" style="fill:#d0d0d0"/><path d="M132.23,93.74h3.1c0,1.25,0,2.5,0,3.75h-3.14C132.22,96.24,132.23,95,132.23,93.74Z" style="fill:#d0d0d0"/><path d="M132.21,97.48h3.14v4h-3.13C132.22,100.14,132.22,98.81,132.21,97.48Z" style="fill:#bdbdbd"/><path d="M129.8,106.31l-3.14,0,0-5.42,3.11.55Z" style="fill:#d0d0d0"/><path d="M126.67,93.72l3.12,0c0,1.24,0,2.48,0,3.73l-3.15,0C126.66,96.24,126.67,95,126.67,93.72Z" style="fill:#d0d0d0"/><path d="M126.66,97.5l3.15,0c0,1.33,0,2.66,0,4l-3.11-.55Z" style="fill:#bdbdbd"/><path d="M100.72,97.86,102.28,96c.38.6,1,1.2,1,1.81s-.65,1.23-1,1.84Z" style="fill:#bdbdbd"/><path d="M109.94,97.91l-1.62,1.73c-.34-.62-1-1.25-1-1.87s.69-1.18,1.07-1.76Z" style="fill:#c5c5c5"/></g><g id="a6c073ad-25f2-4b28-90e0-56d960b448ca" data-name="Planes"><path d="M105.53,21.25c-.21.57-.65,1.18-.57,1.71.36,2.6.53,5.16-.69,7.6l-3.66.15c-.52-1.89-2.66-3.45-1.19-5.75q-.49-6.62-1-13.23c0-1.45.09-2.91.14-4.37.27-1.12.54-2.23.82-3.34l1.11-2.22h3.86c.38.89.76,1.78,1.13,2.67Q105.51,12.86,105.53,21.25Z" style="fill:#cba72d"/><path d="M100.61,30.71l3.66-.15c.53,8.13,1.2,16.25,1.55,24.38.19,4.51-.14,9-.23,13.56l-2.06.24-.71-.22-.29-1.18-.68.06c-.11,3.59-1,7.18.46,10.76l-3.54-.07.15-.55a23.31,23.31,0,0,0,.41-2.31c.3-4.57.62-9.13.83-13.69.08-1.71-.22-3.44-.19-5.15.11-7,.28-14.06.45-21.08C100.45,33.78,100.54,32.24,100.61,30.71Z" style="fill:#ead571"/><path d="M90.37,77.52a16.76,16.76,0,0,0-1.1-2.3c-1.08-1.63-2.21-3.23-3.4-4.78-2.14-2.81-4.32-5.6-6.56-8.33a7.89,7.89,0,0,0-1.9-1.24c-.38-.25-1.06-.55-1-.79.23-3.48-3.56-4.43-4.5-7.24-.49-1.49-1.87-2.69-2.85-4l1.85-.12,1.54-.46a23.77,23.77,0,0,0,1.52,2.28c1.63,2,3.24,4,5,5.81,2.23,2.35,4.67,4.5,6.89,6.85a34.33,34.33,0,0,1,3.58,4.64c2.12,3.19,4.12,6.47,6.16,9.71l-2.06.61Z" style="fill:#eaaf64"/><path d="M70.86,48.69,69,48.82l-6.07-2.15L65,45.49,60.1,41.16l-3.73-4.22a44.88,44.88,0,0,1-3.73-5A3.17,3.17,0,0,1,53,29c.51-.59,1.86-.45,2.84-.63l1,.52h0a28.15,28.15,0,0,0,1.61,2.77Q64.59,40.21,70.86,48.69Z" style="fill:#a5712d"/><path d="M66.64,37.33c2.58.18,5.16.27,7.72.57a13.28,13.28,0,0,1,3.57,1c.43.18.64.89,1,1.35-.49.28-1,.76-1.47.8-3,.23-5.93.36-8.9.52-2.34-.49-2.92-2.49-3.69-4.32Z" style="fill:#af7a36"/><path d="M85.19,20.55l-1.88-.87-.17-.9a43.13,43.13,0,0,1,5-2c3.23-.88,6.51-1.52,9.77-2.27l.69,6Z" style="fill:#cba72d"/><path d="M64.83,37.29c.77,1.83,1.35,3.83,3.69,4.32l2,3.88,1.41,2c.15.25.29.5.44.74l-1.54.46c-4.17-5.68-8.34-11.34-12.48-17a28.15,28.15,0,0,1-1.61-2.77l2.4,1.77a.17.17,0,0,0,.2.18.19.19,0,0,1,.23,0Z" style="fill:#e0a14e"/><path d="M56.37,36.94l3.73,4.22c-3.94-.07-7.93.52-12.33-.55C49.71,38,52,38.15,54.19,37.84A9.3,9.3,0,0,0,56.37,36.94Z" style="fill:#af7a36"/><path d="M64.83,37.29,59.6,30.9c2.77.12,4.33,1.88,5.59,4.08.45.8,1,1.57,1.45,2.35Z" style="fill:#eac480"/><path d="M85.19,20.55H98.58l-.69-6c.18-.92.36-1.85.53-2.78q.49,6.61,1,13.23l-.85-4.41Z" style="fill:#e5bb38"/><path d="M72,47.5l-1.41-2c1.78.37,3.92-.48,5.58,1.66Z" style="fill:#96835f"/><path d="M99.38,4c-.28,1.11-.55,2.22-.82,3.34C98.83,6.25,99.1,5.13,99.38,4Z" style="fill:#e5bb38"/><path d="M56.79,28.91l-1-.52Z" style="fill:#e0a14e"/><path d="M59.37,30.85a.17.17,0,0,1-.2-.18h.17Z" style="fill:#eac480"/><path d="M108.68,77.65a35.9,35.9,0,0,1,2.77-4.93c2.93-3.75,6.09-7.32,9.11-11,2-2.5,4-5.08,6-7.62.74-.93,1.48-1.86,2.27-2.74,2.4-2.68,4.83-5.34,7.24-8l2.06,0,1.94.21a6.38,6.38,0,0,1-.59,1.57c-2.93,4-5.91,7.94-8.86,11.9-.84,1.12-1.61,2.29-2.49,3.38-2.25,2.81-4.54,5.58-6.81,8.36-1.81,2.22-3.69,4.4-5.38,6.71-.44.6-.28,1.63-.4,2.47l-4.43.22Z" style="fill:#afc9d1"/><path d="M140.11,43.53l-1.94-.21c3.53-5,7-10.08,10.6-15,2.25-3.11,4.69-6.07,7-9.1l0,.08.88-.4c2.82-.44,4.55,1.13,3.66,3.69a24.62,24.62,0,0,1-3,5c-.59.92-1.29,1.77-1.94,2.65l-2.79,3.46c1.58,0,2.67,0,3.75,0,2.51.14,5,.34,7.53.51-2.72.1-5.53.66-8.15.2-5-.88-7.52,2.43-10.52,5.19L147.74,41Z" style="fill:#879ba1"/><path d="M141,34.76,128.23,34l-.09-1.24c4.46-3.66,10.14-2.42,15.33-3.17l1.71,0C144.67,32.07,143.75,34.17,141,34.76Z" style="fill:#879ba1"/><path d="M106.43,12.82c-.2,1.93.67,2.56,2.6,2.85A73.69,73.69,0,0,1,119.09,18c1.65.49,2.42,1.64.13,2.63-3.66,0-7.33.06-11-.08-.77,0-2.16-.78-2.18-1.24A58.83,58.83,0,0,1,106.43,12.82Z" style="fill:#cba72d"/><path d="M141,34.76c2.75-.59,3.67-2.69,4.18-5.11l6.88-7.84,3.75-2.64c-2.35,3-4.79,6-7,9.1-3.6,5-7.07,10-10.6,15.05l-2.06,0c.2-.55.4-1.1.59-1.66l1.68-1.89Z" style="fill:#b4ced6"/><path d="M163.94,34.16c-2.51-.17-5-.37-7.53-.51-1.08-.06-2.17,0-3.75,0l2.79-3.46a72.34,72.34,0,0,1,8.33,1.38C165.76,32.11,165.7,32.93,163.94,34.16Z" style="fill:#879ba1"/><path d="M152.06,21.81l-6.88,7.84-1.71,0C145.32,25.88,147.4,22.43,152.06,21.81Z" style="fill:#d8eef9"/><path d="M106.43,12.82A58.83,58.83,0,0,0,106,19.3c0,.46,1.41,1.21,2.18,1.24,3.67.14,7.34.07,11,.08-2.48.17-5,.38-7.45.5-2.08.1-4.16.09-6.24.13q0-8.4,0-16.78C105.8,7.25,106.12,10,106.43,12.82Z" style="fill:#ead571"/><path d="M138.38,39.8l-1.68,1.89h-4.92C133.89,39.21,136.28,40.08,138.38,39.8Z" style="fill:#879ba1"/><path d="M97.89,14.51c0-.15,0-3.09,0-3.24,0-6.07,1.88-11,4.19-11s4.19,4.93,4.19,11c0,.28,0,.56,0,.84" style="fill:#ead571"/><ellipse cx="101.97" cy="10.53" rx="3.64" ry="10.53" style="fill:#cca529"/></g><rect width="210.91" height="158.57" style="fill:none"/><g id="aeadc7d6-2a73-4991-bb62-a128928285b8" data-name="Corgi"><ellipse cx="154.81" cy="138.28" rx="19.31" ry="3.56" style="fill:#010101;opacity:0.13"/><g id="b1d4a53e-b036-45a8-938a-17a7f36f6322" data-name="b3fff5ae-8c55-48a5-912e-80df78536539"><g id="a8249d82-9ff7-4c0f-9995-61f38382b2a3" data-name="a09452f0-8f17-4e0d-94ae-2cd335ac0935"><path d="M149.73,115.1h0m16.84,19.37c-.21,1-.44,1.93-.56,2.91,1.15,0,2.3,0,3.45,0,.26,0,.33,0,.28-.3s-.09-.86-.15-1.3a33.35,33.35,0,0,0-.44-3.44,3.61,3.61,0,0,0-2.23-2.78v0a11.87,11.87,0,0,0-1.42-4.86,1,1,0,0,1-.12-.92,22.48,22.48,0,0,0,1.8-9.34,14.17,14.17,0,0,0-.17-2.05h0a20.48,20.48,0,0,0-.79-2.78c-.3-.89-.9-2.49-.9-2.49a.65.65,0,0,0,.19-.31c.5-1.3,1.25-2.59,1.76-3.89a84.24,84.24,0,0,0,3-9c.23-.92.48-2.35.55-2.77a4.21,4.21,0,0,0,0-1.06c-.05-.83-.86-1.08-1.89-.85a11.26,11.26,0,0,0-3.44,1.55,28.18,28.18,0,0,0-5.06,4,14.53,14.53,0,0,0-2,2.36c-.08.12-.13.13-.25,0A9.15,9.15,0,0,0,153,95.78a7.78,7.78,0,0,0-3,.75c-.11.06-.19.09-.29,0a23.67,23.67,0,0,0-5.6-5.43,16.93,16.93,0,0,0-4.1-2.32,6.76,6.76,0,0,0-1.07-.3,2.72,2.72,0,0,0-.61,0,1.1,1.1,0,0,0-1,1.08,3.88,3.88,0,0,0,0,.9c.07.4.12.81.2,1.2a55,55,0,0,0,2.07,7.14c.86,2.47,1.8,4.91,2.78,7.34,0,.12.08.17.16.35a18.86,18.86,0,0,0-1.2,4.63m0,0a27,27,0,0,0,.32,4.76,22.71,22.71,0,0,0,2.52,7.74.92.92,0,0,1,0,1,5.27,5.27,0,0,0-.39,1,14.5,14.5,0,0,0-.83,4.17,12.34,12.34,0,0,0,1,5.16v0a12.32,12.32,0,0,1-1.05-5.18s0,0,0,0a4.25,4.25,0,0,0-1.92,3.34c-.17,1.33-.29,2.67-.46,4,0,.23,0,.27.23.27h4.1c.27.76.33,1.51.61,2.28,0,.11.08.19.23.19h5.13l.07,0c.12,0,.19-.06.19-.16.07-.42.15-.84.22-1.26,0-.15.08-.22.25-.2.59.05,1.19.12,1.79.12a57.74,57.74,0,0,0,6.31-.16c.3,0,.49,0,.58.35a11.25,11.25,0,0,0,.39,1.11.28.28,0,0,0,.31.22c1.45,0,2.89,0,4.33,0,.22,0,.28-.08.31-.27.14-.74.29-1.48.43-2.22.12-1,.35-2,.56-2.91" style="fill:#f7f1e7"/><path d="M168.61,93.17a22.34,22.34,0,0,1-.82,4.26c-.77,2.83-1.69,5.61-2.68,8.37a1.74,1.74,0,0,1-.1.19c0-.06-.08-.12-.11-.19a25.74,25.74,0,0,0-3.4-5.56,15.08,15.08,0,0,0-1.88-1.95c-.09-.07-.13-.13-.05-.23a20,20,0,0,1,6.61-5.84,3.89,3.89,0,0,1,1.44-.44C168.24,91.7,168.61,92.19,168.61,93.17Z" style="fill:#f4eee1"/><path d="M142.94,129.75a12.32,12.32,0,0,0,1.05,5.18,2.28,2.28,0,0,0,.53.8,3.74,3.74,0,0,1,.81,1.66h-4.57c-.23,0-.27,0-.23-.27.17-1.34.29-2.68.46-4a4.25,4.25,0,0,1,1.92-3.34S142.92,129.75,142.94,129.75Z" style="fill:#e2cfa9"/><path d="M144.53,135.3c.52.44.57,1.52.8,2.09h-4.57c-.23,0-.27,0-.23-.27.17-1.34.17-1.46.17-1.46C140.78,135,144.17,135,144.53,135.3Z" style="fill:#d3bf9c"/><path d="M166,137.39c.12-1,.35-1.94.56-2.91a16.46,16.46,0,0,0,.35-4.9,3.61,3.61,0,0,1,2.23,2.78,33.35,33.35,0,0,1,.44,3.44c.06.44.07.88.15,1.3s0,.3-.28.3C168.31,137.38,167.16,137.39,166,137.39Z" style="fill:#e2cfa9"/><path d="M139.4,92.64c0-1.11.39-1.6,1-1.52a4.85,4.85,0,0,1,1.53.47,16.93,16.93,0,0,1,3.28,2.29,20.46,20.46,0,0,1,3.25,3.46c.13.17.14.27,0,.41a16.34,16.34,0,0,0-4.3,5.43c-.38.72-.71,1.44-1.06,2.15l-.07.14a.61.61,0,0,1-.07-.14c-.59-1.73-1.2-3.46-1.76-5.21a47.91,47.91,0,0,1-1.59-6C139.49,93.56,139.43,93,139.4,92.64Z" style="fill:#f4eee1"/><path d="M148.87,105.08a1.68,1.68,0,0,1,.27-.86.89.89,0,0,1,1.64,0,2.26,2.26,0,0,1,.08,2,1,1,0,0,1-1,.7c-.34,0-.78-.51-.91-1,0-.12,0-.24,0-.37S148.87,105.26,148.87,105.08Z" style="fill:#604920"/><path d="M159.45,105.61a2.4,2.4,0,0,1-.38,1,.86.86,0,0,1-1.18.25.8.8,0,0,1-.23-.22,2.18,2.18,0,0,1,0-2.63.83.83,0,0,1,.82-.31,1.12,1.12,0,0,1,.79.79,5.84,5.84,0,0,1,.15.6Z" style="fill:#604920"/><path d="M141.3,111.08l7.18,3.46,1.11.53.14,0a.52.52,0,0,0-.06-.13,5.35,5.35,0,0,1,.64-7,3.2,3.2,0,0,1,.83-.63c.59-.28.53-.85.63-1.33a44.19,44.19,0,0,0,.79-5.62c.09-1.07.18-2.36.26-3.44,0-.1,0-.15.14-.17a4.57,4.57,0,0,1,1.43-.07c.6.06.62.34.71,1.26.13,1.41.37,2.79.61,4.18.29,1.62.6,3.23.9,4.85a.27.27,0,0,0,.14.23,5.23,5.23,0,0,1,2.61,5.11,5,5,0,0,1-1.28,3c-.06.06-.2.13-.11.25s.19,0,.29,0l8.4-3.16.35,0a14.19,14.19,0,0,1,.17,2.06,22.48,22.48,0,0,1-1.8,9.34,1,1,0,0,0,.12.92,11.87,11.87,0,0,1,1.42,4.86,16.52,16.52,0,0,1-.35,4.91c-.21,1-.44,1.92-.56,2.91a10.22,10.22,0,0,0-.12,2,.86.86,0,0,1-.62.52c-1.44,0-2.88,0-4.33,0a.28.28,0,0,1-.31-.22,11.25,11.25,0,0,1-.39-1.11c-.09-.38-.28-.38-.58-.35a57.74,57.74,0,0,1-6.31.16c-.6,0-1.2-.07-1.79-.12-.17,0-.23.05-.25.2-.07.42-.15.84-.22,1.26,0,.1-.07.1-.18.16l-.09,0H145.7c-.15,0-.19-.08-.23-.19-.28-.77-.34-1.54-.62-2.3-.21-.58-.75-2.15-.87-2.46a12.34,12.34,0,0,1-1-5.16,14.5,14.5,0,0,1,.83-4.17,5.27,5.27,0,0,1,.39-1,.92.92,0,0,0,0-1,22.71,22.71,0,0,1-2.52-7.74A27,27,0,0,1,141.3,111.08Zm16,4.75s0,0-.06,0h-5.86c-.09,0-.11,0,0,.09l.2.16a5.42,5.42,0,0,0,2.74,1.27,1.35,1.35,0,0,0,.69,0A3.23,3.23,0,0,0,157.26,115.83Zm-2.54-5.36a1.67,1.67,0,0,0-.83,0,2.68,2.68,0,0,0-1,.31,1.57,1.57,0,0,0-.23,2.83,3.11,3.11,0,0,0,3.17.1A1.56,1.56,0,0,0,156,111,3.07,3.07,0,0,0,154.72,110.47Z" style="fill:#f7f1e7"/><path d="M149,114.78l-.53-.25-7.18-3.45a18.86,18.86,0,0,1,1.2-4.63c-.08-.18-.11-.23-.16-.35-1-2.43-1.92-4.87-2.78-7.34a55,55,0,0,1-2.07-7.14c-.08-.39-.13-.8-.2-1.2a3.88,3.88,0,0,1,0-.9,1.1,1.1,0,0,1,1-1.08,2.72,2.72,0,0,1,.61,0,6.76,6.76,0,0,1,1.07.3,16.93,16.93,0,0,1,4.1,2.32,23.67,23.67,0,0,1,5.6,5.43c.1.13.18.1.29,0a7.78,7.78,0,0,1,3-.75,9.15,9.15,0,0,1,5.21,1.42c.12.08.17.07.25,0a14.53,14.53,0,0,1,2-2.36,28.18,28.18,0,0,1,5.06-4A11.26,11.26,0,0,1,169,89.21c1-.23,1.84,0,1.89.85a4.21,4.21,0,0,1,0,1.06c-.07.42-.32,1.85-.55,2.77a84.24,84.24,0,0,1-3,9c-.51,1.3-1.26,2.59-1.76,3.89a.65.65,0,0,1-.19.31s.6,1.6.9,2.49a20.48,20.48,0,0,1,.79,2.78l-.35.06-7.37,2.77a8.74,8.74,0,0,0,.48-3.59,5,5,0,0,0-3.21-3.93.27.27,0,0,1-.14-.23c-.3-1.61-.43-3.69-.72-5.31-.24-1.38-.48-2.78-.61-4.18-.09-.92-.11-1-.71-1A4.57,4.57,0,0,0,153,97c-.12,0-.14.07-.14.17-.08,1.07-.17,2.14-.26,3.22a44.44,44.44,0,0,1-.79,5.62c-.1.47-.11,1.55-.7,1.84a3.42,3.42,0,0,0-.84.63c-2.73,2.17-1.22,6.3-1.22,6.3m-.12-9.18a2.25,2.25,0,0,0,.06.36,1.33,1.33,0,0,0,.89,1,1,1,0,0,0,1-.69,2.18,2.18,0,0,0-.09-2,.87.87,0,0,0-1.61,0,1.66,1.66,0,0,0-.26.84C148.89,105.27,148.89,105.42,148.89,105.6Zm10.53-.52a3.9,3.9,0,0,0-.14-.59,1.12,1.12,0,0,0-.78-.77.82.82,0,0,0-.8.3,2.15,2.15,0,0,0,0,2.58.83.83,0,0,0,1.16.19.73.73,0,0,0,.21-.22,2.13,2.13,0,0,0,.37-1A2.26,2.26,0,0,0,159.42,105.08Zm9.09-11.78c0-1-.38-1.43-1-1.36a3.8,3.8,0,0,0-1.41.43,19.53,19.53,0,0,0-6.45,5.71c-.08.1,0,.16,0,.23a14.31,14.31,0,0,1,1.83,1.9,24.66,24.66,0,0,1,3.33,5.44c0,.06.08.12.11.18a.66.66,0,0,0,.09-.19c1-2.69,1.87-5.4,2.62-8.17A21.4,21.4,0,0,0,168.51,93.3Zm-28.92-.59c0,.32.1.88.2,1.42a45.47,45.47,0,0,0,1.52,5.75c.53,1.68,1.12,3.33,1.68,5a.75.75,0,0,0,.07.12l.07-.12c.34-.69.65-1.39,1-2.07a15.53,15.53,0,0,1,4.11-5.2c.17-.14.17-.23,0-.4a19.5,19.5,0,0,0-3.11-3.31A16.05,16.05,0,0,0,142,91.71a4.61,4.61,0,0,0-1.46-.46C140,91.18,139.59,91.65,139.59,92.71Z" style="fill:#e2cfa9"/><path d="M154.72,110.47A2.94,2.94,0,0,1,156,111a1.55,1.55,0,0,1-.19,2.75,3.06,3.06,0,0,1-3.17-.1,1.56,1.56,0,0,1,.23-2.83,2.66,2.66,0,0,1,1-.3Z" style="fill:#5f491f"/><path d="M154.24,117.29A5.48,5.48,0,0,1,151.5,116l-.2-.16a.37.37,0,0,1,.14,0h5.81a3.2,3.2,0,0,1-2.32,1.46Z" style="fill:#604920"/><path d="M154.72,110.47h-.83A1.67,1.67,0,0,1,154.72,110.47Z" style="fill:#b18e44"/><path d="M159.45,105.61a2.4,2.4,0,0,1-.38,1,.86.86,0,0,1-1.18.25.8.8,0,0,1-.23-.22,2.18,2.18,0,0,1,0-2.63.83.83,0,0,1,.82-.31,1.12,1.12,0,0,1,.79.79,5.84,5.84,0,0,1,.15.6Z" style="fill:#604920"/><path d="M167,112.38c-1.78.53-7.71,2.83-7.71,2.83s-.29,3.25-5,3.25c-4.86,0-5.29-3.68-5.29-3.68-2.06-1.14-5.7-2.79-7.71-3.7a24.38,24.38,0,0,0,3,12.75c1,1.64.41,1.64,1,5.75a42.2,42.2,0,0,0,2.47,8c.7,0,3.06-.15,3.56.66.4-2.73.55-5.1.61-5.65a16.15,16.15,0,0,0,7.33,0c.53,3.88.64,4.77.88,5.71,0-.87,1.89-1,2.74-1a50.56,50.56,0,0,1,1.15-7.21c1.36-4.65.68-5,1.26-6.16A20.18,20.18,0,0,0,167,112.38Z" style="fill:#efebe4"/><path d="M170.59,89.44s1.11,1-1.64,8.83-3.62,8.84-3.62,8.84a19,19,0,0,0-4.28-7.5A23.75,23.75,0,0,1,170.59,89.44Z" style="fill:#010101;opacity:0.05"/><path d="M137.58,88.79s-1.28.42,1.57,8.78c2.64,7.69,3.39,8.83,3.39,8.83a21.31,21.31,0,0,1,4.31-7.52A22.59,22.59,0,0,0,137.58,88.79Z" style="fill:#010101;opacity:0.05"/><path d="M160.18,138.34c-2.71.64-8.82-.06-8.82-.06.35-3.56.61-5.65.61-5.65a17.54,17.54,0,0,0,7.33,0S159.79,135.46,160.18,138.34Z" style="fill:#ddd7cf"/><path d="M169.61,136c.06.44,0,.69.13,1.11s0,.3-.28.3c-1.15,0-2.3,0-3.45,0,.16-1,.18-1.17.38-2.11C167.71,135.31,169.6,135.09,169.61,136Z" style="fill:#d3bf9c"/></g></g></g></g></g></svg>