<?xml version="1.0" encoding="utf-8"?>
<!-- Generator: Adobe Illustrator 23.0.4, SVG Export Plug-In . SVG Version: 6.00 Build 0)  -->
<svg version="1.1" id="Layer_1" xmlns="http://www.w3.org/2000/svg" xmlns:xlink="http://www.w3.org/1999/xlink" x="0px" y="0px"
	 viewBox="0 0 1920 262.7" style="enable-background:new 0 0 1920 262.7;" xml:space="preserve">
<style type="text/css">
	.st0{fill:#232D5E;}
	.st1{fill:#1D264B;}
	.st2{fill:#D6C889;}
	.st3{fill:#CCAD5B;}
	.st4{fill:#CB9041;}
	.st5{fill:#DDBC62;}
	.st6{fill:#B8AF88;}
	.st7{fill:#75D397;}
	.st8{fill:#579E7E;}
	.st9{fill:#98DCD8;}
	.st10{fill:#9AE5C8;}
	.st11{fill:#64918C;}
	.st12{fill:#B8B5B5;}
	.st13{fill:#B6B4B4;}
	.st14{fill:#8B8B8B;}
	.st15{fill:#7A7B7B;}
	.st16{fill:#999999;}
	.st17{fill:#909090;}
	.st18{fill:#70F1F5;}
	.st19{fill:#69EAF0;}
	.st20{fill:#696969;}
	.st21{fill:#63A29A;}
	.st22{fill:#CDCCCD;}
	.st23{fill:#D8D7D8;}
	.st24{fill:#C5C3C3;}
	.st25{fill:#AAAAA9;}
	.st26{fill:#9C9C9C;}
	.st27{fill:#A8A7A7;}
	.st28{fill:#6A6A6A;}
	.st29{fill:#8D9090;}
	.st30{fill:#0EACD3;}
</style>
<title>artwork-space_3</title>
<g id="ff449578-0782-4c2c-a60e-09a16bd7827e">
	<g id="bea0974c-e4c6-4bf0-a3dc-5f1f7494440c">
		<g id="a73dd1ee-660a-4efc-b1b2-94d36efa0dc1">
			<path class="st0" d="M1237.3,194.2c-204.4-4.6-303.2,47.3-556.3,31.9s-225.4-30.5-401.9-18.3S7.3,170,0,166.7v96h1920v-104
				C1740.9,226.1,1441.7,198.8,1237.3,194.2z"/>
			<path class="st1" d="M0,262.7v-44.4c76.3,44.6,313.8,11.3,372,6.6c103.3-8.5,308.2,25,400.4,23.6c97.3-1.4,204.3-2.8,325.9-24
				c84.9-14.8,241.1,6.4,422.3,6.4c180.2,0,291.5,8.3,399.3-14.1v45.9L0,262.7z"/>
			<g id="f7b4d4ef-9801-4d4a-99dd-e7f6c25acc8f">
				<circle class="st2" cx="1654.7" cy="117.7" r="56.9"/>
				<path class="st3" d="M1662.5,86.6c8.6-1.1,17.6-8.2,28.6-12.7c-24.1-20.1-60-16.7-80.1,7.4c-0.9,1-1.7,2-2.4,3.1
					c7.7-2,14.9-3.6,20.2-4.2C1648.2,77.9,1649.8,88.2,1662.5,86.6z"/>
				<path class="st2" d="M1662.8,158.8c-17.5-0.8-14.6-25.8-29.7-25.8c-7.9,0-19.1,6.5-28,12.6c2.4,4.2,5.3,8.1,8.7,11.7
					c5.7-2.8,12.2-3.8,18.5-2.8c16.7,2.3,21.6,24.9,47.9,14.1c14.3-7.2,24.9-20,29.2-35.3c-3.9-1.1-8-1.7-12.1-1.8
					C1681.1,130.6,1680.3,159.5,1662.8,158.8z"/>
				<path class="st4" d="M1605.1,145.6c8.8-6.2,20.1-12.6,28-12.6c15.1,0,12.3,25,29.7,25.8c17.4,0.8,18.3-28.1,34.5-27.4
					c4.1,0.1,8.2,0.7,12.1,1.8c0.8-2.8,1.4-5.7,1.7-8.6c0.3-2.3,0.4-4.6,0.4-7c0-6.5-1.1-12.8-3.2-18.9c-15.4-2.7-32.8-3.1-38,6.8
					c-9.9,19,7.9,12.3,7.9,12.3s-12.7,26.6-31.7-3.6c-8.9-14.1-33.7-9.6-48.1-5.5c-0.3,1.7-0.4,3.4-0.6,5.1
					c-0.1,1.2-0.1,2.5-0.1,3.8C1597.8,127.4,1600.3,137.1,1605.1,145.6z"/>
				<path class="st5" d="M1646.6,114.3c19,30.2,31.7,3.6,31.7,3.6s-17.8,6.7-7.9-12.3c5.1-9.9,22.5-9.5,38-6.8
					c-3.4-9.7-9.4-18.3-17.3-24.9c-11,4.4-20,11.6-28.6,12.7c-12.7,1.6-14.3-8.7-33.7-6.4c-5.3,0.7-12.5,2.2-20.2,4.2
					c-5.2,7.2-8.6,15.6-10,24.4C1612.9,104.8,1637.7,100.3,1646.6,114.3z"/>
				<path class="st6" d="M1632.3,154.4c-6.3-0.9-12.8,0.1-18.5,2.8c17.3,17.9,44.2,22.5,66.5,11.3
					C1653.9,179.3,1649.1,156.7,1632.3,154.4z"/>
			</g>
			<g id="be6220cd-6ff7-415c-a41b-7e1345567a46">
				<circle class="st7" cx="1836.2" cy="52.5" r="46.2"/>
				<path class="st8" d="M1836,76.3c-7.3,0.9-17.9,7.9-29,11.9c19.7,16.2,48.8,13.4,64.9-6.4c0.4-0.6,0.9-1.2,1.4-1.7
					c-3.6,0.9-7.2,1.6-10.8,2.1C1846.7,84.1,1846.2,75,1836,76.3z"/>
				<path class="st9" d="M1821.8,28.1c14.1,0.7,19.7,12,31.9,12c6.4,0,15.5-5.3,22.7-10.2c-1.9-3.5-4.3-6.6-7-9.4
					c-4.7,2.3-9.9,3-15,2.3c-13.5-1.9-17.5-20.2-39-11.4c-11.5,5.8-20.1,16.2-23.5,28.6c3.2,0.9,6.5,1.4,9.8,1.5
					C1814.8,42.1,1807.7,27.4,1821.8,28.1z"/>
				<path class="st7" d="M1821.8,60.5c-1.9-7-0.1-14.6,4.7-20c0,0,10.2,20.8,20.6,15.8c13.5-6.4,10.2,5.3,18.2,6.4
					c5.1,0.8,11.3-0.7,16.3-2.4c0.4-2.6,0.7-5.3,0.7-8c0-0.1,0-0.2,0-0.3c0-7.9-2.1-15.5-5.9-22.4c-7.2,5-16.3,10.2-22.7,10.2
					c-12.2,0-17.8-11.3-31.9-12s-6.9,14-20.2,13.3c-3.3-0.1-6.6-0.6-9.8-1.5c-2.5,8.9-2.3,18.3,0.6,27
					C1807.3,69.3,1824.1,70.1,1821.8,60.5z"/>
				<path class="st10" d="M1806.9,88.1c11.2-4,21.8-10.9,29-11.9c10.3-1.3,10.7,7.8,26.4,5.8c3.6-0.5,7.3-1.2,10.8-2.1
					c4.3-5.8,7.2-12.5,8.5-19.6c-5,1.7-11.3,3.1-16.3,2.4c-8-1.3-4.7-13-18.2-6.4c-10.5,5-20.7-15.8-20.7-15.8
					c-4.7,5.5-6.5,13-4.7,20c2.3,9.7-14.6,8.9-29.5,6.4c0.8,2.5,1.9,5,3.1,7.4C1798.4,79.6,1802.3,84.3,1806.9,88.1z"/>
				<path class="st11" d="M1854.4,22.8c5.1,0.8,10.3,0,15-2.3c-14.1-14.6-35.9-18.3-54-9.1C1836.8,2.5,1840.8,20.8,1854.4,22.8z"/>
			</g>
		</g>
	</g>
</g>
<g id="ebd5ee56-50ab-42ea-8e23-10bb6cdcffb8">
	<g>
		<path class="st12" d="M106.7,66.2c0.4,0,0.8,0,1.2,0.1c0.8,0,1.5,0,2.3,0c0.8-0.7,1.7-1.4,2.5-2.1c0.4,1.7,0.9,3.5,1.3,5.2
			c1.7-0.8,3.6-1.2,5.1-2.3c15.8-11.6,31.6-23.3,47.4-34.9c3.2,4.3,6.5,8.6,12.9,7c1,0.4,2,0.8,2.9,1.3c2.9,3.9,5.9,7.8,8.8,11.7
			c0,2,0,3.9,0,5.9c-0.8,5.3,1.9,8.8,5.8,11.7c0.1,2.1,0.1,4.2,0.2,6.3c-2.7,2.6-5.4,5.2-8.1,7.8c-6,5-12,10-18,15
			c-0.4,0.4-0.8,0.8-1.2,1.2c-0.7,0.5-1.5,1-2.2,1.6c-5.3,4-10.7,7.9-15.8,12.1c-2.1,1.8-3.4,4.5-5,6.7c-0.5-0.1-0.9-0.2-1.4-0.3
			c0-0.4,0-0.8,0-1.2c-0.8-1.2-1.6-2.5-2.4-3.7c-0.3-0.3-0.7-0.7-1-1c-0.4-0.4-0.9-0.8-1.3-1.2l0,0c-0.4-0.4-0.8-0.8-1.2-1.2l0,0
			c-0.4-0.4-0.9-0.8-1.3-1.2c-0.3-0.3-0.7-0.7-1-1c-0.8-1.2-1.6-2.4-2.4-3.6l0,0c-0.4-0.8-0.8-1.6-1.2-2.3l0,0
			c-0.4-0.4-0.8-0.8-1.2-1.2l0,0c-0.8-1.2-1.6-2.4-2.4-3.6c-0.3-0.3-0.7-0.7-1-1c-0.4-0.4-0.9-0.8-1.3-1.2l0,0
			c-0.4-0.4-0.8-0.8-1.2-1.2l0,0c-0.4-0.8-0.8-1.7-1.2-2.5c-0.3-0.3-0.7-0.7-1-1c-0.8-0.8-1.7-1.6-2.5-2.4l0,0
			c-0.4-0.8-0.8-1.6-1.2-2.3l0,0c-1.2-2-2.4-4-3.5-6c-0.3-0.3-0.7-0.7-1-1c-0.4-0.4-0.9-0.8-1.3-1.2l0,0c-0.4-0.4-0.8-0.8-1.2-1.2
			l0,0c-0.4-0.8-0.8-1.7-1.2-2.5c-0.3-0.3-0.7-0.7-1-1c-0.8-0.8-1.7-1.6-2.5-2.4l0,0c-0.4-0.4-0.8-0.8-1.2-1.2l0,0
			c-0.4-1.1-0.8-2.3-1.2-3.4C106.7,67.1,106.7,66.6,106.7,66.2z M182,69.2c-0.4-1.8-0.4-3.2-1-4c-4.3-5.7-8.6-11.5-13.3-17
			c-2.8-3.2-6.8-3-10-0.6c-9.3,6.9-18.6,13.9-27.6,21.1c-1,0.8-1.6,4-0.8,5c4.3,6.4,9,12.6,13.8,18.7c4.8,6.2,5.6,6.2,11.8,1.3
			c8.3-6.6,16.5-13.3,24.6-20.2C180.7,72.5,181.3,70.5,182,69.2z"/>
		<path class="st12" d="M142,114.3c0.3,0.3,0.7,0.7,1,1c0.8,1.2,1.6,2.5,2.4,3.7c0,0.4,0,0.8,0,1.2c0.1,0.4,0.2,0.9,0.2,1.3
			c-0.8,0.8-1.5,1.8-2.4,2.5c-5.4,4.1-5.4,4-9.8-1.6c-0.7-0.9-2.1-1.4-3.1-2.1c-0.8-2-1.7-4.1-2.5-6.1c-1.6-1.6-3.2-3.1-4.8-4.7
			c-1.9-2.7-3.8-5.5-5.7-8.2c-1.9-2.4-3.9-4.7-5.8-7.1c-1.6-1.9-3.2-3.8-4.7-5.8c0.1-3.3-1.2-5.5-4.7-5.9c-1.3-2.3-2.6-4.5-3.9-6.8
			c3.3-1.6,6.5-3.3,9.8-4.9l0,0c0.4,0.4,0.8,0.8,1.2,1.2l0,0c0.8,0.8,1.7,1.6,2.5,2.4c0.3,0.3,0.7,0.7,1,1c0.4,0.8,0.8,1.7,1.2,2.5
			l0,0c0.4,0.4,0.8,0.8,1.2,1.2l0,0c0.4,0.4,0.9,0.8,1.3,1.2c0.3,0.3,0.7,0.7,1,1c1.2,2,2.4,4,3.5,6l0,0c0.4,0.8,0.8,1.6,1.2,2.3
			l0,0c0.8,0.8,1.7,1.6,2.5,2.4c0.3,0.3,0.7,0.7,1,1c0.4,0.8,0.8,1.7,1.2,2.5l0,0c0.4,0.4,0.8,0.8,1.2,1.2l0,0
			c0.4,0.4,0.9,0.8,1.3,1.2c0.3,0.3,0.7,0.7,1,1c0.8,1.2,1.6,2.4,2.4,3.6l0,0c0.4,0.4,0.8,0.8,1.2,1.2l0,0c0.4,0.8,0.8,1.6,1.2,2.3
			l0,0c0.8,1.2,1.6,2.4,2.4,3.6c0.3,0.3,0.7,0.7,1,1c0.4,0.4,0.9,0.8,1.3,1.2l0,0c0.4,0.4,0.8,0.8,1.2,1.2l0,0
			C141.1,113.5,141.6,113.9,142,114.3z"/>
		<path class="st13" d="M182.3,40.5c-1-0.4-2-0.8-2.9-1.3c3.9-9,3.9-9-5.4-9.6c-0.2,0-0.4-0.1-0.6-0.1c0-0.8,0-1.7,0-2.5l0.1-0.1
			v-0.6c0.4,0,0.9,0,1.3,0c1.3,0,2.5,0,3.8,0c6.8,0.9,13.9,1.1,18,8.1c2.3,3.9,5,7.7,7.4,11.5c0,4.5,0,9.1,0,13.6
			c-2.3,5.5-4.6,11-6.9,16.4c-0.1-2.1-0.1-4.2-0.2-6.3c1-2.5,2.5-5,2.9-7.6c0.4-2.4,0.4-6.6-0.8-7.2c-2.9-1.4-6.5-1-8,3
			c0-2,0-3.9,0-5.9c1.2,0,2.4,0.2,3.5,0c2-0.4,5.4-1,5.5-1.8c0.3-2.2-0.6-4.7-1.6-6.8c-1-2-2.6-3.9-4.3-5.4c-2.4-2.2-5.2-4-7.9-5.9
			C184.9,34.9,183.6,37.7,182.3,40.5z"/>
		<path class="st14" d="M171,98.8c6-5,12-10,18-15c0.7,11.2-7.9,17.5-13.4,25.4c-1.7,2.5-2.6,1.8-4.1-4.3c1.2-0.1,4,2.1,2.8-1.6
			C173.7,101.6,172.1,100.3,171,98.8z"/>
		<path class="st15" d="M117.2,101.4c1.9,2.7,3.8,5.5,5.7,8.2c-2.7,2.3-5.4,4.7-8,7c-1,0-1.9,0.1-2.9,0.1c-1.4-0.4-2.7-0.7-4.1-1.1
			c-0.6-0.6-1.2-1.2-1.8-1.8c-0.2-1-0.5-2-0.7-3C109.4,107.7,113.3,104.6,117.2,101.4z"/>
		<path class="st16" d="M117.2,101.4c-3.9,3.2-7.9,6.3-11.8,9.5c-0.8-0.5-1.5-1-2.3-1.6c-1.1-0.6-2.1-1.2-3.2-1.8
			c0.3-1.5,0.6-3,0.8-4.5c0.5-0.9,1-1.8,1.5-2.7c3.1-2,6.1-3.9,9.2-5.9C113.3,96.7,115.3,99,117.2,101.4z"/>
		<path class="st17" d="M127.8,114.3c0.8,2,1.7,4.1,2.5,6.1c-3.6,1.7-6.1,6.4-11.1,4.5c-0.2-0.8-0.4-1.6-0.5-2.4
			c-0.4-0.8-0.9-1.6-1.3-2.3C120.8,118.2,124.3,116.3,127.8,114.3z"/>
		<path class="st18" d="M99.9,107.5c1.1,0.6,2.1,1.2,3.2,1.8c-0.6,1.5-1.2,3-1.8,4.4c1.6,0,3.2,0.1,4.8,0.1c0.6,0.6,1.2,1.2,1.8,1.8
			c-1.9,1-3.7,2.1-5.6,3.1c-1.4,0.1-2.7,0.1-4.1,0.2c-1-0.8-2.9-2-2.8-2.3C96.8,113.5,98.4,110.5,99.9,107.5z"/>
		<path class="st19" d="M118.6,122.5c0.2,0.8,0.4,1.6,0.5,2.4c-1,0.4-2,0.8-3,1.1c-1.6-0.1-3.3-0.2-4.9-0.3c0.8-1.9,1.5-3.8,2.3-5.7
			c0.4,0,0.8,0,1.3-0.1C115,122.5,115.1,125.2,118.6,122.5z"/>
		<path class="st19" d="M91.6,102c0.1-1.4,0.1-2.8,0.2-4.2c0.9-0.9,1.7-1.8,2.6-2.7c0.3,0.3,0.6,0.5,0.9,0.8
			c-0.9,3.9,2.2,2.9,4.1,3.4c-0.7,0.7-1.5,1.4-2.2,2.2C95.3,101.5,93.4,101.7,91.6,102z"/>
		<path class="st20" d="M171,98.8c1.1,1.4,2.7,2.7,3.3,4.4c1.2,3.7-1.6,1.5-2.8,1.6c-0.5-1.1-1-2.2-1.6-3.3c0-0.5,0-1-0.1-1.5
			C170.2,99.7,170.6,99.2,171,98.8z"/>
		<path class="st20" d="M204,59.6c0-4.5,0-9.1,0-13.6C204,50.5,204,55,204,59.6z"/>
		<path class="st21" d="M111.3,125.8c1.6,0.1,3.3,0.2,4.9,0.3C114.6,126,112.9,125.9,111.3,125.8z"/>
		<path class="st21" d="M98.3,118.9c1.4-0.1,2.7-0.1,4.1-0.2C101,118.8,99.7,118.9,98.3,118.9z"/>
		<path class="st22" d="M145.7,121.6c-0.1-0.4-0.2-0.9-0.2-1.3c0.5,0.1,0.9,0.2,1.4,0.3C146.4,120.9,146,121.2,145.7,121.6z"/>
		<path class="st23" d="M173.4,27c0,0.8,0,1.7,0,2.5c-2.3,0.9-4.6,1.8-6.9,2.7c-15.8,11.6-31.5,23.3-47.4,34.9
			c-1.5,1.1-3.4,1.6-5.1,2.3c-0.4-1.7-0.9-3.5-1.3-5.2c5.2-4.1,10.5-8.1,15.7-12.2c0.6-0.7,1.2-1.5,1.8-2.2c0.8-0.8,1.6-1.6,2.4-2.4
			c5.5-3.9,11-7.9,16.5-11.8c4.2-2.3,8.4-4.6,12.5-6.9c1.2-0.4,2.5-0.7,3.7-1.1c0.7-0.5,1.4-0.9,2.1-1.4
			C169.4,26.5,171.4,26.7,173.4,27z"/>
		<path class="st24" d="M149,35.7c-5.5,3.9-11,7.9-16.5,11.8c-1.6,2.2-5.5-6-6,1.3c-1.6-1.4-3.2-2.9-4.8-4.3c0.5-0.6,1-1.2,1.5-1.8
			c5.8-2.3,11.7-4.6,17.5-6.9c2.2,0,4.3,0,6.5,0C147.7,35.7,148.4,35.7,149,35.7z"/>
		<path class="st25" d="M102,82.6c3.5,0.5,4.8,2.6,4.7,5.9c-3,2.3-6,4.7-9,7c-0.6-0.4-1.1-0.8-1.7-1.1c-0.5,0-1-0.1-1.4-0.1
			C94.7,89,98.3,85.8,102,82.6z"/>
		<path class="st22" d="M107.8,70.9c-3.3,1.6-6.5,3.3-9.8,4.9c-2.5-6.2,4-5.7,6.2-8.4c0.4,0,0.8,0,1.1-0.1l0,0
			c0.4,0,0.8,0.1,1.2,0.1C107.1,68.6,107.5,69.8,107.8,70.9z"/>
		<path class="st26" d="M126.4,48.8c0.5-7.3,4.4,0.9,6-1.3c-0.8,0.8-1.6,1.6-2.4,2.4c-0.5,0.5-0.9,1.1-1.4,1.6
			C128,50.6,127.2,49.7,126.4,48.8z"/>
		<path class="st26" d="M173.4,27c-2-0.2-4-0.5-6.1-0.7C169.4,26.5,171.4,26.7,173.4,27L173.4,27z"/>
		<path class="st14" d="M147.1,35.7c-2.2,0-4.3,0-6.5,0C142.8,35.7,145,35.7,147.1,35.7z"/>
		<path class="st24" d="M128.8,51.6c0.5-0.5,0.9-1.1,1.4-1.6c-0.6,0.7-1.2,1.5-1.8,2.2C128.4,51.9,128.6,51.7,128.8,51.6z"/>
		<path class="st27" d="M165.3,27.6c-1.2,0.4-2.5,0.7-3.7,1.1C162.8,28.4,164,28,165.3,27.6z"/>
		<path class="st27" d="M110.1,66.3c-0.8,0-1.5,0-2.3,0C108.6,66.3,109.4,66.3,110.1,66.3z"/>
		<path class="st27" d="M123.2,42.7c-0.5,0.6-1,1.2-1.5,1.8C122.2,43.9,122.7,43.3,123.2,42.7z"/>
		<path class="st27" d="M106.7,67.5c-0.4,0-0.8-0.1-1.2-0.1c0.4-0.4,0.8-0.8,1.2-1.1C106.7,66.6,106.7,67.1,106.7,67.5z"/>
		<path class="st12" d="M105.5,67.3c-0.4,0-0.8,0-1.1,0.1C104.7,67.3,105.1,67.3,105.5,67.3z"/>
		<path class="st19" d="M94.6,94.4c0.5,0,1,0.1,1.4,0.1c-0.3,0.4-0.5,0.9-0.8,1.3c-0.3-0.2-0.6-0.5-0.9-0.8
			C94.4,94.8,94.4,94.6,94.6,94.4z"/>
		<path class="st26" d="M182,69.2c-0.7,1.3-1.3,3.2-2.7,4.4c-8.1,6.8-16.4,13.6-24.6,20.2c-6.2,4.9-6.9,4.9-11.8-1.3
			c-4.8-6.1-9.4-12.3-13.8-18.7c-0.7-1.1-0.2-4.2,0.8-5c9.1-7.2,18.3-14.3,27.6-21.1c3.3-2.4,7.3-2.6,10,0.6c4.7,5.4,9,11.2,13.3,17
			C181.6,66.1,181.6,67.4,182,69.2z"/>
		<path class="st20" d="M182.3,40.5c1.3-2.8,2.7-5.6,4-8.4c2.6,2,5.4,3.8,7.9,5.9c1.7,1.5,3.3,3.4,4.3,5.4c1,2.1,1.9,4.6,1.6,6.8
			c-0.1,0.8-3.5,1.4-5.5,1.8c-1.1,0.2-2.3,0-3.5,0C188.1,48.3,185.2,44.4,182.3,40.5z"/>
		<path class="st28" d="M166.4,32.2c2.3-0.9,4.6-1.8,6.9-2.7c0.2,0,0.4,0.1,0.6,0.1c9.3,0.5,9.3,0.6,5.4,9.6
			C172.9,40.8,169.7,36.6,166.4,32.2z"/>
		<path class="st28" d="M191.1,58c1.5-4.1,5.1-4.4,8-3c1.2,0.6,1.2,4.8,0.8,7.2c-0.4,2.6-1.9,5.1-2.9,7.6
			C193,66.8,190.2,63.3,191.1,58z"/>
		<path class="st22" d="M120.7,87.3c-1.2-2-2.4-4-3.5-6C118.4,83.3,119.6,85.3,120.7,87.3z"/>
		<path class="st22" d="M145.4,119.1c-0.8-1.2-1.6-2.5-2.4-3.7C143.8,116.6,144.6,117.8,145.4,119.1z"/>
		<path class="st22" d="M132.5,102.6c-0.8-1.2-1.6-2.4-2.4-3.6C130.9,100.1,131.7,101.4,132.5,102.6z"/>
		<path class="st22" d="M137.2,109.7c-0.8-1.2-1.6-2.4-2.4-3.6C135.6,107.3,136.4,108.5,137.2,109.7z"/>
		<path class="st22" d="M124.4,92c-0.8-0.8-1.7-1.6-2.5-2.4C122.7,90.5,123.6,91.2,124.4,92z"/>
		<path class="st22" d="M111.5,74.4c-0.8-0.8-1.7-1.6-2.5-2.4C109.8,72.9,110.7,73.7,111.5,74.4z"/>
		<path class="st22" d="M121.9,89.7c-0.4-0.8-0.8-1.6-1.2-2.3C121.1,88.1,121.5,88.9,121.9,89.7z"/>
		<path class="st22" d="M113.7,78c-0.4-0.8-0.8-1.7-1.2-2.5C112.9,76.3,113.3,77.1,113.7,78z"/>
		<path class="st22" d="M126.6,95.5c-0.4-0.8-0.8-1.7-1.2-2.5C125.8,93.9,126.2,94.7,126.6,95.5z"/>
		<path class="st22" d="M134.8,106.1c-0.4-0.8-0.8-1.6-1.2-2.3C134,104.5,134.4,105.3,134.8,106.1z"/>
		<path class="st22" d="M114.9,79.1c-0.4-0.4-0.8-0.8-1.2-1.2C114.1,78.3,114.5,78.7,114.9,79.1z"/>
		<path class="st22" d="M139.5,112c-0.4-0.4-0.9-0.8-1.3-1.2C138.6,111.2,139.1,111.6,139.5,112z"/>
		<path class="st22" d="M140.7,113.1c-0.4-0.4-0.8-0.8-1.2-1.2C139.9,112.3,140.3,112.7,140.7,113.1z"/>
		<path class="st22" d="M142,114.3c-0.4-0.4-0.9-0.8-1.3-1.2C141.1,113.5,141.6,113.9,142,114.3z"/>
		<path class="st22" d="M129.1,97.9c-0.4-0.4-0.9-0.8-1.3-1.2C128.2,97.1,128.7,97.5,129.1,97.9z"/>
		<path class="st22" d="M127.8,96.7c-0.4-0.4-0.8-0.8-1.2-1.2C127,95.9,127.4,96.3,127.8,96.7z"/>
		<path class="st22" d="M109,72.1c-0.4-0.4-0.8-0.8-1.2-1.2C108.2,71.3,108.6,71.7,109,72.1z"/>
		<path class="st22" d="M116.2,80.3c-0.4-0.4-0.9-0.8-1.3-1.2C115.3,79.5,115.8,79.9,116.2,80.3z"/>
		<path class="st22" d="M133.6,103.7c-0.4-0.4-0.8-0.8-1.2-1.2C132.9,103,133.2,103.4,133.6,103.7z"/>
		<path class="st29" d="M97.7,95.6c3-2.3,6-4.7,9-7c1.6,1.9,3.2,3.8,4.7,5.8c-3.1,2-6.1,3.9-9.2,5.9c-0.9-0.3-1.9-0.7-2.8-1
			C98.9,98,98.3,96.8,97.7,95.6z"/>
		<path class="st27" d="M116,118.9c-0.4-0.8-0.7-1.5-1.1-2.3c2.7-2.3,5.4-4.7,8-7c1.6,1.6,3.2,3.1,4.8,4.7c-3.5,2-7,4-10.4,5.9
			l-0.4-0.2C116.6,119.7,116.3,119.3,116,118.9z"/>
		<path class="st30" d="M106.2,113.8c-1.6,0-3.2-0.1-4.8-0.1c0.6-1.5,1.2-3,1.8-4.4c0.8,0.5,1.5,1,2.3,1.6
			C105.7,111.8,105.9,112.8,106.2,113.8z"/>
		<path class="st30" d="M118.6,122.5c-3.5,2.7-3.6,0-3.8-2.5v0.1c0.7,0,1.4,0,2.1-0.1l0.4,0.2C117.8,121,118.2,121.8,118.6,122.5z"
			/>
		<path class="st30" d="M97.7,95.6c0.6,1.2,1.2,2.4,1.8,3.6l-0.1-0.1c-1.9-0.5-5,0.5-4.1-3.4c0.3-0.4,0.5-0.9,0.8-1.3
			C96.6,94.8,97.1,95.2,97.7,95.6z"/>
		<path class="st19" d="M116.9,120.1c-0.7,0-1.4,0-2.1,0.1c0.4-0.4,0.8-0.8,1.2-1.2C116.3,119.3,116.6,119.7,116.9,120.1z"/>
	</g>
</g>
</svg>
