<svg xmlns="http://www.w3.org/2000/svg" width="83.83mm" height="63.03mm" viewBox="0 0 237.63 178.66"><title>artwork--palace-1</title><g id="bb96bec6-6e42-4848-961f-29106d75e0a8" data-name="Layer 2"><g id="b4371202-aa08-4ee1-a230-62d00851cc40" data-name="Layer 1"><path d="M11.83,141.81c16.22,1.46,111.52,12.78,137.1,14.66,54.45,4,88.7,22.19,88.7,22.19V138.48l-225.69.27A1.53,1.53,0,0,0,11.83,141.81Z" style="fill:#8abc8a"/><path d="M34.9,138.49s24.17,4.61,83.8,4.4,78.43-4.43,76.88-4.41S34.9,138.49,34.9,138.49Z" style="fill:#010101;opacity:0.13"/><g id="b454f15d-8371-4786-b627-a10fe280bfd1" data-name="Palace"><path d="M76.61,138.42l-18,.07c0-2.37-.09-4.76,0-7.12.13-2.14-.65-2.9-2.83-2.87-6.93.09-13.87,0-20.81,0L35,126.13l23.65-.07c.85.78,1.68,2.22,2.56,2.25,3.35.12,6.71-.32,10.06-.35q11.67-.1,23.33,0a25.54,25.54,0,0,1,3.93.64c-.45,3.29-2.35,6.58,0,9.87l-10.09.26-6-.32c0-2,.31-4-.15-5.86-.26-1.07-1.77-2.54-2.71-2.54s-2.45,1.47-2.72,2.54C76.31,134.41,76.62,136.46,76.61,138.42Zm-7.11-4.16-2.44-2.47c-.52.87-1.38,1.7-1.46,2.6-.06.69.87,1.47,1.36,2.21Zm5.94-.16-2-2.3c-.58.8-1.63,1.61-1.62,2.4s1.08,1.57,1.69,2.35Zm18.64.34-1.7-2.62c-.46.74-1.27,1.46-1.3,2.21s.65,1.66,1,2.49Zm-6.22-.15-1.79-2.47c-.43.76-1.2,1.52-1.21,2.29s.69,1.61,1.09,2.41Zm-25.5-.24-1.92-2.23c-.39.8-1.11,1.61-1.09,2.41s.78,1.53,1.22,2.29Z" style="fill:#bdbdbd"/><path d="M33.74,96.07c3.17-4.53,8.77-3.29,13-5.4.58-.3,1.73.45,2.59.78A37.58,37.58,0,0,0,63.6,94.36c11.59-.1,23.19,0,34.78,0,0,.59.09,1.17.13,1.76-4.93.23-9.86.65-14.78.65-8.35,0-16.7-.25-25.05-.4Z" style="fill:#bdbdbd"/><path d="M35,128.5c6.94,0,13.88.09,20.81,0,2.18,0,3,.73,2.83,2.87-.14,2.36,0,4.75,0,7.12l-9.86,0V130H44.31v8.47l-9.41,0Zm3.11,7.18c.93.3,1.85.93,2.54.73.54-.15,1.09-1.34,1.06-2s-.82-1.29-1.27-1.93Zm17.43-2.44c-1-.29-1.9-.9-2.61-.7-.54.15-1.1,1.34-1.07,2s.81,1.3,1.26,1.95Z" style="fill:#dcdddc"/><path d="M34.94,122.94Q35,111.47,35,100l3.86.49c0,1.88,0,3.76-.07,5.64,0,2.55-.16,5.09-.07,7.63.1,2.7.41,5.38.63,8.07Z" style="fill:#dcdddc"/><path d="M34.94,122.94l4.42-1.11,3,1.1,3.18-1.13,3,1.12,2.62,0,3.54-.06c1.83.18,4.24-.49,4,2.74a1.67,1.67,0,0,1-.11.44L35,126.13C35,125.07,35,124,34.94,122.94Z" style="fill:#e9e9e9"/><path d="M35,99.34l-.18-2.4,23.74-.07a5.14,5.14,0,0,0,.06.55c-.13,2.86-2.37,1.56-3.77,1.92Z" style="fill:#a6a3a3"/><path d="M98.51,96.09c0-.59-.09-1.17-.13-1.76a9.91,9.91,0,0,0,.07-2.1c-.39-2.19.37-3.6,2.56-4.17l4.1.82a3.12,3.12,0,0,0,.15.43l6.87.75c-2.69,1.25-5.42,2.43-8,3.79A14.44,14.44,0,0,0,101.54,96l-3.12.31Z" style="fill:#dcdddc"/><path d="M58.6,96.87l-23.74.07-1.12-.87,24.94.27A3.23,3.23,0,0,1,58.6,96.87Z" style="fill:#888"/><path d="M35,99.34H54.89c0,.22,0,.43,0,.65l.07.08-3.85.5-2.83-.37-3.59-.07-2.77.45-3.09-.09L35,100Z" style="fill:#888"/><path d="M105.26,89.31a3.12,3.12,0,0,1-.15-.43l2.71-.8,3,.59.29.39Z" style="fill:#b3b2b2"/><path d="M111.62,88.2l-.17.62a.44.44,0,0,1-.32.24l-.29-.39Z" style="fill:#b3b2b2"/><path d="M132.13,94.33c11.7,0,23.41.3,35.09-.14,4.79-.19,9.51-2,14.29-3a10.77,10.77,0,0,1,4.27,0,34.36,34.36,0,0,1,6.75,2,25.18,25.18,0,0,1,4.26,2.89l-25,.26-39.79,0,0-.38Z" style="fill:#bdbdbd"/><path d="M195.46,100q0,11.48.11,23l-3.84,0,0-17.42-.4-4.92Z" style="fill:#dcdddc"/><path d="M195.58,138.48l-9.39,0c0-2.25-.21-4.52,0-6.76.14-1.63-.56-1.95-1.86-1.93,1-.6,2-1.68,3-1.73,2.7-.1,5.41.24,8.12.4Zm-3.11-2.76c-1.48-2-1.95-2.64-2.43-3.29-.45.65-1.23,1.28-1.26,1.94s.54,1.89,1.08,2C190.57,136.61,191.51,136,192.47,135.72Z" style="fill:#dcdddc"/><path d="M195.66,97c-.07.79-.15,1.59-.22,2.39-4.31,0-8.63-.08-12.94,0a14.26,14.26,0,0,0-3.12.78l-.12,5.4h-3.53c0-1.8-.07-3.59-.11-5.39-.75-1.6-4,.26-3.76-2.69a5.14,5.14,0,0,0,.06-.55Z" style="fill:#a6a3a3"/><path d="M191.73,122.92l3.84,0c0,1.06,0,2.12-.07,3.18l-23.61,0c0-.14-.09-.29-.13-.44-.23-3.13,2-2.66,3.93-2.72l3.61,0h2.59l2.44-1.22,3.78,1.22Z" style="fill:#e9e9e9"/><path d="M132.13,94.33,132.07,96,129,96a13.13,13.13,0,0,0-2.53-2.11c-2.85-1.37-5.78-2.54-8.69-3.79l7.46-.71a1.33,1.33,0,0,0,.1-.48l4.85-.24c.62.68,1.56,1.28,1.79,2.08A14.4,14.4,0,0,1,132.13,94.33Z" style="fill:#dcdddc"/><path d="M171.89,126.08l23.61,0c0,.8,0,1.59,0,2.38-2.71-.16-5.42-.5-8.12-.4-1,.05-2,1.13-3,1.73l-1.2,0c-.91-.62-1.79-1.68-2.74-1.76-2.79-.24-5.6-.07-8.4-.06l-.14-.14C171.85,127.29,171.87,126.68,171.89,126.08Z" style="fill:#bdbdbd"/><path d="M119.85,80.86c-.2,2.67-.39,5.34-.59,8l-3.61.1q.21-4.05.41-8.11l1.66-.34Z" style="fill:#e9e9e9"/><path d="M115.65,89l3.61-.1h.08l5.88.49-7.46.71h-5.63l-6.87-.75,5.87-.25a.44.44,0,0,0,.32-.24l4,.08Z" style="fill:#717971"/><path d="M195.66,97l-23.74-.08a3.26,3.26,0,0,1-.09-.53l25-.26Z" style="fill:#888"/><path d="M179.38,100.11a14.26,14.26,0,0,1,3.12-.78c4.31-.07,8.63,0,12.94,0,0,.22,0,.43,0,.65l-4.18.59-3.07-.07-2.44-.39-4-.08Z" style="fill:#888"/><path d="M119.85,80.86l-2.13-.34-1-.57.13-1.66,2.32-.27C119.37,79,119.61,79.92,119.85,80.86Z" style="fill:#e29091"/><path d="M125.22,89.36l-5.88-.49,3.28-.53,2.7.54A1.33,1.33,0,0,1,125.22,89.36Z" style="fill:#b3b2b2"/><path d="M175.17,24l-1,.44Z" style="fill:#df4f4e;opacity:0.23"/><path d="M76.61,138.42c0-2-.3-4,.15-5.86.27-1.07,1.77-2.54,2.72-2.54s2.45,1.47,2.71,2.54c.46,1.86.14,3.9.15,5.86Z" style="fill:#888"/><path d="M44.31,138.51V130h4.44v8.43Z" style="fill:#8e8e8e"/><path d="M111.48,138.48l-5,.06a28.87,28.87,0,0,0-.11-4.27c-.09-.61-1-1.62-1.33-1.54-.69.17-1.66.85-1.76,1.45a22.36,22.36,0,0,0,0,4.25l-4.81,0c-2.33-3.29-.43-6.58,0-9.87h0l13.64.59C111.91,132.29,111.7,135.38,111.48,138.48Z" style="fill:#dcdddc"/><path d="M58.61,126.06a1.67,1.67,0,0,0,.11-.44l39.1-.14.6.67.07,2.45h0a25.54,25.54,0,0,0-3.93-.64q-11.65-.1-23.33,0c-3.35,0-6.71.47-10.06.35C60.29,128.28,59.46,126.84,58.61,126.06Z" style="fill:#a6a3a3"/><path d="M69.5,134.26,67,136.6c-.49-.74-1.42-1.52-1.36-2.21.08-.9.94-1.73,1.46-2.6Z" style="fill:#d0d0d0"/><path d="M75.44,134.1l-1.89,2.45c-.61-.78-1.68-1.56-1.69-2.35s1-1.6,1.62-2.4Z" style="fill:#d0d0d0"/><path d="M94.08,134.44l-2,2.08c-.37-.83-1.06-1.67-1-2.49s.84-1.47,1.3-2.21Z" style="fill:#d0d0d0"/><path d="M87.86,134.29,86,136.52c-.4-.8-1.11-1.61-1.09-2.41s.78-1.53,1.21-2.29Z" style="fill:#d0d0d0"/><path d="M62.36,134.05l-1.79,2.47c-.44-.76-1.21-1.52-1.22-2.29s.7-1.61,1.09-2.41Z" style="fill:#d0d0d0"/><path d="M115.65,89l-.21-.07c-1.61-4-.63-8.08-.51-12.12l.77-.06c.11.44.21.88.32,1.33,0,.67,0,1.33-.07,2l.12.81Z" style="fill:#b3b2b2"/><path d="M116,80.05c0-.67,0-1.33.07-2l.8.24c0,.56-.08,1.11-.13,1.66Z" style="fill:#96655f"/><path d="M58.6,96.87a3.23,3.23,0,0,0,.08-.53c8.35.15,16.7.4,25.05.4,4.92,0,9.85-.42,14.78-.65l-.09.19c0,.23.08.45.11.68a1,1,0,0,1-.13.47H58.66A5.14,5.14,0,0,1,58.6,96.87Z" style="fill:#717971"/><path d="M38.13,135.68l2.33-3.25c.45.64,1.24,1.27,1.27,1.93s-.52,1.9-1.06,2C40,136.61,39.06,136,38.13,135.68Z" style="fill:#e9e9e9"/><path d="M55.56,133.24l-2.42,3.29c-.45-.65-1.24-1.28-1.26-1.95s.53-1.89,1.07-2C53.66,132.34,54.6,133,55.56,133.24Z" style="fill:#e9e9e9"/><path d="M42.38,122.93l-3-1.1c-.22-2.69-.53-5.37-.63-8.07-.09-2.54,0-5.08.06-7.63l3.56-.62Z" style="fill:#b3b2b2"/><path d="M42.35,105.51l-3.56.62c0-1.88.06-3.76.08-5.64l3.09.09Z" style="fill:#a6a3a3"/><path d="M97.82,125.48l-39.1.14c.28-3.23-2.13-2.56-4-2.74L55,100.07l-.07-.08,3.71,1.18c0,5.85.14,11.71-.09,17.55-.12,3.08.94,4.16,3.87,3.56h2.42l1.33-1.17h1.12l1.95,1.14,2.38,0,3.86,0,2.37,0,3.86,0H94.15l2.44.08,1.86.59Z" style="fill:#dcdddc"/><path d="M55,100.07l-.24,22.81-3.54.06q0-11.19-.07-22.37Z" style="fill:#aba9a9"/><path d="M42.35,105.51,42,100.58l2.78-.45.18,6,0,4.36,0,4.39.65,6.88-3.18,1.13Z" style="fill:#dcdddc"/><path d="M51.15,100.57q0,11.19.07,22.37l-2.62,0q0-4.08-.11-8.15c0-1.39,0-2.78-.07-4.17l0-4.51-.12-5.89Z" style="fill:#dcdddc"/><path d="M48.49,114.77q.06,4.07.11,8.15l-3-1.12q-.33-3.43-.65-6.88Z" style="fill:#bdbdbd"/><path d="M58.64,101.17,54.93,100c0-.22,0-.43,0-.65,1.4-.36,3.64.94,3.77-1.92H98.4c0,.62,0,1.25.07,1.87s0,1.39,0,2.09l-1.69,0-2.68-.07H78l-2.62,0-3.62,0-2.61.05-4.2,0-2.64,0Z" style="fill:#8e8e8e"/><path d="M112.13,90.06h5.63c2.91,1.25,5.84,2.42,8.69,3.79A13.13,13.13,0,0,1,129,96H101.54a14.44,14.44,0,0,1,2.54-2.12C106.71,92.49,109.44,91.31,112.13,90.06Z" style="fill:#cccccb"/><path d="M101.54,96H129l3.09,0,0,.38A2,2,0,0,1,132,97L98.53,97c0-.23-.07-.45-.11-.68Z" style="fill:#888"/><path d="M48.32,100.2l.12,5.89-3.52.08-.18-6Z" style="fill:#a6a3a3"/><path d="M141.46,138.75l-9.41-.27c.23-2.21.56-4.42.64-6.64a13.74,13.74,0,0,0-.68-3.21,13.87,13.87,0,0,1,3-.66c10.57,0,21.15,0,31.72,0,1.71,0,3.42,0,5.12,0l.15.14c0,3.48,0,7-.07,10.45l-18-.05c0-2,.3-4-.15-5.87C153.47,131.5,152,130,151,130s-2.46,1.46-2.72,2.53c-.46,1.85-.15,3.89-.16,5.86Zm30.59-4.54-2.47-2.35c-.47.8-1.36,1.63-1.3,2.39s1,1.57,1.56,2.34Zm-10.7-.17,1.88,2.48c.4-.7,1.17-1.43,1.11-2.09a8.19,8.19,0,0,0-1.21-2.61Zm-6.25,0,1.8,2.46c.43-.76,1.2-1.52,1.21-2.29s-.7-1.6-1.1-2.41Zm-12.44.38,2,2.08c.37-.82,1.05-1.67,1-2.48s-.83-1.48-1.29-2.22Zm-2.53-.16-1.79-2.45c-.44.76-1.2,1.51-1.22,2.28s.7,1.61,1.1,2.41Z" style="fill:#bdbdbd"/><path d="M171.91,138.49c0-3.48,0-7,.07-10.45,2.8,0,5.61-.18,8.4.06,1,.08,1.83,1.14,2.74,1.76-.48.64-1.33,1.25-1.37,1.92-.16,2.21,0,4.45,0,6.67Zm3.16-2.87c.92.33,1.83,1,2.5.79s1.09-1.34,1.06-2-.81-1.29-1.27-1.93Z" style="fill:#dcdddc"/><path d="M148.15,138.41c0-2-.3-4,.16-5.86.26-1.07,1.78-2.54,2.72-2.53s2.44,1.48,2.71,2.55c.45,1.86.14,3.9.15,5.87Z" style="fill:#888"/><path d="M181.74,138.45c0-2.22-.15-4.46,0-6.67,0-.67.89-1.28,1.37-1.92l1.2,0c1.3,0,2,.3,1.86,1.93-.2,2.24,0,4.51,0,6.76Z" style="fill:#8e8e8e"/><path d="M132,97a2,2,0,0,0,.07-.59l39.79,0a3.26,3.26,0,0,0,.09.53,5.14,5.14,0,0,1-.06.55l-39.76,0A.94.94,0,0,1,132,97Z" style="fill:#717971"/><path d="M191.73,122.92l-3.62,0,0-16.8,3.54-.64Z" style="fill:#b3b2b2"/><path d="M191.68,105.5l-3.54.64c0-1.88.05-3.76.07-5.63l3.07.07C191.41,102.22,191.55,103.86,191.68,105.5Z" style="fill:#a6a3a3"/><path d="M192.47,135.72c-1,.29-1.9.89-2.61.69-.54-.15-1.1-1.33-1.08-2s.81-1.29,1.26-1.94C190.52,133.08,191,133.73,192.47,135.72Z" style="fill:#e9e9e9"/><path d="M175.69,122.92c-1.9.06-4.16-.41-3.93,2.72l-39.6,0c0-.89-.07-1.78-.1-2.67l1.31-.65,3,0,3.83,0,2.38,0,3.85,0H155l3.86,0,2.37,0,3.83,0h3c3,.63,4-.49,3.87-3.56-.26-4.41-.13-8.84-.17-13.26v-1.06l.08-3.25,3.76-1c0,1.8.08,3.59.11,5.39Q175.72,114.22,175.69,122.92Z" style="fill:#dcdddc"/><path d="M175.62,100.11l-3.76,1-3.63.15-3.23,0-3.62,0-2.61,0-3.62,0H142.69l-2.61,0h-3.61l-4.41-.08,0-1.93.08-1.82,39.76,0C171.64,100.37,174.87,98.51,175.62,100.11Z" style="fill:#8e8e8e"/><path d="M175.69,122.92q0-8.7,0-17.42h3.53q0,8.71,0,17.43Z" style="fill:#b3b2b2"/><path d="M179.3,122.94q0-8.72,0-17.43l.12-5.4,2.35-.08.24,6c.13,1.64.26,3.27.4,4.9l-.39,3.2-.09,8.76Z" style="fill:#dcdddc"/><path d="M132.16,125.62l39.6,0c0,.15.08.3.13.44,0,.6,0,1.21,0,1.82-1.71,0-3.42,0-5.13,0-10.57,0-21.15,0-31.72,0a13.87,13.87,0,0,0-3,.66h0c0-.86,0-1.71,0-2.56A3.6,3.6,0,0,0,132.16,125.62Z" style="fill:#a6a3a3"/><path d="M188.21,100.51c0,1.87,0,3.75-.07,5.63l0,16.8-3.78-1.22c.42-2.28.83-4.56,1.25-6.84,0-1.25,0-2.49,0-3.73,0-1.66,0-3.32,0-5,.07-2,.13-4,.19-6Z" style="fill:#dcdddc"/><path d="M185.58,114.88c-.42,2.28-.83,4.56-1.25,6.84l-2.44,1.22q0-4.38.08-8.76Z" style="fill:#bdbdbd"/><path d="M116,80.05l.74-.1,1,.57-1.66.34C116,80.59,116,80.32,116,80.05Z" style="fill:#bdbdbd"/><path d="M185.77,100.12c-.06,2-.12,4-.19,6l-3.61-.09-.24-6Z" style="fill:#a6a3a3"/><path d="M132,128.63a13.74,13.74,0,0,1,.68,3.21c-.08,2.22-.41,4.43-.64,6.64l-4.85,0a21.63,21.63,0,0,0-.09-3.95c-.13-.65-1-1.15-1.53-1.72-.51.6-1.33,1.13-1.46,1.8a21.64,21.64,0,0,0-.1,3.95l-5,0q-.34-4.65-.67-9.3l13.65-.57Z" style="fill:#dcdddc"/><path d="M118.35,129.19q.33,4.65.67,9.3h-7.54c.22-3.1.43-6.19.65-9.29C114.2,127.26,116.28,127.19,118.35,129.19Z" style="fill:#888"/><path d="M103.28,138.43a22.36,22.36,0,0,1,0-4.25c.1-.6,1.07-1.28,1.76-1.45.32-.08,1.24.93,1.33,1.54a28.87,28.87,0,0,1,.11,4.27Z" style="fill:#8e8e8e"/><path d="M124,138.53a21.64,21.64,0,0,1,.1-3.95c.13-.67.95-1.2,1.46-1.8.53.57,1.4,1.07,1.53,1.72a21.63,21.63,0,0,1,.09,3.95Z" style="fill:#8e8e8e"/><path d="M118.35,129.19c-2.07-2-4.15-1.93-6.22,0l-13.64-.59c0-.82,0-1.63-.07-2.45l33.62-.09c0,.85,0,1.7,0,2.56Z" style="fill:#bdbdbd"/><path d="M132,126.06l-33.62.09-.6-.67.63-2.54h2.47l2.55,0h3.13a2.08,2.08,0,0,0,.5-.07l2.61,0a2.05,2.05,0,0,0,.49.06h3.24a1.75,1.75,0,0,0,.51-.08h2.61a2.26,2.26,0,0,0,.51.08h3.24a4,4,0,0,0,.49,0l2.62,0,.24,0h.24l3.15,0,2.54,0h2.47c0,.89.07,1.78.1,2.67A3.31,3.31,0,0,1,132,126.06Z" style="fill:#e9e9e9"/><path d="M132.1,97.44c0,.61,0,1.21-.08,1.82l-8.23.41-3.36,0L117,99.55h-3.44L98.47,99.3c0-.62,0-1.25-.07-1.87a1,1,0,0,0,.13-.47L132,97A.94.94,0,0,0,132.1,97.44Z" style="fill:#dcdddc"/><path d="M58.64,101.17l3.65.12q.06,10.49.13,21c-2.93.6-4-.48-3.87-3.56C58.78,112.88,58.63,107,58.64,101.17Z" style="fill:#c5c5c5"/><path d="M100.92,123H98.45l-1.86-.59a42.63,42.63,0,0,0,.38-10.9c-.4-3.26,1-6.73-.24-10.1l1.69,0,2.54,1.69Q100.93,113,100.92,123Z" style="fill:#cccccb"/><path d="M96.73,101.35c1.2,3.37-.16,6.84.24,10.1a42.63,42.63,0,0,1-.38,10.9l-2.44-.08L94,119.8l0-6.08,0-3.88,0-4.23,0-4.33Z" style="fill:#aba9a9"/><path d="M62.42,122.28q-.06-10.5-.13-21l2.64,0,0,2.92.57,1.28,0,5,0,3.74,0,6.22-.65,1.82Z" style="fill:#aba9a9"/><path d="M69.13,101.29l2.61-.05v4.34c0,1.43,0,2.87,0,4.3v10l-.12,2.4-2.38,0c-.2-.8-.4-1.59-.61-2.39,0-1.88,0-3.76.05-5.64,0-1.44,0-2.88,0-4.31l0-4.4.52-1.24Z" style="fill:#a6a3a3"/><path d="M75.36,101.28l2.62,0c0,1.44,0,2.89,0,4.34v4.25l0,3.85,0,6.11-.14,2.44-2.37,0-.6-2.43v-5.6l0-4.36,0-4.34Z" style="fill:#a6a3a3"/><path d="M87.82,101.26h2.61c.17,1.43.33,2.85.5,4.28l-.06,4.34,0,4.36v5.6l-.58,2.43H87.93c-.05-.83-.11-1.65-.16-2.48v-5.47c0-1.5,0-3,0-4.48l0-4.22Z" style="fill:#a6a3a3"/><path d="M81.59,101.27H84.2c0,1.45,0,2.9.07,4.36l0,4.22v10l-.16,2.48H81.71l-.18-2.5c0-1.81,0-3.63,0-5.45,0-1.5,0-3,0-4.51s0-2.79,0-4.19Z" style="fill:#a6a3a3"/><path d="M68.68,114.23c0,1.88,0,3.76-.05,5.64l-1.34,1.25H66.17l-.68-.65c0-2.07,0-4.15,0-6.22Z" style="fill:#d0d0d0"/><path d="M74.88,119.85l.6,2.43-3.86,0,.12-2.4Z" style="fill:#bdbdbd"/><path d="M81.53,119.78l.18,2.5-3.86,0c.05-.81.09-1.63.14-2.44Z" style="fill:#bdbdbd"/><path d="M84.09,122.27c0-.83.11-1.65.16-2.48h3.52c0,.83.11,1.65.16,2.48Z" style="fill:#bdbdbd"/><path d="M90.32,122.28c.19-.81.38-1.62.58-2.43l3.13,0,.12,2.47Z" style="fill:#bdbdbd"/><path d="M67.29,121.12l1.34-1.25c.21.8.41,1.59.61,2.39Z" style="fill:#b3b2b2"/><path d="M65.49,120.47l.68.65-1.33,1.17C65.06,121.69,65.27,121.08,65.49,120.47Z" style="fill:#b3b2b2"/><path d="M44.92,106.17l3.52-.08c0,1.51,0,3,0,4.51L45,110.53Z" style="fill:#b3b2b2"/><path d="M45,110.53l3.48.07.06,4.17-3.58.15C44.92,113.46,44.94,112,45,110.53Z" style="fill:#a6a3a3"/><path d="M101,103.08l-2.54-1.69c0-.7,0-1.39,0-2.09l15.06.24c0,1.12,0,2.23,0,3.35l-.28.28c-2.38-.64-3.08.36-3,2.7.1,5.68,0,11.37,0,17.06a2.72,2.72,0,0,1-.49-.05l-1.29-4.15-1.32,4.12a2.08,2.08,0,0,1-.5.07c0-5.58-.17-11.16,0-16.73,0-2.4-.59-3.57-3.12-3.13Zm10,8.37-2.43-3.29c-.46.65-1.25,1.28-1.27,2s.54,1.9,1.08,2C109,112.36,110,111.75,111,111.45Z" style="fill:#a6a3a3"/><path d="M90.93,105.55c-.17-1.43-.33-2.85-.5-4.28h3.62c0,1.44,0,2.89,0,4.33Z" style="fill:#bdbdbd"/><path d="M84.27,105.62c0-1.46,0-2.91-.07-4.36h3.62l-.06,4.36Z" style="fill:#bdbdbd"/><path d="M81.59,101.27c0,1.45-.06,2.91-.08,4.36l-3.51,0c0-1.45,0-2.9,0-4.34Z" style="fill:#bdbdbd"/><path d="M75.36,101.28c-.17,1.42-.33,2.85-.5,4.27l-3.12,0v-4.34Z" style="fill:#bdbdbd"/><path d="M69.13,101.29c0,1,0,2,.05,3l-4.28,0,0-2.92Z" style="fill:#bdbdbd"/><path d="M172.05,134.21l-2.21,2.38c-.56-.77-1.5-1.53-1.56-2.34s.83-1.59,1.3-2.39Z" style="fill:#d0d0d0"/><path d="M161.35,134l1.78-2.22a8.19,8.19,0,0,1,1.21,2.61c.06.66-.71,1.39-1.11,2.09Z" style="fill:#d0d0d0"/><path d="M155.1,134.06l1.91-2.24c.4.81,1.12,1.62,1.1,2.41s-.78,1.53-1.21,2.29Z" style="fill:#d0d0d0"/><path d="M142.66,134.44l1.71-2.62c.46.74,1.25,1.47,1.29,2.22s-.65,1.66-1,2.48Z" style="fill:#d0d0d0"/><path d="M140.13,134.28l-1.91,2.24c-.4-.8-1.11-1.61-1.1-2.41s.78-1.52,1.22-2.28Z" style="fill:#d0d0d0"/><path d="M175.07,135.62l2.29-3.19c.46.64,1.24,1.27,1.27,1.93s-.52,1.9-1.06,2S176,136,175.07,135.62Z" style="fill:#e9e9e9"/><path d="M132.06,122.94h-2.47l-.06-19.77,2.56-1.29c.37.29,1,.57,1.06.88.12,2.45.14,4.91.16,7.37,0,4,0,8.1.06,12.15Z" style="fill:#cccccb"/><path d="M165,101.26l3.23,0c-.73,3.23,1.47,3.1,3.55,3.1v1.06l-3.7.74v16.08h-3c0-.81-.05-1.62-.08-2.43v-10c0-1.43,0-2.87,0-4.3S165,102.7,165,101.26Z" style="fill:#aba9a9"/><path d="M133.37,122.29c0-4.05,0-8.1-.06-12.15,0-2.46,0-4.92-.16-7.37,0-.31-.69-.59-1.06-.88l0-.7,4.41.08v4.32c0,1.43,0,2.85,0,4.28v4.41c0,1.85,0,3.69,0,5.53l-.11,2.44Z" style="fill:#aba9a9"/><path d="M168.08,122.27V106.19l3.7-.74c0,4.42-.09,8.85.17,13.26C172.13,121.78,171.05,122.9,168.08,122.27Z" style="fill:#c5c5c5"/><path d="M158.77,101.25l2.61,0,.51,4.27c0,1.45,0,2.89,0,4.34s0,2.91,0,4.36c0,1.87,0,3.74,0,5.6-.2.81-.4,1.63-.61,2.44l-2.37,0c0-.81-.09-1.62-.13-2.43l0-6.12,0-3.84v-4.27C158.75,104.14,158.76,102.7,158.77,101.25Z" style="fill:#a6a3a3"/><path d="M152.54,101.26h2.61c.16,1.43.33,2.85.49,4.28l-.06,4.34,0,4.36c0,1.87,0,3.73,0,5.6l-.59,2.43h-2.38c-.05-.83-.11-1.65-.16-2.48v-5.47c0-1.5,0-3,0-4.48l0-4.22Z" style="fill:#a6a3a3"/><path d="M140.08,101.28l2.61,0,0,4.34c0,1.42,0,2.83,0,4.25l0,3.85,0,6.11-.14,2.44-2.38,0c-.19-.81-.39-1.62-.59-2.43l0-5.6v-4.36c0-1.45,0-2.9,0-4.34Z" style="fill:#a6a3a3"/><path d="M146.3,101.27h2.62c0,1.45,0,2.9.07,4.36l0,4.21c0,1.5,0,3,0,4.49v5.47l-.17,2.48h-2.38c-.06-.83-.11-1.67-.17-2.5,0-1.82,0-3.63,0-5.45,0-1.5,0-3,0-4.51s0-2.79,0-4.19Z" style="fill:#a6a3a3"/><path d="M171.78,104.39c-2.08,0-4.28.13-3.55-3.1l3.63-.15C171.83,102.23,171.81,103.31,171.78,104.39Z" style="fill:#c5c5c5"/><path d="M139.6,119.85c.2.81.4,1.62.59,2.43l-3.83,0c0-.81.08-1.63.11-2.44Z" style="fill:#bdbdbd"/><path d="M161.26,122.29c.21-.81.41-1.63.61-2.44l3.14,0c0,.81.05,1.62.08,2.43Z" style="fill:#bdbdbd"/><path d="M155,122.28c.2-.81.39-1.62.59-2.43l3.14,0c0,.81.08,1.62.13,2.43Z" style="fill:#bdbdbd"/><path d="M148.8,122.27c.06-.83.11-1.65.17-2.48h3.52c0,.83.11,1.65.16,2.48Z" style="fill:#bdbdbd"/><path d="M146.25,119.78c.06.83.11,1.67.17,2.5l-3.85,0c0-.81.09-1.63.14-2.44Z" style="fill:#bdbdbd"/><path d="M132.06,101.19l0,.7-2.56,1.29-2.41,0-3,0-.25-.24c0-1.09,0-2.17,0-3.25l8.23-.41C132,99.91,132.05,100.55,132.06,101.19Z" style="fill:#a6a3a3"/><path d="M161.88,105.55c-.16-1.43-.33-2.85-.5-4.27l3.62,0c0,1.44,0,2.88,0,4.32Z" style="fill:#bdbdbd"/><path d="M149,105.62c0-1.46-.05-2.91-.07-4.36h3.62l-.06,4.36Z" style="fill:#bdbdbd"/><path d="M146.3,101.27c0,1.45-.05,2.91-.07,4.36l-3.51,0,0-4.34Z" style="fill:#bdbdbd"/><path d="M140.08,101.28c-.17,1.42-.34,2.85-.5,4.27l-3.1,0c0-1.44,0-2.88,0-4.32Z" style="fill:#bdbdbd"/><path d="M155.64,105.55c-.16-1.43-.33-2.85-.49-4.28l3.62,0c0,1.45,0,2.89,0,4.34Z" style="fill:#bdbdbd"/><path d="M182,106.08l3.61.09c0,1.66,0,3.32,0,5l-3.2-.17C182.23,109.35,182.1,107.72,182,106.08Z" style="fill:#bdbdbd"/><path d="M182.37,111l3.2.17c0,1.24,0,2.48,0,3.73l-3.61-.7C182.11,113.11,182.24,112.05,182.37,111Z" style="fill:#a6a3a3"/><path d="M103.43,103.06c2.53-.44,3.17.73,3.12,3.13-.12,5.57,0,11.15,0,16.73h-3.13Q103.45,113,103.43,103.06Z" style="fill:#cccccb"/><path d="M110.2,122.93c0-5.69.14-11.38,0-17.06,0-2.34.65-3.34,3-2.7q.09,9.89.17,19.77Z" style="fill:#dcdddc"/><path d="M120.31,122.93h-3.24q0-10,0-19.92h0l3.19,0h0Q120.31,113,120.31,122.93Z" style="fill:#dcdddc"/><path d="M124.09,103.16l3,0q0,9.9-.07,19.79l-3.15,0Q124,113,124.09,103.16Z" style="fill:#cccccb"/><path d="M117.09,103q0,10,0,19.92a2.26,2.26,0,0,1-.51-.08c-.43-1.37-.87-2.75-1.3-4.13L114,122.86a1.75,1.75,0,0,1-.51.08q-.09-9.89-.17-19.77l.28-.28Zm-3.61,7.23,1.8,2c.41-.7,1.14-1.39,1.14-2.08s-.76-1.36-1.18-2Z" style="fill:#a6a3a3"/><path d="M124.09,103.16Q124,113,123.9,122.9h-.24l-.24,0-1.32-4.14-1.3,4.16a4,4,0,0,1-.49,0q0-10,0-19.92l3.55-.09Zm-.22,7.16-1.7-2.15c-.44.66-1.2,1.31-1.21,2s.69,1.4,1.09,2.11Z" style="fill:#a6a3a3"/><path d="M127.05,122.93q0-9.89.07-19.79l2.41,0,.06,19.77Z" style="fill:#dcdddc"/><path d="M103.43,103.06q0,9.94,0,19.87l-2.55,0q0-9.95,0-19.87Z" style="fill:#dcdddc"/><path d="M114,122.86l1.31-4.13c.43,1.38.87,2.76,1.3,4.13Z" style="fill:#bdbdbd"/><path d="M107.1,122.85l1.32-4.12,1.29,4.15Z" style="fill:#bdbdbd"/><path d="M120.8,122.9l1.3-4.16,1.32,4.14Z" style="fill:#c5c5c5"/><path d="M123.84,102.92l-3.55.09h0l.15-3.37,3.36,0C123.81,100.75,123.82,101.83,123.84,102.92Z" style="fill:#717971"/><path d="M117.09,103l-3.54-.13c0-1.12,0-2.23,0-3.35H117l.12,3.47Z" style="fill:#717971"/><path d="M117.09,103,117,99.55l3.46.08-.15,3.37Z" style="fill:#a6a3a3"/><path d="M94,119.8l-3.13,0v-5.6l3.09-.53Z" style="fill:#d0d0d0"/><path d="M94,113.72l-3.09.53,0-4.36,3.16,0Z" style="fill:#bdbdbd"/><path d="M94,109.84l-3.16,0,.06-4.34,3.08.06C94,107,94,108.43,94,109.84Z" style="fill:#d0d0d0"/><path d="M68.66,105.52c0,1.46,0,2.93,0,4.4l-3.15.59c0-1.65,0-3.31,0-5Z" style="fill:#d0d0d0"/><path d="M65.49,110.51l3.15-.59c0,1.43,0,2.87,0,4.31l-3.23,0C65.46,113,65.48,111.76,65.49,110.51Z" style="fill:#b3b2b2"/><path d="M68.66,105.52l-3.19,0-.57-1.28,4.28,0C69,104.69,68.84,105.11,68.66,105.52Z" style="fill:#b3b2b2"/><path d="M74.88,119.85l-3.14,0c0-1.86,0-3.71,0-5.56l3.15,0Z" style="fill:#d0d0d0"/><path d="M74.88,114.25l-3.15,0c0-1.46,0-2.92,0-4.39h3.19Z" style="fill:#bdbdbd"/><path d="M74.91,109.89H71.72c0-1.43,0-2.87,0-4.3l3.12,0C74.88,107,74.9,108.44,74.91,109.89Z" style="fill:#d0d0d0"/><path d="M81.53,119.78l-3.54,0,0-6.11,3.5.63C81.52,116.15,81.53,118,81.53,119.78Z" style="fill:#d0d0d0"/><path d="M78,105.6l3.51,0,0,4.2-3.55,0Z" style="fill:#d0d0d0"/><path d="M78,109.85l3.55,0c0,1.5,0,3,0,4.5L78,113.7Z" style="fill:#bdbdbd"/><path d="M87.77,119.79H84.25v-5.47h3.52Z" style="fill:#d0d0d0"/><path d="M84.27,105.62h3.49c0,1.4,0,2.81,0,4.22H84.24Z" style="fill:#d0d0d0"/><path d="M84.24,109.84h3.54c0,1.49,0,3,0,4.48H84.25C84.25,112.82,84.25,111.33,84.24,109.84Z" style="fill:#bdbdbd"/><path d="M111,111.45c-1,.3-1.91.91-2.62.71-.54-.15-1.11-1.34-1.08-2s.81-1.3,1.27-2Z" style="fill:#bdbdbd"/><path d="M165,119.83l-3.14,0c0-1.86,0-3.73,0-5.6l3.13,0Z" style="fill:#d0d0d0"/><path d="M165,114.28l-3.13,0c0-1.45,0-2.9,0-4.36H165Z" style="fill:#bdbdbd"/><path d="M165,109.88h-3.17c0-1.45,0-2.89,0-4.34l3.1,0C165,107,165,108.45,165,109.88Z" style="fill:#d0d0d0"/><path d="M139.6,119.85l-3.13,0c0-1.84,0-3.68,0-5.53l3.16,0Z" style="fill:#d0d0d0"/><path d="M139.62,114.25l-3.16,0c0-1.47,0-2.94,0-4.41l3.18,0Z" style="fill:#bdbdbd"/><path d="M139.63,109.89l-3.18,0c0-1.43,0-2.85,0-4.28l3.11,0C139.6,107,139.61,108.44,139.63,109.89Z" style="fill:#d0d0d0"/><path d="M158.76,119.82l-3.14,0c0-1.87,0-3.73,0-5.6l3.11-.55Z" style="fill:#d0d0d0"/><path d="M158.72,113.7l-3.11.55c0-1.45,0-2.91,0-4.36l3.17,0Z" style="fill:#bdbdbd"/><path d="M158.76,109.86l-3.17,0c0-1.45,0-2.9,0-4.34l3.11,0C158.75,107,158.76,108.44,158.76,109.86Z" style="fill:#d0d0d0"/><path d="M152.49,119.79H149v-5.47h3.52Z" style="fill:#d0d0d0"/><path d="M149,105.62h3.49c0,1.4,0,2.81,0,4.22H149Z" style="fill:#d0d0d0"/><path d="M149,109.83h3.54c0,1.49,0,3,0,4.48H149C149,112.82,149,111.33,149,109.83Z" style="fill:#bdbdbd"/><path d="M146.25,119.78l-3.54,0,0-6.11,3.5.63Z" style="fill:#d0d0d0"/><path d="M142.72,105.6l3.51,0c0,1.4,0,2.8,0,4.2l-3.55,0C142.71,108.43,142.71,107,142.72,105.6Z" style="fill:#d0d0d0"/><path d="M142.7,109.85l3.55,0c0,1.5,0,3,0,4.5l-3.5-.63C142.73,112.42,142.72,111.14,142.7,109.85Z" style="fill:#bdbdbd"/><path d="M113.48,110.25l1.76-2.09c.42.68,1.17,1.36,1.18,2s-.73,1.38-1.14,2.08Z" style="fill:#bdbdbd"/><path d="M123.87,110.32l-1.82,2c-.4-.71-1.1-1.42-1.09-2.11s.77-1.33,1.21-2Z" style="fill:#c5c5c5"/></g><g id="adcdb2c8-7f47-45de-962f-b7b4c47a2b3b" data-name="Planes"><path d="M118.89,23.94c-.22.65-.72,1.33-.64,1.93.41,2.93.61,5.81-.77,8.57l-4.13.16c-.58-2.13-3-3.88-1.34-6.48q-.56-7.46-1.12-14.9L111,8.29,112,4.53,113.22,2h4.35c.43,1,.85,2,1.27,3Q118.87,14.48,118.89,23.94Z" style="fill:#952d2b"/><path d="M113.35,34.6l4.13-.16c.6,9.15,1.35,18.3,1.75,27.46.21,5.08-.16,10.19-.27,15.28l-2.31.27-.8-.24-.33-1.34-.76.07c-.13,4-1.11,8.08.51,12.12l-4-.08.17-.62a23.38,23.38,0,0,0,.46-2.61c.35-5.13.71-10.27.94-15.42.09-1.92-.25-3.87-.22-5.8.13-7.92.32-15.83.51-23.75C113.18,38.05,113.28,36.33,113.35,34.6Z" style="fill:#fff"/><path d="M100.83,87.22a22.18,22.18,0,0,0-1.45-3c-1.42-2.14-2.91-4.25-4.47-6.3-2.83-3.69-5.69-7.37-8.64-11a11.13,11.13,0,0,0-2.51-1.65c-.5-.32-1.4-.72-1.38-1,.3-4.59-4.69-5.84-5.92-9.54-.66-2-2.48-3.54-3.77-5.29l2.44-.17,2-.59a34.09,34.09,0,0,0,2,3c2.14,2.59,4.26,5.22,6.57,7.65,2.94,3.09,6.15,5.92,9.07,9a45.76,45.76,0,0,1,4.72,6.1c2.79,4.21,5.42,8.53,8.11,12.8l-2.7.79Z" style="fill:#ea6568"/><path d="M75.13,49.25l-2.44.17-8-2.84L67.46,45,61,39.33c-1.63-1.85-3.26-3.71-4.9-5.56a59.81,59.81,0,0,1-4.92-6.6,4.19,4.19,0,0,1,.41-3.84c.67-.77,2.45-.59,3.74-.83l1.32.7,0,0a39.89,39.89,0,0,0,2.12,3.65Q66.87,38.07,75.13,49.25Z" style="fill:#a52d2d"/><path d="M69.58,34.29c3.39.23,6.79.35,10.16.74a17.42,17.42,0,0,1,4.71,1.37c.57.24.84,1.17,1.25,1.79-.64.36-1.26,1-1.92,1.05-3.91.3-7.82.47-11.73.68-3.08-.65-3.84-3.28-4.86-5.69Z" style="fill:#af3739"/><path d="M96,23.15l-2.11-1-.2-1a49.81,49.81,0,0,1,5.61-2.26c3.64-1,7.34-1.71,11-2.55.24,2.17.49,4.33.77,6.8Z" style="fill:#952d2b"/><path d="M67.19,34.23c1,2.41,1.78,5,4.86,5.69.89,1.7,1.78,3.41,2.68,5.11l1.86,2.65.57,1-2,.59Q66.9,38,58.69,26.83a39.89,39.89,0,0,1-2.12-3.65l3.16,2.33a.23.23,0,0,0,.26.24.26.26,0,0,1,.31.06Q63.75,30,67.19,34.23Z" style="fill:#df4f4e"/><path d="M56.05,33.77c1.64,1.85,3.27,3.71,4.9,5.56-5.18-.09-10.44.69-16.24-.72,2.56-3.47,5.61-3.25,8.46-3.66A12.23,12.23,0,0,0,56.05,33.77Z" style="fill:#af3739"/><path d="M67.19,34.23Q63.74,30,60.3,25.81C64,26,66,28.28,67.66,31.18c.6,1.06,1.28,2.07,1.92,3.11Z" style="fill:#ea8a81"/><path d="M96,23.15h15.09c-.28-2.47-.53-4.63-.77-6.8.19-1,.39-2.08.59-3.13q.56,7.46,1.12,14.9c-.27-1.4-.54-2.8-1-5Z" style="fill:#af3739"/><path d="M76.59,47.68,74.73,45c2.34.49,5.16-.64,7.34,2.18Z" style="fill:#96655f"/><path d="M112,4.53,111,8.29Z" style="fill:#af3739"/><path d="M56.6,23.2l-1.32-.7Z" style="fill:#df4f4e"/><path d="M60,25.75a.23.23,0,0,1-.26-.24l.23,0Z" style="fill:#ea8a81"/><path d="M122.45,87.5a37.74,37.74,0,0,1,3-5.39c3.21-4.1,6.66-8,10-12,2.24-2.74,4.4-5.56,6.61-8.33.8-1,1.61-2,2.48-3,2.63-2.93,5.28-5.83,7.93-8.74l2.25,0,2.11.24a6.72,6.72,0,0,1-.64,1.71c-3.21,4.36-6.46,8.68-9.69,13-.91,1.23-1.76,2.5-2.72,3.7-2.46,3.06-5,6.09-7.45,9.14-2,2.43-4,4.81-5.89,7.34-.48.65-.3,1.78-.43,2.69l-4.85.25Z" style="fill:#2e65ae"/><path d="M156.82,50.19,154.71,50c3.86-5.49,7.65-11,11.59-16.46,2.46-3.4,5.13-6.64,7.7-10l0,.1,1-.44c3.1-.48,5,1.23,4,4-.68,2-2.11,3.67-3.27,5.46-.65,1-1.41,1.93-2.12,2.9-.89,1.09-1.77,2.18-3.05,3.78,1.72,0,2.92-.06,4.1,0,2.74.16,5.49.37,8.23.56-3,.11-6,.72-8.91.22-5.47-1-8.23,2.66-11.51,5.67l2.7,1.57Z" style="fill:#a52d2d"/><path d="M157.8,40.59l-14-.82-.1-1.36c4.88-4,11.1-2.65,16.77-3.47l1.88.06C161.81,37.65,160.81,39.94,157.8,40.59Z" style="fill:#af3739"/><path d="M119.92,14.44c-.23,2.18.75,2.89,2.92,3.22a83.16,83.16,0,0,1,11.34,2.61c1.85.55,2.72,1.84.15,3-4.13,0-8.27.07-12.4-.08-.87,0-2.44-.89-2.46-1.41A66.52,66.52,0,0,1,119.92,14.44Z" style="fill:#952d2b"/><path d="M157.8,40.59c3-.65,4-2.94,4.58-5.59l7.51-8.58L174,23.53c-2.57,3.32-5.24,6.56-7.7,10-3.94,5.43-7.73,11-11.59,16.46l-2.25,0c.21-.61.42-1.21.64-1.82l1.83-2.07Z" style="fill:#df4f4e"/><path d="M182.89,39.93c-2.74-.19-5.49-.4-8.23-.56-1.18-.07-2.38,0-4.1,0,1.28-1.6,2.16-2.69,3.05-3.78a79,79,0,0,1,9.11,1.5C184.89,37.69,184.82,38.59,182.89,39.93Z" style="fill:#af3739"/><path d="M169.89,26.42,162.38,35l-1.88-.06C162.52,30.88,164.8,27.1,169.89,26.42Z" style="fill:#ea8a81"/><path d="M119.92,14.44a66.52,66.52,0,0,0-.45,7.3c0,.52,1.59,1.37,2.46,1.41,4.13.15,8.27.07,12.4.08-2.8.2-5.6.44-8.41.57-2.34.11-4.68.1-7,.14q0-9.45,0-18.91Z" style="fill:#b46a62"/><path d="M154.93,46.1l-1.83,2.07h-5.38C150,45.45,152.64,46.41,154.93,46.1Z" style="fill:#af3739"/><path d="M110.3,16.35c0-.17,0-3.48,0-3.66,0-6.84,2.11-12.38,4.72-12.38s4.72,5.54,4.72,12.38c0,.32,0,.64,0,1" style="fill:#b46a62"/><ellipse cx="114.89" cy="11.86" rx="4.1" ry="11.86" style="fill:#962928"/></g><rect width="237.63" height="178.66" style="fill:none"/></g></g></svg>