<svg xmlns="http://www.w3.org/2000/svg" width="843" height="500" viewBox="0 0 843 500"><title>blob-space</title><g id="be613450-3e43-4820-99a6-d4b2bb5b298b" data-name="Layer 2"><g id="f03dfb78-65b7-4538-870a-f7ab42a90204" data-name="Layer 1"><path id="b3eecf99-ecb8-4f8c-8613-3dece750fe04" data-name="Background" d="M166,44.14C76.61,35.22,46.68,85.51,50.89,124.19s42.58,91.87-1.58,144.52S-38.47,411.09,57.2,451.92s193.68,68.4,254.4,29c54.67-35.46,151.55-15.73,237.68-12.07,126.16,5.38,202.77,49.76,251.13-20.08C831.61,403.72,769.88,314,805.7,266,891.15,151.6,822,.08,677.45,43.6,615.22,62.33,516.76-2.58,412,.08,284.8,3.3,295.31,57,166,44.14Z" style="fill:#1a2030"/><g id="a3a791ee-36a7-4e70-b770-204dc843a998" data-name="Stars" style="opacity:0.5"><path d="M181.82,174a1.5,1.5,0,0,0,0-3,1.5,1.5,0,0,0,0,3Z" style="fill:#fff"/><path d="M342.08,164a1.5,1.5,0,0,0,0-3,1.5,1.5,0,0,0,0,3Z" style="fill:#fff"/><path d="M325.05,245.26a1.5,1.5,0,0,0,0-3,1.5,1.5,0,0,0,0,3Z" style="fill:#fff"/><path d="M395.82,97.06a1.5,1.5,0,0,0,0-3,1.5,1.5,0,0,0,0,3Z" style="fill:#fff"/><path d="M691.24,263.06a1.5,1.5,0,0,0,0-3,1.5,1.5,0,0,0,0,3Z" style="fill:#fff"/><path d="M498.47,361.39a1.5,1.5,0,0,0,0-3,1.5,1.5,0,0,0,0,3Z" style="fill:#fff"/><path d="M599.89,225.9a1.5,1.5,0,0,0,0-3,1.5,1.5,0,0,0,0,3Z" style="fill:#fff"/><path d="M700.53,177.13a1.5,1.5,0,0,0,0-3,1.5,1.5,0,0,0,0,3Z" style="fill:#fff"/><path d="M738.47,357.52a1.5,1.5,0,0,0,0-3,1.5,1.5,0,0,0,0,3Z" style="fill:#fff"/><path d="M603.76,399.32a1.5,1.5,0,0,0,0-3,1.5,1.5,0,0,0,0,3Z" style="fill:#fff"/><path d="M571.24,324.23a1.5,1.5,0,0,0,0-3,1.5,1.5,0,0,0,0,3Z" style="fill:#fff"/><path d="M345.18,297.13a1.5,1.5,0,0,0,0-3,1.5,1.5,0,0,0,0,3Z" style="fill:#fff"/><path d="M480.66,206.55a1.5,1.5,0,0,0,0-3,1.5,1.5,0,0,0,0,3Z" style="fill:#fff"/><path d="M183.37,317.26a1.5,1.5,0,0,0,0-3,1.5,1.5,0,0,0,0,3Z" style="fill:#fff"/><path d="M146.21,379.19a1.5,1.5,0,0,0,0-3,1.5,1.5,0,0,0,0,3Z" style="fill:#fff"/><path d="M159.37,414.81a1.5,1.5,0,0,0,0-3,1.5,1.5,0,0,0,0,3Z" style="fill:#fff"/><path d="M241.85,471a1.5,1.5,0,0,0,0-3,1.5,1.5,0,0,0,0,3Z" style="fill:#fff"/><path d="M18.47,383.84a1.5,1.5,0,0,0,0-3,1.5,1.5,0,0,0,0,3Z" style="fill:#fff"/><path d="M146,78.13a1.5,1.5,0,0,0,0-3,1.5,1.5,0,0,0,0,3Z" style="fill:#fff"/><path d="M379.24,32.61a1.5,1.5,0,0,0,0-3,1.5,1.5,0,0,0,0,3Z" style="fill:#fff"/><path d="M198.08,252.23a1.5,1.5,0,0,0,0-3,1.5,1.5,0,0,0,0,3Z" style="fill:#fff"/><path d="M455.11,252.23a1.5,1.5,0,0,0,0-3,1.5,1.5,0,0,0,0,3Z" style="fill:#fff"/><path d="M433.43,363.71a1.5,1.5,0,0,0,0-3,1.5,1.5,0,0,0,0,3Z" style="fill:#fff"/><path d="M288.66,375.32a1.5,1.5,0,0,0,0-3,1.5,1.5,0,0,0,0,3Z" style="fill:#fff"/><path d="M566.6,241.39a1.5,1.5,0,0,0,0-3,1.5,1.5,0,0,0,0,3Z" style="fill:#fff"/><path d="M573.56,397a1.5,1.5,0,0,0,0-3,1.5,1.5,0,0,0,0,3Z" style="fill:#fff"/><path d="M747,391.58a1.5,1.5,0,0,0,0-3,1.5,1.5,0,0,0,0,3Z" style="fill:#fff"/><path d="M718.47,450.61a1.5,1.5,0,0,0,0-3,1.5,1.5,0,0,0,0,3Z" style="fill:#fff"/><path d="M487.63,401.64a1.5,1.5,0,0,0,0-3,1.5,1.5,0,0,0,0,3Z" style="fill:#fff"/><path d="M334.34,412.48a1.5,1.5,0,0,0,0-3,1.5,1.5,0,0,0,0,3Z" style="fill:#fff"/><path d="M441.18,201.13a1.5,1.5,0,0,0,0-3,1.5,1.5,0,0,0,0,3Z" style="fill:#fff"/><path d="M652.82,122.5l.77-.78a1.5,1.5,0,0,0-2.12-2.12l-.77.77a1.5,1.5,0,1,0,2.12,2.13Z" style="fill:#fff"/><path d="M690.47,97.39a1.5,1.5,0,0,0,0-3,1.5,1.5,0,0,0,0,3Z" style="fill:#fff"/><path d="M795.76,109.77a1.5,1.5,0,0,0,0-3,1.5,1.5,0,0,0,0,3Z" style="fill:#fff"/><path d="M782.6,191.06a1.5,1.5,0,0,0,0-3,1.5,1.5,0,0,0,0,3Z" style="fill:#fff"/><path d="M674.21,235.19a1.5,1.5,0,0,0,0-3,1.5,1.5,0,0,0,0,3Z" style="fill:#fff"/><path d="M751.63,281.64a1.5,1.5,0,0,0,0-3,1.5,1.5,0,0,0,0,3Z" style="fill:#fff"/><path d="M562.72,91.19a1.5,1.5,0,0,0,0-3,1.5,1.5,0,0,0,0,3Z" style="fill:#fff"/><path d="M479.11,52.48a1.5,1.5,0,0,0,0-3,1.5,1.5,0,0,0,0,3Z" style="fill:#fff"/><path d="M102.08,209.64a1.5,1.5,0,0,0,0-3,1.5,1.5,0,0,0,0,3Z" style="fill:#fff"/><path d="M95.11,322.68a1.5,1.5,0,0,0,0-3,1.5,1.5,0,0,0,0,3Z" style="fill:#fff"/><path d="M284.31,91.52a1.5,1.5,0,0,0,0-3,1.5,1.5,0,0,0,0,3Z" style="fill:#fff"/></g></g></g></svg>