<svg xmlns="http://www.w3.org/2000/svg" width="740" height="527" viewBox="0 0 740 527"><title>learner-trio-2_1</title><g id="a7b2eed7-ec5e-4441-9e75-21c50fc36337" data-name="Layer 2"><g id="b7757ce9-431d-430c-b4ae-499256940dde" data-name="Illustrations"><g id="f48582f4-7099-4e1e-9f25-99831863820d" data-name="Devices 2"><ellipse cx="377.5" cy="452.96" rx="285" ry="16.52" style="opacity:0.06"/><polygon points="303 357.82 274.68 444.47 274.68 452.91 391.85 452.91 391.85 444.54 366.74 357.82 303 357.82" style="fill:#2a3768"/><rect x="138.18" y="86.57" width="390.16" height="274.91" rx="7.43" style="fill:#232d5e"/><rect x="151.7" y="102.02" width="363.12" height="244.01" style="fill:#2a3768"/><polygon points="213.37 346.03 514.82 346.03 514.82 102.02 359.9 102.02 213.37 346.03" style="fill:#3d4f7f"/><rect x="274.93" y="444.51" width="117.23" height="8.55" style="fill:#232d5e"/><circle cx="333.16" cy="95.06" r="3.86" style="fill:#2a3768"/><rect x="382.69" y="246.23" width="229.57" height="183.78" rx="11.15" transform="translate(835.6 -159.35) rotate(90)" style="fill:#232d5e"/><rect x="403.09" y="256.46" width="188.77" height="152.64" rx="5.98" transform="translate(830.25 -164.7) rotate(90)" style="fill:#2a3768"/><circle cx="497.48" cy="440.08" r="6.41" style="fill:#2a3768"/><path d="M421.16,385.14v38.37a3.64,3.64,0,0,0,3.65,3.65H570.14a3.65,3.65,0,0,0,3.66-3.65V242.05a3.65,3.65,0,0,0-3.66-3.65H509.38Z" style="fill:#3d4f7f"/><rect x="178.4" y="305.5" width="79.37" height="147.39" rx="12.98" style="fill:#232d5e"/><path d="M248.17,445.21l-60.1,0a2.89,2.89,0,0,1-2.89-2.89l.09-129.16a2.84,2.84,0,0,1,2.84-2.84H196l0,4.06a3.32,3.32,0,0,0,3.34,3.35l36.52-.27a3.3,3.3,0,0,0,3.28-3.4L239,310.3h9.29a2.86,2.86,0,0,1,2.85,2.85l-.09,129.16A2.91,2.91,0,0,1,248.17,445.21Z" style="fill:#2a3768"/><path d="M248.17,445.21l-60.1,0a2.89,2.89,0,0,1-2.89-2.89l0-53.32,45.16-71.49,5.45,0a3.3,3.3,0,0,0,3.28-3.4L239,310.3h9.29a2.86,2.86,0,0,1,2.85,2.85l-.09,129.16A2.91,2.91,0,0,1,248.17,445.21Z" style="fill:#3d4f7f"/></g><rect width="740" height="527" style="fill:none"/></g></g></svg>