<?xml version="1.0" encoding="UTF-8" standalone="no"?>
<!DOCTYPE svg PUBLIC "-//W3C//DTD SVG 1.1//EN" "http://www.w3.org/Graphics/SVG/1.1/DTD/svg11.dtd">
<svg width="100%" height="100%" viewBox="0 0 50 300" version="1.1" xmlns="http://www.w3.org/2000/svg" xmlns:xlink="http://www.w3.org/1999/xlink" xml:space="preserve" xmlns:serif="http://www.serif.com/" style="fill-rule:evenodd;clip-rule:evenodd;stroke-linejoin:round;stroke-miterlimit:1.41421;">
    <g transform="matrix(1,0,0,1,-4604,-17685)">
        <g id="Layer-1" serif:id="Layer 1" transform="matrix(5.55556,0,0,5.55556,0,0)">
            <g transform="matrix(1,0,0,1,834.135,3188.02)">
                <path d="M0,18.293L-1.114,18.307L-2.401,18.365C-2.951,18.365 -3.317,18.187 -3.501,17.83C-3.501,17.541 -3.465,17.317 -3.392,17.158C-3.32,16.999 -3.168,16.918 -2.936,16.918L-2.097,16.918L-2.04,16.528L-2.242,10.236L-2.083,3.64C-2.083,2.532 -2.055,2.406 -2.151,1.413L-3.302,1.413C-3.654,1.413 -3.912,1.358 -4.075,1.246C-4.24,1.136 -4.321,0.926 -4.321,0.617C-4.321,0.154 -3.786,-0.072 -2.716,-0.063L-2.614,-0.063C-0.078,-0.063 -0.283,-0.017 -0.283,0.658C-0.283,0.765 -0.467,1.53 -0.467,1.53C-0.39,2.254 -0.463,2.146 -0.463,3.12L-0.622,8.775L-0.405,15.068L-0.405,15.949C-0.405,16.123 -0.439,16.388 -0.506,16.745L0.752,16.745C1.562,16.745 1.967,16.991 1.967,17.483C1.967,17.705 1.897,17.893 1.757,18.047C1.617,18.201 1.461,18.279 1.287,18.279L0,18.293Z" style="fill:white;fill-rule:nonzero;"/>
            </g>
            <g transform="matrix(1,0,0,1,834.135,3188.02)">
                <path d="M0,18.293L-1.114,18.307L-2.401,18.365C-2.951,18.365 -3.317,18.187 -3.501,17.83C-3.501,17.541 -3.465,17.317 -3.392,17.158C-3.32,16.999 -3.168,16.918 -2.936,16.918L-2.097,16.918L-2.04,16.528L-2.242,10.236L-2.083,3.64C-2.083,2.532 -2.055,2.406 -2.151,1.413L-3.302,1.413C-3.654,1.413 -3.912,1.358 -4.075,1.246C-4.24,1.136 -4.321,0.926 -4.321,0.617C-4.321,0.154 -3.786,-0.072 -2.716,-0.063L-2.614,-0.063C-0.078,-0.063 -0.283,-0.017 -0.283,0.658C-0.283,0.765 -0.467,1.53 -0.467,1.53C-0.39,2.254 -0.463,2.146 -0.463,3.12L-0.622,8.775L-0.405,15.068L-0.405,15.949C-0.405,16.123 -0.439,16.388 -0.506,16.745L0.752,16.745C1.562,16.745 1.967,16.991 1.967,17.483C1.967,17.705 1.897,17.893 1.757,18.047C1.617,18.201 1.461,18.279 1.287,18.279L0,18.293Z" style="fill:white;fill-rule:nonzero;"/>
            </g>
            <g transform="matrix(1,0,0,1,834.135,3217.29)">
                <path d="M0,18.293L-1.114,18.307L-2.401,18.365C-2.951,18.365 -3.317,18.187 -3.501,17.83C-3.501,17.541 -3.465,17.317 -3.392,17.158C-3.32,16.999 -3.168,16.918 -2.936,16.918L-2.097,16.918L-2.04,16.528L-2.242,10.236L-2.083,3.64C-2.083,2.532 -2.055,2.406 -2.151,1.413L-3.302,1.413C-3.654,1.413 -3.912,1.358 -4.075,1.246C-4.24,1.136 -4.321,0.926 -4.321,0.617C-4.321,0.154 -3.786,-0.072 -2.716,-0.063L-2.614,-0.063C-0.078,-0.063 -0.283,-0.017 -0.283,0.658C-0.283,0.765 -0.467,1.53 -0.467,1.53C-0.39,2.254 -0.463,2.146 -0.463,3.12L-0.622,8.775L-0.405,15.068L-0.405,15.949C-0.405,16.123 -0.439,16.388 -0.506,16.745L0.752,16.745C1.562,16.745 1.967,16.991 1.967,17.483C1.967,17.705 1.897,17.893 1.757,18.047C1.617,18.201 1.461,18.279 1.287,18.279L0,18.293Z" style="fill:rgb(35,45,94);fill-rule:nonzero;"/>
            </g>
            <g transform="matrix(1,0,0,1,832.711,3184.06)">
                <path d="M0,2.199C-0.304,2.199 -0.555,2.09 -0.752,1.874C-0.95,1.657 -1.049,1.406 -1.049,1.121C-1.049,0.837 -0.938,0.579 -0.716,0.347C-0.495,0.116 -0.239,0 0.05,0C0.34,0 0.59,0.116 0.803,0.347C1.014,0.579 1.121,0.847 1.121,1.15C1.121,1.454 1.01,1.705 0.788,1.902C0.566,2.1 0.304,2.199 0,2.199" style="fill:white;fill-rule:nonzero;"/>
            </g>
            <g transform="matrix(1,0,0,1,832.711,3184.06)">
                <path d="M0,2.199C-0.304,2.199 -0.555,2.09 -0.752,1.874C-0.95,1.657 -1.049,1.406 -1.049,1.121C-1.049,0.837 -0.938,0.579 -0.716,0.347C-0.495,0.116 -0.239,0 0.05,0C0.34,0 0.59,0.116 0.803,0.347C1.014,0.579 1.121,0.847 1.121,1.15C1.121,1.454 1.01,1.705 0.788,1.902C0.566,2.1 0.304,2.199 0,2.199" style="fill:white;fill-rule:nonzero;"/>
            </g>
            <g transform="matrix(1,0,0,1,832.711,3213.32)">
                <path d="M0,2.199C-0.304,2.199 -0.555,2.09 -0.752,1.874C-0.95,1.657 -1.049,1.406 -1.049,1.121C-1.049,0.837 -0.938,0.579 -0.716,0.347C-0.495,0.116 -0.239,0 0.05,0C0.34,0 0.59,0.116 0.803,0.347C1.014,0.579 1.121,0.847 1.121,1.15C1.121,1.454 1.01,1.705 0.788,1.902C0.566,2.1 0.304,2.199 0,2.199" style="fill:rgb(35,45,94);fill-rule:nonzero;"/>
            </g>
        </g>
    </g>
</svg>
