<svg viewBox="0 0 69 240" xmlns="http://www.w3.org/2000/svg" fill-rule="evenodd" clip-rule="evenodd" stroke-linejoin="round" stroke-miterlimit="1.414"><path d="M55.092 222.408c8.69 0 13.04 2.633 13.04 7.912 0 2.379-.75 4.396-2.25 6.054-1.5 1.65-3.18 2.484-5.05 2.484l-13.8.154-11.95.154-13.82.62c-5.89 0-9.83-1.912-11.79-5.741 0-3.1.39-5.508 1.16-7.212.78-1.71 2.41-2.567 4.89-2.567h9.01l.61-4.192-2.17-67.504 1.71-70.771c0-11.895.3-13.241-.74-23.9h-12.34c-3.78 0-6.55-.591-8.3-1.783-1.76-1.187-2.64-3.442-2.64-6.75 0-4.967 5.75-7.396 17.23-7.296h1.09c27.21 0 25.02.492 25.02 7.734 0 1.145-1.99 9.358-1.99 9.358.83 7.758.05 6.6.05 17.054l-1.7 60.679 2.32 67.513v9.458c0 1.867-.36 4.712-1.08 8.542h13.49zM31.752 23.786c-3.26 0-5.95-1.167-8.07-3.488-2.12-2.333-3.18-5.025-3.18-8.075 0-3.054 1.18-5.821 3.56-8.304 2.38-2.483 5.13-3.725 8.23-3.725 3.11 0 5.79 1.242 8.07 3.725 2.27 2.483 3.42 5.354 3.42 8.617 0 3.258-1.2 5.95-3.58 8.066-2.38 2.12-5.19 3.184-8.45 3.184z" fill="#fff" fill-rule="nonzero"/></svg>